%TF.GenerationSoftware,KiCad,Pcbnew,10.0.6*%
%TF.CreationDate,2026-09-28T21:22:06+03:00*%
%TF.ProjectId,Li-Po_Battery_Charger,4c692d50-6f5f-4426-9174-746572795f43,rev?*%
%TF.SameCoordinates,Original*%
%TF.FileFunction,Copper,L2,Bot*%
%TF.FilePolarity,Positive*%
%FSLAX46Y46*%
G04 Gerber Fmt 4.6, Leading zero omitted, Abs format (unit mm)*
G04 Created by KiCad (PCBNEW 10.0.6) date 2026-09-28 21:22:06*
%MOMM*%
%LPD*%
G01*
G04 APERTURE LIST*
%TA.AperFunction,ComponentPad*%
%ADD10C,0.610000*%
%TD*%
%TA.AperFunction,ComponentPad*%
%ADD11C,0.650000*%
%TD*%
%TA.AperFunction,ComponentPad*%
%ADD12O,2.100000X1.000000*%
%TD*%
%TA.AperFunction,ComponentPad*%
%ADD13O,1.800000X1.000000*%
%TD*%
%TA.AperFunction,ComponentPad*%
%ADD14R,1.400000X1.500000*%
%TD*%
%TA.AperFunction,ComponentPad*%
%ADD15C,1.400000*%
%TD*%
%TA.AperFunction,ViaPad*%
%ADD16C,0.600000*%
%TD*%
%TA.AperFunction,ViaPad*%
%ADD17C,0.280000*%
%TD*%
%TA.AperFunction,ViaPad*%
%ADD18C,0.450000*%
%TD*%
%TA.AperFunction,ViaPad*%
%ADD19C,0.250000*%
%TD*%
%TA.AperFunction,Conductor*%
%ADD20C,0.200000*%
%TD*%
%TA.AperFunction,Conductor*%
%ADD21C,0.127000*%
%TD*%
G04 APERTURE END LIST*
D10*
%TO.P,U2,*%
%TO.N,GND*%
X195400000Y-55075000D03*
X194400000Y-55075000D03*
X195400000Y-56075000D03*
X194400000Y-56075000D03*
%TD*%
D11*
%TO.P,USBC,*%
%TO.N,*%
X179250000Y-60975000D03*
X179250000Y-66755000D03*
D12*
%TO.P,USBC,1,SHELL_1*%
%TO.N,GND*%
X179750000Y-59545000D03*
%TO.P,USBC,2,SHELL_2*%
X179750000Y-68185000D03*
D13*
%TO.P,USBC,3,SHELL_3*%
X175600000Y-59545000D03*
%TO.P,USBC,4,SHELL_4*%
X175600000Y-68185000D03*
%TD*%
D14*
%TO.P,BAT,1,1_1*%
%TO.N,/B-*%
X212425000Y-64775000D03*
D15*
%TO.P,BAT,2,2_2*%
%TO.N,/VBAT*%
X212425000Y-62775000D03*
%TD*%
D16*
%TO.N,GND*%
X187625000Y-69900000D03*
X197485714Y-73700000D03*
X194039854Y-64314854D03*
X193700000Y-71425000D03*
X189125000Y-55250000D03*
X179775000Y-55150000D03*
X186375000Y-63875000D03*
X186125000Y-56200000D03*
X193975000Y-61025000D03*
%TO.N,/VSYS*%
X186073000Y-67300000D03*
D17*
X190500000Y-67900000D03*
D18*
%TO.N,/VPCC*%
X191723000Y-69000000D03*
D16*
X190000000Y-69600000D03*
%TO.N,/VBAT*%
X190123000Y-63300000D03*
X188500000Y-63125000D03*
%TO.N,/B-*%
X203450000Y-61675000D03*
X203475000Y-65500000D03*
D19*
%TO.N,/PROG2*%
X193050000Y-70670000D03*
X193650000Y-72150000D03*
D16*
%TO.N,/STAT2*%
X197500000Y-66700000D03*
X195525000Y-66900000D03*
D17*
%TO.N,/PROG3*%
X192800000Y-64400000D03*
D16*
X194775000Y-62775000D03*
%TO.N,/PROG1*%
X191300000Y-62300000D03*
D17*
X192275000Y-64275000D03*
D16*
%TO.N,/CE*%
X190400000Y-61400000D03*
X190150000Y-64300000D03*
%TO.N,/3.3V*%
X194200000Y-58850000D03*
X196237500Y-58237500D03*
%TO.N,/CSI*%
X206712500Y-67787500D03*
X203250000Y-69725000D03*
%TO.N,/OC*%
X206200000Y-67000000D03*
X205802000Y-65475000D03*
%TD*%
%TO.N,GND*%
D20*
X187625000Y-69900000D02*
X187625000Y-66475000D01*
X186100000Y-57775000D02*
X186375000Y-58050000D01*
X194100000Y-64254708D02*
X194100000Y-61800000D01*
X186325000Y-57450000D02*
X189000000Y-57450000D01*
X186125000Y-57250000D02*
X186325000Y-57450000D01*
X186375000Y-58050000D02*
X186375000Y-63875000D01*
X179775000Y-57600000D02*
X179950000Y-57775000D01*
X179950000Y-57775000D02*
X186100000Y-57775000D01*
X194100000Y-61800000D02*
X193975000Y-61675000D01*
X189000000Y-57450000D02*
X189125000Y-57325000D01*
X193975000Y-61675000D02*
X193975000Y-61025000D01*
X196985714Y-73200000D02*
X195300000Y-73200000D01*
X194925000Y-71425000D02*
X193700000Y-71425000D01*
X194765000Y-71942100D02*
X194842105Y-71942105D01*
X186125000Y-56200000D02*
X186125000Y-57250000D01*
X187625000Y-66475000D02*
X186375000Y-65225000D01*
X194039854Y-64314854D02*
X194100000Y-64254708D01*
X195300000Y-73200000D02*
X195075000Y-72975000D01*
X195075000Y-72975000D02*
X195075000Y-71575000D01*
X195075000Y-71575000D02*
X194925000Y-71425000D01*
X179775000Y-55150000D02*
X179775000Y-57600000D01*
X186375000Y-65225000D02*
X186375000Y-63875000D01*
X189125000Y-57325000D02*
X189125000Y-55250000D01*
X197485714Y-73700000D02*
X196985714Y-73200000D01*
%TO.N,/VSYS*%
X189000000Y-67900000D02*
X190500000Y-67900000D01*
X188800000Y-68100000D02*
X189000000Y-67900000D01*
X186073000Y-67300000D02*
X186073000Y-70598000D01*
X188800000Y-70650000D02*
X188800000Y-68100000D01*
X188675000Y-70775000D02*
X188800000Y-70650000D01*
X186073000Y-70598000D02*
X186250000Y-70775000D01*
X186250000Y-70775000D02*
X188675000Y-70775000D01*
%TO.N,/VPCC*%
D21*
X191725000Y-69002000D02*
X191725000Y-69525000D01*
X191725000Y-69525000D02*
X191650000Y-69600000D01*
X191723000Y-69000000D02*
X191725000Y-69002000D01*
X191650000Y-69600000D02*
X190000000Y-69600000D01*
%TO.N,/VBAT*%
D20*
X188525000Y-63100000D02*
X188500000Y-63125000D01*
X189425000Y-63300000D02*
X189225000Y-63100000D01*
X189225000Y-63100000D02*
X188525000Y-63100000D01*
X190123000Y-63300000D02*
X189425000Y-63300000D01*
%TO.N,/B-*%
X203475000Y-61700000D02*
X203475000Y-65500000D01*
X203450000Y-61675000D02*
X203475000Y-61700000D01*
%TO.N,/PROG2*%
X193050000Y-71750000D02*
X193050000Y-70675000D01*
X193650000Y-72150000D02*
X193450000Y-72150000D01*
X193450000Y-72150000D02*
X193050000Y-71750000D01*
%TO.N,/STAT2*%
X196625000Y-66700000D02*
X196400000Y-66925000D01*
X197500000Y-66700000D02*
X196625000Y-66700000D01*
X196400000Y-66925000D02*
X195550000Y-66925000D01*
X195550000Y-66925000D02*
X195525000Y-66900000D01*
%TO.N,/PROG3*%
X192925000Y-65200000D02*
X192800000Y-65075000D01*
X192800000Y-65075000D02*
X192800000Y-64400000D01*
X194775000Y-62775000D02*
X194900000Y-62900000D01*
X194900000Y-65050000D02*
X194750000Y-65200000D01*
X194750000Y-65200000D02*
X192925000Y-65200000D01*
X194900000Y-62900000D02*
X194900000Y-65050000D01*
%TO.N,/PROG1*%
X192075000Y-62300000D02*
X192300000Y-62525000D01*
X191300000Y-62300000D02*
X192075000Y-62300000D01*
X192300000Y-62525000D02*
X192300000Y-64300000D01*
%TO.N,/CE*%
X190650000Y-64100000D02*
X190450000Y-64300000D01*
X190400000Y-61400000D02*
X190650000Y-61650000D01*
X190450000Y-64300000D02*
X190150000Y-64300000D01*
X190650000Y-61650000D02*
X190650000Y-64100000D01*
%TO.N,/3.3V*%
X196237500Y-58237500D02*
X196225000Y-58225000D01*
X194900000Y-58850000D02*
X194200000Y-58850000D01*
X196225000Y-58225000D02*
X195525000Y-58225000D01*
X195525000Y-58225000D02*
X194900000Y-58850000D01*
%TO.N,/CSI*%
X203250000Y-68075000D02*
X203537500Y-67787500D01*
X203537500Y-67787500D02*
X206712500Y-67787500D01*
X203250000Y-69725000D02*
X203250000Y-68075000D01*
%TO.N,/OC*%
X205802000Y-65475000D02*
X205802000Y-66102000D01*
X206200000Y-66500000D02*
X206200000Y-67000000D01*
X205802000Y-66102000D02*
X206200000Y-66500000D01*
%TD*%
%TA.AperFunction,Conductor*%
%TO.N,GND*%
G36*
X218235130Y-51690688D02*
G01*
X218249500Y-51725329D01*
X218249500Y-74823024D01*
X218235148Y-74857672D01*
X218200500Y-74872024D01*
X218200422Y-74872024D01*
X173323434Y-74800373D01*
X173288808Y-74785966D01*
X173274512Y-74751461D01*
X173272548Y-73661280D01*
X173270687Y-72628394D01*
X174197500Y-72628394D01*
X174197500Y-72821605D01*
X174227724Y-73012437D01*
X174227725Y-73012440D01*
X174287430Y-73196195D01*
X174375149Y-73368352D01*
X174375151Y-73368355D01*
X174488716Y-73524664D01*
X174488720Y-73524669D01*
X174625331Y-73661280D01*
X174625335Y-73661283D01*
X174625337Y-73661285D01*
X174719679Y-73729828D01*
X174747234Y-73749848D01*
X174781650Y-73774852D01*
X174953803Y-73862569D01*
X175137560Y-73922275D01*
X175328394Y-73952500D01*
X175328395Y-73952500D01*
X175521605Y-73952500D01*
X175521606Y-73952500D01*
X175712440Y-73922275D01*
X175896197Y-73862569D01*
X176068350Y-73774852D01*
X176224663Y-73661285D01*
X176224666Y-73661281D01*
X176224669Y-73661280D01*
X176361280Y-73524669D01*
X176361281Y-73524666D01*
X176361285Y-73524663D01*
X176474852Y-73368350D01*
X176562569Y-73196197D01*
X176622275Y-73012440D01*
X176652500Y-72821606D01*
X176652500Y-72628394D01*
X176648540Y-72603394D01*
X214847500Y-72603394D01*
X214847500Y-72796606D01*
X214851460Y-72821606D01*
X214877724Y-72987437D01*
X214877725Y-72987440D01*
X214937430Y-73171195D01*
X215025149Y-73343352D01*
X215025151Y-73343355D01*
X215138716Y-73499664D01*
X215138720Y-73499669D01*
X215275331Y-73636280D01*
X215275335Y-73636283D01*
X215275337Y-73636285D01*
X215431650Y-73749852D01*
X215603803Y-73837569D01*
X215787560Y-73897275D01*
X215978394Y-73927500D01*
X215978395Y-73927500D01*
X216171605Y-73927500D01*
X216171606Y-73927500D01*
X216362440Y-73897275D01*
X216546197Y-73837569D01*
X216718350Y-73749852D01*
X216874663Y-73636285D01*
X216874666Y-73636281D01*
X216874669Y-73636280D01*
X217011280Y-73499669D01*
X217011281Y-73499666D01*
X217011285Y-73499663D01*
X217124852Y-73343350D01*
X217212569Y-73171197D01*
X217272275Y-72987440D01*
X217302500Y-72796606D01*
X217302500Y-72603394D01*
X217272275Y-72412560D01*
X217212569Y-72228803D01*
X217124852Y-72056650D01*
X217101394Y-72024363D01*
X217036114Y-71934512D01*
X217011285Y-71900337D01*
X217011283Y-71900335D01*
X217011280Y-71900331D01*
X216874669Y-71763720D01*
X216874664Y-71763716D01*
X216718355Y-71650151D01*
X216718352Y-71650149D01*
X216546195Y-71562430D01*
X216362440Y-71502725D01*
X216362437Y-71502724D01*
X216215842Y-71479506D01*
X216171606Y-71472500D01*
X215978394Y-71472500D01*
X215942482Y-71478187D01*
X215787562Y-71502724D01*
X215787559Y-71502725D01*
X215603804Y-71562430D01*
X215431647Y-71650149D01*
X215431644Y-71650151D01*
X215275335Y-71763716D01*
X215138716Y-71900335D01*
X215025151Y-72056644D01*
X215025149Y-72056647D01*
X214937430Y-72228804D01*
X214877725Y-72412559D01*
X214877724Y-72412562D01*
X214867756Y-72475499D01*
X214847500Y-72603394D01*
X176648540Y-72603394D01*
X176622275Y-72437560D01*
X176562569Y-72253803D01*
X176474852Y-72081650D01*
X176456686Y-72056647D01*
X176429828Y-72019679D01*
X176361285Y-71925337D01*
X176361283Y-71925335D01*
X176361280Y-71925331D01*
X176224669Y-71788720D01*
X176224664Y-71788716D01*
X176190254Y-71763716D01*
X176177491Y-71754443D01*
X176068355Y-71675151D01*
X176068352Y-71675149D01*
X175896195Y-71587430D01*
X175712440Y-71527725D01*
X175712437Y-71527724D01*
X175565842Y-71504506D01*
X175521606Y-71497500D01*
X175328394Y-71497500D01*
X175292482Y-71503187D01*
X175137562Y-71527724D01*
X175137559Y-71527725D01*
X174953804Y-71587430D01*
X174781647Y-71675149D01*
X174781644Y-71675151D01*
X174625335Y-71788716D01*
X174488716Y-71925335D01*
X174375151Y-72081644D01*
X174375149Y-72081647D01*
X174287430Y-72253804D01*
X174227725Y-72437559D01*
X174227724Y-72437562D01*
X174197500Y-72628394D01*
X173270687Y-72628394D01*
X173259979Y-66685813D01*
X178724500Y-66685813D01*
X178724500Y-66824186D01*
X178760311Y-66957834D01*
X178760312Y-66957838D01*
X178822698Y-67065892D01*
X178829495Y-67077665D01*
X178927335Y-67175505D01*
X178949776Y-67188461D01*
X179047161Y-67244687D01*
X179047163Y-67244687D01*
X179047164Y-67244688D01*
X179151513Y-67272648D01*
X179180813Y-67280499D01*
X179180814Y-67280500D01*
X179180817Y-67280500D01*
X179319186Y-67280500D01*
X179319186Y-67280499D01*
X179452836Y-67244688D01*
X179471167Y-67234105D01*
X179471169Y-67234104D01*
X185572500Y-67234104D01*
X185572500Y-67365895D01*
X185606607Y-67493184D01*
X185606608Y-67493188D01*
X185672500Y-67607314D01*
X185758148Y-67692962D01*
X185772500Y-67727610D01*
X185772500Y-70637563D01*
X185792979Y-70713989D01*
X185792979Y-70713991D01*
X185823000Y-70765988D01*
X185823001Y-70765989D01*
X185832540Y-70782511D01*
X186009540Y-70959511D01*
X186065489Y-71015460D01*
X186134011Y-71055021D01*
X186169478Y-71064524D01*
X186210436Y-71075500D01*
X186210438Y-71075500D01*
X188714564Y-71075500D01*
X188741230Y-71068354D01*
X188790989Y-71055021D01*
X188859511Y-71015460D01*
X188915460Y-70959511D01*
X189040460Y-70834511D01*
X189080022Y-70765988D01*
X189100499Y-70689565D01*
X189100500Y-70689565D01*
X189100500Y-70627143D01*
X192724500Y-70627143D01*
X192724500Y-70712856D01*
X192747513Y-70798741D01*
X192746858Y-70798916D01*
X192749500Y-70812188D01*
X192749500Y-71789563D01*
X192769978Y-71865986D01*
X192769979Y-71865989D01*
X192783573Y-71889535D01*
X192804242Y-71925336D01*
X192809540Y-71934512D01*
X193067882Y-72192853D01*
X193209540Y-72334511D01*
X193265489Y-72390460D01*
X193334011Y-72430021D01*
X193362154Y-72437562D01*
X193410436Y-72450500D01*
X193410438Y-72450500D01*
X193489562Y-72450500D01*
X193507813Y-72450500D01*
X193521084Y-72453141D01*
X193521260Y-72452487D01*
X193607143Y-72475499D01*
X193607144Y-72475500D01*
X193607147Y-72475500D01*
X193692856Y-72475500D01*
X193692856Y-72475499D01*
X193775638Y-72453318D01*
X193777078Y-72452487D01*
X193802928Y-72437562D01*
X193849862Y-72410465D01*
X193910465Y-72349862D01*
X193953318Y-72275638D01*
X193975499Y-72192856D01*
X193975500Y-72192856D01*
X193975500Y-72107144D01*
X193975499Y-72107143D01*
X193953318Y-72024363D01*
X193953317Y-72024359D01*
X193910464Y-71950137D01*
X193849862Y-71889535D01*
X193775640Y-71846682D01*
X193775636Y-71846681D01*
X193692856Y-71824500D01*
X193692853Y-71824500D01*
X193607147Y-71824500D01*
X193607145Y-71824500D01*
X193588982Y-71829366D01*
X193551800Y-71824469D01*
X193541654Y-71816683D01*
X193364852Y-71639881D01*
X193350500Y-71605233D01*
X193350500Y-70812188D01*
X193353141Y-70798916D01*
X193352487Y-70798741D01*
X193375195Y-70713991D01*
X193375499Y-70712856D01*
X193375500Y-70712856D01*
X193375500Y-70627144D01*
X193375499Y-70627143D01*
X193353318Y-70544363D01*
X193353317Y-70544359D01*
X193312983Y-70474500D01*
X193310465Y-70470138D01*
X193249862Y-70409535D01*
X193175640Y-70366682D01*
X193175636Y-70366681D01*
X193092856Y-70344500D01*
X193092853Y-70344500D01*
X193007147Y-70344500D01*
X193007144Y-70344500D01*
X192924363Y-70366681D01*
X192924359Y-70366682D01*
X192850137Y-70409535D01*
X192850137Y-70409536D01*
X192789536Y-70470137D01*
X192789535Y-70470137D01*
X192746682Y-70544359D01*
X192746681Y-70544363D01*
X192724500Y-70627143D01*
X189100500Y-70627143D01*
X189100500Y-69534104D01*
X189499500Y-69534104D01*
X189499500Y-69665895D01*
X189533607Y-69793184D01*
X189533608Y-69793188D01*
X189588638Y-69888501D01*
X189599500Y-69907314D01*
X189692686Y-70000500D01*
X189734457Y-70024617D01*
X189806811Y-70066391D01*
X189806813Y-70066391D01*
X189806814Y-70066392D01*
X189907207Y-70093292D01*
X189934104Y-70100499D01*
X189934105Y-70100500D01*
X189934108Y-70100500D01*
X190065895Y-70100500D01*
X190065895Y-70100499D01*
X190193186Y-70066392D01*
X190307314Y-70000500D01*
X190400500Y-69907314D01*
X190411361Y-69888500D01*
X190441113Y-69865670D01*
X190453797Y-69864000D01*
X191702511Y-69864000D01*
X191702513Y-69864000D01*
X191799544Y-69823808D01*
X191799546Y-69823806D01*
X191799547Y-69823806D01*
X191948806Y-69674547D01*
X191948807Y-69674545D01*
X191948808Y-69674544D01*
X191955204Y-69659104D01*
X202749500Y-69659104D01*
X202749500Y-69790895D01*
X202783607Y-69918184D01*
X202783608Y-69918188D01*
X202831132Y-70000500D01*
X202849500Y-70032314D01*
X202942686Y-70125500D01*
X202984457Y-70149617D01*
X203056811Y-70191391D01*
X203056813Y-70191391D01*
X203056814Y-70191392D01*
X203157207Y-70218292D01*
X203184104Y-70225499D01*
X203184105Y-70225500D01*
X203184108Y-70225500D01*
X203315895Y-70225500D01*
X203315895Y-70225499D01*
X203443186Y-70191392D01*
X203557314Y-70125500D01*
X203650500Y-70032314D01*
X203716392Y-69918186D01*
X203750499Y-69790895D01*
X203750500Y-69790895D01*
X203750500Y-69659105D01*
X203750499Y-69659104D01*
X203728636Y-69577510D01*
X203716392Y-69531814D01*
X203716391Y-69531813D01*
X203716391Y-69531811D01*
X203650499Y-69417685D01*
X203564852Y-69332038D01*
X203550500Y-69297390D01*
X203550500Y-68219767D01*
X203564852Y-68185119D01*
X203647619Y-68102352D01*
X203682267Y-68088000D01*
X206284890Y-68088000D01*
X206319538Y-68102352D01*
X206405186Y-68188000D01*
X206446957Y-68212117D01*
X206519311Y-68253891D01*
X206519313Y-68253891D01*
X206519314Y-68253892D01*
X206619707Y-68280792D01*
X206646604Y-68287999D01*
X206646605Y-68288000D01*
X206646608Y-68288000D01*
X206778395Y-68288000D01*
X206778395Y-68287999D01*
X206905686Y-68253892D01*
X207019814Y-68188000D01*
X207113000Y-68094814D01*
X207178892Y-67980686D01*
X207212999Y-67853395D01*
X207213000Y-67853395D01*
X207213000Y-67721605D01*
X207212999Y-67721604D01*
X207187793Y-67627534D01*
X207178892Y-67594314D01*
X207178891Y-67594313D01*
X207178891Y-67594311D01*
X207128758Y-67507479D01*
X207113000Y-67480186D01*
X207019814Y-67387000D01*
X206905688Y-67321108D01*
X206905684Y-67321107D01*
X206778395Y-67287000D01*
X206778392Y-67287000D01*
X206697099Y-67287000D01*
X206662451Y-67272648D01*
X206648099Y-67238000D01*
X206654664Y-67213500D01*
X206666391Y-67193188D01*
X206666391Y-67193187D01*
X206666392Y-67193186D01*
X206700499Y-67065895D01*
X206700500Y-67065895D01*
X206700500Y-66934105D01*
X206700499Y-66934104D01*
X206666392Y-66806815D01*
X206666391Y-66806811D01*
X206608655Y-66706811D01*
X206600500Y-66692686D01*
X206514852Y-66607038D01*
X206500500Y-66572390D01*
X206500500Y-66460436D01*
X206489659Y-66419979D01*
X206480021Y-66384011D01*
X206480020Y-66384009D01*
X206480020Y-66384008D01*
X206440459Y-66315488D01*
X206116852Y-65991881D01*
X206102500Y-65957233D01*
X206102500Y-65902610D01*
X206116852Y-65867962D01*
X206202499Y-65782315D01*
X206202500Y-65782314D01*
X206268392Y-65668186D01*
X206302499Y-65540895D01*
X206302500Y-65540895D01*
X206302500Y-65409105D01*
X206302499Y-65409104D01*
X206275091Y-65306815D01*
X206268392Y-65281814D01*
X206268391Y-65281813D01*
X206268391Y-65281811D01*
X206202499Y-65167685D01*
X206109314Y-65074500D01*
X205995188Y-65008608D01*
X205995184Y-65008607D01*
X205867895Y-64974500D01*
X205867892Y-64974500D01*
X205736108Y-64974500D01*
X205736105Y-64974500D01*
X205608815Y-65008607D01*
X205608811Y-65008608D01*
X205494685Y-65074500D01*
X205494685Y-65074501D01*
X205401501Y-65167685D01*
X205401500Y-65167685D01*
X205335608Y-65281811D01*
X205335607Y-65281815D01*
X205301500Y-65409104D01*
X205301500Y-65540895D01*
X205335607Y-65668184D01*
X205335608Y-65668188D01*
X205401500Y-65782314D01*
X205487148Y-65867962D01*
X205501500Y-65902610D01*
X205501500Y-66141563D01*
X205521978Y-66217987D01*
X205521979Y-66217991D01*
X205549301Y-66265312D01*
X205549302Y-66265313D01*
X205561537Y-66286507D01*
X205561542Y-66286513D01*
X205848959Y-66573930D01*
X205863311Y-66608578D01*
X205848960Y-66643224D01*
X205809493Y-66682693D01*
X205799499Y-66692687D01*
X205733608Y-66806811D01*
X205733607Y-66806815D01*
X205699500Y-66934104D01*
X205699500Y-67065895D01*
X205733607Y-67193184D01*
X205733608Y-67193188D01*
X205799500Y-67307314D01*
X205894957Y-67402771D01*
X205893717Y-67404010D01*
X205909648Y-67431610D01*
X205899937Y-67467834D01*
X205867456Y-67486582D01*
X205861066Y-67487000D01*
X203497936Y-67487000D01*
X203421510Y-67507479D01*
X203421508Y-67507479D01*
X203352988Y-67547040D01*
X203352988Y-67547041D01*
X203009541Y-67890488D01*
X203009540Y-67890488D01*
X202969979Y-67959008D01*
X202969979Y-67959010D01*
X202949500Y-68035436D01*
X202949500Y-69297390D01*
X202935148Y-69332038D01*
X202849501Y-69417685D01*
X202849500Y-69417685D01*
X202783608Y-69531811D01*
X202783607Y-69531815D01*
X202749500Y-69659104D01*
X191955204Y-69659104D01*
X191989000Y-69577513D01*
X191989000Y-69472487D01*
X191989000Y-69356044D01*
X192003352Y-69321396D01*
X192063484Y-69261264D01*
X192063485Y-69261263D01*
X192119503Y-69164237D01*
X192148499Y-69056021D01*
X192148500Y-69056021D01*
X192148500Y-68943979D01*
X192148499Y-68943978D01*
X192119503Y-68835764D01*
X192119502Y-68835760D01*
X192063484Y-68738736D01*
X191984263Y-68659515D01*
X191887239Y-68603497D01*
X191887235Y-68603496D01*
X191779021Y-68574500D01*
X191779018Y-68574500D01*
X191666982Y-68574500D01*
X191666979Y-68574500D01*
X191558764Y-68603496D01*
X191558760Y-68603497D01*
X191461736Y-68659515D01*
X191461736Y-68659516D01*
X191382516Y-68738736D01*
X191382515Y-68738736D01*
X191326497Y-68835760D01*
X191326496Y-68835764D01*
X191297500Y-68943978D01*
X191297500Y-69056021D01*
X191326496Y-69164235D01*
X191326497Y-69164238D01*
X191326498Y-69164239D01*
X191382515Y-69261263D01*
X191382516Y-69261264D01*
X191383230Y-69262500D01*
X191388125Y-69299682D01*
X191365295Y-69329435D01*
X191340795Y-69336000D01*
X190453797Y-69336000D01*
X190419149Y-69321648D01*
X190411363Y-69311501D01*
X190400500Y-69292686D01*
X190307314Y-69199500D01*
X190193188Y-69133608D01*
X190193184Y-69133607D01*
X190065895Y-69099500D01*
X190065892Y-69099500D01*
X189934108Y-69099500D01*
X189934105Y-69099500D01*
X189806815Y-69133607D01*
X189806811Y-69133608D01*
X189692685Y-69199500D01*
X189692685Y-69199501D01*
X189599501Y-69292685D01*
X189599500Y-69292685D01*
X189533608Y-69406811D01*
X189533607Y-69406815D01*
X189499500Y-69534104D01*
X189100500Y-69534104D01*
X189100500Y-68249500D01*
X189114852Y-68214852D01*
X189149500Y-68200500D01*
X190326353Y-68200500D01*
X190350853Y-68207065D01*
X190368569Y-68217294D01*
X190368571Y-68217294D01*
X190368572Y-68217295D01*
X190395353Y-68224471D01*
X190455170Y-68240500D01*
X190455172Y-68240500D01*
X190544830Y-68240500D01*
X190579468Y-68231218D01*
X190631428Y-68217295D01*
X190709072Y-68172468D01*
X190772468Y-68109072D01*
X190817295Y-68031428D01*
X190840500Y-67944828D01*
X190840500Y-67855172D01*
X190840500Y-67855170D01*
X190828897Y-67811872D01*
X190817295Y-67768572D01*
X190777994Y-67700500D01*
X190772470Y-67690931D01*
X190772465Y-67690925D01*
X190709074Y-67627534D01*
X190709068Y-67627529D01*
X190651537Y-67594315D01*
X190631428Y-67582705D01*
X190631425Y-67582704D01*
X190544830Y-67559500D01*
X190544828Y-67559500D01*
X190455172Y-67559500D01*
X190455170Y-67559500D01*
X190368573Y-67582704D01*
X190368569Y-67582705D01*
X190350853Y-67592935D01*
X190326353Y-67599500D01*
X188960435Y-67599500D01*
X188884013Y-67619977D01*
X188884010Y-67619978D01*
X188815488Y-67659540D01*
X188815488Y-67659541D01*
X188559541Y-67915488D01*
X188559540Y-67915488D01*
X188519979Y-67984008D01*
X188519979Y-67984010D01*
X188499500Y-68060436D01*
X188499500Y-70425500D01*
X188485148Y-70460148D01*
X188450500Y-70474500D01*
X186422500Y-70474500D01*
X186387852Y-70460148D01*
X186373500Y-70425500D01*
X186373500Y-67727610D01*
X186387852Y-67692962D01*
X186473499Y-67607315D01*
X186473500Y-67607314D01*
X186539392Y-67493186D01*
X186573499Y-67365895D01*
X186573500Y-67365895D01*
X186573500Y-67234105D01*
X186573499Y-67234104D01*
X186561269Y-67188461D01*
X186539392Y-67106814D01*
X186539391Y-67106813D01*
X186539391Y-67106811D01*
X186497617Y-67034457D01*
X186473500Y-66992686D01*
X186380314Y-66899500D01*
X186332395Y-66871834D01*
X186267047Y-66834104D01*
X195024500Y-66834104D01*
X195024500Y-66965895D01*
X195058607Y-67093184D01*
X195058608Y-67093188D01*
X195106134Y-67175504D01*
X195124500Y-67207314D01*
X195217686Y-67300500D01*
X195253378Y-67321107D01*
X195331811Y-67366391D01*
X195331813Y-67366391D01*
X195331814Y-67366392D01*
X195408725Y-67387000D01*
X195459104Y-67400499D01*
X195459105Y-67400500D01*
X195459108Y-67400500D01*
X195590895Y-67400500D01*
X195590895Y-67400499D01*
X195718186Y-67366392D01*
X195832314Y-67300500D01*
X195892962Y-67239852D01*
X195927610Y-67225500D01*
X196439564Y-67225500D01*
X196466230Y-67218354D01*
X196515989Y-67205021D01*
X196584511Y-67165460D01*
X196640460Y-67109511D01*
X196735119Y-67014852D01*
X196769767Y-67000500D01*
X197072390Y-67000500D01*
X197107038Y-67014852D01*
X197192686Y-67100500D01*
X197234457Y-67124617D01*
X197306811Y-67166391D01*
X197306813Y-67166391D01*
X197306814Y-67166392D01*
X197406804Y-67193184D01*
X197434104Y-67200499D01*
X197434105Y-67200500D01*
X197434108Y-67200500D01*
X197565895Y-67200500D01*
X197565895Y-67200499D01*
X197693186Y-67166392D01*
X197694801Y-67165460D01*
X197708478Y-67157563D01*
X197807314Y-67100500D01*
X197900500Y-67007314D01*
X197966392Y-66893186D01*
X198000499Y-66765895D01*
X198000500Y-66765895D01*
X198000500Y-66634105D01*
X198000499Y-66634104D01*
X197989401Y-66592685D01*
X197966392Y-66506814D01*
X197966391Y-66506813D01*
X197966391Y-66506811D01*
X197900499Y-66392685D01*
X197807314Y-66299500D01*
X197693188Y-66233608D01*
X197693184Y-66233607D01*
X197565895Y-66199500D01*
X197565892Y-66199500D01*
X197434108Y-66199500D01*
X197434105Y-66199500D01*
X197306815Y-66233607D01*
X197306811Y-66233608D01*
X197192685Y-66299500D01*
X197192685Y-66299501D01*
X197107038Y-66385148D01*
X197072390Y-66399500D01*
X196585436Y-66399500D01*
X196509012Y-66419978D01*
X196499967Y-66425200D01*
X196487610Y-66432335D01*
X196475829Y-66439136D01*
X196440492Y-66459537D01*
X196440486Y-66459542D01*
X196289881Y-66610148D01*
X196255233Y-66624500D01*
X195972158Y-66624500D01*
X195937510Y-66610148D01*
X195929724Y-66600002D01*
X195925499Y-66592685D01*
X195832314Y-66499500D01*
X195718188Y-66433608D01*
X195718184Y-66433607D01*
X195590895Y-66399500D01*
X195590892Y-66399500D01*
X195459108Y-66399500D01*
X195459105Y-66399500D01*
X195331815Y-66433607D01*
X195331811Y-66433608D01*
X195217685Y-66499500D01*
X195217685Y-66499501D01*
X195124501Y-66592685D01*
X195124500Y-66592685D01*
X195058608Y-66706811D01*
X195058607Y-66706815D01*
X195024500Y-66834104D01*
X186267047Y-66834104D01*
X186266188Y-66833608D01*
X186266184Y-66833607D01*
X186138895Y-66799500D01*
X186138892Y-66799500D01*
X186007108Y-66799500D01*
X186007105Y-66799500D01*
X185879815Y-66833607D01*
X185879811Y-66833608D01*
X185765685Y-66899500D01*
X185765685Y-66899501D01*
X185672501Y-66992685D01*
X185672500Y-66992685D01*
X185606608Y-67106811D01*
X185606607Y-67106815D01*
X185572500Y-67234104D01*
X179471169Y-67234104D01*
X179517570Y-67207314D01*
X179572665Y-67175505D01*
X179670505Y-67077665D01*
X179739688Y-66957836D01*
X179775499Y-66824186D01*
X179775500Y-66824186D01*
X179775500Y-66685814D01*
X179775499Y-66685813D01*
X179752506Y-66600002D01*
X179739688Y-66552164D01*
X179739687Y-66552163D01*
X179739687Y-66552161D01*
X179671239Y-66433607D01*
X179670505Y-66432335D01*
X179572665Y-66334495D01*
X179452838Y-66265312D01*
X179452834Y-66265311D01*
X179319186Y-66229500D01*
X179319183Y-66229500D01*
X179180817Y-66229500D01*
X179180814Y-66229500D01*
X179047165Y-66265311D01*
X179047161Y-66265312D01*
X178927334Y-66334495D01*
X178927334Y-66334496D01*
X178829496Y-66432334D01*
X178829495Y-66432334D01*
X178760312Y-66552161D01*
X178760311Y-66552165D01*
X178724500Y-66685813D01*
X173259979Y-66685813D01*
X173253444Y-63059104D01*
X187999500Y-63059104D01*
X187999500Y-63190895D01*
X188033607Y-63318184D01*
X188033608Y-63318188D01*
X188089418Y-63414852D01*
X188099500Y-63432314D01*
X188192686Y-63525500D01*
X188234457Y-63549617D01*
X188306811Y-63591391D01*
X188306813Y-63591391D01*
X188306814Y-63591392D01*
X188394369Y-63614852D01*
X188434104Y-63625499D01*
X188434105Y-63625500D01*
X188434108Y-63625500D01*
X188565895Y-63625500D01*
X188565895Y-63625499D01*
X188693186Y-63591392D01*
X188807314Y-63525500D01*
X188900500Y-63432314D01*
X188904724Y-63424998D01*
X188934478Y-63402169D01*
X188947158Y-63400500D01*
X189080233Y-63400500D01*
X189114881Y-63414852D01*
X189240489Y-63540460D01*
X189309012Y-63580022D01*
X189351446Y-63591392D01*
X189385434Y-63600499D01*
X189385435Y-63600500D01*
X189385438Y-63600500D01*
X189695390Y-63600500D01*
X189730038Y-63614852D01*
X189815686Y-63700500D01*
X189869500Y-63731569D01*
X189928024Y-63765359D01*
X189950854Y-63795112D01*
X189945959Y-63832294D01*
X189928025Y-63850229D01*
X189842683Y-63899502D01*
X189749501Y-63992685D01*
X189749500Y-63992685D01*
X189683608Y-64106811D01*
X189683607Y-64106815D01*
X189649500Y-64234104D01*
X189649500Y-64365895D01*
X189683607Y-64493184D01*
X189683608Y-64493188D01*
X189740828Y-64592294D01*
X189749500Y-64607314D01*
X189842686Y-64700500D01*
X189884457Y-64724617D01*
X189956811Y-64766391D01*
X189956813Y-64766391D01*
X189956814Y-64766392D01*
X190057207Y-64793292D01*
X190084104Y-64800499D01*
X190084105Y-64800500D01*
X190084108Y-64800500D01*
X190215895Y-64800500D01*
X190215895Y-64800499D01*
X190343186Y-64766392D01*
X190457314Y-64700500D01*
X190550500Y-64607314D01*
X190559826Y-64591158D01*
X190577759Y-64573224D01*
X190634511Y-64540460D01*
X190690460Y-64484511D01*
X190890460Y-64284511D01*
X190930022Y-64215988D01*
X190950499Y-64139565D01*
X190950500Y-64139565D01*
X190950500Y-62761014D01*
X190964852Y-62726366D01*
X190999500Y-62712014D01*
X191024000Y-62718579D01*
X191106811Y-62766391D01*
X191106813Y-62766391D01*
X191106814Y-62766392D01*
X191152659Y-62778676D01*
X191234104Y-62800499D01*
X191234105Y-62800500D01*
X191234108Y-62800500D01*
X191365895Y-62800500D01*
X191365895Y-62800499D01*
X191493186Y-62766392D01*
X191607314Y-62700500D01*
X191692962Y-62614852D01*
X191727610Y-62600500D01*
X191930233Y-62600500D01*
X191964881Y-62614852D01*
X191985148Y-62635119D01*
X191999500Y-62669767D01*
X191999500Y-64058048D01*
X191992936Y-64082547D01*
X191957705Y-64143572D01*
X191957704Y-64143574D01*
X191934500Y-64230170D01*
X191934500Y-64319829D01*
X191946843Y-64365892D01*
X191957705Y-64406428D01*
X191978114Y-64441778D01*
X192002529Y-64484068D01*
X192002531Y-64484070D01*
X192002532Y-64484072D01*
X192065928Y-64547468D01*
X192143572Y-64592295D01*
X192168334Y-64598930D01*
X192230170Y-64615500D01*
X192230172Y-64615500D01*
X192319830Y-64615500D01*
X192354468Y-64606218D01*
X192406428Y-64592295D01*
X192426000Y-64580994D01*
X192463182Y-64576100D01*
X192492935Y-64598930D01*
X192499500Y-64623430D01*
X192499500Y-65114563D01*
X192519979Y-65190989D01*
X192519979Y-65190991D01*
X192545106Y-65234511D01*
X192559540Y-65259511D01*
X192740489Y-65440460D01*
X192790648Y-65469420D01*
X192809008Y-65480020D01*
X192809012Y-65480022D01*
X192869286Y-65496172D01*
X192885434Y-65500499D01*
X192885435Y-65500500D01*
X192885438Y-65500500D01*
X194789564Y-65500500D01*
X194816230Y-65493354D01*
X194865989Y-65480021D01*
X194934511Y-65440460D01*
X194990460Y-65384511D01*
X195140460Y-65234511D01*
X195149109Y-65219531D01*
X195180021Y-65165989D01*
X195197837Y-65099500D01*
X195200500Y-65089563D01*
X195200500Y-63052141D01*
X195207064Y-63027642D01*
X195241392Y-62968186D01*
X195275499Y-62840895D01*
X195275500Y-62840895D01*
X195275500Y-62709105D01*
X195275499Y-62709104D01*
X195255675Y-62635119D01*
X195241392Y-62581814D01*
X195241391Y-62581813D01*
X195241391Y-62581811D01*
X195175499Y-62467685D01*
X195082314Y-62374500D01*
X194968188Y-62308608D01*
X194968184Y-62308607D01*
X194840895Y-62274500D01*
X194840892Y-62274500D01*
X194709108Y-62274500D01*
X194709105Y-62274500D01*
X194581815Y-62308607D01*
X194581811Y-62308608D01*
X194467685Y-62374500D01*
X194467685Y-62374501D01*
X194374501Y-62467685D01*
X194374500Y-62467685D01*
X194308608Y-62581811D01*
X194308607Y-62581815D01*
X194274500Y-62709104D01*
X194274500Y-62840895D01*
X194308607Y-62968184D01*
X194308608Y-62968188D01*
X194361102Y-63059108D01*
X194374500Y-63082314D01*
X194467686Y-63175500D01*
X194575001Y-63237458D01*
X194597830Y-63267210D01*
X194599500Y-63279892D01*
X194599500Y-64850500D01*
X194585148Y-64885148D01*
X194550500Y-64899500D01*
X193149500Y-64899500D01*
X193114852Y-64885148D01*
X193100500Y-64850500D01*
X193100500Y-64573647D01*
X193107065Y-64549147D01*
X193117294Y-64531430D01*
X193117294Y-64531429D01*
X193117295Y-64531428D01*
X193140500Y-64444828D01*
X193140500Y-64355172D01*
X193140500Y-64355170D01*
X193121566Y-64284511D01*
X193117295Y-64268572D01*
X193072468Y-64190928D01*
X193009072Y-64127532D01*
X193009070Y-64127531D01*
X193009068Y-64127529D01*
X192966778Y-64103114D01*
X192931428Y-64082705D01*
X192931425Y-64082704D01*
X192844830Y-64059500D01*
X192844828Y-64059500D01*
X192755172Y-64059500D01*
X192755170Y-64059500D01*
X192668571Y-64082705D01*
X192668241Y-64082842D01*
X192668061Y-64082841D01*
X192665471Y-64083536D01*
X192665284Y-64082841D01*
X192630738Y-64082833D01*
X192604225Y-64056308D01*
X192600500Y-64037567D01*
X192600500Y-62485436D01*
X192591843Y-62453134D01*
X192580021Y-62409011D01*
X192580020Y-62409009D01*
X192580020Y-62409008D01*
X192554939Y-62365568D01*
X192540460Y-62340489D01*
X192484511Y-62284540D01*
X192259511Y-62059540D01*
X192230797Y-62042962D01*
X192190990Y-62019979D01*
X192114564Y-61999500D01*
X192114562Y-61999500D01*
X191727610Y-61999500D01*
X191692962Y-61985148D01*
X191607314Y-61899500D01*
X191493188Y-61833608D01*
X191493184Y-61833607D01*
X191365895Y-61799500D01*
X191365892Y-61799500D01*
X191234108Y-61799500D01*
X191234105Y-61799500D01*
X191106815Y-61833607D01*
X191106811Y-61833608D01*
X191024000Y-61881420D01*
X190986818Y-61886315D01*
X190957065Y-61863485D01*
X190950500Y-61838985D01*
X190950500Y-61610436D01*
X190950143Y-61609104D01*
X202949500Y-61609104D01*
X202949500Y-61740895D01*
X202983607Y-61868184D01*
X202983608Y-61868188D01*
X203012208Y-61917723D01*
X203049500Y-61982314D01*
X203142686Y-62075500D01*
X203142687Y-62075501D01*
X203142689Y-62075502D01*
X203149999Y-62079722D01*
X203172830Y-62109475D01*
X203174500Y-62122158D01*
X203174500Y-65072390D01*
X203160148Y-65107038D01*
X203074501Y-65192685D01*
X203074500Y-65192685D01*
X203008608Y-65306811D01*
X203008607Y-65306815D01*
X202974500Y-65434104D01*
X202974500Y-65565895D01*
X203008607Y-65693184D01*
X203008608Y-65693188D01*
X203060066Y-65782314D01*
X203074500Y-65807314D01*
X203167686Y-65900500D01*
X203171341Y-65902610D01*
X203281811Y-65966391D01*
X203281813Y-65966391D01*
X203281814Y-65966392D01*
X203376941Y-65991881D01*
X203409104Y-66000499D01*
X203409105Y-66000500D01*
X203409108Y-66000500D01*
X203540895Y-66000500D01*
X203540895Y-66000499D01*
X203668186Y-65966392D01*
X203782314Y-65900500D01*
X203875500Y-65807314D01*
X203941392Y-65693186D01*
X203975499Y-65565895D01*
X203975500Y-65565895D01*
X203975500Y-65434105D01*
X203975499Y-65434104D01*
X203941392Y-65306815D01*
X203941391Y-65306811D01*
X203875499Y-65192685D01*
X203789852Y-65107038D01*
X203775500Y-65072390D01*
X203775500Y-64005252D01*
X211524500Y-64005252D01*
X211524500Y-65544748D01*
X211536133Y-65603231D01*
X211553882Y-65629795D01*
X211580447Y-65669552D01*
X211607012Y-65687301D01*
X211646769Y-65713867D01*
X211705252Y-65725500D01*
X211705255Y-65725500D01*
X213144745Y-65725500D01*
X213144748Y-65725500D01*
X213203231Y-65713867D01*
X213269552Y-65669552D01*
X213313867Y-65603231D01*
X213325500Y-65544748D01*
X213325500Y-64005252D01*
X213313867Y-63946769D01*
X213282284Y-63899502D01*
X213269552Y-63880447D01*
X213224327Y-63850229D01*
X213203231Y-63836133D01*
X213144748Y-63824500D01*
X211705252Y-63824500D01*
X211646769Y-63836133D01*
X211580447Y-63880447D01*
X211536133Y-63946769D01*
X211524500Y-64005252D01*
X203775500Y-64005252D01*
X203775500Y-62686303D01*
X211524500Y-62686303D01*
X211524500Y-62863696D01*
X211559103Y-63037656D01*
X211559106Y-63037667D01*
X211626985Y-63201543D01*
X211626987Y-63201547D01*
X211653611Y-63241392D01*
X211725533Y-63349032D01*
X211850967Y-63474466D01*
X211909640Y-63513670D01*
X211998453Y-63573013D01*
X212162334Y-63640894D01*
X212162340Y-63640895D01*
X212162343Y-63640896D01*
X212336303Y-63675499D01*
X212336309Y-63675500D01*
X212513691Y-63675500D01*
X212687666Y-63640894D01*
X212851547Y-63573013D01*
X212999035Y-63474464D01*
X213124464Y-63349035D01*
X213223013Y-63201547D01*
X213290894Y-63037666D01*
X213325500Y-62863691D01*
X213325500Y-62686309D01*
X213319990Y-62658607D01*
X213290896Y-62512343D01*
X213290893Y-62512332D01*
X213279753Y-62485438D01*
X213223013Y-62348453D01*
X213163670Y-62259640D01*
X213124466Y-62200967D01*
X212999032Y-62075533D01*
X212911021Y-62016726D01*
X212851547Y-61976987D01*
X212851544Y-61976985D01*
X212851543Y-61976985D01*
X212687667Y-61909106D01*
X212687656Y-61909103D01*
X212513696Y-61874500D01*
X212513691Y-61874500D01*
X212336309Y-61874500D01*
X212336303Y-61874500D01*
X212162343Y-61909103D01*
X212162332Y-61909106D01*
X211998456Y-61976985D01*
X211850967Y-62075533D01*
X211725533Y-62200967D01*
X211626985Y-62348456D01*
X211559106Y-62512332D01*
X211559103Y-62512343D01*
X211524500Y-62686303D01*
X203775500Y-62686303D01*
X203775500Y-62077610D01*
X203789852Y-62042962D01*
X203850499Y-61982315D01*
X203850500Y-61982314D01*
X203916392Y-61868186D01*
X203950499Y-61740895D01*
X203950500Y-61740895D01*
X203950500Y-61609105D01*
X203950499Y-61609104D01*
X203921399Y-61500500D01*
X203916392Y-61481814D01*
X203916391Y-61481813D01*
X203916391Y-61481811D01*
X203850499Y-61367685D01*
X203757314Y-61274500D01*
X203643188Y-61208608D01*
X203643184Y-61208607D01*
X203515895Y-61174500D01*
X203515892Y-61174500D01*
X203384108Y-61174500D01*
X203384105Y-61174500D01*
X203256815Y-61208607D01*
X203256811Y-61208608D01*
X203142685Y-61274500D01*
X203142685Y-61274501D01*
X203049501Y-61367685D01*
X203049500Y-61367685D01*
X202983608Y-61481811D01*
X202983607Y-61481815D01*
X202949500Y-61609104D01*
X190950143Y-61609104D01*
X190930021Y-61534012D01*
X190930020Y-61534008D01*
X190906995Y-61494129D01*
X190902039Y-61469104D01*
X190900500Y-61469104D01*
X190900500Y-61334105D01*
X190900499Y-61334104D01*
X190890735Y-61297665D01*
X190866392Y-61206814D01*
X190866391Y-61206813D01*
X190866391Y-61206811D01*
X190800499Y-61092685D01*
X190707314Y-60999500D01*
X190593188Y-60933608D01*
X190593184Y-60933607D01*
X190465895Y-60899500D01*
X190465892Y-60899500D01*
X190334108Y-60899500D01*
X190334105Y-60899500D01*
X190206815Y-60933607D01*
X190206811Y-60933608D01*
X190092685Y-60999500D01*
X190092685Y-60999501D01*
X189999501Y-61092685D01*
X189999500Y-61092685D01*
X189933608Y-61206811D01*
X189933607Y-61206815D01*
X189899500Y-61334104D01*
X189899500Y-61465895D01*
X189933607Y-61593184D01*
X189933608Y-61593188D01*
X189999500Y-61707314D01*
X190092686Y-61800500D01*
X190134457Y-61824617D01*
X190206811Y-61866391D01*
X190206814Y-61866392D01*
X190313182Y-61894893D01*
X190342935Y-61917723D01*
X190349500Y-61942223D01*
X190349500Y-62778676D01*
X190335148Y-62813324D01*
X190300500Y-62827676D01*
X190287818Y-62826006D01*
X190188895Y-62799500D01*
X190188892Y-62799500D01*
X190057108Y-62799500D01*
X190057105Y-62799500D01*
X189929815Y-62833607D01*
X189929811Y-62833608D01*
X189815685Y-62899500D01*
X189815685Y-62899501D01*
X189730038Y-62985148D01*
X189695390Y-62999500D01*
X189569767Y-62999500D01*
X189535119Y-62985148D01*
X189409511Y-62859540D01*
X189340990Y-62819979D01*
X189264564Y-62799500D01*
X189264562Y-62799500D01*
X188902610Y-62799500D01*
X188867962Y-62785148D01*
X188807314Y-62724500D01*
X188693188Y-62658608D01*
X188693184Y-62658607D01*
X188565895Y-62624500D01*
X188565892Y-62624500D01*
X188434108Y-62624500D01*
X188434105Y-62624500D01*
X188306815Y-62658607D01*
X188306811Y-62658608D01*
X188192685Y-62724500D01*
X188192685Y-62724501D01*
X188099501Y-62817685D01*
X188099500Y-62817685D01*
X188033608Y-62931811D01*
X188033607Y-62931815D01*
X187999500Y-63059104D01*
X173253444Y-63059104D01*
X173249564Y-60905813D01*
X178724500Y-60905813D01*
X178724500Y-61044186D01*
X178760311Y-61177834D01*
X178760312Y-61177838D01*
X178816121Y-61274500D01*
X178829495Y-61297665D01*
X178927335Y-61395505D01*
X178971194Y-61420827D01*
X179047161Y-61464687D01*
X179047163Y-61464687D01*
X179047164Y-61464688D01*
X179152571Y-61492931D01*
X179180813Y-61500499D01*
X179180814Y-61500500D01*
X179180817Y-61500500D01*
X179319186Y-61500500D01*
X179319186Y-61500499D01*
X179452836Y-61464688D01*
X179572665Y-61395505D01*
X179670505Y-61297665D01*
X179739688Y-61177836D01*
X179775499Y-61044186D01*
X179775500Y-61044186D01*
X179775500Y-60905814D01*
X179775499Y-60905813D01*
X179739688Y-60772165D01*
X179739687Y-60772161D01*
X179670504Y-60652334D01*
X179572665Y-60554495D01*
X179452838Y-60485312D01*
X179452834Y-60485311D01*
X179319186Y-60449500D01*
X179319183Y-60449500D01*
X179180817Y-60449500D01*
X179180814Y-60449500D01*
X179047165Y-60485311D01*
X179047161Y-60485312D01*
X178927334Y-60554495D01*
X178927334Y-60554496D01*
X178829496Y-60652334D01*
X178829495Y-60652334D01*
X178760312Y-60772161D01*
X178760311Y-60772165D01*
X178724500Y-60905813D01*
X173249564Y-60905813D01*
X173245741Y-58784104D01*
X193699500Y-58784104D01*
X193699500Y-58915895D01*
X193733607Y-59043184D01*
X193733608Y-59043188D01*
X193783742Y-59130021D01*
X193799500Y-59157314D01*
X193892686Y-59250500D01*
X193934457Y-59274617D01*
X194006811Y-59316391D01*
X194006813Y-59316391D01*
X194006814Y-59316392D01*
X194107207Y-59343292D01*
X194134104Y-59350499D01*
X194134105Y-59350500D01*
X194134108Y-59350500D01*
X194265895Y-59350500D01*
X194265895Y-59350499D01*
X194393186Y-59316392D01*
X194507314Y-59250500D01*
X194592962Y-59164852D01*
X194627610Y-59150500D01*
X194939564Y-59150500D01*
X194966230Y-59143354D01*
X195015989Y-59130021D01*
X195084511Y-59090460D01*
X195140460Y-59034511D01*
X195635119Y-58539852D01*
X195669767Y-58525500D01*
X195798016Y-58525500D01*
X195832664Y-58539852D01*
X195836889Y-58544670D01*
X195836997Y-58544811D01*
X195837000Y-58544814D01*
X195930186Y-58638000D01*
X195971957Y-58662117D01*
X196044311Y-58703891D01*
X196044313Y-58703891D01*
X196044314Y-58703892D01*
X196144707Y-58730792D01*
X196171604Y-58737999D01*
X196171605Y-58738000D01*
X196171608Y-58738000D01*
X196303395Y-58738000D01*
X196303395Y-58737999D01*
X196430686Y-58703892D01*
X196544814Y-58638000D01*
X196638000Y-58544814D01*
X196703892Y-58430686D01*
X196737999Y-58303395D01*
X196738000Y-58303395D01*
X196738000Y-58171605D01*
X196737999Y-58171604D01*
X196703892Y-58044315D01*
X196703891Y-58044311D01*
X196662117Y-57971957D01*
X196638000Y-57930186D01*
X196544814Y-57837000D01*
X196430688Y-57771108D01*
X196430684Y-57771107D01*
X196303395Y-57737000D01*
X196303392Y-57737000D01*
X196171608Y-57737000D01*
X196171605Y-57737000D01*
X196044315Y-57771107D01*
X196044311Y-57771108D01*
X195930185Y-57837000D01*
X195930185Y-57837001D01*
X195857038Y-57910148D01*
X195822390Y-57924500D01*
X195485436Y-57924500D01*
X195409010Y-57944979D01*
X195409008Y-57944979D01*
X195340488Y-57984540D01*
X195340488Y-57984541D01*
X194789881Y-58535148D01*
X194755233Y-58549500D01*
X194627610Y-58549500D01*
X194592962Y-58535148D01*
X194507314Y-58449500D01*
X194393188Y-58383608D01*
X194393184Y-58383607D01*
X194265895Y-58349500D01*
X194265892Y-58349500D01*
X194134108Y-58349500D01*
X194134105Y-58349500D01*
X194006815Y-58383607D01*
X194006811Y-58383608D01*
X193892685Y-58449500D01*
X193892685Y-58449501D01*
X193799501Y-58542685D01*
X193799500Y-58542685D01*
X193733608Y-58656811D01*
X193733607Y-58656815D01*
X193699500Y-58784104D01*
X173245741Y-58784104D01*
X173236721Y-53778394D01*
X174197500Y-53778394D01*
X174197500Y-53971605D01*
X174227724Y-54162437D01*
X174227725Y-54162440D01*
X174287430Y-54346195D01*
X174375149Y-54518352D01*
X174375151Y-54518355D01*
X174488716Y-54674664D01*
X174488720Y-54674669D01*
X174625331Y-54811280D01*
X174625335Y-54811283D01*
X174625337Y-54811285D01*
X174781650Y-54924852D01*
X174953803Y-55012569D01*
X175137560Y-55072275D01*
X175328394Y-55102500D01*
X175328395Y-55102500D01*
X175521605Y-55102500D01*
X175521606Y-55102500D01*
X175712440Y-55072275D01*
X175896197Y-55012569D01*
X176068350Y-54924852D01*
X176224663Y-54811285D01*
X176224666Y-54811281D01*
X176224669Y-54811280D01*
X176361280Y-54674669D01*
X176361281Y-54674666D01*
X176361285Y-54674663D01*
X176474852Y-54518350D01*
X176562569Y-54346197D01*
X176622275Y-54162440D01*
X176652500Y-53971606D01*
X176652500Y-53778394D01*
X176644581Y-53728394D01*
X214847500Y-53728394D01*
X214847500Y-53921605D01*
X214877724Y-54112437D01*
X214877725Y-54112440D01*
X214937430Y-54296195D01*
X215025149Y-54468352D01*
X215025151Y-54468355D01*
X215138716Y-54624664D01*
X215138720Y-54624669D01*
X215275331Y-54761280D01*
X215275335Y-54761283D01*
X215275337Y-54761285D01*
X215431650Y-54874852D01*
X215603803Y-54962569D01*
X215787560Y-55022275D01*
X215978394Y-55052500D01*
X215978395Y-55052500D01*
X216171605Y-55052500D01*
X216171606Y-55052500D01*
X216362440Y-55022275D01*
X216546197Y-54962569D01*
X216718350Y-54874852D01*
X216874663Y-54761285D01*
X216874666Y-54761281D01*
X216874669Y-54761280D01*
X217011280Y-54624669D01*
X217011281Y-54624666D01*
X217011285Y-54624663D01*
X217124852Y-54468350D01*
X217212569Y-54296197D01*
X217272275Y-54112440D01*
X217302500Y-53921606D01*
X217302500Y-53728394D01*
X217272275Y-53537560D01*
X217212569Y-53353803D01*
X217124852Y-53181650D01*
X217011285Y-53025337D01*
X217011283Y-53025335D01*
X217011280Y-53025331D01*
X216874669Y-52888720D01*
X216874664Y-52888716D01*
X216718355Y-52775151D01*
X216718352Y-52775149D01*
X216546195Y-52687430D01*
X216362440Y-52627725D01*
X216362437Y-52627724D01*
X216215842Y-52604506D01*
X216171606Y-52597500D01*
X215978394Y-52597500D01*
X215942482Y-52603187D01*
X215787562Y-52627724D01*
X215787559Y-52627725D01*
X215603804Y-52687430D01*
X215431647Y-52775149D01*
X215431644Y-52775151D01*
X215275335Y-52888716D01*
X215138716Y-53025335D01*
X215025151Y-53181644D01*
X215025149Y-53181647D01*
X214937430Y-53353804D01*
X214877725Y-53537559D01*
X214877724Y-53537562D01*
X214847500Y-53728394D01*
X176644581Y-53728394D01*
X176622275Y-53587560D01*
X176562569Y-53403803D01*
X176474852Y-53231650D01*
X176361285Y-53075337D01*
X176361283Y-53075335D01*
X176361280Y-53075331D01*
X176224669Y-52938720D01*
X176224664Y-52938716D01*
X176068355Y-52825151D01*
X176068352Y-52825149D01*
X175896195Y-52737430D01*
X175712440Y-52677725D01*
X175712437Y-52677724D01*
X175565842Y-52654506D01*
X175521606Y-52647500D01*
X175328394Y-52647500D01*
X175292482Y-52653187D01*
X175137562Y-52677724D01*
X175137559Y-52677725D01*
X174953804Y-52737430D01*
X174781647Y-52825149D01*
X174781644Y-52825151D01*
X174625335Y-52938716D01*
X174488716Y-53075335D01*
X174375151Y-53231644D01*
X174375149Y-53231647D01*
X174287430Y-53403804D01*
X174227725Y-53587559D01*
X174227724Y-53587562D01*
X174197500Y-53778394D01*
X173236721Y-53778394D01*
X173233065Y-51749134D01*
X173247354Y-51714461D01*
X173281976Y-51700047D01*
X218200476Y-51676355D01*
X218235130Y-51690688D01*
G37*
%TD.AperFunction*%
%TD*%
M02*
