%TF.GenerationSoftware,KiCad,Pcbnew,10.0.6*%
%TF.CreationDate,2026-10-01T22:23:03+03:00*%
%TF.ProjectId,Li-Po_Battery_Charger,4c692d50-6f5f-4426-9174-746572795f43,rev?*%
%TF.SameCoordinates,Original*%
%TF.FileFunction,Legend,Top*%
%TF.FilePolarity,Positive*%
%FSLAX46Y46*%
G04 Gerber Fmt 4.6, Leading zero omitted, Abs format (unit mm)*
G04 Created by KiCad (PCBNEW 10.0.6) date 2026-10-01 22:23:03*
%MOMM*%
%LPD*%
G01*
G04 APERTURE LIST*
%ADD10C,0.175000*%
%ADD11C,0.200000*%
%ADD12C,0.100000*%
%ADD13C,0.250000*%
%ADD14C,0.150000*%
%ADD15C,0.125000*%
%ADD16C,0.060000*%
%ADD17C,0.300000*%
%ADD18C,0.000000*%
%ADD19C,0.130000*%
%ADD20C,0.080000*%
G04 APERTURE END LIST*
D10*
X151758333Y-103264733D02*
X151758333Y-102564733D01*
X151758333Y-102564733D02*
X151991667Y-103064733D01*
X151991667Y-103064733D02*
X152225000Y-102564733D01*
X152225000Y-102564733D02*
X152225000Y-103264733D01*
X152525000Y-102631400D02*
X152558333Y-102598066D01*
X152558333Y-102598066D02*
X152625000Y-102564733D01*
X152625000Y-102564733D02*
X152791667Y-102564733D01*
X152791667Y-102564733D02*
X152858333Y-102598066D01*
X152858333Y-102598066D02*
X152891667Y-102631400D01*
X152891667Y-102631400D02*
X152925000Y-102698066D01*
X152925000Y-102698066D02*
X152925000Y-102764733D01*
X152925000Y-102764733D02*
X152891667Y-102864733D01*
X152891667Y-102864733D02*
X152491667Y-103264733D01*
X152491667Y-103264733D02*
X152925000Y-103264733D01*
X115258333Y-103464733D02*
X115258333Y-102764733D01*
X115258333Y-102764733D02*
X115491667Y-103264733D01*
X115491667Y-103264733D02*
X115725000Y-102764733D01*
X115725000Y-102764733D02*
X115725000Y-103464733D01*
X116025000Y-102831400D02*
X116058333Y-102798066D01*
X116058333Y-102798066D02*
X116125000Y-102764733D01*
X116125000Y-102764733D02*
X116291667Y-102764733D01*
X116291667Y-102764733D02*
X116358333Y-102798066D01*
X116358333Y-102798066D02*
X116391667Y-102831400D01*
X116391667Y-102831400D02*
X116425000Y-102898066D01*
X116425000Y-102898066D02*
X116425000Y-102964733D01*
X116425000Y-102964733D02*
X116391667Y-103064733D01*
X116391667Y-103064733D02*
X115991667Y-103464733D01*
X115991667Y-103464733D02*
X116425000Y-103464733D01*
X115233333Y-83414733D02*
X115233333Y-82714733D01*
X115233333Y-82714733D02*
X115466667Y-83214733D01*
X115466667Y-83214733D02*
X115700000Y-82714733D01*
X115700000Y-82714733D02*
X115700000Y-83414733D01*
X116000000Y-82781400D02*
X116033333Y-82748066D01*
X116033333Y-82748066D02*
X116100000Y-82714733D01*
X116100000Y-82714733D02*
X116266667Y-82714733D01*
X116266667Y-82714733D02*
X116333333Y-82748066D01*
X116333333Y-82748066D02*
X116366667Y-82781400D01*
X116366667Y-82781400D02*
X116400000Y-82848066D01*
X116400000Y-82848066D02*
X116400000Y-82914733D01*
X116400000Y-82914733D02*
X116366667Y-83014733D01*
X116366667Y-83014733D02*
X115966667Y-83414733D01*
X115966667Y-83414733D02*
X116400000Y-83414733D01*
D11*
X124570863Y-104242219D02*
X124094673Y-104242219D01*
X124094673Y-104242219D02*
X124094673Y-103242219D01*
X124904197Y-104242219D02*
X124904197Y-103575552D01*
X124904197Y-103242219D02*
X124856578Y-103289838D01*
X124856578Y-103289838D02*
X124904197Y-103337457D01*
X124904197Y-103337457D02*
X124951816Y-103289838D01*
X124951816Y-103289838D02*
X124904197Y-103242219D01*
X124904197Y-103242219D02*
X124904197Y-103337457D01*
X125380387Y-103861266D02*
X126142292Y-103861266D01*
X126618482Y-104242219D02*
X126618482Y-103242219D01*
X126618482Y-103242219D02*
X126999434Y-103242219D01*
X126999434Y-103242219D02*
X127094672Y-103289838D01*
X127094672Y-103289838D02*
X127142291Y-103337457D01*
X127142291Y-103337457D02*
X127189910Y-103432695D01*
X127189910Y-103432695D02*
X127189910Y-103575552D01*
X127189910Y-103575552D02*
X127142291Y-103670790D01*
X127142291Y-103670790D02*
X127094672Y-103718409D01*
X127094672Y-103718409D02*
X126999434Y-103766028D01*
X126999434Y-103766028D02*
X126618482Y-103766028D01*
X127761339Y-104242219D02*
X127666101Y-104194600D01*
X127666101Y-104194600D02*
X127618482Y-104146980D01*
X127618482Y-104146980D02*
X127570863Y-104051742D01*
X127570863Y-104051742D02*
X127570863Y-103766028D01*
X127570863Y-103766028D02*
X127618482Y-103670790D01*
X127618482Y-103670790D02*
X127666101Y-103623171D01*
X127666101Y-103623171D02*
X127761339Y-103575552D01*
X127761339Y-103575552D02*
X127904196Y-103575552D01*
X127904196Y-103575552D02*
X127999434Y-103623171D01*
X127999434Y-103623171D02*
X128047053Y-103670790D01*
X128047053Y-103670790D02*
X128094672Y-103766028D01*
X128094672Y-103766028D02*
X128094672Y-104051742D01*
X128094672Y-104051742D02*
X128047053Y-104146980D01*
X128047053Y-104146980D02*
X127999434Y-104194600D01*
X127999434Y-104194600D02*
X127904196Y-104242219D01*
X127904196Y-104242219D02*
X127761339Y-104242219D01*
X129285149Y-104242219D02*
X129285149Y-103242219D01*
X129285149Y-103242219D02*
X129666101Y-103242219D01*
X129666101Y-103242219D02*
X129761339Y-103289838D01*
X129761339Y-103289838D02*
X129808958Y-103337457D01*
X129808958Y-103337457D02*
X129856577Y-103432695D01*
X129856577Y-103432695D02*
X129856577Y-103575552D01*
X129856577Y-103575552D02*
X129808958Y-103670790D01*
X129808958Y-103670790D02*
X129761339Y-103718409D01*
X129761339Y-103718409D02*
X129666101Y-103766028D01*
X129666101Y-103766028D02*
X129285149Y-103766028D01*
X130428006Y-104242219D02*
X130332768Y-104194600D01*
X130332768Y-104194600D02*
X130285149Y-104146980D01*
X130285149Y-104146980D02*
X130237530Y-104051742D01*
X130237530Y-104051742D02*
X130237530Y-103766028D01*
X130237530Y-103766028D02*
X130285149Y-103670790D01*
X130285149Y-103670790D02*
X130332768Y-103623171D01*
X130332768Y-103623171D02*
X130428006Y-103575552D01*
X130428006Y-103575552D02*
X130570863Y-103575552D01*
X130570863Y-103575552D02*
X130666101Y-103623171D01*
X130666101Y-103623171D02*
X130713720Y-103670790D01*
X130713720Y-103670790D02*
X130761339Y-103766028D01*
X130761339Y-103766028D02*
X130761339Y-104051742D01*
X130761339Y-104051742D02*
X130713720Y-104146980D01*
X130713720Y-104146980D02*
X130666101Y-104194600D01*
X130666101Y-104194600D02*
X130570863Y-104242219D01*
X130570863Y-104242219D02*
X130428006Y-104242219D01*
X131094673Y-103575552D02*
X131285149Y-104242219D01*
X131285149Y-104242219D02*
X131475625Y-103766028D01*
X131475625Y-103766028D02*
X131666101Y-104242219D01*
X131666101Y-104242219D02*
X131856577Y-103575552D01*
X132618482Y-104194600D02*
X132523244Y-104242219D01*
X132523244Y-104242219D02*
X132332768Y-104242219D01*
X132332768Y-104242219D02*
X132237530Y-104194600D01*
X132237530Y-104194600D02*
X132189911Y-104099361D01*
X132189911Y-104099361D02*
X132189911Y-103718409D01*
X132189911Y-103718409D02*
X132237530Y-103623171D01*
X132237530Y-103623171D02*
X132332768Y-103575552D01*
X132332768Y-103575552D02*
X132523244Y-103575552D01*
X132523244Y-103575552D02*
X132618482Y-103623171D01*
X132618482Y-103623171D02*
X132666101Y-103718409D01*
X132666101Y-103718409D02*
X132666101Y-103813647D01*
X132666101Y-103813647D02*
X132189911Y-103908885D01*
X133094673Y-104242219D02*
X133094673Y-103575552D01*
X133094673Y-103766028D02*
X133142292Y-103670790D01*
X133142292Y-103670790D02*
X133189911Y-103623171D01*
X133189911Y-103623171D02*
X133285149Y-103575552D01*
X133285149Y-103575552D02*
X133380387Y-103575552D01*
X134475626Y-104242219D02*
X134475626Y-103242219D01*
X134475626Y-103242219D02*
X134808959Y-103956504D01*
X134808959Y-103956504D02*
X135142292Y-103242219D01*
X135142292Y-103242219D02*
X135142292Y-104242219D01*
X136047054Y-104242219D02*
X136047054Y-103718409D01*
X136047054Y-103718409D02*
X135999435Y-103623171D01*
X135999435Y-103623171D02*
X135904197Y-103575552D01*
X135904197Y-103575552D02*
X135713721Y-103575552D01*
X135713721Y-103575552D02*
X135618483Y-103623171D01*
X136047054Y-104194600D02*
X135951816Y-104242219D01*
X135951816Y-104242219D02*
X135713721Y-104242219D01*
X135713721Y-104242219D02*
X135618483Y-104194600D01*
X135618483Y-104194600D02*
X135570864Y-104099361D01*
X135570864Y-104099361D02*
X135570864Y-104004123D01*
X135570864Y-104004123D02*
X135618483Y-103908885D01*
X135618483Y-103908885D02*
X135713721Y-103861266D01*
X135713721Y-103861266D02*
X135951816Y-103861266D01*
X135951816Y-103861266D02*
X136047054Y-103813647D01*
X136523245Y-103575552D02*
X136523245Y-104242219D01*
X136523245Y-103670790D02*
X136570864Y-103623171D01*
X136570864Y-103623171D02*
X136666102Y-103575552D01*
X136666102Y-103575552D02*
X136808959Y-103575552D01*
X136808959Y-103575552D02*
X136904197Y-103623171D01*
X136904197Y-103623171D02*
X136951816Y-103718409D01*
X136951816Y-103718409D02*
X136951816Y-104242219D01*
X137856578Y-104242219D02*
X137856578Y-103718409D01*
X137856578Y-103718409D02*
X137808959Y-103623171D01*
X137808959Y-103623171D02*
X137713721Y-103575552D01*
X137713721Y-103575552D02*
X137523245Y-103575552D01*
X137523245Y-103575552D02*
X137428007Y-103623171D01*
X137856578Y-104194600D02*
X137761340Y-104242219D01*
X137761340Y-104242219D02*
X137523245Y-104242219D01*
X137523245Y-104242219D02*
X137428007Y-104194600D01*
X137428007Y-104194600D02*
X137380388Y-104099361D01*
X137380388Y-104099361D02*
X137380388Y-104004123D01*
X137380388Y-104004123D02*
X137428007Y-103908885D01*
X137428007Y-103908885D02*
X137523245Y-103861266D01*
X137523245Y-103861266D02*
X137761340Y-103861266D01*
X137761340Y-103861266D02*
X137856578Y-103813647D01*
X138761340Y-103575552D02*
X138761340Y-104385076D01*
X138761340Y-104385076D02*
X138713721Y-104480314D01*
X138713721Y-104480314D02*
X138666102Y-104527933D01*
X138666102Y-104527933D02*
X138570864Y-104575552D01*
X138570864Y-104575552D02*
X138428007Y-104575552D01*
X138428007Y-104575552D02*
X138332769Y-104527933D01*
X138761340Y-104194600D02*
X138666102Y-104242219D01*
X138666102Y-104242219D02*
X138475626Y-104242219D01*
X138475626Y-104242219D02*
X138380388Y-104194600D01*
X138380388Y-104194600D02*
X138332769Y-104146980D01*
X138332769Y-104146980D02*
X138285150Y-104051742D01*
X138285150Y-104051742D02*
X138285150Y-103766028D01*
X138285150Y-103766028D02*
X138332769Y-103670790D01*
X138332769Y-103670790D02*
X138380388Y-103623171D01*
X138380388Y-103623171D02*
X138475626Y-103575552D01*
X138475626Y-103575552D02*
X138666102Y-103575552D01*
X138666102Y-103575552D02*
X138761340Y-103623171D01*
X139618483Y-104194600D02*
X139523245Y-104242219D01*
X139523245Y-104242219D02*
X139332769Y-104242219D01*
X139332769Y-104242219D02*
X139237531Y-104194600D01*
X139237531Y-104194600D02*
X139189912Y-104099361D01*
X139189912Y-104099361D02*
X139189912Y-103718409D01*
X139189912Y-103718409D02*
X139237531Y-103623171D01*
X139237531Y-103623171D02*
X139332769Y-103575552D01*
X139332769Y-103575552D02*
X139523245Y-103575552D01*
X139523245Y-103575552D02*
X139618483Y-103623171D01*
X139618483Y-103623171D02*
X139666102Y-103718409D01*
X139666102Y-103718409D02*
X139666102Y-103813647D01*
X139666102Y-103813647D02*
X139189912Y-103908885D01*
X140094674Y-104242219D02*
X140094674Y-103575552D01*
X140094674Y-103670790D02*
X140142293Y-103623171D01*
X140142293Y-103623171D02*
X140237531Y-103575552D01*
X140237531Y-103575552D02*
X140380388Y-103575552D01*
X140380388Y-103575552D02*
X140475626Y-103623171D01*
X140475626Y-103623171D02*
X140523245Y-103718409D01*
X140523245Y-103718409D02*
X140523245Y-104242219D01*
X140523245Y-103718409D02*
X140570864Y-103623171D01*
X140570864Y-103623171D02*
X140666102Y-103575552D01*
X140666102Y-103575552D02*
X140808959Y-103575552D01*
X140808959Y-103575552D02*
X140904198Y-103623171D01*
X140904198Y-103623171D02*
X140951817Y-103718409D01*
X140951817Y-103718409D02*
X140951817Y-104242219D01*
X141808959Y-104194600D02*
X141713721Y-104242219D01*
X141713721Y-104242219D02*
X141523245Y-104242219D01*
X141523245Y-104242219D02*
X141428007Y-104194600D01*
X141428007Y-104194600D02*
X141380388Y-104099361D01*
X141380388Y-104099361D02*
X141380388Y-103718409D01*
X141380388Y-103718409D02*
X141428007Y-103623171D01*
X141428007Y-103623171D02*
X141523245Y-103575552D01*
X141523245Y-103575552D02*
X141713721Y-103575552D01*
X141713721Y-103575552D02*
X141808959Y-103623171D01*
X141808959Y-103623171D02*
X141856578Y-103718409D01*
X141856578Y-103718409D02*
X141856578Y-103813647D01*
X141856578Y-103813647D02*
X141380388Y-103908885D01*
X142285150Y-103575552D02*
X142285150Y-104242219D01*
X142285150Y-103670790D02*
X142332769Y-103623171D01*
X142332769Y-103623171D02*
X142428007Y-103575552D01*
X142428007Y-103575552D02*
X142570864Y-103575552D01*
X142570864Y-103575552D02*
X142666102Y-103623171D01*
X142666102Y-103623171D02*
X142713721Y-103718409D01*
X142713721Y-103718409D02*
X142713721Y-104242219D01*
X143047055Y-103575552D02*
X143428007Y-103575552D01*
X143189912Y-103242219D02*
X143189912Y-104099361D01*
X143189912Y-104099361D02*
X143237531Y-104194600D01*
X143237531Y-104194600D02*
X143332769Y-104242219D01*
X143332769Y-104242219D02*
X143428007Y-104242219D01*
D12*
X156550001Y-103250000D02*
G75*
G02*
X156551991Y-103237337I-1550001J250100D01*
G01*
D13*
X155819048Y-85418666D02*
X156580953Y-85418666D01*
X156200000Y-85799619D02*
X156200000Y-85037714D01*
X155744048Y-93543666D02*
X156505953Y-93543666D01*
X156125000Y-93924619D02*
X156125000Y-93162714D01*
D12*
X114775001Y-103275100D02*
G75*
G02*
X114776991Y-103262437I-1550005J250072D01*
G01*
X114800005Y-83325072D02*
G75*
G02*
X114801995Y-83312409I-1550005J250072D01*
G01*
X156550001Y-83300100D02*
G75*
G02*
X156551991Y-83287437I-1550005J250072D01*
G01*
D10*
X151883333Y-83389733D02*
X151883333Y-82689733D01*
X151883333Y-82689733D02*
X152116667Y-83189733D01*
X152116667Y-83189733D02*
X152350000Y-82689733D01*
X152350000Y-82689733D02*
X152350000Y-83389733D01*
X152650000Y-82756400D02*
X152683333Y-82723066D01*
X152683333Y-82723066D02*
X152750000Y-82689733D01*
X152750000Y-82689733D02*
X152916667Y-82689733D01*
X152916667Y-82689733D02*
X152983333Y-82723066D01*
X152983333Y-82723066D02*
X153016667Y-82756400D01*
X153016667Y-82756400D02*
X153050000Y-82823066D01*
X153050000Y-82823066D02*
X153050000Y-82889733D01*
X153050000Y-82889733D02*
X153016667Y-82989733D01*
X153016667Y-82989733D02*
X152616667Y-83389733D01*
X152616667Y-83389733D02*
X153050000Y-83389733D01*
D14*
X152491667Y-85666033D02*
X152158333Y-85666033D01*
X152158333Y-85666033D02*
X152158333Y-84966033D01*
X152825000Y-85666033D02*
X152758334Y-85632700D01*
X152758334Y-85632700D02*
X152725000Y-85599366D01*
X152725000Y-85599366D02*
X152691667Y-85532700D01*
X152691667Y-85532700D02*
X152691667Y-85332700D01*
X152691667Y-85332700D02*
X152725000Y-85266033D01*
X152725000Y-85266033D02*
X152758334Y-85232700D01*
X152758334Y-85232700D02*
X152825000Y-85199366D01*
X152825000Y-85199366D02*
X152925000Y-85199366D01*
X152925000Y-85199366D02*
X152991667Y-85232700D01*
X152991667Y-85232700D02*
X153025000Y-85266033D01*
X153025000Y-85266033D02*
X153058334Y-85332700D01*
X153058334Y-85332700D02*
X153058334Y-85532700D01*
X153058334Y-85532700D02*
X153025000Y-85599366D01*
X153025000Y-85599366D02*
X152991667Y-85632700D01*
X152991667Y-85632700D02*
X152925000Y-85666033D01*
X152925000Y-85666033D02*
X152825000Y-85666033D01*
X153658333Y-85666033D02*
X153658333Y-85299366D01*
X153658333Y-85299366D02*
X153625000Y-85232700D01*
X153625000Y-85232700D02*
X153558333Y-85199366D01*
X153558333Y-85199366D02*
X153425000Y-85199366D01*
X153425000Y-85199366D02*
X153358333Y-85232700D01*
X153658333Y-85632700D02*
X153591667Y-85666033D01*
X153591667Y-85666033D02*
X153425000Y-85666033D01*
X153425000Y-85666033D02*
X153358333Y-85632700D01*
X153358333Y-85632700D02*
X153325000Y-85566033D01*
X153325000Y-85566033D02*
X153325000Y-85499366D01*
X153325000Y-85499366D02*
X153358333Y-85432700D01*
X153358333Y-85432700D02*
X153425000Y-85399366D01*
X153425000Y-85399366D02*
X153591667Y-85399366D01*
X153591667Y-85399366D02*
X153658333Y-85366033D01*
X154291666Y-85666033D02*
X154291666Y-84966033D01*
X154291666Y-85632700D02*
X154225000Y-85666033D01*
X154225000Y-85666033D02*
X154091666Y-85666033D01*
X154091666Y-85666033D02*
X154025000Y-85632700D01*
X154025000Y-85632700D02*
X153991666Y-85599366D01*
X153991666Y-85599366D02*
X153958333Y-85532700D01*
X153958333Y-85532700D02*
X153958333Y-85332700D01*
X153958333Y-85332700D02*
X153991666Y-85266033D01*
X153991666Y-85266033D02*
X154025000Y-85232700D01*
X154025000Y-85232700D02*
X154091666Y-85199366D01*
X154091666Y-85199366D02*
X154225000Y-85199366D01*
X154225000Y-85199366D02*
X154291666Y-85232700D01*
D15*
X133091666Y-100299809D02*
X132925000Y-100061714D01*
X132805952Y-100299809D02*
X132805952Y-99799809D01*
X132805952Y-99799809D02*
X132996428Y-99799809D01*
X132996428Y-99799809D02*
X133044047Y-99823619D01*
X133044047Y-99823619D02*
X133067857Y-99847428D01*
X133067857Y-99847428D02*
X133091666Y-99895047D01*
X133091666Y-99895047D02*
X133091666Y-99966476D01*
X133091666Y-99966476D02*
X133067857Y-100014095D01*
X133067857Y-100014095D02*
X133044047Y-100037904D01*
X133044047Y-100037904D02*
X132996428Y-100061714D01*
X132996428Y-100061714D02*
X132805952Y-100061714D01*
X133258333Y-99799809D02*
X133591666Y-99799809D01*
X133591666Y-99799809D02*
X133377381Y-100299809D01*
X124569047Y-95599809D02*
X124569047Y-96004571D01*
X124569047Y-96004571D02*
X124592857Y-96052190D01*
X124592857Y-96052190D02*
X124616666Y-96076000D01*
X124616666Y-96076000D02*
X124664285Y-96099809D01*
X124664285Y-96099809D02*
X124759523Y-96099809D01*
X124759523Y-96099809D02*
X124807142Y-96076000D01*
X124807142Y-96076000D02*
X124830952Y-96052190D01*
X124830952Y-96052190D02*
X124854761Y-96004571D01*
X124854761Y-96004571D02*
X124854761Y-95599809D01*
X125045238Y-95599809D02*
X125354762Y-95599809D01*
X125354762Y-95599809D02*
X125188095Y-95790285D01*
X125188095Y-95790285D02*
X125259524Y-95790285D01*
X125259524Y-95790285D02*
X125307143Y-95814095D01*
X125307143Y-95814095D02*
X125330952Y-95837904D01*
X125330952Y-95837904D02*
X125354762Y-95885523D01*
X125354762Y-95885523D02*
X125354762Y-96004571D01*
X125354762Y-96004571D02*
X125330952Y-96052190D01*
X125330952Y-96052190D02*
X125307143Y-96076000D01*
X125307143Y-96076000D02*
X125259524Y-96099809D01*
X125259524Y-96099809D02*
X125116667Y-96099809D01*
X125116667Y-96099809D02*
X125069048Y-96076000D01*
X125069048Y-96076000D02*
X125045238Y-96052190D01*
X127666666Y-97899809D02*
X127500000Y-97661714D01*
X127380952Y-97899809D02*
X127380952Y-97399809D01*
X127380952Y-97399809D02*
X127571428Y-97399809D01*
X127571428Y-97399809D02*
X127619047Y-97423619D01*
X127619047Y-97423619D02*
X127642857Y-97447428D01*
X127642857Y-97447428D02*
X127666666Y-97495047D01*
X127666666Y-97495047D02*
X127666666Y-97566476D01*
X127666666Y-97566476D02*
X127642857Y-97614095D01*
X127642857Y-97614095D02*
X127619047Y-97637904D01*
X127619047Y-97637904D02*
X127571428Y-97661714D01*
X127571428Y-97661714D02*
X127380952Y-97661714D01*
X127904762Y-97899809D02*
X128000000Y-97899809D01*
X128000000Y-97899809D02*
X128047619Y-97876000D01*
X128047619Y-97876000D02*
X128071428Y-97852190D01*
X128071428Y-97852190D02*
X128119047Y-97780761D01*
X128119047Y-97780761D02*
X128142857Y-97685523D01*
X128142857Y-97685523D02*
X128142857Y-97495047D01*
X128142857Y-97495047D02*
X128119047Y-97447428D01*
X128119047Y-97447428D02*
X128095238Y-97423619D01*
X128095238Y-97423619D02*
X128047619Y-97399809D01*
X128047619Y-97399809D02*
X127952381Y-97399809D01*
X127952381Y-97399809D02*
X127904762Y-97423619D01*
X127904762Y-97423619D02*
X127880952Y-97447428D01*
X127880952Y-97447428D02*
X127857143Y-97495047D01*
X127857143Y-97495047D02*
X127857143Y-97614095D01*
X127857143Y-97614095D02*
X127880952Y-97661714D01*
X127880952Y-97661714D02*
X127904762Y-97685523D01*
X127904762Y-97685523D02*
X127952381Y-97709333D01*
X127952381Y-97709333D02*
X128047619Y-97709333D01*
X128047619Y-97709333D02*
X128095238Y-97685523D01*
X128095238Y-97685523D02*
X128119047Y-97661714D01*
X128119047Y-97661714D02*
X128142857Y-97614095D01*
X121553571Y-97349809D02*
X121386905Y-97111714D01*
X121267857Y-97349809D02*
X121267857Y-96849809D01*
X121267857Y-96849809D02*
X121458333Y-96849809D01*
X121458333Y-96849809D02*
X121505952Y-96873619D01*
X121505952Y-96873619D02*
X121529762Y-96897428D01*
X121529762Y-96897428D02*
X121553571Y-96945047D01*
X121553571Y-96945047D02*
X121553571Y-97016476D01*
X121553571Y-97016476D02*
X121529762Y-97064095D01*
X121529762Y-97064095D02*
X121505952Y-97087904D01*
X121505952Y-97087904D02*
X121458333Y-97111714D01*
X121458333Y-97111714D02*
X121267857Y-97111714D01*
X122029762Y-97349809D02*
X121744048Y-97349809D01*
X121886905Y-97349809D02*
X121886905Y-96849809D01*
X121886905Y-96849809D02*
X121839286Y-96921238D01*
X121839286Y-96921238D02*
X121791667Y-96968857D01*
X121791667Y-96968857D02*
X121744048Y-96992666D01*
X122505952Y-97349809D02*
X122220238Y-97349809D01*
X122363095Y-97349809D02*
X122363095Y-96849809D01*
X122363095Y-96849809D02*
X122315476Y-96921238D01*
X122315476Y-96921238D02*
X122267857Y-96968857D01*
X122267857Y-96968857D02*
X122220238Y-96992666D01*
X126373571Y-90349809D02*
X126206905Y-90111714D01*
X126087857Y-90349809D02*
X126087857Y-89849809D01*
X126087857Y-89849809D02*
X126278333Y-89849809D01*
X126278333Y-89849809D02*
X126325952Y-89873619D01*
X126325952Y-89873619D02*
X126349762Y-89897428D01*
X126349762Y-89897428D02*
X126373571Y-89945047D01*
X126373571Y-89945047D02*
X126373571Y-90016476D01*
X126373571Y-90016476D02*
X126349762Y-90064095D01*
X126349762Y-90064095D02*
X126325952Y-90087904D01*
X126325952Y-90087904D02*
X126278333Y-90111714D01*
X126278333Y-90111714D02*
X126087857Y-90111714D01*
X126849762Y-90349809D02*
X126564048Y-90349809D01*
X126706905Y-90349809D02*
X126706905Y-89849809D01*
X126706905Y-89849809D02*
X126659286Y-89921238D01*
X126659286Y-89921238D02*
X126611667Y-89968857D01*
X126611667Y-89968857D02*
X126564048Y-89992666D01*
X127159285Y-89849809D02*
X127206904Y-89849809D01*
X127206904Y-89849809D02*
X127254523Y-89873619D01*
X127254523Y-89873619D02*
X127278333Y-89897428D01*
X127278333Y-89897428D02*
X127302142Y-89945047D01*
X127302142Y-89945047D02*
X127325952Y-90040285D01*
X127325952Y-90040285D02*
X127325952Y-90159333D01*
X127325952Y-90159333D02*
X127302142Y-90254571D01*
X127302142Y-90254571D02*
X127278333Y-90302190D01*
X127278333Y-90302190D02*
X127254523Y-90326000D01*
X127254523Y-90326000D02*
X127206904Y-90349809D01*
X127206904Y-90349809D02*
X127159285Y-90349809D01*
X127159285Y-90349809D02*
X127111666Y-90326000D01*
X127111666Y-90326000D02*
X127087857Y-90302190D01*
X127087857Y-90302190D02*
X127064047Y-90254571D01*
X127064047Y-90254571D02*
X127040238Y-90159333D01*
X127040238Y-90159333D02*
X127040238Y-90040285D01*
X127040238Y-90040285D02*
X127064047Y-89945047D01*
X127064047Y-89945047D02*
X127087857Y-89897428D01*
X127087857Y-89897428D02*
X127111666Y-89873619D01*
X127111666Y-89873619D02*
X127159285Y-89849809D01*
X126348571Y-87149809D02*
X126181905Y-86911714D01*
X126062857Y-87149809D02*
X126062857Y-86649809D01*
X126062857Y-86649809D02*
X126253333Y-86649809D01*
X126253333Y-86649809D02*
X126300952Y-86673619D01*
X126300952Y-86673619D02*
X126324762Y-86697428D01*
X126324762Y-86697428D02*
X126348571Y-86745047D01*
X126348571Y-86745047D02*
X126348571Y-86816476D01*
X126348571Y-86816476D02*
X126324762Y-86864095D01*
X126324762Y-86864095D02*
X126300952Y-86887904D01*
X126300952Y-86887904D02*
X126253333Y-86911714D01*
X126253333Y-86911714D02*
X126062857Y-86911714D01*
X126824762Y-87149809D02*
X126539048Y-87149809D01*
X126681905Y-87149809D02*
X126681905Y-86649809D01*
X126681905Y-86649809D02*
X126634286Y-86721238D01*
X126634286Y-86721238D02*
X126586667Y-86768857D01*
X126586667Y-86768857D02*
X126539048Y-86792666D01*
X127253333Y-86816476D02*
X127253333Y-87149809D01*
X127134285Y-86626000D02*
X127015238Y-86983142D01*
X127015238Y-86983142D02*
X127324761Y-86983142D01*
X143719047Y-92024809D02*
X143719047Y-92429571D01*
X143719047Y-92429571D02*
X143742857Y-92477190D01*
X143742857Y-92477190D02*
X143766666Y-92501000D01*
X143766666Y-92501000D02*
X143814285Y-92524809D01*
X143814285Y-92524809D02*
X143909523Y-92524809D01*
X143909523Y-92524809D02*
X143957142Y-92501000D01*
X143957142Y-92501000D02*
X143980952Y-92477190D01*
X143980952Y-92477190D02*
X144004761Y-92429571D01*
X144004761Y-92429571D02*
X144004761Y-92024809D01*
X144504762Y-92524809D02*
X144219048Y-92524809D01*
X144361905Y-92524809D02*
X144361905Y-92024809D01*
X144361905Y-92024809D02*
X144314286Y-92096238D01*
X144314286Y-92096238D02*
X144266667Y-92143857D01*
X144266667Y-92143857D02*
X144219048Y-92167666D01*
X126253571Y-92074809D02*
X126086905Y-91836714D01*
X125967857Y-92074809D02*
X125967857Y-91574809D01*
X125967857Y-91574809D02*
X126158333Y-91574809D01*
X126158333Y-91574809D02*
X126205952Y-91598619D01*
X126205952Y-91598619D02*
X126229762Y-91622428D01*
X126229762Y-91622428D02*
X126253571Y-91670047D01*
X126253571Y-91670047D02*
X126253571Y-91741476D01*
X126253571Y-91741476D02*
X126229762Y-91789095D01*
X126229762Y-91789095D02*
X126205952Y-91812904D01*
X126205952Y-91812904D02*
X126158333Y-91836714D01*
X126158333Y-91836714D02*
X125967857Y-91836714D01*
X126729762Y-92074809D02*
X126444048Y-92074809D01*
X126586905Y-92074809D02*
X126586905Y-91574809D01*
X126586905Y-91574809D02*
X126539286Y-91646238D01*
X126539286Y-91646238D02*
X126491667Y-91693857D01*
X126491667Y-91693857D02*
X126444048Y-91717666D01*
X126896428Y-91574809D02*
X127205952Y-91574809D01*
X127205952Y-91574809D02*
X127039285Y-91765285D01*
X127039285Y-91765285D02*
X127110714Y-91765285D01*
X127110714Y-91765285D02*
X127158333Y-91789095D01*
X127158333Y-91789095D02*
X127182142Y-91812904D01*
X127182142Y-91812904D02*
X127205952Y-91860523D01*
X127205952Y-91860523D02*
X127205952Y-91979571D01*
X127205952Y-91979571D02*
X127182142Y-92027190D01*
X127182142Y-92027190D02*
X127158333Y-92051000D01*
X127158333Y-92051000D02*
X127110714Y-92074809D01*
X127110714Y-92074809D02*
X126967857Y-92074809D01*
X126967857Y-92074809D02*
X126920238Y-92051000D01*
X126920238Y-92051000D02*
X126896428Y-92027190D01*
X132869047Y-85899809D02*
X132869047Y-86304571D01*
X132869047Y-86304571D02*
X132892857Y-86352190D01*
X132892857Y-86352190D02*
X132916666Y-86376000D01*
X132916666Y-86376000D02*
X132964285Y-86399809D01*
X132964285Y-86399809D02*
X133059523Y-86399809D01*
X133059523Y-86399809D02*
X133107142Y-86376000D01*
X133107142Y-86376000D02*
X133130952Y-86352190D01*
X133130952Y-86352190D02*
X133154761Y-86304571D01*
X133154761Y-86304571D02*
X133154761Y-85899809D01*
X133369048Y-85947428D02*
X133392857Y-85923619D01*
X133392857Y-85923619D02*
X133440476Y-85899809D01*
X133440476Y-85899809D02*
X133559524Y-85899809D01*
X133559524Y-85899809D02*
X133607143Y-85923619D01*
X133607143Y-85923619D02*
X133630952Y-85947428D01*
X133630952Y-85947428D02*
X133654762Y-85995047D01*
X133654762Y-85995047D02*
X133654762Y-86042666D01*
X133654762Y-86042666D02*
X133630952Y-86114095D01*
X133630952Y-86114095D02*
X133345238Y-86399809D01*
X133345238Y-86399809D02*
X133654762Y-86399809D01*
X123166666Y-95299809D02*
X123000000Y-95061714D01*
X122880952Y-95299809D02*
X122880952Y-94799809D01*
X122880952Y-94799809D02*
X123071428Y-94799809D01*
X123071428Y-94799809D02*
X123119047Y-94823619D01*
X123119047Y-94823619D02*
X123142857Y-94847428D01*
X123142857Y-94847428D02*
X123166666Y-94895047D01*
X123166666Y-94895047D02*
X123166666Y-94966476D01*
X123166666Y-94966476D02*
X123142857Y-95014095D01*
X123142857Y-95014095D02*
X123119047Y-95037904D01*
X123119047Y-95037904D02*
X123071428Y-95061714D01*
X123071428Y-95061714D02*
X122880952Y-95061714D01*
X123357143Y-94847428D02*
X123380952Y-94823619D01*
X123380952Y-94823619D02*
X123428571Y-94799809D01*
X123428571Y-94799809D02*
X123547619Y-94799809D01*
X123547619Y-94799809D02*
X123595238Y-94823619D01*
X123595238Y-94823619D02*
X123619047Y-94847428D01*
X123619047Y-94847428D02*
X123642857Y-94895047D01*
X123642857Y-94895047D02*
X123642857Y-94942666D01*
X123642857Y-94942666D02*
X123619047Y-95014095D01*
X123619047Y-95014095D02*
X123333333Y-95299809D01*
X123333333Y-95299809D02*
X123642857Y-95299809D01*
X141166666Y-86749809D02*
X140928571Y-86749809D01*
X140928571Y-86749809D02*
X140928571Y-86249809D01*
X141595238Y-86749809D02*
X141309524Y-86749809D01*
X141452381Y-86749809D02*
X141452381Y-86249809D01*
X141452381Y-86249809D02*
X141404762Y-86321238D01*
X141404762Y-86321238D02*
X141357143Y-86368857D01*
X141357143Y-86368857D02*
X141309524Y-86392666D01*
X123166666Y-92349809D02*
X123000000Y-92111714D01*
X122880952Y-92349809D02*
X122880952Y-91849809D01*
X122880952Y-91849809D02*
X123071428Y-91849809D01*
X123071428Y-91849809D02*
X123119047Y-91873619D01*
X123119047Y-91873619D02*
X123142857Y-91897428D01*
X123142857Y-91897428D02*
X123166666Y-91945047D01*
X123166666Y-91945047D02*
X123166666Y-92016476D01*
X123166666Y-92016476D02*
X123142857Y-92064095D01*
X123142857Y-92064095D02*
X123119047Y-92087904D01*
X123119047Y-92087904D02*
X123071428Y-92111714D01*
X123071428Y-92111714D02*
X122880952Y-92111714D01*
X123642857Y-92349809D02*
X123357143Y-92349809D01*
X123500000Y-92349809D02*
X123500000Y-91849809D01*
X123500000Y-91849809D02*
X123452381Y-91921238D01*
X123452381Y-91921238D02*
X123404762Y-91968857D01*
X123404762Y-91968857D02*
X123357143Y-91992666D01*
X127466666Y-95552190D02*
X127442857Y-95576000D01*
X127442857Y-95576000D02*
X127371428Y-95599809D01*
X127371428Y-95599809D02*
X127323809Y-95599809D01*
X127323809Y-95599809D02*
X127252381Y-95576000D01*
X127252381Y-95576000D02*
X127204762Y-95528380D01*
X127204762Y-95528380D02*
X127180952Y-95480761D01*
X127180952Y-95480761D02*
X127157143Y-95385523D01*
X127157143Y-95385523D02*
X127157143Y-95314095D01*
X127157143Y-95314095D02*
X127180952Y-95218857D01*
X127180952Y-95218857D02*
X127204762Y-95171238D01*
X127204762Y-95171238D02*
X127252381Y-95123619D01*
X127252381Y-95123619D02*
X127323809Y-95099809D01*
X127323809Y-95099809D02*
X127371428Y-95099809D01*
X127371428Y-95099809D02*
X127442857Y-95123619D01*
X127442857Y-95123619D02*
X127466666Y-95147428D01*
X127919047Y-95099809D02*
X127680952Y-95099809D01*
X127680952Y-95099809D02*
X127657143Y-95337904D01*
X127657143Y-95337904D02*
X127680952Y-95314095D01*
X127680952Y-95314095D02*
X127728571Y-95290285D01*
X127728571Y-95290285D02*
X127847619Y-95290285D01*
X127847619Y-95290285D02*
X127895238Y-95314095D01*
X127895238Y-95314095D02*
X127919047Y-95337904D01*
X127919047Y-95337904D02*
X127942857Y-95385523D01*
X127942857Y-95385523D02*
X127942857Y-95504571D01*
X127942857Y-95504571D02*
X127919047Y-95552190D01*
X127919047Y-95552190D02*
X127895238Y-95576000D01*
X127895238Y-95576000D02*
X127847619Y-95599809D01*
X127847619Y-95599809D02*
X127728571Y-95599809D01*
X127728571Y-95599809D02*
X127680952Y-95576000D01*
X127680952Y-95576000D02*
X127657143Y-95552190D01*
X146366666Y-97377190D02*
X146342857Y-97401000D01*
X146342857Y-97401000D02*
X146271428Y-97424809D01*
X146271428Y-97424809D02*
X146223809Y-97424809D01*
X146223809Y-97424809D02*
X146152381Y-97401000D01*
X146152381Y-97401000D02*
X146104762Y-97353380D01*
X146104762Y-97353380D02*
X146080952Y-97305761D01*
X146080952Y-97305761D02*
X146057143Y-97210523D01*
X146057143Y-97210523D02*
X146057143Y-97139095D01*
X146057143Y-97139095D02*
X146080952Y-97043857D01*
X146080952Y-97043857D02*
X146104762Y-96996238D01*
X146104762Y-96996238D02*
X146152381Y-96948619D01*
X146152381Y-96948619D02*
X146223809Y-96924809D01*
X146223809Y-96924809D02*
X146271428Y-96924809D01*
X146271428Y-96924809D02*
X146342857Y-96948619D01*
X146342857Y-96948619D02*
X146366666Y-96972428D01*
X146795238Y-97091476D02*
X146795238Y-97424809D01*
X146676190Y-96901000D02*
X146557143Y-97258142D01*
X146557143Y-97258142D02*
X146866666Y-97258142D01*
X139291666Y-95799809D02*
X139125000Y-95561714D01*
X139005952Y-95799809D02*
X139005952Y-95299809D01*
X139005952Y-95299809D02*
X139196428Y-95299809D01*
X139196428Y-95299809D02*
X139244047Y-95323619D01*
X139244047Y-95323619D02*
X139267857Y-95347428D01*
X139267857Y-95347428D02*
X139291666Y-95395047D01*
X139291666Y-95395047D02*
X139291666Y-95466476D01*
X139291666Y-95466476D02*
X139267857Y-95514095D01*
X139267857Y-95514095D02*
X139244047Y-95537904D01*
X139244047Y-95537904D02*
X139196428Y-95561714D01*
X139196428Y-95561714D02*
X139005952Y-95561714D01*
X139720238Y-95466476D02*
X139720238Y-95799809D01*
X139601190Y-95276000D02*
X139482143Y-95633142D01*
X139482143Y-95633142D02*
X139791666Y-95633142D01*
X130316666Y-84477190D02*
X130292857Y-84501000D01*
X130292857Y-84501000D02*
X130221428Y-84524809D01*
X130221428Y-84524809D02*
X130173809Y-84524809D01*
X130173809Y-84524809D02*
X130102381Y-84501000D01*
X130102381Y-84501000D02*
X130054762Y-84453380D01*
X130054762Y-84453380D02*
X130030952Y-84405761D01*
X130030952Y-84405761D02*
X130007143Y-84310523D01*
X130007143Y-84310523D02*
X130007143Y-84239095D01*
X130007143Y-84239095D02*
X130030952Y-84143857D01*
X130030952Y-84143857D02*
X130054762Y-84096238D01*
X130054762Y-84096238D02*
X130102381Y-84048619D01*
X130102381Y-84048619D02*
X130173809Y-84024809D01*
X130173809Y-84024809D02*
X130221428Y-84024809D01*
X130221428Y-84024809D02*
X130292857Y-84048619D01*
X130292857Y-84048619D02*
X130316666Y-84072428D01*
X130745238Y-84024809D02*
X130650000Y-84024809D01*
X130650000Y-84024809D02*
X130602381Y-84048619D01*
X130602381Y-84048619D02*
X130578571Y-84072428D01*
X130578571Y-84072428D02*
X130530952Y-84143857D01*
X130530952Y-84143857D02*
X130507143Y-84239095D01*
X130507143Y-84239095D02*
X130507143Y-84429571D01*
X130507143Y-84429571D02*
X130530952Y-84477190D01*
X130530952Y-84477190D02*
X130554762Y-84501000D01*
X130554762Y-84501000D02*
X130602381Y-84524809D01*
X130602381Y-84524809D02*
X130697619Y-84524809D01*
X130697619Y-84524809D02*
X130745238Y-84501000D01*
X130745238Y-84501000D02*
X130769047Y-84477190D01*
X130769047Y-84477190D02*
X130792857Y-84429571D01*
X130792857Y-84429571D02*
X130792857Y-84310523D01*
X130792857Y-84310523D02*
X130769047Y-84262904D01*
X130769047Y-84262904D02*
X130745238Y-84239095D01*
X130745238Y-84239095D02*
X130697619Y-84215285D01*
X130697619Y-84215285D02*
X130602381Y-84215285D01*
X130602381Y-84215285D02*
X130554762Y-84239095D01*
X130554762Y-84239095D02*
X130530952Y-84262904D01*
X130530952Y-84262904D02*
X130507143Y-84310523D01*
X139371666Y-92054809D02*
X139205000Y-91816714D01*
X139085952Y-92054809D02*
X139085952Y-91554809D01*
X139085952Y-91554809D02*
X139276428Y-91554809D01*
X139276428Y-91554809D02*
X139324047Y-91578619D01*
X139324047Y-91578619D02*
X139347857Y-91602428D01*
X139347857Y-91602428D02*
X139371666Y-91650047D01*
X139371666Y-91650047D02*
X139371666Y-91721476D01*
X139371666Y-91721476D02*
X139347857Y-91769095D01*
X139347857Y-91769095D02*
X139324047Y-91792904D01*
X139324047Y-91792904D02*
X139276428Y-91816714D01*
X139276428Y-91816714D02*
X139085952Y-91816714D01*
X139538333Y-91554809D02*
X139847857Y-91554809D01*
X139847857Y-91554809D02*
X139681190Y-91745285D01*
X139681190Y-91745285D02*
X139752619Y-91745285D01*
X139752619Y-91745285D02*
X139800238Y-91769095D01*
X139800238Y-91769095D02*
X139824047Y-91792904D01*
X139824047Y-91792904D02*
X139847857Y-91840523D01*
X139847857Y-91840523D02*
X139847857Y-91959571D01*
X139847857Y-91959571D02*
X139824047Y-92007190D01*
X139824047Y-92007190D02*
X139800238Y-92031000D01*
X139800238Y-92031000D02*
X139752619Y-92054809D01*
X139752619Y-92054809D02*
X139609762Y-92054809D01*
X139609762Y-92054809D02*
X139562143Y-92031000D01*
X139562143Y-92031000D02*
X139538333Y-92007190D01*
X145966666Y-91252190D02*
X145942857Y-91276000D01*
X145942857Y-91276000D02*
X145871428Y-91299809D01*
X145871428Y-91299809D02*
X145823809Y-91299809D01*
X145823809Y-91299809D02*
X145752381Y-91276000D01*
X145752381Y-91276000D02*
X145704762Y-91228380D01*
X145704762Y-91228380D02*
X145680952Y-91180761D01*
X145680952Y-91180761D02*
X145657143Y-91085523D01*
X145657143Y-91085523D02*
X145657143Y-91014095D01*
X145657143Y-91014095D02*
X145680952Y-90918857D01*
X145680952Y-90918857D02*
X145704762Y-90871238D01*
X145704762Y-90871238D02*
X145752381Y-90823619D01*
X145752381Y-90823619D02*
X145823809Y-90799809D01*
X145823809Y-90799809D02*
X145871428Y-90799809D01*
X145871428Y-90799809D02*
X145942857Y-90823619D01*
X145942857Y-90823619D02*
X145966666Y-90847428D01*
X146133333Y-90799809D02*
X146442857Y-90799809D01*
X146442857Y-90799809D02*
X146276190Y-90990285D01*
X146276190Y-90990285D02*
X146347619Y-90990285D01*
X146347619Y-90990285D02*
X146395238Y-91014095D01*
X146395238Y-91014095D02*
X146419047Y-91037904D01*
X146419047Y-91037904D02*
X146442857Y-91085523D01*
X146442857Y-91085523D02*
X146442857Y-91204571D01*
X146442857Y-91204571D02*
X146419047Y-91252190D01*
X146419047Y-91252190D02*
X146395238Y-91276000D01*
X146395238Y-91276000D02*
X146347619Y-91299809D01*
X146347619Y-91299809D02*
X146204762Y-91299809D01*
X146204762Y-91299809D02*
X146157143Y-91276000D01*
X146157143Y-91276000D02*
X146133333Y-91252190D01*
X122311666Y-85127190D02*
X122287857Y-85151000D01*
X122287857Y-85151000D02*
X122216428Y-85174809D01*
X122216428Y-85174809D02*
X122168809Y-85174809D01*
X122168809Y-85174809D02*
X122097381Y-85151000D01*
X122097381Y-85151000D02*
X122049762Y-85103380D01*
X122049762Y-85103380D02*
X122025952Y-85055761D01*
X122025952Y-85055761D02*
X122002143Y-84960523D01*
X122002143Y-84960523D02*
X122002143Y-84889095D01*
X122002143Y-84889095D02*
X122025952Y-84793857D01*
X122025952Y-84793857D02*
X122049762Y-84746238D01*
X122049762Y-84746238D02*
X122097381Y-84698619D01*
X122097381Y-84698619D02*
X122168809Y-84674809D01*
X122168809Y-84674809D02*
X122216428Y-84674809D01*
X122216428Y-84674809D02*
X122287857Y-84698619D01*
X122287857Y-84698619D02*
X122311666Y-84722428D01*
X122502143Y-84722428D02*
X122525952Y-84698619D01*
X122525952Y-84698619D02*
X122573571Y-84674809D01*
X122573571Y-84674809D02*
X122692619Y-84674809D01*
X122692619Y-84674809D02*
X122740238Y-84698619D01*
X122740238Y-84698619D02*
X122764047Y-84722428D01*
X122764047Y-84722428D02*
X122787857Y-84770047D01*
X122787857Y-84770047D02*
X122787857Y-84817666D01*
X122787857Y-84817666D02*
X122764047Y-84889095D01*
X122764047Y-84889095D02*
X122478333Y-85174809D01*
X122478333Y-85174809D02*
X122787857Y-85174809D01*
X118766666Y-84802190D02*
X118742857Y-84826000D01*
X118742857Y-84826000D02*
X118671428Y-84849809D01*
X118671428Y-84849809D02*
X118623809Y-84849809D01*
X118623809Y-84849809D02*
X118552381Y-84826000D01*
X118552381Y-84826000D02*
X118504762Y-84778380D01*
X118504762Y-84778380D02*
X118480952Y-84730761D01*
X118480952Y-84730761D02*
X118457143Y-84635523D01*
X118457143Y-84635523D02*
X118457143Y-84564095D01*
X118457143Y-84564095D02*
X118480952Y-84468857D01*
X118480952Y-84468857D02*
X118504762Y-84421238D01*
X118504762Y-84421238D02*
X118552381Y-84373619D01*
X118552381Y-84373619D02*
X118623809Y-84349809D01*
X118623809Y-84349809D02*
X118671428Y-84349809D01*
X118671428Y-84349809D02*
X118742857Y-84373619D01*
X118742857Y-84373619D02*
X118766666Y-84397428D01*
X119242857Y-84849809D02*
X118957143Y-84849809D01*
X119100000Y-84849809D02*
X119100000Y-84349809D01*
X119100000Y-84349809D02*
X119052381Y-84421238D01*
X119052381Y-84421238D02*
X119004762Y-84468857D01*
X119004762Y-84468857D02*
X118957143Y-84492666D01*
X137441666Y-84077190D02*
X137417857Y-84101000D01*
X137417857Y-84101000D02*
X137346428Y-84124809D01*
X137346428Y-84124809D02*
X137298809Y-84124809D01*
X137298809Y-84124809D02*
X137227381Y-84101000D01*
X137227381Y-84101000D02*
X137179762Y-84053380D01*
X137179762Y-84053380D02*
X137155952Y-84005761D01*
X137155952Y-84005761D02*
X137132143Y-83910523D01*
X137132143Y-83910523D02*
X137132143Y-83839095D01*
X137132143Y-83839095D02*
X137155952Y-83743857D01*
X137155952Y-83743857D02*
X137179762Y-83696238D01*
X137179762Y-83696238D02*
X137227381Y-83648619D01*
X137227381Y-83648619D02*
X137298809Y-83624809D01*
X137298809Y-83624809D02*
X137346428Y-83624809D01*
X137346428Y-83624809D02*
X137417857Y-83648619D01*
X137417857Y-83648619D02*
X137441666Y-83672428D01*
X137727381Y-83839095D02*
X137679762Y-83815285D01*
X137679762Y-83815285D02*
X137655952Y-83791476D01*
X137655952Y-83791476D02*
X137632143Y-83743857D01*
X137632143Y-83743857D02*
X137632143Y-83720047D01*
X137632143Y-83720047D02*
X137655952Y-83672428D01*
X137655952Y-83672428D02*
X137679762Y-83648619D01*
X137679762Y-83648619D02*
X137727381Y-83624809D01*
X137727381Y-83624809D02*
X137822619Y-83624809D01*
X137822619Y-83624809D02*
X137870238Y-83648619D01*
X137870238Y-83648619D02*
X137894047Y-83672428D01*
X137894047Y-83672428D02*
X137917857Y-83720047D01*
X137917857Y-83720047D02*
X137917857Y-83743857D01*
X137917857Y-83743857D02*
X137894047Y-83791476D01*
X137894047Y-83791476D02*
X137870238Y-83815285D01*
X137870238Y-83815285D02*
X137822619Y-83839095D01*
X137822619Y-83839095D02*
X137727381Y-83839095D01*
X137727381Y-83839095D02*
X137679762Y-83862904D01*
X137679762Y-83862904D02*
X137655952Y-83886714D01*
X137655952Y-83886714D02*
X137632143Y-83934333D01*
X137632143Y-83934333D02*
X137632143Y-84029571D01*
X137632143Y-84029571D02*
X137655952Y-84077190D01*
X137655952Y-84077190D02*
X137679762Y-84101000D01*
X137679762Y-84101000D02*
X137727381Y-84124809D01*
X137727381Y-84124809D02*
X137822619Y-84124809D01*
X137822619Y-84124809D02*
X137870238Y-84101000D01*
X137870238Y-84101000D02*
X137894047Y-84077190D01*
X137894047Y-84077190D02*
X137917857Y-84029571D01*
X137917857Y-84029571D02*
X137917857Y-83934333D01*
X137917857Y-83934333D02*
X137894047Y-83886714D01*
X137894047Y-83886714D02*
X137870238Y-83862904D01*
X137870238Y-83862904D02*
X137822619Y-83839095D01*
X126353571Y-88924809D02*
X126186905Y-88686714D01*
X126067857Y-88924809D02*
X126067857Y-88424809D01*
X126067857Y-88424809D02*
X126258333Y-88424809D01*
X126258333Y-88424809D02*
X126305952Y-88448619D01*
X126305952Y-88448619D02*
X126329762Y-88472428D01*
X126329762Y-88472428D02*
X126353571Y-88520047D01*
X126353571Y-88520047D02*
X126353571Y-88591476D01*
X126353571Y-88591476D02*
X126329762Y-88639095D01*
X126329762Y-88639095D02*
X126305952Y-88662904D01*
X126305952Y-88662904D02*
X126258333Y-88686714D01*
X126258333Y-88686714D02*
X126067857Y-88686714D01*
X126829762Y-88924809D02*
X126544048Y-88924809D01*
X126686905Y-88924809D02*
X126686905Y-88424809D01*
X126686905Y-88424809D02*
X126639286Y-88496238D01*
X126639286Y-88496238D02*
X126591667Y-88543857D01*
X126591667Y-88543857D02*
X126544048Y-88567666D01*
X127020238Y-88472428D02*
X127044047Y-88448619D01*
X127044047Y-88448619D02*
X127091666Y-88424809D01*
X127091666Y-88424809D02*
X127210714Y-88424809D01*
X127210714Y-88424809D02*
X127258333Y-88448619D01*
X127258333Y-88448619D02*
X127282142Y-88472428D01*
X127282142Y-88472428D02*
X127305952Y-88520047D01*
X127305952Y-88520047D02*
X127305952Y-88567666D01*
X127305952Y-88567666D02*
X127282142Y-88639095D01*
X127282142Y-88639095D02*
X126996428Y-88924809D01*
X126996428Y-88924809D02*
X127305952Y-88924809D01*
X121780952Y-84149809D02*
X121780952Y-83649809D01*
X121780952Y-83649809D02*
X121900000Y-83649809D01*
X121900000Y-83649809D02*
X121971428Y-83673619D01*
X121971428Y-83673619D02*
X122019047Y-83721238D01*
X122019047Y-83721238D02*
X122042857Y-83768857D01*
X122042857Y-83768857D02*
X122066666Y-83864095D01*
X122066666Y-83864095D02*
X122066666Y-83935523D01*
X122066666Y-83935523D02*
X122042857Y-84030761D01*
X122042857Y-84030761D02*
X122019047Y-84078380D01*
X122019047Y-84078380D02*
X121971428Y-84126000D01*
X121971428Y-84126000D02*
X121900000Y-84149809D01*
X121900000Y-84149809D02*
X121780952Y-84149809D01*
X122542857Y-84149809D02*
X122257143Y-84149809D01*
X122400000Y-84149809D02*
X122400000Y-83649809D01*
X122400000Y-83649809D02*
X122352381Y-83721238D01*
X122352381Y-83721238D02*
X122304762Y-83768857D01*
X122304762Y-83768857D02*
X122257143Y-83792666D01*
X143952380Y-99262428D02*
X143904761Y-99238619D01*
X143904761Y-99238619D02*
X143857142Y-99191000D01*
X143857142Y-99191000D02*
X143785714Y-99119571D01*
X143785714Y-99119571D02*
X143738095Y-99095761D01*
X143738095Y-99095761D02*
X143690476Y-99095761D01*
X143714285Y-99214809D02*
X143666666Y-99191000D01*
X143666666Y-99191000D02*
X143619047Y-99143380D01*
X143619047Y-99143380D02*
X143595238Y-99048142D01*
X143595238Y-99048142D02*
X143595238Y-98881476D01*
X143595238Y-98881476D02*
X143619047Y-98786238D01*
X143619047Y-98786238D02*
X143666666Y-98738619D01*
X143666666Y-98738619D02*
X143714285Y-98714809D01*
X143714285Y-98714809D02*
X143809523Y-98714809D01*
X143809523Y-98714809D02*
X143857142Y-98738619D01*
X143857142Y-98738619D02*
X143904761Y-98786238D01*
X143904761Y-98786238D02*
X143928571Y-98881476D01*
X143928571Y-98881476D02*
X143928571Y-99048142D01*
X143928571Y-99048142D02*
X143904761Y-99143380D01*
X143904761Y-99143380D02*
X143857142Y-99191000D01*
X143857142Y-99191000D02*
X143809523Y-99214809D01*
X143809523Y-99214809D02*
X143714285Y-99214809D01*
X144404762Y-99214809D02*
X144119048Y-99214809D01*
X144261905Y-99214809D02*
X144261905Y-98714809D01*
X144261905Y-98714809D02*
X144214286Y-98786238D01*
X144214286Y-98786238D02*
X144166667Y-98833857D01*
X144166667Y-98833857D02*
X144119048Y-98857666D01*
X130916666Y-99202190D02*
X130892857Y-99226000D01*
X130892857Y-99226000D02*
X130821428Y-99249809D01*
X130821428Y-99249809D02*
X130773809Y-99249809D01*
X130773809Y-99249809D02*
X130702381Y-99226000D01*
X130702381Y-99226000D02*
X130654762Y-99178380D01*
X130654762Y-99178380D02*
X130630952Y-99130761D01*
X130630952Y-99130761D02*
X130607143Y-99035523D01*
X130607143Y-99035523D02*
X130607143Y-98964095D01*
X130607143Y-98964095D02*
X130630952Y-98868857D01*
X130630952Y-98868857D02*
X130654762Y-98821238D01*
X130654762Y-98821238D02*
X130702381Y-98773619D01*
X130702381Y-98773619D02*
X130773809Y-98749809D01*
X130773809Y-98749809D02*
X130821428Y-98749809D01*
X130821428Y-98749809D02*
X130892857Y-98773619D01*
X130892857Y-98773619D02*
X130916666Y-98797428D01*
X131083333Y-98749809D02*
X131416666Y-98749809D01*
X131416666Y-98749809D02*
X131202381Y-99249809D01*
X132540476Y-95274809D02*
X132302381Y-95274809D01*
X132302381Y-95274809D02*
X132302381Y-94774809D01*
X132707143Y-95012904D02*
X132873810Y-95012904D01*
X132945238Y-95274809D02*
X132707143Y-95274809D01*
X132707143Y-95274809D02*
X132707143Y-94774809D01*
X132707143Y-94774809D02*
X132945238Y-94774809D01*
X133159524Y-95274809D02*
X133159524Y-94774809D01*
X133159524Y-94774809D02*
X133278572Y-94774809D01*
X133278572Y-94774809D02*
X133350000Y-94798619D01*
X133350000Y-94798619D02*
X133397619Y-94846238D01*
X133397619Y-94846238D02*
X133421429Y-94893857D01*
X133421429Y-94893857D02*
X133445238Y-94989095D01*
X133445238Y-94989095D02*
X133445238Y-95060523D01*
X133445238Y-95060523D02*
X133421429Y-95155761D01*
X133421429Y-95155761D02*
X133397619Y-95203380D01*
X133397619Y-95203380D02*
X133350000Y-95251000D01*
X133350000Y-95251000D02*
X133278572Y-95274809D01*
X133278572Y-95274809D02*
X133159524Y-95274809D01*
X133635715Y-94822428D02*
X133659524Y-94798619D01*
X133659524Y-94798619D02*
X133707143Y-94774809D01*
X133707143Y-94774809D02*
X133826191Y-94774809D01*
X133826191Y-94774809D02*
X133873810Y-94798619D01*
X133873810Y-94798619D02*
X133897619Y-94822428D01*
X133897619Y-94822428D02*
X133921429Y-94870047D01*
X133921429Y-94870047D02*
X133921429Y-94917666D01*
X133921429Y-94917666D02*
X133897619Y-94989095D01*
X133897619Y-94989095D02*
X133611905Y-95274809D01*
X133611905Y-95274809D02*
X133921429Y-95274809D01*
X135841666Y-100299809D02*
X135675000Y-100061714D01*
X135555952Y-100299809D02*
X135555952Y-99799809D01*
X135555952Y-99799809D02*
X135746428Y-99799809D01*
X135746428Y-99799809D02*
X135794047Y-99823619D01*
X135794047Y-99823619D02*
X135817857Y-99847428D01*
X135817857Y-99847428D02*
X135841666Y-99895047D01*
X135841666Y-99895047D02*
X135841666Y-99966476D01*
X135841666Y-99966476D02*
X135817857Y-100014095D01*
X135817857Y-100014095D02*
X135794047Y-100037904D01*
X135794047Y-100037904D02*
X135746428Y-100061714D01*
X135746428Y-100061714D02*
X135555952Y-100061714D01*
X136270238Y-99799809D02*
X136175000Y-99799809D01*
X136175000Y-99799809D02*
X136127381Y-99823619D01*
X136127381Y-99823619D02*
X136103571Y-99847428D01*
X136103571Y-99847428D02*
X136055952Y-99918857D01*
X136055952Y-99918857D02*
X136032143Y-100014095D01*
X136032143Y-100014095D02*
X136032143Y-100204571D01*
X136032143Y-100204571D02*
X136055952Y-100252190D01*
X136055952Y-100252190D02*
X136079762Y-100276000D01*
X136079762Y-100276000D02*
X136127381Y-100299809D01*
X136127381Y-100299809D02*
X136222619Y-100299809D01*
X136222619Y-100299809D02*
X136270238Y-100276000D01*
X136270238Y-100276000D02*
X136294047Y-100252190D01*
X136294047Y-100252190D02*
X136317857Y-100204571D01*
X136317857Y-100204571D02*
X136317857Y-100085523D01*
X136317857Y-100085523D02*
X136294047Y-100037904D01*
X136294047Y-100037904D02*
X136270238Y-100014095D01*
X136270238Y-100014095D02*
X136222619Y-99990285D01*
X136222619Y-99990285D02*
X136127381Y-99990285D01*
X136127381Y-99990285D02*
X136079762Y-100014095D01*
X136079762Y-100014095D02*
X136055952Y-100037904D01*
X136055952Y-100037904D02*
X136032143Y-100085523D01*
X137566666Y-88324809D02*
X137400000Y-88086714D01*
X137280952Y-88324809D02*
X137280952Y-87824809D01*
X137280952Y-87824809D02*
X137471428Y-87824809D01*
X137471428Y-87824809D02*
X137519047Y-87848619D01*
X137519047Y-87848619D02*
X137542857Y-87872428D01*
X137542857Y-87872428D02*
X137566666Y-87920047D01*
X137566666Y-87920047D02*
X137566666Y-87991476D01*
X137566666Y-87991476D02*
X137542857Y-88039095D01*
X137542857Y-88039095D02*
X137519047Y-88062904D01*
X137519047Y-88062904D02*
X137471428Y-88086714D01*
X137471428Y-88086714D02*
X137280952Y-88086714D01*
X138019047Y-87824809D02*
X137780952Y-87824809D01*
X137780952Y-87824809D02*
X137757143Y-88062904D01*
X137757143Y-88062904D02*
X137780952Y-88039095D01*
X137780952Y-88039095D02*
X137828571Y-88015285D01*
X137828571Y-88015285D02*
X137947619Y-88015285D01*
X137947619Y-88015285D02*
X137995238Y-88039095D01*
X137995238Y-88039095D02*
X138019047Y-88062904D01*
X138019047Y-88062904D02*
X138042857Y-88110523D01*
X138042857Y-88110523D02*
X138042857Y-88229571D01*
X138042857Y-88229571D02*
X138019047Y-88277190D01*
X138019047Y-88277190D02*
X137995238Y-88301000D01*
X137995238Y-88301000D02*
X137947619Y-88324809D01*
X137947619Y-88324809D02*
X137828571Y-88324809D01*
X137828571Y-88324809D02*
X137780952Y-88301000D01*
X137780952Y-88301000D02*
X137757143Y-88277190D01*
X135540476Y-94974809D02*
X135302381Y-94974809D01*
X135302381Y-94974809D02*
X135302381Y-94474809D01*
X135707143Y-94712904D02*
X135873810Y-94712904D01*
X135945238Y-94974809D02*
X135707143Y-94974809D01*
X135707143Y-94974809D02*
X135707143Y-94474809D01*
X135707143Y-94474809D02*
X135945238Y-94474809D01*
X136159524Y-94974809D02*
X136159524Y-94474809D01*
X136159524Y-94474809D02*
X136278572Y-94474809D01*
X136278572Y-94474809D02*
X136350000Y-94498619D01*
X136350000Y-94498619D02*
X136397619Y-94546238D01*
X136397619Y-94546238D02*
X136421429Y-94593857D01*
X136421429Y-94593857D02*
X136445238Y-94689095D01*
X136445238Y-94689095D02*
X136445238Y-94760523D01*
X136445238Y-94760523D02*
X136421429Y-94855761D01*
X136421429Y-94855761D02*
X136397619Y-94903380D01*
X136397619Y-94903380D02*
X136350000Y-94951000D01*
X136350000Y-94951000D02*
X136278572Y-94974809D01*
X136278572Y-94974809D02*
X136159524Y-94974809D01*
X136921429Y-94974809D02*
X136635715Y-94974809D01*
X136778572Y-94974809D02*
X136778572Y-94474809D01*
X136778572Y-94474809D02*
X136730953Y-94546238D01*
X136730953Y-94546238D02*
X136683334Y-94593857D01*
X136683334Y-94593857D02*
X136635715Y-94617666D01*
D14*
X151625001Y-93349366D02*
X151725001Y-93382700D01*
X151725001Y-93382700D02*
X151758334Y-93416033D01*
X151758334Y-93416033D02*
X151791667Y-93482700D01*
X151791667Y-93482700D02*
X151791667Y-93582700D01*
X151791667Y-93582700D02*
X151758334Y-93649366D01*
X151758334Y-93649366D02*
X151725001Y-93682700D01*
X151725001Y-93682700D02*
X151658334Y-93716033D01*
X151658334Y-93716033D02*
X151391667Y-93716033D01*
X151391667Y-93716033D02*
X151391667Y-93016033D01*
X151391667Y-93016033D02*
X151625001Y-93016033D01*
X151625001Y-93016033D02*
X151691667Y-93049366D01*
X151691667Y-93049366D02*
X151725001Y-93082700D01*
X151725001Y-93082700D02*
X151758334Y-93149366D01*
X151758334Y-93149366D02*
X151758334Y-93216033D01*
X151758334Y-93216033D02*
X151725001Y-93282700D01*
X151725001Y-93282700D02*
X151691667Y-93316033D01*
X151691667Y-93316033D02*
X151625001Y-93349366D01*
X151625001Y-93349366D02*
X151391667Y-93349366D01*
X152391667Y-93716033D02*
X152391667Y-93349366D01*
X152391667Y-93349366D02*
X152358334Y-93282700D01*
X152358334Y-93282700D02*
X152291667Y-93249366D01*
X152291667Y-93249366D02*
X152158334Y-93249366D01*
X152158334Y-93249366D02*
X152091667Y-93282700D01*
X152391667Y-93682700D02*
X152325001Y-93716033D01*
X152325001Y-93716033D02*
X152158334Y-93716033D01*
X152158334Y-93716033D02*
X152091667Y-93682700D01*
X152091667Y-93682700D02*
X152058334Y-93616033D01*
X152058334Y-93616033D02*
X152058334Y-93549366D01*
X152058334Y-93549366D02*
X152091667Y-93482700D01*
X152091667Y-93482700D02*
X152158334Y-93449366D01*
X152158334Y-93449366D02*
X152325001Y-93449366D01*
X152325001Y-93449366D02*
X152391667Y-93416033D01*
X152625000Y-93249366D02*
X152891667Y-93249366D01*
X152725000Y-93016033D02*
X152725000Y-93616033D01*
X152725000Y-93616033D02*
X152758334Y-93682700D01*
X152758334Y-93682700D02*
X152825000Y-93716033D01*
X152825000Y-93716033D02*
X152891667Y-93716033D01*
X153025000Y-93249366D02*
X153291667Y-93249366D01*
X153125000Y-93016033D02*
X153125000Y-93616033D01*
X153125000Y-93616033D02*
X153158334Y-93682700D01*
X153158334Y-93682700D02*
X153225000Y-93716033D01*
X153225000Y-93716033D02*
X153291667Y-93716033D01*
X153791667Y-93682700D02*
X153725000Y-93716033D01*
X153725000Y-93716033D02*
X153591667Y-93716033D01*
X153591667Y-93716033D02*
X153525000Y-93682700D01*
X153525000Y-93682700D02*
X153491667Y-93616033D01*
X153491667Y-93616033D02*
X153491667Y-93349366D01*
X153491667Y-93349366D02*
X153525000Y-93282700D01*
X153525000Y-93282700D02*
X153591667Y-93249366D01*
X153591667Y-93249366D02*
X153725000Y-93249366D01*
X153725000Y-93249366D02*
X153791667Y-93282700D01*
X153791667Y-93282700D02*
X153825000Y-93349366D01*
X153825000Y-93349366D02*
X153825000Y-93416033D01*
X153825000Y-93416033D02*
X153491667Y-93482700D01*
X154125000Y-93716033D02*
X154125000Y-93249366D01*
X154125000Y-93382700D02*
X154158334Y-93316033D01*
X154158334Y-93316033D02*
X154191667Y-93282700D01*
X154191667Y-93282700D02*
X154258334Y-93249366D01*
X154258334Y-93249366D02*
X154325000Y-93249366D01*
X154491667Y-93249366D02*
X154658333Y-93716033D01*
X154825000Y-93249366D02*
X154658333Y-93716033D01*
X154658333Y-93716033D02*
X154591667Y-93882700D01*
X154591667Y-93882700D02*
X154558333Y-93916033D01*
X154558333Y-93916033D02*
X154491667Y-93949366D01*
X112569048Y-87179819D02*
X112569048Y-87989342D01*
X112569048Y-87989342D02*
X112616667Y-88084580D01*
X112616667Y-88084580D02*
X112664286Y-88132200D01*
X112664286Y-88132200D02*
X112759524Y-88179819D01*
X112759524Y-88179819D02*
X112950000Y-88179819D01*
X112950000Y-88179819D02*
X113045238Y-88132200D01*
X113045238Y-88132200D02*
X113092857Y-88084580D01*
X113092857Y-88084580D02*
X113140476Y-87989342D01*
X113140476Y-87989342D02*
X113140476Y-87179819D01*
X113569048Y-88132200D02*
X113711905Y-88179819D01*
X113711905Y-88179819D02*
X113950000Y-88179819D01*
X113950000Y-88179819D02*
X114045238Y-88132200D01*
X114045238Y-88132200D02*
X114092857Y-88084580D01*
X114092857Y-88084580D02*
X114140476Y-87989342D01*
X114140476Y-87989342D02*
X114140476Y-87894104D01*
X114140476Y-87894104D02*
X114092857Y-87798866D01*
X114092857Y-87798866D02*
X114045238Y-87751247D01*
X114045238Y-87751247D02*
X113950000Y-87703628D01*
X113950000Y-87703628D02*
X113759524Y-87656009D01*
X113759524Y-87656009D02*
X113664286Y-87608390D01*
X113664286Y-87608390D02*
X113616667Y-87560771D01*
X113616667Y-87560771D02*
X113569048Y-87465533D01*
X113569048Y-87465533D02*
X113569048Y-87370295D01*
X113569048Y-87370295D02*
X113616667Y-87275057D01*
X113616667Y-87275057D02*
X113664286Y-87227438D01*
X113664286Y-87227438D02*
X113759524Y-87179819D01*
X113759524Y-87179819D02*
X113997619Y-87179819D01*
X113997619Y-87179819D02*
X114140476Y-87227438D01*
X114902381Y-87656009D02*
X115045238Y-87703628D01*
X115045238Y-87703628D02*
X115092857Y-87751247D01*
X115092857Y-87751247D02*
X115140476Y-87846485D01*
X115140476Y-87846485D02*
X115140476Y-87989342D01*
X115140476Y-87989342D02*
X115092857Y-88084580D01*
X115092857Y-88084580D02*
X115045238Y-88132200D01*
X115045238Y-88132200D02*
X114950000Y-88179819D01*
X114950000Y-88179819D02*
X114569048Y-88179819D01*
X114569048Y-88179819D02*
X114569048Y-87179819D01*
X114569048Y-87179819D02*
X114902381Y-87179819D01*
X114902381Y-87179819D02*
X114997619Y-87227438D01*
X114997619Y-87227438D02*
X115045238Y-87275057D01*
X115045238Y-87275057D02*
X115092857Y-87370295D01*
X115092857Y-87370295D02*
X115092857Y-87465533D01*
X115092857Y-87465533D02*
X115045238Y-87560771D01*
X115045238Y-87560771D02*
X114997619Y-87608390D01*
X114997619Y-87608390D02*
X114902381Y-87656009D01*
X114902381Y-87656009D02*
X114569048Y-87656009D01*
X115569048Y-87798866D02*
X116330953Y-87798866D01*
X117378571Y-88084580D02*
X117330952Y-88132200D01*
X117330952Y-88132200D02*
X117188095Y-88179819D01*
X117188095Y-88179819D02*
X117092857Y-88179819D01*
X117092857Y-88179819D02*
X116950000Y-88132200D01*
X116950000Y-88132200D02*
X116854762Y-88036961D01*
X116854762Y-88036961D02*
X116807143Y-87941723D01*
X116807143Y-87941723D02*
X116759524Y-87751247D01*
X116759524Y-87751247D02*
X116759524Y-87608390D01*
X116759524Y-87608390D02*
X116807143Y-87417914D01*
X116807143Y-87417914D02*
X116854762Y-87322676D01*
X116854762Y-87322676D02*
X116950000Y-87227438D01*
X116950000Y-87227438D02*
X117092857Y-87179819D01*
X117092857Y-87179819D02*
X117188095Y-87179819D01*
X117188095Y-87179819D02*
X117330952Y-87227438D01*
X117330952Y-87227438D02*
X117378571Y-87275057D01*
D15*
X122858334Y-87887904D02*
X122691667Y-87887904D01*
X122691667Y-88149809D02*
X122691667Y-87649809D01*
X122691667Y-87649809D02*
X122929762Y-87649809D01*
X123382143Y-88149809D02*
X123096429Y-88149809D01*
X123239286Y-88149809D02*
X123239286Y-87649809D01*
X123239286Y-87649809D02*
X123191667Y-87721238D01*
X123191667Y-87721238D02*
X123144048Y-87768857D01*
X123144048Y-87768857D02*
X123096429Y-87792666D01*
X137491666Y-90699809D02*
X137325000Y-90461714D01*
X137205952Y-90699809D02*
X137205952Y-90199809D01*
X137205952Y-90199809D02*
X137396428Y-90199809D01*
X137396428Y-90199809D02*
X137444047Y-90223619D01*
X137444047Y-90223619D02*
X137467857Y-90247428D01*
X137467857Y-90247428D02*
X137491666Y-90295047D01*
X137491666Y-90295047D02*
X137491666Y-90366476D01*
X137491666Y-90366476D02*
X137467857Y-90414095D01*
X137467857Y-90414095D02*
X137444047Y-90437904D01*
X137444047Y-90437904D02*
X137396428Y-90461714D01*
X137396428Y-90461714D02*
X137205952Y-90461714D01*
X137777381Y-90414095D02*
X137729762Y-90390285D01*
X137729762Y-90390285D02*
X137705952Y-90366476D01*
X137705952Y-90366476D02*
X137682143Y-90318857D01*
X137682143Y-90318857D02*
X137682143Y-90295047D01*
X137682143Y-90295047D02*
X137705952Y-90247428D01*
X137705952Y-90247428D02*
X137729762Y-90223619D01*
X137729762Y-90223619D02*
X137777381Y-90199809D01*
X137777381Y-90199809D02*
X137872619Y-90199809D01*
X137872619Y-90199809D02*
X137920238Y-90223619D01*
X137920238Y-90223619D02*
X137944047Y-90247428D01*
X137944047Y-90247428D02*
X137967857Y-90295047D01*
X137967857Y-90295047D02*
X137967857Y-90318857D01*
X137967857Y-90318857D02*
X137944047Y-90366476D01*
X137944047Y-90366476D02*
X137920238Y-90390285D01*
X137920238Y-90390285D02*
X137872619Y-90414095D01*
X137872619Y-90414095D02*
X137777381Y-90414095D01*
X137777381Y-90414095D02*
X137729762Y-90437904D01*
X137729762Y-90437904D02*
X137705952Y-90461714D01*
X137705952Y-90461714D02*
X137682143Y-90509333D01*
X137682143Y-90509333D02*
X137682143Y-90604571D01*
X137682143Y-90604571D02*
X137705952Y-90652190D01*
X137705952Y-90652190D02*
X137729762Y-90676000D01*
X137729762Y-90676000D02*
X137777381Y-90699809D01*
X137777381Y-90699809D02*
X137872619Y-90699809D01*
X137872619Y-90699809D02*
X137920238Y-90676000D01*
X137920238Y-90676000D02*
X137944047Y-90652190D01*
X137944047Y-90652190D02*
X137967857Y-90604571D01*
X137967857Y-90604571D02*
X137967857Y-90509333D01*
X137967857Y-90509333D02*
X137944047Y-90461714D01*
X137944047Y-90461714D02*
X137920238Y-90437904D01*
X137920238Y-90437904D02*
X137872619Y-90414095D01*
%TO.C,Load*%
D13*
X156850000Y-86125000D02*
X156850000Y-92125000D01*
X156850000Y-86125000D02*
X149250000Y-86125000D01*
X149250000Y-92125000D02*
X156810000Y-92125000D01*
X149250000Y-86125000D02*
X149250000Y-87125000D01*
X149250000Y-87125000D02*
X150850000Y-87125000D01*
X149250000Y-92125000D02*
X149250000Y-91125000D01*
X149250000Y-91125000D02*
X150850000Y-91125000D01*
X150850000Y-87125000D02*
X154650000Y-87125000D01*
X154650000Y-87125000D02*
X154650000Y-87725000D01*
X154650000Y-87725000D02*
X150850000Y-87725000D01*
X150850000Y-90525000D02*
X154650000Y-90525000D01*
X154650000Y-90525000D02*
X154650000Y-91125000D01*
X154650000Y-91125000D02*
X150850000Y-91125000D01*
X156850000Y-88125000D02*
X152550000Y-88125000D01*
X152550000Y-88125000D02*
X152550000Y-90125000D01*
X152550000Y-90125000D02*
X156750000Y-90125000D01*
X150850000Y-87125000D02*
X150850000Y-87145000D01*
X150850000Y-89105000D02*
X150850000Y-89145000D01*
X150850000Y-91105000D02*
X150850000Y-91125000D01*
D16*
X156930000Y-92075000D02*
G75*
G02*
X156870000Y-92075000I-30000J0D01*
G01*
X156870000Y-92075000D02*
G75*
G02*
X156930000Y-92075000I30000J0D01*
G01*
%TO.C,R7*%
X132930000Y-101055000D02*
G75*
G02*
X132870000Y-101055000I-30000J0D01*
G01*
X132870000Y-101055000D02*
G75*
G02*
X132930000Y-101055000I30000J0D01*
G01*
D14*
X133650000Y-102495000D02*
X133650000Y-101785000D01*
X132650000Y-102495000D02*
X133650000Y-102495000D01*
X132650000Y-101785000D02*
X132650000Y-102495000D01*
X133650000Y-100615000D02*
X133650000Y-101325000D01*
X132650000Y-100615000D02*
X133650000Y-100615000D01*
X132650000Y-101325000D02*
X132650000Y-100615000D01*
%TO.C,U3*%
D17*
X123750000Y-96480000D02*
G75*
G02*
X123450000Y-96480000I-150000J0D01*
G01*
X123450000Y-96480000D02*
G75*
G02*
X123750000Y-96480000I150000J0D01*
G01*
D16*
X123530000Y-96690000D02*
G75*
G02*
X123470000Y-96690000I-30000J0D01*
G01*
X123470000Y-96690000D02*
G75*
G02*
X123530000Y-96690000I30000J0D01*
G01*
D14*
X124010000Y-96610000D02*
X125790000Y-96610000D01*
X124010000Y-99690000D02*
X125790000Y-99690000D01*
%TO.C,R9*%
D16*
X128755000Y-97175000D02*
G75*
G02*
X128695000Y-97175000I-30000J0D01*
G01*
X128695000Y-97175000D02*
G75*
G02*
X128755000Y-97175000I30000J0D01*
G01*
D14*
X129475000Y-98615000D02*
X129475000Y-97905000D01*
X128475000Y-98615000D02*
X129475000Y-98615000D01*
X128475000Y-97905000D02*
X128475000Y-98615000D01*
X129475000Y-96735000D02*
X129475000Y-97445000D01*
X128475000Y-96735000D02*
X129475000Y-96735000D01*
X128475000Y-97445000D02*
X128475000Y-96735000D01*
%TO.C,R11*%
D16*
X122130000Y-99080000D02*
G75*
G02*
X122070000Y-99080000I-30000J0D01*
G01*
X122070000Y-99080000D02*
G75*
G02*
X122130000Y-99080000I30000J0D01*
G01*
D14*
X121350000Y-97640000D02*
X121350000Y-98350000D01*
X122350000Y-97640000D02*
X121350000Y-97640000D01*
X122350000Y-98350000D02*
X122350000Y-97640000D01*
X121350000Y-99520000D02*
X121350000Y-98810000D01*
X122350000Y-99520000D02*
X121350000Y-99520000D01*
X122350000Y-98810000D02*
X122350000Y-99520000D01*
%TO.C,R10*%
D16*
X128100000Y-90350000D02*
G75*
G02*
X128040000Y-90350000I-30000J0D01*
G01*
X128040000Y-90350000D02*
G75*
G02*
X128100000Y-90350000I30000J0D01*
G01*
D14*
X129510000Y-89600000D02*
X128800000Y-89600000D01*
X129510000Y-90600000D02*
X129510000Y-89600000D01*
X128800000Y-90600000D02*
X129510000Y-90600000D01*
X127630000Y-89600000D02*
X128340000Y-89600000D01*
X127630000Y-90600000D02*
X127630000Y-89600000D01*
X128340000Y-90600000D02*
X127630000Y-90600000D01*
%TO.C,R14*%
X128345000Y-87400000D02*
X127635000Y-87400000D01*
X127635000Y-87400000D02*
X127635000Y-86400000D01*
X127635000Y-86400000D02*
X128345000Y-86400000D01*
X128805000Y-87400000D02*
X129515000Y-87400000D01*
X129515000Y-87400000D02*
X129515000Y-86400000D01*
X129515000Y-86400000D02*
X128805000Y-86400000D01*
D16*
X128105000Y-87150000D02*
G75*
G02*
X128045000Y-87150000I-30000J0D01*
G01*
X128045000Y-87150000D02*
G75*
G02*
X128105000Y-87150000I30000J0D01*
G01*
%TO.C,U1*%
D14*
X145215000Y-92992500D02*
X145215000Y-92802500D01*
X143055000Y-95652500D02*
X143055000Y-95842500D01*
X143055000Y-95842500D02*
X145215000Y-95842500D01*
X145215000Y-95842500D02*
X145215000Y-95652500D01*
X145215000Y-92802500D02*
X143055000Y-92802500D01*
X143055000Y-92802500D02*
X143055000Y-92992500D01*
D16*
X143175000Y-92822500D02*
G75*
G02*
X143115000Y-92822500I-30000J0D01*
G01*
X143115000Y-92822500D02*
G75*
G02*
X143175000Y-92822500I30000J0D01*
G01*
D11*
X142855000Y-92802500D02*
G75*
G02*
X142655000Y-92802500I-100000J0D01*
G01*
X142655000Y-92802500D02*
G75*
G02*
X142855000Y-92802500I100000J0D01*
G01*
%TO.C,R13*%
D16*
X128075000Y-92000000D02*
G75*
G02*
X128015000Y-92000000I-30000J0D01*
G01*
X128015000Y-92000000D02*
G75*
G02*
X128075000Y-92000000I30000J0D01*
G01*
D14*
X129485000Y-91250000D02*
X128775000Y-91250000D01*
X129485000Y-92250000D02*
X129485000Y-91250000D01*
X128775000Y-92250000D02*
X129485000Y-92250000D01*
X127605000Y-91250000D02*
X128315000Y-91250000D01*
X127605000Y-92250000D02*
X127605000Y-91250000D01*
X128315000Y-92250000D02*
X127605000Y-92250000D01*
%TO.C,U2*%
D17*
X130755000Y-87150000D02*
G75*
G02*
X130754979Y-87147461I-150000J0D01*
G01*
D16*
X131305000Y-87100000D02*
G75*
G02*
X131245000Y-87100000I-30000J0D01*
G01*
X131245000Y-87100000D02*
G75*
G02*
X131305000Y-87100000I30000J0D01*
G01*
D11*
X131125000Y-91250000D02*
X131755000Y-91250000D01*
X131125000Y-90620000D02*
X131125000Y-91250000D01*
X131125000Y-86950000D02*
X131755000Y-86950000D01*
X131125000Y-87580000D02*
X131125000Y-86950000D01*
X135425000Y-86950000D02*
X134795000Y-86950000D01*
X135425000Y-87580000D02*
X135425000Y-86950000D01*
X135425000Y-91250000D02*
X135425000Y-90620000D01*
X134795000Y-91250000D02*
X135425000Y-91250000D01*
%TO.C,R2*%
D16*
X122105000Y-94825000D02*
G75*
G02*
X122045000Y-94825000I-30000J0D01*
G01*
X122045000Y-94825000D02*
G75*
G02*
X122105000Y-94825000I30000J0D01*
G01*
D14*
X120635000Y-95575000D02*
X121345000Y-95575000D01*
X120635000Y-94575000D02*
X120635000Y-95575000D01*
X121345000Y-94575000D02*
X120635000Y-94575000D01*
X122515000Y-95575000D02*
X121805000Y-95575000D01*
X122515000Y-94575000D02*
X122515000Y-95575000D01*
X121805000Y-94575000D02*
X122515000Y-94575000D01*
%TO.C,L1*%
D13*
X142945000Y-88525000D02*
X142695000Y-88525000D01*
X145655000Y-88525000D02*
X145405000Y-88525000D01*
X142945000Y-84525000D02*
X142695000Y-84525000D01*
X145655000Y-84525000D02*
X145405000Y-84525000D01*
X142695000Y-88525000D02*
X142175000Y-88525000D01*
X142175000Y-88525000D02*
X142175000Y-84525000D01*
X142175000Y-84525000D02*
X142695000Y-84525000D01*
X145655000Y-84525000D02*
X146175000Y-84525000D01*
X146175000Y-84525000D02*
X146175000Y-88525000D01*
X146175000Y-88525000D02*
X145655000Y-88525000D01*
D16*
X142155000Y-84225000D02*
G75*
G02*
X142095000Y-84225000I-30000J0D01*
G01*
X142095000Y-84225000D02*
G75*
G02*
X142155000Y-84225000I30000J0D01*
G01*
%TO.C,R1*%
X122105000Y-91850000D02*
G75*
G02*
X122045000Y-91850000I-30000J0D01*
G01*
X122045000Y-91850000D02*
G75*
G02*
X122105000Y-91850000I30000J0D01*
G01*
D14*
X120635000Y-92600000D02*
X121345000Y-92600000D01*
X120635000Y-91600000D02*
X120635000Y-92600000D01*
X121345000Y-91600000D02*
X120635000Y-91600000D01*
X122515000Y-92600000D02*
X121805000Y-92600000D01*
X122515000Y-91600000D02*
X122515000Y-92600000D01*
X121805000Y-91600000D02*
X122515000Y-91600000D01*
%TO.C,C5*%
D13*
X128335000Y-95000000D02*
G75*
G02*
X128645000Y-94690000I310000J0D01*
G01*
X128645000Y-96110000D02*
G75*
G02*
X128335000Y-95800000I0J310000D01*
G01*
X131115000Y-95800000D02*
G75*
G02*
X130805000Y-96110000I-310000J0D01*
G01*
X130805000Y-94690000D02*
G75*
G02*
X131115000Y-95000000I0J-310000D01*
G01*
D16*
X128955000Y-95800000D02*
G75*
G02*
X128895000Y-95800000I-30000J0D01*
G01*
X128895000Y-95800000D02*
G75*
G02*
X128955000Y-95800000I30000J0D01*
G01*
D13*
X131115000Y-95000000D02*
X131115000Y-95800000D01*
X128335000Y-95800000D02*
X128335000Y-95000000D01*
X130005000Y-94690000D02*
X130805000Y-94690000D01*
X129445000Y-94690000D02*
X128645000Y-94690000D01*
X130005000Y-96110000D02*
X130805000Y-96110000D01*
X129445000Y-96110000D02*
X128645000Y-96110000D01*
%TO.C,C4*%
X142735000Y-96875000D02*
G75*
G02*
X143045000Y-96565000I310000J0D01*
G01*
X143045000Y-97985000D02*
G75*
G02*
X142735000Y-97675000I0J310000D01*
G01*
X145515000Y-97675000D02*
G75*
G02*
X145205000Y-97985000I-310000J0D01*
G01*
X145205000Y-96565000D02*
G75*
G02*
X145515000Y-96875000I0J-310000D01*
G01*
D16*
X143355000Y-97675000D02*
G75*
G02*
X143295000Y-97675000I-30000J0D01*
G01*
X143295000Y-97675000D02*
G75*
G02*
X143355000Y-97675000I30000J0D01*
G01*
D13*
X145515000Y-96875000D02*
X145515000Y-97675000D01*
X142735000Y-97675000D02*
X142735000Y-96875000D01*
X144405000Y-96565000D02*
X145205000Y-96565000D01*
X143845000Y-96565000D02*
X143045000Y-96565000D01*
X144405000Y-97985000D02*
X145205000Y-97985000D01*
X143845000Y-97985000D02*
X143045000Y-97985000D01*
%TO.C,R4*%
D16*
X141330000Y-96375000D02*
G75*
G02*
X141270000Y-96375000I-30000J0D01*
G01*
X141270000Y-96375000D02*
G75*
G02*
X141330000Y-96375000I30000J0D01*
G01*
D14*
X140240000Y-96965000D02*
X140240000Y-96005000D01*
X141560000Y-96965000D02*
X140240000Y-96965000D01*
X141560000Y-96005000D02*
X141560000Y-96965000D01*
X140240000Y-94185000D02*
X140240000Y-95145000D01*
X141560000Y-94185000D02*
X140240000Y-94185000D01*
X141560000Y-95145000D02*
X141560000Y-94185000D01*
%TO.C,C6*%
D13*
X132345000Y-85085000D02*
X131545000Y-85085000D01*
X132905000Y-85085000D02*
X133705000Y-85085000D01*
X132345000Y-83665000D02*
X131545000Y-83665000D01*
X132905000Y-83665000D02*
X133705000Y-83665000D01*
X131235000Y-84775000D02*
X131235000Y-83975000D01*
X134015000Y-83975000D02*
X134015000Y-84775000D01*
D16*
X131855000Y-84775000D02*
G75*
G02*
X131795000Y-84775000I-30000J0D01*
G01*
X131795000Y-84775000D02*
G75*
G02*
X131855000Y-84775000I30000J0D01*
G01*
D13*
X133705000Y-83665000D02*
G75*
G02*
X134015000Y-83975000I0J-310000D01*
G01*
X134015000Y-84775000D02*
G75*
G02*
X133705000Y-85085000I-310000J0D01*
G01*
X131545000Y-85085000D02*
G75*
G02*
X131235000Y-84775000I0J310000D01*
G01*
X131235000Y-83975000D02*
G75*
G02*
X131545000Y-83665000I310000J0D01*
G01*
%TO.C,R3*%
D16*
X141330000Y-92625000D02*
G75*
G02*
X141270000Y-92625000I-30000J0D01*
G01*
X141270000Y-92625000D02*
G75*
G02*
X141330000Y-92625000I30000J0D01*
G01*
D14*
X140240000Y-93215000D02*
X140240000Y-92255000D01*
X141560000Y-93215000D02*
X140240000Y-93215000D01*
X141560000Y-92255000D02*
X141560000Y-93215000D01*
X140240000Y-90435000D02*
X140240000Y-91395000D01*
X141560000Y-90435000D02*
X140240000Y-90435000D01*
X141560000Y-91395000D02*
X141560000Y-90435000D01*
%TO.C,C3*%
D13*
X142535000Y-90575000D02*
G75*
G02*
X142845000Y-90265000I310000J0D01*
G01*
X142845000Y-91685000D02*
G75*
G02*
X142535000Y-91375000I0J310000D01*
G01*
X145315000Y-91375000D02*
G75*
G02*
X145005000Y-91685000I-310000J0D01*
G01*
X145005000Y-90265000D02*
G75*
G02*
X145315000Y-90575000I0J-310000D01*
G01*
D16*
X143155000Y-91375000D02*
G75*
G02*
X143095000Y-91375000I-30000J0D01*
G01*
X143095000Y-91375000D02*
G75*
G02*
X143155000Y-91375000I30000J0D01*
G01*
D13*
X145315000Y-90575000D02*
X145315000Y-91375000D01*
X142535000Y-91375000D02*
X142535000Y-90575000D01*
X144205000Y-90265000D02*
X145005000Y-90265000D01*
X143645000Y-90265000D02*
X142845000Y-90265000D01*
X144205000Y-91685000D02*
X145005000Y-91685000D01*
X143645000Y-91685000D02*
X142845000Y-91685000D01*
%TO.C,C2*%
D16*
X122925000Y-85750000D02*
G75*
G02*
X122865000Y-85750000I-30000J0D01*
G01*
X122865000Y-85750000D02*
G75*
G02*
X122925000Y-85750000I30000J0D01*
G01*
D14*
X123265000Y-86350000D02*
G75*
G02*
X123115000Y-86500000I-150000J0D01*
G01*
X123115000Y-85500000D02*
G75*
G02*
X123265000Y-85650000I0J-150000D01*
G01*
X121675000Y-86500000D02*
G75*
G02*
X121525000Y-86350000I0J150000D01*
G01*
X121525000Y-85650000D02*
G75*
G02*
X121675000Y-85500000I150000J0D01*
G01*
X123265000Y-85650000D02*
X123265000Y-86350000D01*
X123115000Y-86500000D02*
X122615000Y-86500000D01*
X122615000Y-85500000D02*
X123115000Y-85500000D01*
X122175000Y-86500000D02*
X121675000Y-86500000D01*
X121675000Y-85500000D02*
X122175000Y-85500000D01*
X121525000Y-86350000D02*
X121525000Y-85650000D01*
%TO.C,C1*%
D16*
X118055000Y-86400000D02*
G75*
G02*
X117995000Y-86400000I-30000J0D01*
G01*
X117995000Y-86400000D02*
G75*
G02*
X118055000Y-86400000I30000J0D01*
G01*
D13*
X120215000Y-86400000D02*
G75*
G02*
X119905000Y-86710000I-310000J0D01*
G01*
X119905000Y-85290000D02*
G75*
G02*
X120215000Y-85600000I0J-310000D01*
G01*
X117745000Y-86710000D02*
G75*
G02*
X117435000Y-86400000I0J310000D01*
G01*
X117435000Y-85600000D02*
G75*
G02*
X117745000Y-85290000I310000J0D01*
G01*
X120215000Y-85600000D02*
X120215000Y-86400000D01*
X119105000Y-86710000D02*
X119905000Y-86710000D01*
X119105000Y-85290000D02*
X119905000Y-85290000D01*
X118545000Y-86710000D02*
X117745000Y-86710000D01*
X118545000Y-85290000D02*
X117745000Y-85290000D01*
X117435000Y-86400000D02*
X117435000Y-85600000D01*
%TO.C,C8*%
X138285000Y-86280000D02*
X138285000Y-87080000D01*
X138285000Y-85720000D02*
X138285000Y-84920000D01*
X137975000Y-87390000D02*
X137175000Y-87390000D01*
X137175000Y-84610000D02*
X137975000Y-84610000D01*
X136865000Y-86280000D02*
X136865000Y-87080000D01*
X136865000Y-85720000D02*
X136865000Y-84920000D01*
X138285000Y-87080000D02*
G75*
G02*
X137975000Y-87390000I-310000J0D01*
G01*
X137975000Y-84610000D02*
G75*
G02*
X138285000Y-84920000I0J-310000D01*
G01*
X137175000Y-87390000D02*
G75*
G02*
X136865000Y-87080000I0J310000D01*
G01*
X136865000Y-84920000D02*
G75*
G02*
X137175000Y-84610000I310000J0D01*
G01*
D16*
X137205000Y-85200000D02*
G75*
G02*
X137145000Y-85200000I-30000J0D01*
G01*
X137145000Y-85200000D02*
G75*
G02*
X137205000Y-85200000I30000J0D01*
G01*
%TO.C,R12*%
X128105000Y-88950000D02*
G75*
G02*
X128045000Y-88950000I-30000J0D01*
G01*
X128045000Y-88950000D02*
G75*
G02*
X128105000Y-88950000I30000J0D01*
G01*
D14*
X129515000Y-89200000D02*
X129515000Y-88200000D01*
X129515000Y-88200000D02*
X128805000Y-88200000D01*
X128805000Y-89200000D02*
X129515000Y-89200000D01*
X128345000Y-89200000D02*
X127635000Y-89200000D01*
X127635000Y-89200000D02*
X127635000Y-88200000D01*
X127635000Y-88200000D02*
X128345000Y-88200000D01*
D18*
%TO.C,D1*%
G36*
X120774885Y-84100012D02*
G01*
X120624873Y-83950000D01*
X120774885Y-83800013D01*
X120774885Y-84100012D01*
G37*
G36*
X120624873Y-83950000D02*
G01*
X120474861Y-84099987D01*
X120474861Y-83799988D01*
X120624873Y-83950000D01*
G37*
D16*
X120155000Y-84250000D02*
G75*
G02*
X120095000Y-84250000I-30000J0D01*
G01*
X120095000Y-84250000D02*
G75*
G02*
X120155000Y-84250000I30000J0D01*
G01*
D19*
X121035000Y-84330000D02*
X120215000Y-84330000D01*
X120215000Y-83570000D02*
X121035000Y-83570000D01*
%TO.C,Q1*%
D13*
X143100000Y-99665000D02*
X144900000Y-99665000D01*
X143100000Y-102765000D02*
X144900000Y-102765000D01*
D16*
X145430000Y-102665000D02*
G75*
G02*
X145370000Y-102665000I-30000J0D01*
G01*
X145370000Y-102665000D02*
G75*
G02*
X145430000Y-102665000I30000J0D01*
G01*
D13*
X145520000Y-102865000D02*
G75*
G02*
X145280000Y-102865000I-120000J0D01*
G01*
X145280000Y-102865000D02*
G75*
G02*
X145520000Y-102865000I120000J0D01*
G01*
%TO.C,C7*%
X130290000Y-100745000D02*
X130290000Y-99945000D01*
X130290000Y-101305000D02*
X130290000Y-102105000D01*
X130600000Y-99635000D02*
X131400000Y-99635000D01*
X131400000Y-102415000D02*
X130600000Y-102415000D01*
X131710000Y-100745000D02*
X131710000Y-99945000D01*
X131710000Y-101305000D02*
X131710000Y-102105000D01*
X130290000Y-99945000D02*
G75*
G02*
X130600000Y-99635000I310000J0D01*
G01*
X130600000Y-102415000D02*
G75*
G02*
X130290000Y-102105000I0J310000D01*
G01*
X131400000Y-99635000D02*
G75*
G02*
X131710000Y-99945000I0J-310000D01*
G01*
X131710000Y-102105000D02*
G75*
G02*
X131400000Y-102415000I-310000J0D01*
G01*
D16*
X130630000Y-100225000D02*
G75*
G02*
X130570000Y-100225000I-30000J0D01*
G01*
X130570000Y-100225000D02*
G75*
G02*
X130630000Y-100225000I30000J0D01*
G01*
D18*
%TO.C,LED2*%
G36*
X133549974Y-97250051D02*
G01*
X132749975Y-97250051D01*
X132749975Y-97050102D01*
X133549974Y-97050102D01*
X133549974Y-97250051D01*
G37*
D16*
X132780000Y-96550000D02*
G75*
G02*
X132720000Y-96550000I-30000J0D01*
G01*
X132720000Y-96550000D02*
G75*
G02*
X132780000Y-96550000I30000J0D01*
G01*
D14*
X133910000Y-98740000D02*
X132430000Y-98740000D01*
X133910000Y-97590000D02*
X133910000Y-98740000D01*
X133900000Y-97210000D02*
X133900000Y-96160000D01*
X133600000Y-95860000D02*
X133900000Y-96160000D01*
X133500000Y-95860000D02*
X133600000Y-95860000D01*
X133500000Y-95860000D02*
X132800000Y-95860000D01*
X132800000Y-95860000D02*
X132700000Y-95860000D01*
X132700000Y-95860000D02*
X132400000Y-96160000D01*
X132410000Y-97590000D02*
X132410000Y-98740000D01*
X132400000Y-97210000D02*
X132400000Y-96160000D01*
%TO.C,R6*%
D16*
X135705000Y-101030000D02*
G75*
G02*
X135645000Y-101030000I-30000J0D01*
G01*
X135645000Y-101030000D02*
G75*
G02*
X135705000Y-101030000I30000J0D01*
G01*
D14*
X135425000Y-100590000D02*
X136425000Y-100590000D01*
X135425000Y-101300000D02*
X135425000Y-100590000D01*
X135425000Y-101760000D02*
X135425000Y-102470000D01*
X135425000Y-102470000D02*
X136425000Y-102470000D01*
X136425000Y-100590000D02*
X136425000Y-101300000D01*
X136425000Y-102470000D02*
X136425000Y-101760000D01*
%TO.C,R5*%
D16*
X137150000Y-89325000D02*
G75*
G02*
X137090000Y-89325000I-30000J0D01*
G01*
X137090000Y-89325000D02*
G75*
G02*
X137150000Y-89325000I30000J0D01*
G01*
D14*
X138560000Y-89575000D02*
X138560000Y-88575000D01*
X138560000Y-88575000D02*
X137850000Y-88575000D01*
X137850000Y-89575000D02*
X138560000Y-89575000D01*
X137390000Y-89575000D02*
X136680000Y-89575000D01*
X136680000Y-89575000D02*
X136680000Y-88575000D01*
X136680000Y-88575000D02*
X137390000Y-88575000D01*
%TO.C,LED1*%
D13*
X135225000Y-95875000D02*
X135225000Y-96975000D01*
X135225000Y-98745000D02*
X135225000Y-97475000D01*
X135525000Y-95575000D02*
X135225000Y-95875000D01*
X135925000Y-97365000D02*
X135925000Y-97155000D01*
X136325000Y-95575000D02*
X135525000Y-95575000D01*
X136325000Y-97365000D02*
X135545000Y-97365000D01*
X136625000Y-95875000D02*
X136325000Y-95575000D01*
X136625000Y-96975000D02*
X136625000Y-95875000D01*
X136625000Y-97475000D02*
X136625000Y-98745000D01*
X136625000Y-98745000D02*
X135225000Y-98745000D01*
D12*
X136375000Y-98075000D02*
G75*
G02*
X136275000Y-98075000I-50000J0D01*
G01*
X136275000Y-98075000D02*
G75*
G02*
X136375000Y-98075000I50000J0D01*
G01*
%TO.C,Battery*%
D13*
X156875000Y-94225000D02*
X156875000Y-100225000D01*
X156875000Y-94225000D02*
X149275000Y-94225000D01*
X149275000Y-100225000D02*
X156835000Y-100225000D01*
X149275000Y-94225000D02*
X149275000Y-95225000D01*
X149275000Y-95225000D02*
X150875000Y-95225000D01*
X149275000Y-100225000D02*
X149275000Y-99225000D01*
X149275000Y-99225000D02*
X150875000Y-99225000D01*
X150875000Y-95225000D02*
X154675000Y-95225000D01*
X154675000Y-95225000D02*
X154675000Y-95825000D01*
X154675000Y-95825000D02*
X150875000Y-95825000D01*
X150875000Y-98625000D02*
X154675000Y-98625000D01*
X154675000Y-98625000D02*
X154675000Y-99225000D01*
X154675000Y-99225000D02*
X150875000Y-99225000D01*
X156875000Y-96225000D02*
X152575000Y-96225000D01*
X152575000Y-96225000D02*
X152575000Y-98225000D01*
X152575000Y-98225000D02*
X156775000Y-98225000D01*
X150875000Y-95225000D02*
X150875000Y-95245000D01*
X150875000Y-97205000D02*
X150875000Y-97245000D01*
X150875000Y-99205000D02*
X150875000Y-99225000D01*
D16*
X156955000Y-100175000D02*
G75*
G02*
X156895000Y-100175000I-30000J0D01*
G01*
X156895000Y-100175000D02*
G75*
G02*
X156955000Y-100175000I30000J0D01*
G01*
%TO.C,USB-C*%
D13*
X115300000Y-97670000D02*
X116820000Y-97670000D01*
X112880000Y-89030000D02*
X111360000Y-89030000D01*
X111360000Y-89030000D02*
X111360000Y-97670000D01*
X111360000Y-97670000D02*
X112880000Y-97670000D01*
X116820000Y-89030000D02*
X115300000Y-89030000D01*
D16*
X119160000Y-88880000D02*
G75*
G02*
X119100000Y-88880000I-30000J0D01*
G01*
X119100000Y-88880000D02*
G75*
G02*
X119160000Y-88880000I30000J0D01*
G01*
%TO.C,F1*%
D20*
X122923731Y-89672801D02*
G75*
G02*
X122925000Y-90515000I-728731J-422199D01*
G01*
X122926269Y-89677199D02*
G75*
G02*
X122925000Y-88835000I728731J422199D01*
G01*
D16*
X121355000Y-90475000D02*
G75*
G02*
X121295000Y-90475000I-30000J0D01*
G01*
X121295000Y-90475000D02*
G75*
G02*
X121355000Y-90475000I30000J0D01*
G01*
D14*
X125045000Y-90765000D02*
X123855000Y-90765000D01*
X120805000Y-90765000D02*
X121995000Y-90765000D01*
X125195000Y-88735000D02*
X125195000Y-90615000D01*
X120655000Y-88735000D02*
X120655000Y-90615000D01*
X123855000Y-88585000D02*
X125045000Y-88585000D01*
X121995000Y-88585000D02*
X120805000Y-88585000D01*
%TO.C,R8*%
D16*
X137105000Y-91675000D02*
G75*
G02*
X137045000Y-91675000I-30000J0D01*
G01*
X137045000Y-91675000D02*
G75*
G02*
X137105000Y-91675000I30000J0D01*
G01*
D14*
X138515000Y-90925000D02*
X137805000Y-90925000D01*
X138515000Y-91925000D02*
X138515000Y-90925000D01*
X137805000Y-91925000D02*
X138515000Y-91925000D01*
X136635000Y-90925000D02*
X137345000Y-90925000D01*
X136635000Y-91925000D02*
X136635000Y-90925000D01*
X137345000Y-91925000D02*
X136635000Y-91925000D01*
%TD*%
M02*
