%TF.GenerationSoftware,KiCad,Pcbnew,10.0.6*%
%TF.CreationDate,2026-10-01T22:23:03+03:00*%
%TF.ProjectId,Li-Po_Battery_Charger,4c692d50-6f5f-4426-9174-746572795f43,rev?*%
%TF.SameCoordinates,Original*%
%TF.FileFunction,Copper,L2,Bot*%
%TF.FilePolarity,Positive*%
%FSLAX46Y46*%
G04 Gerber Fmt 4.6, Leading zero omitted, Abs format (unit mm)*
G04 Created by KiCad (PCBNEW 10.0.6) date 2026-10-01 22:23:03*
%MOMM*%
%LPD*%
G01*
G04 APERTURE LIST*
%TA.AperFunction,ComponentPad*%
%ADD10R,1.400000X1.500000*%
%TD*%
%TA.AperFunction,ComponentPad*%
%ADD11C,1.400000*%
%TD*%
%TA.AperFunction,ComponentPad*%
%ADD12O,1.800000X1.000000*%
%TD*%
%TA.AperFunction,ComponentPad*%
%ADD13O,2.100000X1.000000*%
%TD*%
%TA.AperFunction,ComponentPad*%
%ADD14C,0.650000*%
%TD*%
%TA.AperFunction,ViaPad*%
%ADD15C,0.500000*%
%TD*%
%TA.AperFunction,ViaPad*%
%ADD16C,0.300000*%
%TD*%
%TA.AperFunction,ViaPad*%
%ADD17C,0.280000*%
%TD*%
%TA.AperFunction,Conductor*%
%ADD18C,0.300000*%
%TD*%
%TA.AperFunction,Conductor*%
%ADD19C,0.500000*%
%TD*%
%TA.AperFunction,Conductor*%
%ADD20C,0.200000*%
%TD*%
%TA.AperFunction,Conductor*%
%ADD21C,0.400000*%
%TD*%
G04 APERTURE END LIST*
D10*
%TO.P,Load,1,1_1*%
%TO.N,GND*%
X150650000Y-90125000D03*
D11*
%TO.P,Load,2,2_2*%
%TO.N,/3.3V*%
X150650000Y-88125000D03*
%TD*%
D10*
%TO.P,Battery,1,1_1*%
%TO.N,/B-*%
X150675000Y-98225000D03*
D11*
%TO.P,Battery,2,2_2*%
%TO.N,/VBAT*%
X150675000Y-96225000D03*
%TD*%
D12*
%TO.P,USB-C,3,SHELL_3*%
%TO.N,GND*%
X114080000Y-89030000D03*
D13*
%TO.P,USB-C,2,SHELL_2*%
X118230000Y-97670000D03*
%TO.P,USB-C,1,SHELL_1*%
X118230000Y-89030000D03*
D12*
%TO.P,USB-C,4,SHELL_4*%
X114080000Y-97670000D03*
D14*
%TO.P,USB-C,*%
%TO.N,*%
X117730000Y-96240000D03*
X117730000Y-90460000D03*
%TD*%
D15*
%TO.N,GND*%
X134000000Y-89150000D03*
X132650000Y-88350000D03*
X134000000Y-88350000D03*
X133350000Y-89850000D03*
X132625000Y-89850000D03*
X133275000Y-88350000D03*
X134025000Y-89850000D03*
X132600000Y-89150000D03*
D16*
%TO.N,/CC1*%
X118735000Y-92095000D03*
%TO.N,/CC2*%
X118735000Y-95095000D03*
D15*
X121145000Y-95075000D03*
%TO.N,/CC1*%
X121145000Y-92100000D03*
%TO.N,/+5V_USB*%
X133325000Y-84375000D03*
%TO.N,/VBAT*%
X135275000Y-87100000D03*
%TO.N,GND*%
X130975000Y-100350000D03*
D17*
%TO.N,/+5V_USB*%
X131275000Y-88600000D03*
D15*
%TO.N,GND*%
X142925000Y-94075000D03*
X126377354Y-92147646D03*
X137575000Y-85350000D03*
%TO.N,/VSYS*%
X144625000Y-90975000D03*
X132268251Y-86612679D03*
X140475000Y-89650000D03*
X130748000Y-88050000D03*
%TO.N,GND*%
X143175000Y-90950000D03*
%TO.N,/+5V_USB*%
X132875000Y-87250000D03*
%TO.N,/VSYS*%
X126675000Y-87650000D03*
%TO.N,GND*%
X145375000Y-100250000D03*
X133275000Y-89150000D03*
X143375000Y-97250000D03*
%TO.N,/VBAT*%
X137375000Y-86750000D03*
%TO.N,GND*%
X128140000Y-90100000D03*
D16*
X144925000Y-94300000D03*
D15*
%TO.N,/VBAT*%
X131000000Y-98150000D03*
%TO.N,/VSYS*%
X125525000Y-93925000D03*
%TO.N,/+5V_USB*%
X131675000Y-87250000D03*
%TO.N,/VSYS*%
X130000000Y-85375000D03*
X146125000Y-92350000D03*
X142850000Y-93300000D03*
%TO.N,/B-*%
X137775000Y-94000000D03*
X130425000Y-95400000D03*
X131375000Y-94025000D03*
X126050000Y-97200000D03*
%TO.N,Net-(U3-VDD)*%
X126050000Y-98150000D03*
D16*
%TO.N,Net-(U1-FB)*%
X143245000Y-94822500D03*
D15*
X140900000Y-94825000D03*
D17*
%TO.N,/PROG3*%
X135275000Y-89600000D03*
D15*
X135475000Y-90700000D03*
%TO.N,Net-(U3-VDD)*%
X128975000Y-96475000D03*
%TO.N,/3.3V*%
X144775000Y-96225000D03*
%TO.N,GND*%
X121850000Y-99025000D03*
%TD*%
%TO.N,/CC2*%
D18*
X121145000Y-95075000D02*
X121120000Y-95100000D01*
X121120000Y-95100000D02*
X118825000Y-95100000D01*
%TO.N,GND*%
X133256576Y-89125567D02*
X133275000Y-89150000D01*
X137556576Y-85325567D02*
X137575000Y-85350000D01*
X143206576Y-90975567D02*
X143175000Y-90950000D01*
X143406576Y-97275567D02*
X143375000Y-97250000D01*
X145356576Y-100275567D02*
X145375000Y-100250000D01*
X131006576Y-100325567D02*
X130975000Y-100350000D01*
%TO.N,/+5V_USB*%
D19*
X132875000Y-87250000D02*
X131675000Y-87250000D01*
%TO.N,/VSYS*%
X125650000Y-87650000D02*
X126675000Y-87650000D01*
X125525000Y-87775000D02*
X125650000Y-87650000D01*
X125525000Y-93925000D02*
X125525000Y-87775000D01*
%TO.N,Net-(U1-FB)*%
D18*
X140900000Y-94825000D02*
X140925000Y-94850000D01*
X140925000Y-94850000D02*
X143275000Y-94850000D01*
%TO.N,/VBAT*%
D19*
X138275000Y-91250000D02*
X137375000Y-90350000D01*
X131000000Y-98150000D02*
X135950000Y-98150000D01*
X135950000Y-98150000D02*
X136325000Y-97775000D01*
X136325000Y-94325000D02*
X138275000Y-92375000D01*
X136325000Y-97775000D02*
X136325000Y-94325000D01*
X137375000Y-90350000D02*
X137375000Y-86750000D01*
X138275000Y-92375000D02*
X138275000Y-91250000D01*
X137375000Y-86750000D02*
X136575000Y-86750000D01*
X136575000Y-86750000D02*
X136225000Y-87100000D01*
X136225000Y-87100000D02*
X135275000Y-87100000D01*
%TO.N,GND*%
D18*
X142925000Y-94075000D02*
X143167857Y-93832143D01*
X143167857Y-93832143D02*
X143250000Y-93832143D01*
X143250000Y-93832143D02*
X143256576Y-93825567D01*
%TO.N,/B-*%
D19*
X137500000Y-99100000D02*
X130400000Y-99100000D01*
X137775000Y-94000000D02*
X137775000Y-98825000D01*
X137775000Y-98825000D02*
X137500000Y-99100000D01*
X130400000Y-99100000D02*
X130050000Y-98750000D01*
X130050000Y-97450000D02*
X131375000Y-96125000D01*
X130050000Y-98750000D02*
X130050000Y-97450000D01*
%TO.N,/VSYS*%
X130000000Y-87900000D02*
X130000000Y-85375000D01*
%TO.N,/B-*%
X131375000Y-96125000D02*
X131375000Y-94025000D01*
%TO.N,Net-(U3-VDD)*%
D18*
X128975000Y-96475000D02*
X128975000Y-97875000D01*
X128700000Y-98150000D02*
X126050000Y-98150000D01*
X128975000Y-97875000D02*
X128700000Y-98150000D01*
%TO.N,/B-*%
X126050000Y-95600000D02*
X126050000Y-97200000D01*
X130400000Y-95375000D02*
X126275000Y-95375000D01*
X130425000Y-95400000D02*
X130400000Y-95375000D01*
X126275000Y-95375000D02*
X126050000Y-95600000D01*
%TO.N,/3.3V*%
D19*
X147750000Y-88125000D02*
X147425000Y-88450000D01*
X147425000Y-96000000D02*
X147200000Y-96225000D01*
X150725000Y-88125000D02*
X147750000Y-88125000D01*
X147425000Y-88450000D02*
X147425000Y-96000000D01*
X147200000Y-96225000D02*
X144775000Y-96225000D01*
%TO.N,GND*%
X149050000Y-90425000D02*
X149050000Y-99900000D01*
X149050000Y-99900000D02*
X148700000Y-100250000D01*
D20*
X150725000Y-90125000D02*
X150700000Y-90100000D01*
D19*
X148700000Y-100250000D02*
X145375000Y-100250000D01*
X149375000Y-90100000D02*
X149050000Y-90425000D01*
X150700000Y-90100000D02*
X149375000Y-90100000D01*
D18*
X144756576Y-94325567D02*
X144756356Y-94327731D01*
X144705000Y-94322500D02*
X144756356Y-94327731D01*
%TO.N,/VSYS*%
X140475000Y-89650000D02*
X144350000Y-89650000D01*
X144350000Y-89650000D02*
X144625000Y-89925000D01*
X144625000Y-89925000D02*
X144625000Y-90975000D01*
D19*
X132275000Y-85650000D02*
X132275000Y-86605930D01*
D18*
X132275000Y-86605930D02*
X132268251Y-86612679D01*
D19*
X132000000Y-85375000D02*
X132275000Y-85650000D01*
X130000000Y-85375000D02*
X132000000Y-85375000D01*
%TO.N,/+5V_USB*%
X133325000Y-84375000D02*
X133325000Y-87125000D01*
X133200000Y-87250000D02*
X132875000Y-87250000D01*
X133325000Y-87125000D02*
X133200000Y-87250000D01*
%TO.N,GND*%
D18*
X126700000Y-90350000D02*
X126375000Y-90675000D01*
X128140000Y-90100000D02*
X127890000Y-90350000D01*
X126375000Y-92145292D02*
X126377354Y-92147646D01*
X126375000Y-90675000D02*
X126375000Y-92145292D01*
X127890000Y-90350000D02*
X126700000Y-90350000D01*
%TO.N,/VSYS*%
D19*
X130748000Y-88050000D02*
X130150000Y-88050000D01*
X130150000Y-88050000D02*
X130000000Y-87900000D01*
%TO.N,/+5V_USB*%
D21*
X131550000Y-88600000D02*
X131275000Y-88600000D01*
X131675000Y-87250000D02*
X131675000Y-88475000D01*
%TO.N,/CC1*%
D18*
X118825000Y-92100000D02*
X121145000Y-92100000D01*
%TO.N,/+5V_USB*%
D21*
X131675000Y-88475000D02*
X131550000Y-88600000D01*
%TO.N,/PROG3*%
D18*
X135275000Y-90100000D02*
X135275000Y-89600000D01*
X135475000Y-90700000D02*
X135475000Y-90300000D01*
X135475000Y-90300000D02*
X135275000Y-90100000D01*
%TO.N,/VSYS*%
X142850000Y-92550000D02*
X143050000Y-92350000D01*
X142850000Y-93300000D02*
X142850000Y-92550000D01*
X143050000Y-92350000D02*
X146125000Y-92350000D01*
%TD*%
%TA.AperFunction,Conductor*%
%TO.N,GND*%
G36*
X156610130Y-81440688D02*
G01*
X156624500Y-81475329D01*
X156624500Y-104573024D01*
X156610148Y-104607672D01*
X156575500Y-104622024D01*
X156575422Y-104622024D01*
X111698434Y-104550373D01*
X111663808Y-104535966D01*
X111649512Y-104501461D01*
X111648494Y-103936280D01*
X111646678Y-102928394D01*
X111972500Y-102928394D01*
X111972500Y-103121605D01*
X112002724Y-103312437D01*
X112002725Y-103312440D01*
X112062430Y-103496195D01*
X112150149Y-103668352D01*
X112150151Y-103668355D01*
X112263716Y-103824664D01*
X112263720Y-103824669D01*
X112400331Y-103961280D01*
X112400335Y-103961283D01*
X112400337Y-103961285D01*
X112494679Y-104029828D01*
X112522234Y-104049848D01*
X112556650Y-104074852D01*
X112728803Y-104162569D01*
X112912560Y-104222275D01*
X113103394Y-104252500D01*
X113103395Y-104252500D01*
X113296605Y-104252500D01*
X113296606Y-104252500D01*
X113487440Y-104222275D01*
X113671197Y-104162569D01*
X113843350Y-104074852D01*
X113999663Y-103961285D01*
X113999666Y-103961281D01*
X113999669Y-103961280D01*
X114136280Y-103824669D01*
X114136281Y-103824666D01*
X114136285Y-103824663D01*
X114249852Y-103668350D01*
X114337569Y-103496197D01*
X114397275Y-103312440D01*
X114427500Y-103121606D01*
X114427500Y-102928394D01*
X114423540Y-102903394D01*
X153772500Y-102903394D01*
X153772500Y-103096606D01*
X153776460Y-103121606D01*
X153802724Y-103287437D01*
X153802725Y-103287440D01*
X153862430Y-103471195D01*
X153950149Y-103643352D01*
X153950151Y-103643355D01*
X154063716Y-103799664D01*
X154063720Y-103799669D01*
X154200331Y-103936280D01*
X154200335Y-103936283D01*
X154200337Y-103936285D01*
X154356650Y-104049852D01*
X154528803Y-104137569D01*
X154712560Y-104197275D01*
X154903394Y-104227500D01*
X154903395Y-104227500D01*
X155096605Y-104227500D01*
X155096606Y-104227500D01*
X155287440Y-104197275D01*
X155471197Y-104137569D01*
X155643350Y-104049852D01*
X155799663Y-103936285D01*
X155799666Y-103936281D01*
X155799669Y-103936280D01*
X155936280Y-103799669D01*
X155936281Y-103799666D01*
X155936285Y-103799663D01*
X156049852Y-103643350D01*
X156137569Y-103471197D01*
X156197275Y-103287440D01*
X156227500Y-103096606D01*
X156227500Y-102903394D01*
X156197275Y-102712560D01*
X156137569Y-102528803D01*
X156049852Y-102356650D01*
X155936285Y-102200337D01*
X155936283Y-102200335D01*
X155936280Y-102200331D01*
X155799669Y-102063720D01*
X155799664Y-102063716D01*
X155643355Y-101950151D01*
X155643352Y-101950149D01*
X155471195Y-101862430D01*
X155287440Y-101802725D01*
X155287437Y-101802724D01*
X155140842Y-101779506D01*
X155096606Y-101772500D01*
X154903394Y-101772500D01*
X154867482Y-101778187D01*
X154712562Y-101802724D01*
X154712559Y-101802725D01*
X154528804Y-101862430D01*
X154356647Y-101950149D01*
X154356644Y-101950151D01*
X154200335Y-102063716D01*
X154063716Y-102200335D01*
X153950151Y-102356644D01*
X153950149Y-102356647D01*
X153862430Y-102528804D01*
X153802725Y-102712559D01*
X153802724Y-102712562D01*
X153772500Y-102903394D01*
X114423540Y-102903394D01*
X114397275Y-102737560D01*
X114337569Y-102553803D01*
X114249852Y-102381650D01*
X114231686Y-102356647D01*
X114204828Y-102319679D01*
X114136285Y-102225337D01*
X114136283Y-102225335D01*
X114136280Y-102225331D01*
X113999669Y-102088720D01*
X113999664Y-102088716D01*
X113965254Y-102063716D01*
X113952491Y-102054443D01*
X113843355Y-101975151D01*
X113843352Y-101975149D01*
X113671195Y-101887430D01*
X113487440Y-101827725D01*
X113487437Y-101827724D01*
X113340842Y-101804506D01*
X113296606Y-101797500D01*
X113103394Y-101797500D01*
X113067482Y-101803187D01*
X112912562Y-101827724D01*
X112912559Y-101827725D01*
X112728804Y-101887430D01*
X112556647Y-101975149D01*
X112556644Y-101975151D01*
X112400335Y-102088716D01*
X112263716Y-102225335D01*
X112150151Y-102381644D01*
X112150149Y-102381647D01*
X112062430Y-102553804D01*
X112002725Y-102737559D01*
X112002724Y-102737562D01*
X111972500Y-102928394D01*
X111646678Y-102928394D01*
X111640429Y-99460487D01*
X111636250Y-97140688D01*
X125599500Y-97140688D01*
X125599500Y-97259311D01*
X125630200Y-97373884D01*
X125630201Y-97373887D01*
X125677178Y-97455252D01*
X125689511Y-97476613D01*
X125773387Y-97560489D01*
X125876114Y-97619799D01*
X125896250Y-97625194D01*
X125905488Y-97627670D01*
X125935240Y-97650500D01*
X125940135Y-97687683D01*
X125917305Y-97717435D01*
X125905488Y-97722330D01*
X125876113Y-97730201D01*
X125876112Y-97730201D01*
X125773386Y-97789511D01*
X125773386Y-97789512D01*
X125689512Y-97873386D01*
X125689511Y-97873386D01*
X125630201Y-97976112D01*
X125630200Y-97976115D01*
X125599500Y-98090688D01*
X125599500Y-98209311D01*
X125630200Y-98323884D01*
X125630201Y-98323887D01*
X125636076Y-98334062D01*
X125689511Y-98426613D01*
X125773387Y-98510489D01*
X125848585Y-98553905D01*
X125869277Y-98565852D01*
X125876114Y-98569799D01*
X125899678Y-98576113D01*
X125990688Y-98600500D01*
X125990691Y-98600500D01*
X126109311Y-98600500D01*
X126166597Y-98585149D01*
X126223886Y-98569799D01*
X126326613Y-98510489D01*
X126326613Y-98510488D01*
X126329394Y-98508883D01*
X126329750Y-98509500D01*
X126356263Y-98500500D01*
X128746146Y-98500500D01*
X128790716Y-98488557D01*
X128835288Y-98476614D01*
X128840879Y-98473386D01*
X128915212Y-98430470D01*
X129255470Y-98090212D01*
X129301614Y-98010288D01*
X129311411Y-97973724D01*
X129318066Y-97948888D01*
X129318066Y-97948887D01*
X129325500Y-97921145D01*
X129325500Y-96781263D01*
X129334500Y-96754750D01*
X129333883Y-96754394D01*
X129335489Y-96751613D01*
X129394799Y-96648886D01*
X129417902Y-96562665D01*
X129425500Y-96534311D01*
X129425500Y-96415688D01*
X129394799Y-96301115D01*
X129394798Y-96301112D01*
X129335488Y-96198386D01*
X129251613Y-96114511D01*
X129148887Y-96055201D01*
X129148884Y-96055200D01*
X129034312Y-96024500D01*
X129034309Y-96024500D01*
X128915691Y-96024500D01*
X128915688Y-96024500D01*
X128801115Y-96055200D01*
X128801112Y-96055201D01*
X128698386Y-96114511D01*
X128698386Y-96114512D01*
X128614512Y-96198386D01*
X128614511Y-96198386D01*
X128555201Y-96301112D01*
X128555200Y-96301115D01*
X128524500Y-96415688D01*
X128524500Y-96534311D01*
X128555200Y-96648884D01*
X128555201Y-96648887D01*
X128592157Y-96712895D01*
X128601852Y-96729688D01*
X128616117Y-96754394D01*
X128615499Y-96754750D01*
X128624500Y-96781263D01*
X128624500Y-97709522D01*
X128610148Y-97744170D01*
X128569170Y-97785148D01*
X128534522Y-97799500D01*
X126356263Y-97799500D01*
X126329750Y-97790499D01*
X126329394Y-97791117D01*
X126326613Y-97789511D01*
X126248081Y-97744170D01*
X126223887Y-97730201D01*
X126223884Y-97730200D01*
X126194512Y-97722330D01*
X126164759Y-97699500D01*
X126159864Y-97662318D01*
X126182694Y-97632565D01*
X126194512Y-97627670D01*
X126202862Y-97625432D01*
X126223886Y-97619799D01*
X126326613Y-97560489D01*
X126410489Y-97476613D01*
X126469799Y-97373886D01*
X126485149Y-97316597D01*
X126500500Y-97259311D01*
X126500500Y-97140688D01*
X126469799Y-97026115D01*
X126469798Y-97026112D01*
X126411112Y-96924466D01*
X126410489Y-96923387D01*
X126410488Y-96923386D01*
X126408883Y-96920606D01*
X126409498Y-96920250D01*
X126400500Y-96893736D01*
X126400500Y-95774500D01*
X126414852Y-95739852D01*
X126449500Y-95725500D01*
X130093102Y-95725500D01*
X130127750Y-95739852D01*
X130148387Y-95760489D01*
X130251114Y-95819799D01*
X130279758Y-95827474D01*
X130365688Y-95850500D01*
X130365691Y-95850500D01*
X130484311Y-95850500D01*
X130541597Y-95835149D01*
X130598886Y-95819799D01*
X130701613Y-95760489D01*
X130785489Y-95676613D01*
X130833065Y-95594210D01*
X130862818Y-95571380D01*
X130900000Y-95576275D01*
X130922830Y-95606028D01*
X130924500Y-95618710D01*
X130924500Y-95918101D01*
X130910148Y-95952749D01*
X129689512Y-97173385D01*
X129689511Y-97173385D01*
X129630201Y-97276111D01*
X129628532Y-97282343D01*
X129628531Y-97282342D01*
X129628531Y-97282346D01*
X129599500Y-97390688D01*
X129599500Y-98809311D01*
X129619596Y-98884309D01*
X129630200Y-98923886D01*
X129630201Y-98923888D01*
X129631487Y-98926115D01*
X129689511Y-99026614D01*
X130123386Y-99460490D01*
X130226113Y-99519799D01*
X130250326Y-99526286D01*
X130295508Y-99538393D01*
X130340689Y-99550500D01*
X130340691Y-99550500D01*
X137559311Y-99550500D01*
X137589430Y-99542428D01*
X137649673Y-99526286D01*
X137673887Y-99519799D01*
X137776614Y-99460489D01*
X138135490Y-99101614D01*
X138194799Y-98998887D01*
X138214298Y-98926114D01*
X138225500Y-98884309D01*
X138225500Y-97455252D01*
X149774500Y-97455252D01*
X149774500Y-98994748D01*
X149786133Y-99053231D01*
X149803882Y-99079795D01*
X149830447Y-99119552D01*
X149857012Y-99137301D01*
X149896769Y-99163867D01*
X149955252Y-99175500D01*
X149955255Y-99175500D01*
X151394745Y-99175500D01*
X151394748Y-99175500D01*
X151453231Y-99163867D01*
X151519552Y-99119552D01*
X151563867Y-99053231D01*
X151575500Y-98994748D01*
X151575500Y-97455252D01*
X151563867Y-97396769D01*
X151537301Y-97357012D01*
X151519552Y-97330447D01*
X151479795Y-97303882D01*
X151453231Y-97286133D01*
X151394748Y-97274500D01*
X149955252Y-97274500D01*
X149915808Y-97282346D01*
X149896769Y-97286133D01*
X149830447Y-97330447D01*
X149790196Y-97390688D01*
X149786133Y-97396769D01*
X149774500Y-97455252D01*
X138225500Y-97455252D01*
X138225500Y-96165688D01*
X144324500Y-96165688D01*
X144324500Y-96284311D01*
X144355200Y-96398884D01*
X144355201Y-96398887D01*
X144380577Y-96442838D01*
X144414511Y-96501613D01*
X144498387Y-96585489D01*
X144601114Y-96644799D01*
X144616367Y-96648886D01*
X144715688Y-96675500D01*
X144715691Y-96675500D01*
X147259311Y-96675500D01*
X147289430Y-96667428D01*
X147349673Y-96651286D01*
X147373887Y-96644799D01*
X147476614Y-96585489D01*
X147785489Y-96276614D01*
X147844799Y-96173887D01*
X147854869Y-96136303D01*
X149774500Y-96136303D01*
X149774500Y-96313696D01*
X149809103Y-96487656D01*
X149809106Y-96487667D01*
X149875885Y-96648887D01*
X149876987Y-96651547D01*
X149882972Y-96660504D01*
X149975533Y-96799032D01*
X150100967Y-96924466D01*
X150159640Y-96963670D01*
X150248453Y-97023013D01*
X150412334Y-97090894D01*
X150412340Y-97090895D01*
X150412343Y-97090896D01*
X150586303Y-97125499D01*
X150586309Y-97125500D01*
X150763691Y-97125500D01*
X150937666Y-97090894D01*
X151101547Y-97023013D01*
X151249035Y-96924464D01*
X151374464Y-96799035D01*
X151473013Y-96651547D01*
X151540894Y-96487666D01*
X151575500Y-96313691D01*
X151575500Y-96136309D01*
X151559367Y-96055201D01*
X151540896Y-95962343D01*
X151540893Y-95962332D01*
X151535117Y-95948387D01*
X151473013Y-95798453D01*
X151413670Y-95709640D01*
X151374466Y-95650967D01*
X151249032Y-95525533D01*
X151149920Y-95459309D01*
X151101547Y-95426987D01*
X151101544Y-95426985D01*
X151101543Y-95426985D01*
X150937667Y-95359106D01*
X150937656Y-95359103D01*
X150763696Y-95324500D01*
X150763691Y-95324500D01*
X150586309Y-95324500D01*
X150586303Y-95324500D01*
X150412343Y-95359103D01*
X150412332Y-95359106D01*
X150248456Y-95426985D01*
X150100967Y-95525533D01*
X149975533Y-95650967D01*
X149876985Y-95798456D01*
X149809106Y-95962332D01*
X149809103Y-95962343D01*
X149774500Y-96136303D01*
X147854869Y-96136303D01*
X147858032Y-96124500D01*
X147875500Y-96059309D01*
X147875500Y-88656899D01*
X147889852Y-88622251D01*
X147922251Y-88589852D01*
X147956899Y-88575500D01*
X149841801Y-88575500D01*
X149876449Y-88589852D01*
X149882543Y-88597277D01*
X149950533Y-88699032D01*
X150075967Y-88824466D01*
X150108065Y-88845913D01*
X150223453Y-88923013D01*
X150387334Y-88990894D01*
X150387340Y-88990895D01*
X150387343Y-88990896D01*
X150561303Y-89025499D01*
X150561309Y-89025500D01*
X150738691Y-89025500D01*
X150912666Y-88990894D01*
X151076547Y-88923013D01*
X151224035Y-88824464D01*
X151349464Y-88699035D01*
X151448013Y-88551547D01*
X151515894Y-88387666D01*
X151550500Y-88213691D01*
X151550500Y-88036309D01*
X151515894Y-87862334D01*
X151448013Y-87698453D01*
X151372305Y-87585148D01*
X151349466Y-87550967D01*
X151224032Y-87425533D01*
X151136021Y-87366726D01*
X151076547Y-87326987D01*
X151076544Y-87326985D01*
X151076543Y-87326985D01*
X150912667Y-87259106D01*
X150912656Y-87259103D01*
X150738696Y-87224500D01*
X150738691Y-87224500D01*
X150561309Y-87224500D01*
X150561303Y-87224500D01*
X150387343Y-87259103D01*
X150387332Y-87259106D01*
X150223456Y-87326985D01*
X150075967Y-87425533D01*
X149950533Y-87550967D01*
X149882543Y-87652723D01*
X149851360Y-87673558D01*
X149841801Y-87674500D01*
X147690688Y-87674500D01*
X147576117Y-87705199D01*
X147576111Y-87705202D01*
X147568998Y-87709309D01*
X147473385Y-87764511D01*
X147473385Y-87764512D01*
X147064512Y-88173385D01*
X147064511Y-88173385D01*
X147005201Y-88276111D01*
X147003532Y-88282343D01*
X147003531Y-88282342D01*
X147003531Y-88282346D01*
X146974500Y-88390688D01*
X146974500Y-95725500D01*
X146960148Y-95760148D01*
X146925500Y-95774500D01*
X144715688Y-95774500D01*
X144601115Y-95805200D01*
X144601112Y-95805201D01*
X144498386Y-95864511D01*
X144498386Y-95864512D01*
X144414512Y-95948386D01*
X144414511Y-95948386D01*
X144355201Y-96051112D01*
X144355200Y-96051115D01*
X144324500Y-96165688D01*
X138225500Y-96165688D01*
X138225500Y-94765688D01*
X140449500Y-94765688D01*
X140449500Y-94884311D01*
X140480200Y-94998884D01*
X140480201Y-94998887D01*
X140518496Y-95065215D01*
X140539511Y-95101613D01*
X140623387Y-95185489D01*
X140726114Y-95244799D01*
X140741367Y-95248886D01*
X140840688Y-95275500D01*
X140840691Y-95275500D01*
X140959311Y-95275500D01*
X141016597Y-95260149D01*
X141073886Y-95244799D01*
X141139243Y-95207064D01*
X141163742Y-95200500D01*
X143321146Y-95200500D01*
X143365716Y-95188557D01*
X143410288Y-95176614D01*
X143490212Y-95130469D01*
X143555469Y-95065212D01*
X143601614Y-94985288D01*
X143613557Y-94940716D01*
X143625500Y-94896146D01*
X143625500Y-94803853D01*
X143601614Y-94714713D01*
X143601613Y-94714710D01*
X143590077Y-94694731D01*
X143555469Y-94634788D01*
X143490212Y-94569531D01*
X143489876Y-94569337D01*
X143479735Y-94561554D01*
X143460215Y-94542034D01*
X143460212Y-94542031D01*
X143442663Y-94531899D01*
X143380289Y-94495886D01*
X143380286Y-94495885D01*
X143291147Y-94472000D01*
X143291144Y-94472000D01*
X143198856Y-94472000D01*
X143198853Y-94472000D01*
X143106610Y-94496717D01*
X143106540Y-94496456D01*
X143091241Y-94499500D01*
X141231898Y-94499500D01*
X141197250Y-94485148D01*
X141176613Y-94464511D01*
X141073887Y-94405201D01*
X141073884Y-94405200D01*
X140959312Y-94374500D01*
X140959309Y-94374500D01*
X140840691Y-94374500D01*
X140840688Y-94374500D01*
X140726115Y-94405200D01*
X140726112Y-94405201D01*
X140623386Y-94464511D01*
X140623386Y-94464512D01*
X140539512Y-94548386D01*
X140539511Y-94548386D01*
X140480201Y-94651112D01*
X140480200Y-94651115D01*
X140449500Y-94765688D01*
X138225500Y-94765688D01*
X138225500Y-93940691D01*
X138225500Y-93940688D01*
X138194799Y-93826115D01*
X138194798Y-93826112D01*
X138135488Y-93723386D01*
X138051613Y-93639511D01*
X137948887Y-93580201D01*
X137840017Y-93551028D01*
X137810264Y-93528197D01*
X137805370Y-93491015D01*
X137818050Y-93469052D01*
X138046414Y-93240688D01*
X142399500Y-93240688D01*
X142399500Y-93359311D01*
X142430200Y-93473884D01*
X142430201Y-93473887D01*
X142473857Y-93549500D01*
X142489511Y-93576613D01*
X142573387Y-93660489D01*
X142676114Y-93719799D01*
X142689501Y-93723386D01*
X142790688Y-93750500D01*
X142790691Y-93750500D01*
X142909311Y-93750500D01*
X142966597Y-93735149D01*
X143023886Y-93719799D01*
X143126613Y-93660489D01*
X143210489Y-93576613D01*
X143269799Y-93473886D01*
X143285149Y-93416597D01*
X143300500Y-93359311D01*
X143300500Y-93240688D01*
X143269799Y-93126115D01*
X143269798Y-93126112D01*
X143208883Y-93020606D01*
X143209498Y-93020250D01*
X143200500Y-92993736D01*
X143200500Y-92749500D01*
X143214852Y-92714852D01*
X143249500Y-92700500D01*
X145818737Y-92700500D01*
X145845249Y-92709500D01*
X145845606Y-92708883D01*
X145848386Y-92710488D01*
X145848387Y-92710489D01*
X145951114Y-92769799D01*
X145979758Y-92777474D01*
X146065688Y-92800500D01*
X146065691Y-92800500D01*
X146184311Y-92800500D01*
X146241597Y-92785149D01*
X146298886Y-92769799D01*
X146401613Y-92710489D01*
X146485489Y-92626613D01*
X146544799Y-92523886D01*
X146565803Y-92445500D01*
X146575500Y-92409311D01*
X146575500Y-92290688D01*
X146544799Y-92176115D01*
X146544798Y-92176112D01*
X146485488Y-92073386D01*
X146401613Y-91989511D01*
X146298887Y-91930201D01*
X146298884Y-91930200D01*
X146184312Y-91899500D01*
X146184309Y-91899500D01*
X146065691Y-91899500D01*
X146065688Y-91899500D01*
X145951115Y-91930200D01*
X145951112Y-91930201D01*
X145871434Y-91976204D01*
X145848387Y-91989511D01*
X145848386Y-91989511D01*
X145845606Y-91991117D01*
X145845249Y-91990499D01*
X145818737Y-91999500D01*
X143003854Y-91999500D01*
X142966508Y-92009507D01*
X142947834Y-92014511D01*
X142914712Y-92023385D01*
X142914709Y-92023386D01*
X142834787Y-92069530D01*
X142834787Y-92069531D01*
X142569531Y-92334787D01*
X142569530Y-92334787D01*
X142534478Y-92395500D01*
X142523386Y-92414710D01*
X142523385Y-92414713D01*
X142499500Y-92503853D01*
X142499500Y-92993736D01*
X142490501Y-93020250D01*
X142491117Y-93020606D01*
X142430201Y-93126112D01*
X142430200Y-93126115D01*
X142399500Y-93240688D01*
X138046414Y-93240688D01*
X138635489Y-92651614D01*
X138694798Y-92548887D01*
X138694799Y-92548886D01*
X138701499Y-92523884D01*
X138725499Y-92434312D01*
X138725500Y-92434312D01*
X138725500Y-91190688D01*
X138696469Y-91082346D01*
X138696468Y-91082342D01*
X138696468Y-91082343D01*
X138694799Y-91076114D01*
X138694799Y-91076113D01*
X138635489Y-90973386D01*
X137839852Y-90177749D01*
X137825500Y-90143101D01*
X137825500Y-89590688D01*
X140024500Y-89590688D01*
X140024500Y-89709311D01*
X140055200Y-89823884D01*
X140055201Y-89823887D01*
X140086938Y-89878856D01*
X140114511Y-89926613D01*
X140198387Y-90010489D01*
X140301114Y-90069799D01*
X140329758Y-90077474D01*
X140415688Y-90100500D01*
X140415691Y-90100500D01*
X140534311Y-90100500D01*
X140592950Y-90084787D01*
X140648886Y-90069799D01*
X140751613Y-90010489D01*
X140751613Y-90010488D01*
X140754394Y-90008883D01*
X140754750Y-90009500D01*
X140781263Y-90000500D01*
X144184522Y-90000500D01*
X144219170Y-90014852D01*
X144260148Y-90055830D01*
X144274500Y-90090478D01*
X144274500Y-90668736D01*
X144265501Y-90695250D01*
X144266117Y-90695606D01*
X144205201Y-90801112D01*
X144205200Y-90801115D01*
X144174500Y-90915688D01*
X144174500Y-91034311D01*
X144205200Y-91148884D01*
X144205201Y-91148887D01*
X144229337Y-91190691D01*
X144264511Y-91251613D01*
X144348387Y-91335489D01*
X144451114Y-91394799D01*
X144479758Y-91402474D01*
X144565688Y-91425500D01*
X144565691Y-91425500D01*
X144684311Y-91425500D01*
X144741597Y-91410149D01*
X144798886Y-91394799D01*
X144901613Y-91335489D01*
X144985489Y-91251613D01*
X145044799Y-91148886D01*
X145060149Y-91091597D01*
X145075500Y-91034311D01*
X145075500Y-90915688D01*
X145044799Y-90801115D01*
X145044798Y-90801112D01*
X144983883Y-90695606D01*
X144984498Y-90695250D01*
X144975500Y-90668736D01*
X144975500Y-89878853D01*
X144951614Y-89789713D01*
X144951613Y-89789710D01*
X144928398Y-89749501D01*
X144928397Y-89749500D01*
X144905472Y-89709791D01*
X144905467Y-89709785D01*
X144565212Y-89369530D01*
X144485290Y-89323386D01*
X144485286Y-89323385D01*
X144396147Y-89299500D01*
X144396144Y-89299500D01*
X140781263Y-89299500D01*
X140754750Y-89290499D01*
X140754394Y-89291117D01*
X140751613Y-89289511D01*
X140682313Y-89249500D01*
X140648887Y-89230201D01*
X140648884Y-89230200D01*
X140534312Y-89199500D01*
X140534309Y-89199500D01*
X140415691Y-89199500D01*
X140415688Y-89199500D01*
X140301115Y-89230200D01*
X140301112Y-89230201D01*
X140198386Y-89289511D01*
X140198386Y-89289512D01*
X140114512Y-89373386D01*
X140114511Y-89373386D01*
X140055201Y-89476112D01*
X140055200Y-89476115D01*
X140024500Y-89590688D01*
X137825500Y-89590688D01*
X137825500Y-86690688D01*
X137794799Y-86576115D01*
X137794798Y-86576112D01*
X137735488Y-86473386D01*
X137651613Y-86389511D01*
X137548887Y-86330201D01*
X137548884Y-86330200D01*
X137434312Y-86299500D01*
X137434309Y-86299500D01*
X136515691Y-86299500D01*
X136515688Y-86299500D01*
X136425326Y-86323713D01*
X136401113Y-86330200D01*
X136401110Y-86330201D01*
X136298385Y-86389510D01*
X136052749Y-86635148D01*
X136018101Y-86649500D01*
X135215688Y-86649500D01*
X135101115Y-86680200D01*
X135101112Y-86680201D01*
X134998386Y-86739511D01*
X134998386Y-86739512D01*
X134914512Y-86823386D01*
X134914511Y-86823386D01*
X134855201Y-86926112D01*
X134855200Y-86926115D01*
X134824500Y-87040688D01*
X134824500Y-87159311D01*
X134855200Y-87273884D01*
X134855201Y-87273887D01*
X134875654Y-87309312D01*
X134914511Y-87376613D01*
X134998387Y-87460489D01*
X135101114Y-87519799D01*
X135129758Y-87527474D01*
X135215688Y-87550500D01*
X135215691Y-87550500D01*
X136284311Y-87550500D01*
X136351373Y-87532530D01*
X136384906Y-87523545D01*
X136398887Y-87519799D01*
X136501614Y-87460489D01*
X136747252Y-87214852D01*
X136781900Y-87200500D01*
X136875500Y-87200500D01*
X136910148Y-87214852D01*
X136924500Y-87249500D01*
X136924500Y-90409311D01*
X136944724Y-90484787D01*
X136944724Y-90484788D01*
X136955200Y-90523885D01*
X136955201Y-90523888D01*
X137014511Y-90626614D01*
X137810148Y-91422251D01*
X137824500Y-91456899D01*
X137824500Y-92168101D01*
X137810148Y-92202749D01*
X135964512Y-94048385D01*
X135964511Y-94048385D01*
X135905201Y-94151111D01*
X135903532Y-94157343D01*
X135903531Y-94157342D01*
X135903531Y-94157346D01*
X135874500Y-94265688D01*
X135874500Y-97568101D01*
X135860148Y-97602749D01*
X135777749Y-97685148D01*
X135743101Y-97699500D01*
X130940688Y-97699500D01*
X130826115Y-97730200D01*
X130826112Y-97730201D01*
X130723386Y-97789511D01*
X130723386Y-97789512D01*
X130639513Y-97873384D01*
X130591935Y-97955790D01*
X130562181Y-97978620D01*
X130524999Y-97973724D01*
X130502169Y-97943970D01*
X130500500Y-97931289D01*
X130500500Y-97656899D01*
X130514852Y-97622251D01*
X131735488Y-96401615D01*
X131735489Y-96401614D01*
X131794799Y-96298887D01*
X131805275Y-96259788D01*
X131825500Y-96184309D01*
X131825500Y-93965691D01*
X131825500Y-93965688D01*
X131794799Y-93851115D01*
X131794798Y-93851112D01*
X131735488Y-93748386D01*
X131651613Y-93664511D01*
X131548887Y-93605201D01*
X131548884Y-93605200D01*
X131434312Y-93574500D01*
X131434309Y-93574500D01*
X131315691Y-93574500D01*
X131315688Y-93574500D01*
X131201115Y-93605200D01*
X131201112Y-93605201D01*
X131098386Y-93664511D01*
X131098386Y-93664512D01*
X131014512Y-93748386D01*
X131014511Y-93748386D01*
X130955201Y-93851112D01*
X130955200Y-93851115D01*
X130924500Y-93965688D01*
X130924500Y-95181289D01*
X130910148Y-95215937D01*
X130875500Y-95230289D01*
X130840852Y-95215937D01*
X130833065Y-95205790D01*
X130816219Y-95176613D01*
X130785489Y-95123387D01*
X130701613Y-95039511D01*
X130598887Y-94980201D01*
X130598884Y-94980200D01*
X130484312Y-94949500D01*
X130484309Y-94949500D01*
X130365691Y-94949500D01*
X130365688Y-94949500D01*
X130251115Y-94980200D01*
X130242303Y-94985288D01*
X130185756Y-95017935D01*
X130161258Y-95024500D01*
X126228853Y-95024500D01*
X126139713Y-95048385D01*
X126139709Y-95048386D01*
X126059787Y-95094530D01*
X126059787Y-95094531D01*
X125769532Y-95384785D01*
X125769527Y-95384791D01*
X125740259Y-95435488D01*
X125740258Y-95435489D01*
X125723386Y-95464710D01*
X125723385Y-95464713D01*
X125699500Y-95553853D01*
X125699500Y-96893736D01*
X125690501Y-96920250D01*
X125691117Y-96920606D01*
X125689511Y-96923386D01*
X125689511Y-96923387D01*
X125688888Y-96924466D01*
X125630201Y-97026112D01*
X125630200Y-97026115D01*
X125599500Y-97140688D01*
X111636250Y-97140688D01*
X111636244Y-97137567D01*
X111634502Y-96170813D01*
X117204500Y-96170813D01*
X117204500Y-96309186D01*
X117240311Y-96442834D01*
X117240312Y-96442838D01*
X117293125Y-96534311D01*
X117309495Y-96562665D01*
X117407335Y-96660505D01*
X117451194Y-96685827D01*
X117527161Y-96729687D01*
X117527163Y-96729687D01*
X117527164Y-96729688D01*
X117608990Y-96751613D01*
X117660813Y-96765499D01*
X117660814Y-96765500D01*
X117660817Y-96765500D01*
X117799186Y-96765500D01*
X117799186Y-96765499D01*
X117932836Y-96729688D01*
X118052665Y-96660505D01*
X118150505Y-96562665D01*
X118219688Y-96442836D01*
X118255499Y-96309186D01*
X118255500Y-96309186D01*
X118255500Y-96170814D01*
X118255499Y-96170813D01*
X118225622Y-96059310D01*
X118219688Y-96037164D01*
X118219687Y-96037163D01*
X118219687Y-96037161D01*
X118150504Y-95917334D01*
X118052665Y-95819495D01*
X117932838Y-95750312D01*
X117932834Y-95750311D01*
X117799186Y-95714500D01*
X117799183Y-95714500D01*
X117660817Y-95714500D01*
X117660814Y-95714500D01*
X117527165Y-95750311D01*
X117527161Y-95750312D01*
X117407334Y-95819495D01*
X117407334Y-95819496D01*
X117309496Y-95917334D01*
X117309495Y-95917334D01*
X117240312Y-96037161D01*
X117240311Y-96037165D01*
X117204500Y-96170813D01*
X111634502Y-96170813D01*
X111634496Y-96167693D01*
X111633484Y-95606028D01*
X111632480Y-95048853D01*
X118384500Y-95048853D01*
X118384500Y-95141146D01*
X118408385Y-95230286D01*
X118408386Y-95230289D01*
X118451430Y-95304842D01*
X118454531Y-95310212D01*
X118519788Y-95375469D01*
X118599712Y-95421614D01*
X118619757Y-95426985D01*
X118688853Y-95445500D01*
X118688856Y-95445500D01*
X118753746Y-95445500D01*
X118766426Y-95447169D01*
X118774001Y-95449199D01*
X118778855Y-95450500D01*
X118778856Y-95450500D01*
X120881258Y-95450500D01*
X120905756Y-95457064D01*
X120971114Y-95494799D01*
X120999758Y-95502474D01*
X121085688Y-95525500D01*
X121085691Y-95525500D01*
X121204311Y-95525500D01*
X121261597Y-95510149D01*
X121318886Y-95494799D01*
X121421613Y-95435489D01*
X121505489Y-95351613D01*
X121564799Y-95248886D01*
X121593669Y-95141144D01*
X121595500Y-95134311D01*
X121595500Y-95015688D01*
X121564799Y-94901115D01*
X121564798Y-94901112D01*
X121548905Y-94873585D01*
X121505489Y-94798387D01*
X121421613Y-94714511D01*
X121318887Y-94655201D01*
X121318884Y-94655200D01*
X121204312Y-94624500D01*
X121204309Y-94624500D01*
X121085691Y-94624500D01*
X121085688Y-94624500D01*
X120971115Y-94655200D01*
X120971112Y-94655201D01*
X120868386Y-94714511D01*
X120868386Y-94714512D01*
X120847750Y-94735148D01*
X120813102Y-94749500D01*
X118806254Y-94749500D01*
X118793573Y-94747830D01*
X118785998Y-94745800D01*
X118781145Y-94744500D01*
X118781144Y-94744500D01*
X118688856Y-94744500D01*
X118688853Y-94744500D01*
X118599713Y-94768385D01*
X118599710Y-94768386D01*
X118519794Y-94814527D01*
X118519784Y-94814534D01*
X118454534Y-94879784D01*
X118454527Y-94879794D01*
X118408386Y-94959710D01*
X118408385Y-94959713D01*
X118384500Y-95048853D01*
X111632480Y-95048853D01*
X111628429Y-92800500D01*
X111627075Y-92048853D01*
X118384500Y-92048853D01*
X118384500Y-92141146D01*
X118408385Y-92230286D01*
X118408386Y-92230289D01*
X118443260Y-92290691D01*
X118454531Y-92310212D01*
X118519788Y-92375469D01*
X118554482Y-92395500D01*
X118587757Y-92414712D01*
X118599712Y-92421614D01*
X118621998Y-92427585D01*
X118688853Y-92445500D01*
X118688856Y-92445500D01*
X118753746Y-92445500D01*
X118766426Y-92447169D01*
X118774001Y-92449199D01*
X118778855Y-92450500D01*
X118778856Y-92450500D01*
X120838737Y-92450500D01*
X120865249Y-92459500D01*
X120865606Y-92458883D01*
X120868386Y-92460488D01*
X120868387Y-92460489D01*
X120971114Y-92519799D01*
X120986367Y-92523886D01*
X121085688Y-92550500D01*
X121085691Y-92550500D01*
X121204311Y-92550500D01*
X121261597Y-92535149D01*
X121318886Y-92519799D01*
X121421613Y-92460489D01*
X121505489Y-92376613D01*
X121564799Y-92273886D01*
X121590998Y-92176112D01*
X121595500Y-92159311D01*
X121595500Y-92040688D01*
X121564799Y-91926115D01*
X121564798Y-91926112D01*
X121505488Y-91823386D01*
X121421613Y-91739511D01*
X121318887Y-91680201D01*
X121318884Y-91680200D01*
X121204312Y-91649500D01*
X121204309Y-91649500D01*
X121085691Y-91649500D01*
X121085688Y-91649500D01*
X120971115Y-91680200D01*
X120971112Y-91680201D01*
X120891434Y-91726204D01*
X120868387Y-91739511D01*
X120868386Y-91739511D01*
X120865606Y-91741117D01*
X120865249Y-91740499D01*
X120838737Y-91749500D01*
X118806254Y-91749500D01*
X118793573Y-91747830D01*
X118785998Y-91745800D01*
X118781145Y-91744500D01*
X118781144Y-91744500D01*
X118688856Y-91744500D01*
X118688853Y-91744500D01*
X118599713Y-91768385D01*
X118599710Y-91768386D01*
X118519794Y-91814527D01*
X118519784Y-91814534D01*
X118454534Y-91879784D01*
X118454527Y-91879794D01*
X118408386Y-91959710D01*
X118408385Y-91959713D01*
X118384500Y-92048853D01*
X111627075Y-92048853D01*
X111627069Y-92045732D01*
X111625142Y-90976613D01*
X111624086Y-90390813D01*
X117204500Y-90390813D01*
X117204500Y-90529186D01*
X117240311Y-90662834D01*
X117240312Y-90662838D01*
X117309495Y-90782665D01*
X117407335Y-90880505D01*
X117451194Y-90905827D01*
X117527161Y-90949687D01*
X117527163Y-90949687D01*
X117527164Y-90949688D01*
X117615603Y-90973385D01*
X117660813Y-90985499D01*
X117660814Y-90985500D01*
X117660817Y-90985500D01*
X117799186Y-90985500D01*
X117799186Y-90985499D01*
X117932836Y-90949688D01*
X118052665Y-90880505D01*
X118150505Y-90782665D01*
X118219688Y-90662836D01*
X118255499Y-90529186D01*
X118255500Y-90529186D01*
X118255500Y-90390814D01*
X118255499Y-90390813D01*
X118219688Y-90257165D01*
X118219687Y-90257161D01*
X118173838Y-90177749D01*
X118150505Y-90137335D01*
X118052665Y-90039495D01*
X117932838Y-89970312D01*
X117932834Y-89970311D01*
X117799186Y-89934500D01*
X117799183Y-89934500D01*
X117660817Y-89934500D01*
X117660814Y-89934500D01*
X117527165Y-89970311D01*
X117527161Y-89970312D01*
X117407334Y-90039495D01*
X117407334Y-90039496D01*
X117309496Y-90137334D01*
X117309495Y-90137334D01*
X117240312Y-90257161D01*
X117240311Y-90257165D01*
X117204500Y-90390813D01*
X111624086Y-90390813D01*
X111619266Y-87715688D01*
X125074500Y-87715688D01*
X125074500Y-93984311D01*
X125105200Y-94098884D01*
X125105201Y-94098887D01*
X125135355Y-94151114D01*
X125164511Y-94201613D01*
X125248387Y-94285489D01*
X125351114Y-94344799D01*
X125379758Y-94352474D01*
X125465688Y-94375500D01*
X125465691Y-94375500D01*
X125584311Y-94375500D01*
X125641597Y-94360149D01*
X125698886Y-94344799D01*
X125801613Y-94285489D01*
X125885489Y-94201613D01*
X125944799Y-94098886D01*
X125962748Y-94031899D01*
X125975500Y-93984311D01*
X125975500Y-89553853D01*
X134924500Y-89553853D01*
X134924500Y-90146146D01*
X134948385Y-90235286D01*
X134948386Y-90235290D01*
X134994530Y-90315212D01*
X135083602Y-90404284D01*
X135097954Y-90438932D01*
X135091390Y-90463431D01*
X135055200Y-90526114D01*
X135055200Y-90526115D01*
X135024500Y-90640688D01*
X135024500Y-90759311D01*
X135055200Y-90873884D01*
X135055201Y-90873887D01*
X135079337Y-90915691D01*
X135114511Y-90976613D01*
X135198387Y-91060489D01*
X135301114Y-91119799D01*
X135329758Y-91127474D01*
X135415688Y-91150500D01*
X135415691Y-91150500D01*
X135534311Y-91150500D01*
X135591597Y-91135149D01*
X135648886Y-91119799D01*
X135751613Y-91060489D01*
X135835489Y-90976613D01*
X135894799Y-90873886D01*
X135914299Y-90801112D01*
X135925500Y-90759311D01*
X135925500Y-90640688D01*
X135894799Y-90526115D01*
X135894798Y-90526112D01*
X135870939Y-90484787D01*
X135835489Y-90423387D01*
X135835488Y-90423386D01*
X135833883Y-90420606D01*
X135834498Y-90420250D01*
X135825500Y-90393736D01*
X135825500Y-90253853D01*
X135801614Y-90164713D01*
X135801613Y-90164709D01*
X135785808Y-90137335D01*
X135755469Y-90084787D01*
X135639852Y-89969170D01*
X135625500Y-89934522D01*
X135625500Y-89553853D01*
X135604669Y-89476114D01*
X135601614Y-89464712D01*
X135555469Y-89384788D01*
X135490212Y-89319531D01*
X135455518Y-89299500D01*
X135410289Y-89273386D01*
X135410286Y-89273385D01*
X135321147Y-89249500D01*
X135321144Y-89249500D01*
X135228856Y-89249500D01*
X135228853Y-89249500D01*
X135139713Y-89273385D01*
X135139710Y-89273386D01*
X135059794Y-89319527D01*
X135059784Y-89319534D01*
X134994534Y-89384784D01*
X134994527Y-89384794D01*
X134948386Y-89464710D01*
X134948385Y-89464713D01*
X134924500Y-89553853D01*
X125975500Y-89553853D01*
X125975500Y-88149500D01*
X125989852Y-88114852D01*
X126024500Y-88100500D01*
X126734311Y-88100500D01*
X126791597Y-88085149D01*
X126848886Y-88069799D01*
X126951613Y-88010489D01*
X127035489Y-87926613D01*
X127094799Y-87823886D01*
X127124015Y-87714852D01*
X127125500Y-87709311D01*
X127125500Y-87590688D01*
X127100767Y-87498386D01*
X127094799Y-87476114D01*
X127035489Y-87373387D01*
X126951613Y-87289511D01*
X126951611Y-87289510D01*
X126848887Y-87230201D01*
X126848884Y-87230200D01*
X126734312Y-87199500D01*
X126734309Y-87199500D01*
X125590691Y-87199500D01*
X125590688Y-87199500D01*
X125500326Y-87223713D01*
X125476113Y-87230200D01*
X125476110Y-87230201D01*
X125373385Y-87289510D01*
X125164512Y-87498384D01*
X125164511Y-87498385D01*
X125105201Y-87601111D01*
X125103532Y-87607343D01*
X125103531Y-87607342D01*
X125103531Y-87607346D01*
X125074500Y-87715688D01*
X111619266Y-87715688D01*
X111614942Y-85315688D01*
X129549500Y-85315688D01*
X129549500Y-87959310D01*
X129563214Y-88010488D01*
X129563214Y-88010489D01*
X129580200Y-88073886D01*
X129580201Y-88073888D01*
X129637647Y-88173385D01*
X129639511Y-88176614D01*
X129873386Y-88410489D01*
X129976113Y-88469799D01*
X130000326Y-88476286D01*
X130045508Y-88488393D01*
X130090689Y-88500500D01*
X130090691Y-88500500D01*
X130807311Y-88500500D01*
X130812814Y-88499025D01*
X130849997Y-88503917D01*
X130872829Y-88533668D01*
X130874500Y-88546354D01*
X130874500Y-88652730D01*
X130901792Y-88754585D01*
X130901793Y-88754589D01*
X130954520Y-88845913D01*
X131029087Y-88920480D01*
X131062513Y-88939778D01*
X131120410Y-88973206D01*
X131120412Y-88973206D01*
X131120413Y-88973207D01*
X131186419Y-88990893D01*
X131222269Y-89000499D01*
X131222270Y-89000500D01*
X131222273Y-89000500D01*
X131602730Y-89000500D01*
X131602730Y-89000499D01*
X131704588Y-88973207D01*
X131795913Y-88920480D01*
X131914020Y-88802370D01*
X131914023Y-88802369D01*
X131920912Y-88795480D01*
X131920913Y-88795480D01*
X131995480Y-88720913D01*
X132048207Y-88629587D01*
X132053227Y-88610852D01*
X132069118Y-88551547D01*
X132075501Y-88527728D01*
X132075501Y-88419277D01*
X132075500Y-88419259D01*
X132075500Y-87749500D01*
X132089852Y-87714852D01*
X132124500Y-87700500D01*
X133259311Y-87700500D01*
X133323997Y-87683166D01*
X133356342Y-87674500D01*
X133373887Y-87669799D01*
X133476614Y-87610489D01*
X133685490Y-87401614D01*
X133744799Y-87298887D01*
X133751286Y-87274673D01*
X133775500Y-87184309D01*
X133775500Y-84315691D01*
X133775500Y-84315688D01*
X133744799Y-84201115D01*
X133744798Y-84201112D01*
X133728905Y-84173585D01*
X133685489Y-84098387D01*
X133601613Y-84014511D01*
X133552725Y-83986285D01*
X133498887Y-83955201D01*
X133498884Y-83955200D01*
X133384312Y-83924500D01*
X133384309Y-83924500D01*
X133265691Y-83924500D01*
X133265688Y-83924500D01*
X133151115Y-83955200D01*
X133151112Y-83955201D01*
X133048386Y-84014511D01*
X133048386Y-84014512D01*
X132964512Y-84098386D01*
X132964511Y-84098386D01*
X132905201Y-84201112D01*
X132905200Y-84201115D01*
X132874500Y-84315688D01*
X132874500Y-86750500D01*
X132860148Y-86785148D01*
X132825500Y-86799500D01*
X132753383Y-86799500D01*
X132718735Y-86785148D01*
X132704383Y-86750500D01*
X132706053Y-86737818D01*
X132723691Y-86671989D01*
X132725499Y-86665242D01*
X132725500Y-86665242D01*
X132725500Y-85590688D01*
X132696469Y-85482346D01*
X132696468Y-85482342D01*
X132696468Y-85482343D01*
X132694799Y-85476114D01*
X132694799Y-85476113D01*
X132635490Y-85373386D01*
X132276614Y-85014511D01*
X132173888Y-84955201D01*
X132173886Y-84955200D01*
X132149673Y-84948713D01*
X132119551Y-84940642D01*
X132059311Y-84924500D01*
X132059309Y-84924500D01*
X130059309Y-84924500D01*
X129940691Y-84924500D01*
X129940688Y-84924500D01*
X129826115Y-84955200D01*
X129826112Y-84955201D01*
X129723386Y-85014511D01*
X129723386Y-85014512D01*
X129639512Y-85098386D01*
X129639511Y-85098386D01*
X129580201Y-85201112D01*
X129580200Y-85201115D01*
X129549500Y-85315688D01*
X111614942Y-85315688D01*
X111610685Y-82953394D01*
X111997500Y-82953394D01*
X111997500Y-83146605D01*
X112027724Y-83337437D01*
X112027725Y-83337440D01*
X112087430Y-83521195D01*
X112175149Y-83693352D01*
X112175151Y-83693355D01*
X112288716Y-83849664D01*
X112288720Y-83849669D01*
X112425331Y-83986280D01*
X112425335Y-83986283D01*
X112425337Y-83986285D01*
X112519679Y-84054828D01*
X112579633Y-84098387D01*
X112581650Y-84099852D01*
X112753803Y-84187569D01*
X112937560Y-84247275D01*
X113128394Y-84277500D01*
X113128395Y-84277500D01*
X113321605Y-84277500D01*
X113321606Y-84277500D01*
X113512440Y-84247275D01*
X113696197Y-84187569D01*
X113868350Y-84099852D01*
X114024663Y-83986285D01*
X114024666Y-83986281D01*
X114024669Y-83986280D01*
X114161280Y-83849669D01*
X114161281Y-83849666D01*
X114161285Y-83849663D01*
X114274852Y-83693350D01*
X114362569Y-83521197D01*
X114422275Y-83337440D01*
X114452500Y-83146606D01*
X114452500Y-82953394D01*
X153772500Y-82953394D01*
X153772500Y-83146605D01*
X153802724Y-83337437D01*
X153802725Y-83337440D01*
X153862430Y-83521195D01*
X153950149Y-83693352D01*
X153950151Y-83693355D01*
X154063716Y-83849664D01*
X154063720Y-83849669D01*
X154200331Y-83986280D01*
X154200335Y-83986283D01*
X154200337Y-83986285D01*
X154294679Y-84054828D01*
X154354633Y-84098387D01*
X154356650Y-84099852D01*
X154528803Y-84187569D01*
X154712560Y-84247275D01*
X154903394Y-84277500D01*
X154903395Y-84277500D01*
X155096605Y-84277500D01*
X155096606Y-84277500D01*
X155287440Y-84247275D01*
X155471197Y-84187569D01*
X155643350Y-84099852D01*
X155799663Y-83986285D01*
X155799666Y-83986281D01*
X155799669Y-83986280D01*
X155936280Y-83849669D01*
X155936281Y-83849666D01*
X155936285Y-83849663D01*
X156049852Y-83693350D01*
X156137569Y-83521197D01*
X156197275Y-83337440D01*
X156227500Y-83146606D01*
X156227500Y-82953394D01*
X156197275Y-82762560D01*
X156137569Y-82578803D01*
X156049852Y-82406650D01*
X155936285Y-82250337D01*
X155936283Y-82250335D01*
X155936280Y-82250331D01*
X155799669Y-82113720D01*
X155799664Y-82113716D01*
X155643355Y-82000151D01*
X155643352Y-82000149D01*
X155471195Y-81912430D01*
X155287440Y-81852725D01*
X155287437Y-81852724D01*
X155140842Y-81829506D01*
X155096606Y-81822500D01*
X154903394Y-81822500D01*
X154867482Y-81828187D01*
X154712562Y-81852724D01*
X154712559Y-81852725D01*
X154528804Y-81912430D01*
X154356647Y-82000149D01*
X154356644Y-82000151D01*
X154200335Y-82113716D01*
X154063716Y-82250335D01*
X153950151Y-82406644D01*
X153950149Y-82406647D01*
X153862430Y-82578804D01*
X153802725Y-82762559D01*
X153802724Y-82762562D01*
X153772500Y-82953394D01*
X114452500Y-82953394D01*
X114422275Y-82762560D01*
X114362569Y-82578803D01*
X114274852Y-82406650D01*
X114161285Y-82250337D01*
X114161283Y-82250335D01*
X114161280Y-82250331D01*
X114024669Y-82113720D01*
X114024664Y-82113716D01*
X113868355Y-82000151D01*
X113868352Y-82000149D01*
X113696195Y-81912430D01*
X113512440Y-81852725D01*
X113512437Y-81852724D01*
X113365842Y-81829506D01*
X113321606Y-81822500D01*
X113128394Y-81822500D01*
X113092482Y-81828187D01*
X112937562Y-81852724D01*
X112937559Y-81852725D01*
X112753804Y-81912430D01*
X112581647Y-82000149D01*
X112581644Y-82000151D01*
X112425335Y-82113716D01*
X112288716Y-82250335D01*
X112175151Y-82406644D01*
X112175149Y-82406647D01*
X112087430Y-82578804D01*
X112027725Y-82762559D01*
X112027724Y-82762562D01*
X111997500Y-82953394D01*
X111610685Y-82953394D01*
X111608065Y-81499134D01*
X111622354Y-81464461D01*
X111656976Y-81450047D01*
X156575476Y-81426355D01*
X156610130Y-81440688D01*
G37*
%TD.AperFunction*%
%TD*%
M02*
