%TF.GenerationSoftware,KiCad,Pcbnew,10.0.6*%
%TF.CreationDate,2026-09-28T21:22:06+03:00*%
%TF.ProjectId,Li-Po_Battery_Charger,4c692d50-6f5f-4426-9174-746572795f43,rev?*%
%TF.SameCoordinates,Original*%
%TF.FileFunction,Copper,L1,Top*%
%TF.FilePolarity,Positive*%
%FSLAX46Y46*%
G04 Gerber Fmt 4.6, Leading zero omitted, Abs format (unit mm)*
G04 Created by KiCad (PCBNEW 10.0.6) date 2026-09-28 21:22:06*
%MOMM*%
%LPD*%
G01*
G04 APERTURE LIST*
%TA.AperFunction,ComponentPad*%
%ADD10C,0.610000*%
%TD*%
%TA.AperFunction,SMDPad,CuDef*%
%ADD11O,2.038000X0.574000*%
%TD*%
%TA.AperFunction,SMDPad,CuDef*%
%ADD12R,2.000000X2.000000*%
%TD*%
%TA.AperFunction,SMDPad,CuDef*%
%ADD13R,0.900000X0.800000*%
%TD*%
%TA.AperFunction,SMDPad,CuDef*%
%ADD14R,0.566000X0.540000*%
%TD*%
%TA.AperFunction,SMDPad,CuDef*%
%ADD15R,0.540000X0.566000*%
%TD*%
%TA.AperFunction,ComponentPad*%
%ADD16C,0.650000*%
%TD*%
%TA.AperFunction,ComponentPad*%
%ADD17O,2.100000X1.000000*%
%TD*%
%TA.AperFunction,ComponentPad*%
%ADD18O,1.800000X1.000000*%
%TD*%
%TA.AperFunction,SMDPad,CuDef*%
%ADD19R,1.150000X0.600000*%
%TD*%
%TA.AperFunction,SMDPad,CuDef*%
%ADD20R,1.150000X0.300000*%
%TD*%
%TA.AperFunction,ComponentPad*%
%ADD21R,1.400000X1.500000*%
%TD*%
%TA.AperFunction,ComponentPad*%
%ADD22C,1.400000*%
%TD*%
%TA.AperFunction,SMDPad,CuDef*%
%ADD23R,0.800000X0.900000*%
%TD*%
%TA.AperFunction,SMDPad,CuDef*%
%ADD24R,0.280000X0.800000*%
%TD*%
%TA.AperFunction,SMDPad,CuDef*%
%ADD25R,0.800000X0.280000*%
%TD*%
%TA.AperFunction,SMDPad,CuDef*%
%ADD26R,2.700000X2.700000*%
%TD*%
%TA.AperFunction,SMDPad,CuDef*%
%ADD27R,0.500000X0.540000*%
%TD*%
%TA.AperFunction,SMDPad,CuDef*%
%ADD28R,0.800000X0.800000*%
%TD*%
%TA.AperFunction,SMDPad,CuDef*%
%ADD29R,0.400000X0.400000*%
%TD*%
%TA.AperFunction,SMDPad,CuDef*%
%ADD30R,1.728000X1.190000*%
%TD*%
%TA.AperFunction,SMDPad,CuDef*%
%ADD31R,1.100000X0.600000*%
%TD*%
%TA.AperFunction,SMDPad,CuDef*%
%ADD32R,3.500000X1.600000*%
%TD*%
%TA.AperFunction,SMDPad,CuDef*%
%ADD33R,1.072000X0.532000*%
%TD*%
%TA.AperFunction,SMDPad,CuDef*%
%ADD34R,1.200000X1.200000*%
%TD*%
%TA.AperFunction,ViaPad*%
%ADD35C,0.600000*%
%TD*%
%TA.AperFunction,ViaPad*%
%ADD36C,0.280000*%
%TD*%
%TA.AperFunction,ViaPad*%
%ADD37C,0.450000*%
%TD*%
%TA.AperFunction,ViaPad*%
%ADD38C,0.250000*%
%TD*%
%TA.AperFunction,Conductor*%
%ADD39C,0.200000*%
%TD*%
%TA.AperFunction,Conductor*%
%ADD40C,0.500000*%
%TD*%
%TA.AperFunction,Conductor*%
%ADD41C,0.127000*%
%TD*%
%TA.AperFunction,Conductor*%
%ADD42C,0.350000*%
%TD*%
%TA.AperFunction,Conductor*%
%ADD43C,0.400000*%
%TD*%
%TA.AperFunction,Conductor*%
%ADD44C,0.600000*%
%TD*%
%TA.AperFunction,Conductor*%
%ADD45C,0.199800*%
%TD*%
%TA.AperFunction,Conductor*%
%ADD46C,0.700000*%
%TD*%
G04 APERTURE END LIST*
D10*
%TO.P,U2,*%
%TO.N,GND*%
X195400000Y-55075000D03*
X194400000Y-55075000D03*
X195400000Y-56075000D03*
X194400000Y-56075000D03*
D11*
%TO.P,U2,1,SW_1*%
%TO.N,Net-(D2-C)*%
X192130000Y-53675000D03*
%TO.P,U2,2,EN_2*%
%TO.N,/VSYS*%
X192130000Y-54945000D03*
%TO.P,U2,3,COMP_3*%
%TO.N,Net-(U2-COMP)*%
X192130000Y-56205000D03*
%TO.P,U2,4,FB_4*%
%TO.N,Net-(U2-FB)*%
X192130000Y-57475000D03*
%TO.P,U2,5,GND_5*%
%TO.N,GND*%
X197670000Y-57475000D03*
%TO.P,U2,6,FREQ_6*%
%TO.N,Net-(U2-FREQ)*%
X197670000Y-56205000D03*
%TO.P,U2,7,VIN_7*%
%TO.N,Net-(U2-VIN)*%
X197670000Y-54945000D03*
%TO.P,U2,8,BST_8*%
%TO.N,Net-(U2-BST)*%
X197670000Y-53675000D03*
D12*
%TO.P,U2,9,EP_9*%
%TO.N,GND*%
X194900000Y-55575000D03*
%TD*%
D13*
%TO.P,C10,1,1_1*%
%TO.N,GND*%
X190900000Y-71910000D03*
%TO.P,C10,2,2_2*%
%TO.N,/VPCC*%
X190900000Y-70510000D03*
%TD*%
D14*
%TO.P,R1,1,1_1*%
%TO.N,GND*%
X188310000Y-57475000D03*
%TO.P,R1,2,2_2*%
%TO.N,Net-(U2-FB)*%
X189170000Y-57475000D03*
%TD*%
D13*
%TO.P,C9,1,1_1*%
%TO.N,GND*%
X187625000Y-63885000D03*
%TO.P,C9,2,2_2*%
%TO.N,/VBAT*%
X187625000Y-65285000D03*
%TD*%
D15*
%TO.P,R3,1,1_1*%
%TO.N,GND*%
X200895000Y-57475000D03*
%TO.P,R3,2,2_2*%
%TO.N,Net-(U2-FREQ)*%
X200895000Y-56615000D03*
%TD*%
D14*
%TO.P,R4,1,1_1*%
%TO.N,Net-(C4-Pad1)*%
X188310000Y-56025000D03*
%TO.P,R4,2,2_2*%
%TO.N,Net-(U2-COMP)*%
X189170000Y-56025000D03*
%TD*%
D16*
%TO.P,USBC,*%
%TO.N,*%
X179250000Y-60975000D03*
X179250000Y-66755000D03*
D17*
%TO.P,USBC,1,SHELL_1*%
%TO.N,GND*%
X179750000Y-59545000D03*
%TO.P,USBC,2,SHELL_2*%
X179750000Y-68185000D03*
D18*
%TO.P,USBC,3,SHELL_3*%
X175600000Y-59545000D03*
%TO.P,USBC,4,SHELL_4*%
X175600000Y-68185000D03*
D19*
%TO.P,USBC,A1B12,GND_A1B12*%
X180320000Y-60665000D03*
%TO.P,USBC,A4B9,VBUS_A4B9*%
%TO.N,/VBUS*%
X180320000Y-61465000D03*
D20*
%TO.P,USBC,A5,CC1_A5*%
%TO.N,unconnected-(USB1-CC1-PadA5)*%
X180320000Y-62615000D03*
%TO.P,USBC,A6,DP1_A6*%
%TO.N,unconnected-(USB1-DP1-PadA6)*%
X180320000Y-63615000D03*
%TO.P,USBC,A7,DN1_A7*%
%TO.N,unconnected-(USB1-DN1-PadA7)*%
X180320000Y-64115000D03*
%TO.P,USBC,A8,SBU1_A8*%
%TO.N,unconnected-(USB1-SBU1-PadA8)*%
X180320000Y-65115000D03*
D19*
%TO.P,USBC,B1A12,GND_B1A12*%
%TO.N,GND*%
X180320000Y-67065000D03*
%TO.P,USBC,B4A9,VBUS_B4A9*%
%TO.N,/VBUS*%
X180320000Y-66265000D03*
D20*
%TO.P,USBC,B5,CC2_B5*%
%TO.N,unconnected-(USB1-CC2-PadB5)*%
X180320000Y-65615000D03*
%TO.P,USBC,B6,DP2_B6*%
%TO.N,unconnected-(USB1-DP2-PadB6)*%
X180320000Y-64615000D03*
%TO.P,USBC,B7,DN2_B7*%
%TO.N,unconnected-(USB1-DN2-PadB7)*%
X180320000Y-63115000D03*
%TO.P,USBC,B8,SBU2_B8*%
%TO.N,unconnected-(USB1-SBU2-PadB8)*%
X180320000Y-62115000D03*
%TD*%
D21*
%TO.P,BAT,1,1_1*%
%TO.N,/B-*%
X212425000Y-64775000D03*
D22*
%TO.P,BAT,2,2_2*%
%TO.N,/VBAT*%
X212425000Y-62775000D03*
%TD*%
D23*
%TO.P,C1,1,1_1*%
%TO.N,GND*%
X179750000Y-56250000D03*
%TO.P,C1,2,2_2*%
%TO.N,/+5V_USB*%
X181150000Y-56250000D03*
%TD*%
D15*
%TO.P,R9,1,1_1*%
%TO.N,Net-(LED1-A)*%
X201425000Y-71280000D03*
%TO.P,R9,2,2_2*%
%TO.N,/+5V_USB*%
X201425000Y-72140000D03*
%TD*%
%TO.P,R10,1,1_1*%
%TO.N,Net-(LED2-A)*%
X198600000Y-71280000D03*
%TO.P,R10,2,2_2*%
%TO.N,/+5V_USB*%
X198600000Y-72140000D03*
%TD*%
D13*
%TO.P,C3,1,1_1*%
%TO.N,Net-(U2-VIN)*%
X200895000Y-54500000D03*
%TO.P,C3,2,2_2*%
%TO.N,GND*%
X200895000Y-53100000D03*
%TD*%
D24*
%TO.P,U3,1,OUT_1*%
%TO.N,/VSYS*%
X191275000Y-68275000D03*
%TO.P,U3,2,VPCC_2*%
%TO.N,/VPCC*%
X191775000Y-68275000D03*
%TO.P,U3,3,SEL_3*%
%TO.N,/+5V_USB*%
X192275000Y-68275000D03*
%TO.P,U3,4,PROG2_4*%
%TO.N,/PROG2*%
X192775000Y-68275000D03*
%TO.P,U3,5,THERM_5*%
%TO.N,/THERM*%
X193275000Y-68275000D03*
D25*
%TO.P,U3,6,PG#_6*%
%TO.N,/PG#*%
X194275000Y-67275000D03*
%TO.P,U3,7,STAT2_7*%
%TO.N,/STAT2*%
X194275000Y-66775000D03*
%TO.P,U3,8,STAT1/LBO#_8*%
%TO.N,/STAT1*%
X194275000Y-66275000D03*
%TO.P,U3,9,TE#_9*%
%TO.N,GND*%
X194275000Y-65775000D03*
%TO.P,U3,10,VSS_10*%
X194275000Y-65275000D03*
D24*
%TO.P,U3,11,VSS_11*%
X193275000Y-64275000D03*
%TO.P,U3,12,PROG3_12*%
%TO.N,/PROG3*%
X192775000Y-64275000D03*
%TO.P,U3,13,PROG1_13*%
%TO.N,/PROG1*%
X192275000Y-64275000D03*
%TO.P,U3,14,VBAT_14*%
%TO.N,/VBAT*%
X191775000Y-64275000D03*
%TO.P,U3,15,VBAT_15*%
X191275000Y-64275000D03*
D25*
%TO.P,U3,16,VBAT_SENSE_16*%
X190275000Y-65275000D03*
%TO.P,U3,17,CE_17*%
%TO.N,/CE*%
X190275000Y-65775000D03*
%TO.P,U3,18,IN_18*%
%TO.N,/+5V_USB*%
X190275000Y-66275000D03*
%TO.P,U3,19,IN_19*%
X190275000Y-66775000D03*
%TO.P,U3,20,OUT_20*%
%TO.N,/VSYS*%
X190275000Y-67275000D03*
D26*
%TO.P,U3,21,EP_21*%
%TO.N,GND*%
X192275000Y-66275000D03*
%TD*%
D13*
%TO.P,C11,1,1_1*%
%TO.N,/VBAT*%
X209450000Y-63450000D03*
%TO.P,C11,2,2_2*%
%TO.N,/B-*%
X209450000Y-64850000D03*
%TD*%
%TO.P,C8,1,1_1*%
%TO.N,GND*%
X187625000Y-68685000D03*
%TO.P,C8,2,2_2*%
%TO.N,/VSYS*%
X187625000Y-67285000D03*
%TD*%
D27*
%TO.P,C2,1,1_1*%
%TO.N,GND*%
X184440000Y-56250000D03*
%TO.P,C2,2,2_2*%
%TO.N,/+5V_USB*%
X183600000Y-56250000D03*
%TD*%
D14*
%TO.P,R12,1,1_1*%
%TO.N,/+5V_USB*%
X189490000Y-62335000D03*
%TO.P,R12,2,2_2*%
%TO.N,/CE*%
X190350000Y-62335000D03*
%TD*%
%TO.P,R2,1,1_1*%
%TO.N,Net-(U2-FB)*%
X192145000Y-59700000D03*
%TO.P,R2,2,2_2*%
%TO.N,/3.3V*%
X193005000Y-59700000D03*
%TD*%
D28*
%TO.P,LED2,1,K_1*%
%TO.N,/STAT2*%
X198600000Y-66735000D03*
%TO.P,LED2,2,A_2*%
%TO.N,Net-(LED2-A)*%
X198600000Y-68335000D03*
%TD*%
D13*
%TO.P,C6,1,1_1*%
%TO.N,Net-(U2-BST)*%
X208725000Y-56225000D03*
%TO.P,C6,2,2_2*%
%TO.N,Net-(D2-C)*%
X208725000Y-54825000D03*
%TD*%
D15*
%TO.P,R6,1,1_1*%
%TO.N,/PROG2*%
X192800000Y-72140000D03*
%TO.P,R6,2,2_2*%
%TO.N,GND*%
X192800000Y-71280000D03*
%TD*%
D29*
%TO.P,D1,1,C_1*%
%TO.N,/+5V_USB*%
X181750000Y-54200000D03*
%TO.P,D1,2,A_2*%
%TO.N,GND*%
X182750000Y-54200000D03*
%TD*%
D30*
%TO.P,F1,1,1_1*%
%TO.N,/VBUS*%
X184375000Y-61450000D03*
%TO.P,F1,2,2_2*%
%TO.N,/+5V_USB*%
X184375000Y-58550000D03*
%TD*%
D31*
%TO.P,Q1,1,S1_1*%
%TO.N,/B-*%
X207125000Y-70700000D03*
%TO.P,Q1,2,D1/D2_2*%
%TO.N,/CSI*%
X207125000Y-69750000D03*
%TO.P,Q1,3,S2_3*%
%TO.N,GND*%
X207125000Y-68800000D03*
%TO.P,Q1,4,G2_4*%
%TO.N,/OD*%
X204425000Y-68800000D03*
%TO.P,Q1,5,D1/D2_5*%
%TO.N,/CSI*%
X204425000Y-69750000D03*
%TO.P,Q1,6,G1_6*%
%TO.N,/OC*%
X204425000Y-70700000D03*
%TD*%
D14*
%TO.P,R5,1,1_1*%
%TO.N,/PROG1*%
X192275000Y-62335000D03*
%TO.P,R5,2,2_2*%
%TO.N,GND*%
X193135000Y-62335000D03*
%TD*%
%TO.P,R7,1,1_1*%
%TO.N,/PROG3*%
X194775000Y-62335000D03*
%TO.P,R7,2,2_2*%
%TO.N,GND*%
X195635000Y-62335000D03*
%TD*%
D23*
%TO.P,C5,1,1_1*%
%TO.N,GND*%
X197545000Y-59675000D03*
%TO.P,C5,2,2_2*%
%TO.N,/3.3V*%
X196145000Y-59675000D03*
%TD*%
D28*
%TO.P,LED1,1,A_1*%
%TO.N,Net-(LED1-A)*%
X201375000Y-68210000D03*
%TO.P,LED1,2,K_2*%
%TO.N,/STAT1*%
X201375000Y-66710000D03*
%TD*%
D32*
%TO.P,L1,1,1_1*%
%TO.N,/3.3V*%
X204670000Y-57075000D03*
%TO.P,L1,2,2_2*%
%TO.N,Net-(D2-C)*%
X204670000Y-53875000D03*
%TD*%
D15*
%TO.P,R8,1,1_1*%
%TO.N,GND*%
X194525000Y-72140000D03*
%TO.P,R8,2,2_2*%
%TO.N,/THERM*%
X194525000Y-71280000D03*
%TD*%
D27*
%TO.P,C4,1,1_1*%
%TO.N,Net-(C4-Pad1)*%
X188280000Y-54400000D03*
%TO.P,C4,2,2_2*%
%TO.N,GND*%
X189120000Y-54400000D03*
%TD*%
D15*
%TO.P,R11,1,1_1*%
%TO.N,/+5V_USB*%
X196300000Y-68685000D03*
%TO.P,R11,2,2_2*%
%TO.N,/PG#*%
X196300000Y-67825000D03*
%TD*%
D33*
%TO.P,U1,1,OD_1*%
%TO.N,/OD*%
X206850000Y-65522500D03*
%TO.P,U1,2,CSI_2*%
%TO.N,/CSI*%
X206850000Y-64572500D03*
%TO.P,U1,3,OC_3*%
%TO.N,/OC*%
X206850000Y-63622500D03*
%TO.P,U1,4,NC_4*%
%TO.N,unconnected-(U1-NC-Pad4)*%
X204550000Y-63622500D03*
%TO.P,U1,5,VDD_5*%
%TO.N,/VBAT*%
X204550000Y-64572500D03*
%TO.P,U1,6,VSS_6*%
%TO.N,/B-*%
X204550000Y-65522500D03*
%TD*%
D34*
%TO.P,D2,1,C_1*%
%TO.N,Net-(D2-C)*%
X206510000Y-60225000D03*
%TO.P,D2,2,A_2*%
%TO.N,GND*%
X203130000Y-60225000D03*
%TD*%
D13*
%TO.P,C7,1,1_1*%
%TO.N,GND*%
X196450000Y-70510000D03*
%TO.P,C7,2,2_2*%
%TO.N,/+5V_USB*%
X196450000Y-71910000D03*
%TD*%
D35*
%TO.N,GND*%
X187625000Y-69900000D03*
X197485714Y-73700000D03*
X194039854Y-64314854D03*
X193700000Y-71425000D03*
X189125000Y-55250000D03*
X179775000Y-55150000D03*
X186375000Y-63875000D03*
X186125000Y-56200000D03*
X193975000Y-61025000D03*
%TO.N,/VSYS*%
X186073000Y-67300000D03*
D36*
X190500000Y-67900000D03*
D37*
%TO.N,/VPCC*%
X191723000Y-69000000D03*
D35*
X190000000Y-69600000D03*
%TO.N,/VBAT*%
X190123000Y-63300000D03*
X188500000Y-63125000D03*
%TO.N,/B-*%
X203450000Y-61675000D03*
X203475000Y-65500000D03*
D38*
%TO.N,/PROG2*%
X193050000Y-70670000D03*
X193650000Y-72150000D03*
D35*
%TO.N,/STAT2*%
X197500000Y-66700000D03*
X195525000Y-66900000D03*
D36*
%TO.N,/PROG3*%
X192800000Y-64400000D03*
D35*
X194775000Y-62775000D03*
%TO.N,/PROG1*%
X191300000Y-62300000D03*
D36*
X192275000Y-64275000D03*
D35*
%TO.N,/CE*%
X190400000Y-61400000D03*
X190150000Y-64300000D03*
%TO.N,/3.3V*%
X194200000Y-58850000D03*
X196237500Y-58237500D03*
%TO.N,/CSI*%
X206712500Y-67787500D03*
X203250000Y-69725000D03*
%TO.N,/OC*%
X206200000Y-67000000D03*
X205802000Y-65475000D03*
%TD*%
%TO.N,GND*%
D39*
X189125000Y-54525000D02*
X189100000Y-54500000D01*
X197485714Y-70835714D02*
X197160000Y-70510000D01*
X194002000Y-71727000D02*
X194002000Y-72002000D01*
X184075000Y-54200000D02*
X182750000Y-54200000D01*
X179750000Y-56250000D02*
X179750000Y-55175000D01*
X193700000Y-71425000D02*
X194002000Y-71727000D01*
X179800000Y-68200000D02*
X180300000Y-67700000D01*
X194275000Y-65775000D02*
X194300000Y-65800000D01*
X189100000Y-54500000D02*
X189100000Y-54400000D01*
X188285000Y-57450000D02*
X188310000Y-57475000D01*
X193975000Y-61025000D02*
X194000000Y-61050000D01*
X197700000Y-57500000D02*
X200900000Y-57500000D01*
X187950000Y-73700000D02*
X190900000Y-73700000D01*
X195400000Y-61025000D02*
X195600000Y-61225000D01*
X195075000Y-57750000D02*
X195075000Y-61025000D01*
X187600000Y-68700000D02*
X187625000Y-68685000D01*
X195400000Y-56750000D02*
X195875000Y-57225000D01*
X179750000Y-68185000D02*
X179800000Y-68200000D01*
X195635000Y-62335000D02*
X195650000Y-62350000D01*
X201450000Y-57500000D02*
X201950000Y-57000000D01*
X193700000Y-71425000D02*
X193625000Y-71425000D01*
X201950000Y-57000000D02*
X201950000Y-53300000D01*
X180300000Y-60700000D02*
X180320000Y-60665000D01*
X195875000Y-57500000D02*
X195575000Y-57500000D01*
X184400000Y-54525000D02*
X184075000Y-54200000D01*
X187400000Y-63900000D02*
X187600000Y-63900000D01*
X197700000Y-57500000D02*
X197670000Y-57475000D01*
X188300000Y-57500000D02*
X188310000Y-57475000D01*
X190575000Y-60075000D02*
X188550000Y-60075000D01*
X194300000Y-65300000D02*
X194275000Y-65275000D01*
X193625000Y-71425000D02*
X193500000Y-71300000D01*
X193500000Y-71300000D02*
X192800000Y-71300000D01*
X189125000Y-55250000D02*
X189125000Y-54525000D01*
X197500000Y-59700000D02*
X199200000Y-59700000D01*
X208750000Y-73375000D02*
X208750000Y-69000000D01*
X188300000Y-59825000D02*
X188300000Y-57500000D01*
X192275000Y-66275000D02*
X192300000Y-66300000D01*
X195635000Y-62135000D02*
X195635000Y-62335000D01*
X197500000Y-62150000D02*
X197500000Y-59700000D01*
X194300000Y-64535146D02*
X194039854Y-64275000D01*
X197485714Y-73700000D02*
X197485714Y-70835714D01*
X197485714Y-73700000D02*
X190900000Y-73700000D01*
X187415000Y-63885000D02*
X187625000Y-63885000D01*
X187638182Y-68638182D02*
X187600000Y-68600000D01*
X193170000Y-62300000D02*
X193135000Y-62335000D01*
X194300000Y-65300000D02*
X194300000Y-64535146D01*
X208750000Y-69000000D02*
X208550000Y-68800000D01*
X197500000Y-59700000D02*
X197545000Y-59675000D01*
X193975000Y-62200000D02*
X193875000Y-62300000D01*
X195875000Y-57225000D02*
X195875000Y-57500000D01*
X197700000Y-57500000D02*
X195575000Y-57500000D01*
X179750000Y-55175000D02*
X179775000Y-55150000D01*
X194039854Y-64275000D02*
X193275000Y-64275000D01*
X187405000Y-63875000D02*
X187415000Y-63885000D01*
X208550000Y-68800000D02*
X207125000Y-68800000D01*
X195650000Y-62350000D02*
X197300000Y-62350000D01*
X186375000Y-63875000D02*
X187405000Y-63875000D01*
X190900000Y-73700000D02*
X190900000Y-73200000D01*
X194300000Y-65800000D02*
X194300000Y-65300000D01*
X188550000Y-60075000D02*
X188300000Y-59825000D01*
X195325000Y-57500000D02*
X195075000Y-57750000D01*
X189100000Y-54400000D02*
X189120000Y-54400000D01*
X200900000Y-57500000D02*
X201450000Y-57500000D01*
X187600000Y-68600000D02*
X187600000Y-68700000D01*
X190900000Y-71910000D02*
X190900000Y-73200000D01*
X186125000Y-57275000D02*
X186300000Y-57450000D01*
X194140000Y-72140000D02*
X194525000Y-72140000D01*
X187625000Y-73375000D02*
X187950000Y-73700000D01*
X184400000Y-56200000D02*
X184400000Y-54525000D01*
X195575000Y-57500000D02*
X195325000Y-57500000D01*
X179750000Y-59545000D02*
X180300000Y-60095000D01*
X195600000Y-61225000D02*
X195600000Y-62300000D01*
X199700000Y-60200000D02*
X203100000Y-60200000D01*
X197160000Y-70510000D02*
X196450000Y-70510000D01*
X193875000Y-62300000D02*
X193170000Y-62300000D01*
X186300000Y-57450000D02*
X188285000Y-57450000D01*
X180300000Y-67700000D02*
X180300000Y-67100000D01*
X192300000Y-66300000D02*
X192825000Y-65775000D01*
X199200000Y-59700000D02*
X199700000Y-60200000D01*
X186125000Y-56200000D02*
X186125000Y-57275000D01*
X187600000Y-63900000D02*
X187625000Y-63885000D01*
X180300000Y-60095000D02*
X180300000Y-60700000D01*
X195400000Y-56075000D02*
X195400000Y-56750000D01*
X201750000Y-53100000D02*
X200900000Y-53100000D01*
X192825000Y-65775000D02*
X202100000Y-65775000D01*
X187625000Y-68685000D02*
X187625000Y-69900000D01*
X195600000Y-62300000D02*
X195635000Y-62335000D01*
X208425000Y-73700000D02*
X208750000Y-73375000D01*
X186125000Y-56200000D02*
X184400000Y-56200000D01*
X201950000Y-53300000D02*
X201750000Y-53100000D01*
X194002000Y-72002000D02*
X194140000Y-72140000D01*
X197485714Y-73700000D02*
X208425000Y-73700000D01*
X202100000Y-65775000D02*
X202328600Y-66003600D01*
X192800000Y-71300000D02*
X192800000Y-71280000D01*
X180300000Y-67100000D02*
X180320000Y-67065000D01*
X184400000Y-56200000D02*
X184440000Y-56250000D01*
X193975000Y-61025000D02*
X191525000Y-61025000D01*
X202328600Y-66003600D02*
X202328600Y-73700000D01*
X193975000Y-61025000D02*
X193975000Y-62200000D01*
X200900000Y-57500000D02*
X200895000Y-57475000D01*
X203100000Y-60200000D02*
X203130000Y-60225000D01*
X187625000Y-69900000D02*
X187625000Y-73375000D01*
X193975000Y-61025000D02*
X195400000Y-61025000D01*
X191525000Y-61025000D02*
X190575000Y-60075000D01*
X197300000Y-62350000D02*
X197500000Y-62150000D01*
%TO.N,Net-(D2-C)*%
D40*
X207500000Y-57250000D02*
X207500000Y-56750000D01*
X207800000Y-58000000D02*
X207800000Y-59950000D01*
X207000000Y-54253000D02*
X206622000Y-53875000D01*
X206622000Y-53875000D02*
X204670000Y-53875000D01*
X207800000Y-58000000D02*
X207800000Y-57550000D01*
X192425000Y-51975000D02*
X210225000Y-51975000D01*
X207500000Y-56750000D02*
X207000000Y-56250000D01*
X210400000Y-57850000D02*
X210250000Y-58000000D01*
X210400000Y-52150000D02*
X210400000Y-57850000D01*
X207525000Y-60225000D02*
X206510000Y-60225000D01*
X192130000Y-53675000D02*
X192130000Y-52270000D01*
X207800000Y-57550000D02*
X207500000Y-57250000D01*
X210250000Y-58000000D02*
X207800000Y-58000000D01*
X192130000Y-52270000D02*
X192425000Y-51975000D01*
X207800000Y-59950000D02*
X207525000Y-60225000D01*
X207000000Y-56250000D02*
X207000000Y-54253000D01*
X210225000Y-51975000D02*
X210400000Y-52150000D01*
X210400000Y-54825000D02*
X208725000Y-54825000D01*
%TO.N,/VSYS*%
X190225000Y-53425000D02*
X190225000Y-54775000D01*
X177475000Y-55850000D02*
X180150000Y-53175000D01*
D39*
X190900000Y-68300000D02*
X191300000Y-68300000D01*
D40*
X190225000Y-54775000D02*
X190395000Y-54945000D01*
D39*
X190500000Y-67900000D02*
X190900000Y-68300000D01*
X190275000Y-67275000D02*
X190300000Y-67300000D01*
D40*
X190395000Y-54945000D02*
X192055000Y-54945000D01*
X186073000Y-67300000D02*
X186098000Y-67275000D01*
X177475000Y-69750000D02*
X177475000Y-55850000D01*
X186098000Y-67275000D02*
X187615000Y-67275000D01*
D39*
X192100000Y-54900000D02*
X192130000Y-54945000D01*
X190300000Y-67500000D02*
X190500000Y-67700000D01*
D40*
X177675000Y-69950000D02*
X177475000Y-69750000D01*
X181975000Y-69950000D02*
X177675000Y-69950000D01*
D39*
X190300000Y-67300000D02*
X190300000Y-67500000D01*
X191300000Y-68300000D02*
X191275000Y-68275000D01*
D40*
X180150000Y-53175000D02*
X189975000Y-53175000D01*
X187615000Y-67275000D02*
X187625000Y-67285000D01*
X189975000Y-53175000D02*
X190225000Y-53425000D01*
X184625000Y-67300000D02*
X181975000Y-69950000D01*
X186073000Y-67300000D02*
X184625000Y-67300000D01*
D39*
X190500000Y-67700000D02*
X190500000Y-67900000D01*
%TO.N,Net-(U2-COMP)*%
X192100000Y-56200000D02*
X191900000Y-56000000D01*
X191900000Y-56000000D02*
X189200000Y-56000000D01*
X192130000Y-56205000D02*
X192100000Y-56200000D01*
X189200000Y-56000000D02*
X189170000Y-56025000D01*
%TO.N,Net-(U2-FB)*%
X192100000Y-57500000D02*
X192100000Y-59700000D01*
X189170000Y-57475000D02*
X189200000Y-57500000D01*
X189200000Y-57500000D02*
X192100000Y-57500000D01*
X192100000Y-57500000D02*
X192130000Y-57475000D01*
X192100000Y-59700000D02*
X192145000Y-59700000D01*
%TO.N,Net-(U2-FREQ)*%
X197700000Y-56200000D02*
X198100000Y-56600000D01*
X197670000Y-56205000D02*
X197700000Y-56200000D01*
X198100000Y-56600000D02*
X200900000Y-56600000D01*
%TO.N,Net-(U2-VIN)*%
X197670000Y-54945000D02*
X197700000Y-54900000D01*
X199775000Y-54500000D02*
X200900000Y-54500000D01*
X199375000Y-54900000D02*
X199775000Y-54500000D01*
X197700000Y-54900000D02*
X199375000Y-54900000D01*
%TO.N,Net-(U2-BST)*%
X198100000Y-53675000D02*
X198075000Y-53650000D01*
X202048000Y-52473000D02*
X202325000Y-52750000D01*
X207575000Y-52750000D02*
X207650000Y-52825000D01*
X198075000Y-53650000D02*
X198075000Y-52775000D01*
X198377000Y-52473000D02*
X202048000Y-52473000D01*
X197670000Y-53675000D02*
X197700000Y-53700000D01*
X198075000Y-52775000D02*
X198377000Y-52473000D01*
X202325000Y-52750000D02*
X207575000Y-52750000D01*
X207650000Y-52825000D02*
X207650000Y-56150000D01*
X207650000Y-56150000D02*
X207725000Y-56225000D01*
X207725000Y-56225000D02*
X208725000Y-56225000D01*
%TO.N,/VPCC*%
X190000000Y-70325000D02*
X190185000Y-70510000D01*
X190185000Y-70510000D02*
X190900000Y-70510000D01*
D41*
X191775000Y-68948000D02*
X191775000Y-68275000D01*
D39*
X190600000Y-70200000D02*
X190900000Y-70500000D01*
D41*
X191723000Y-69000000D02*
X191775000Y-68948000D01*
D39*
X190000000Y-69600000D02*
X190000000Y-70325000D01*
%TO.N,/VBAT*%
X209400000Y-63400000D02*
X209450000Y-63450000D01*
D42*
X201000000Y-64600000D02*
X204600000Y-64600000D01*
D39*
X190123000Y-63300000D02*
X190600000Y-63300000D01*
X190800000Y-64500000D02*
X190300000Y-65000000D01*
X191775000Y-64275000D02*
X191275000Y-64275000D01*
X190300000Y-65000000D02*
X190300000Y-65300000D01*
D42*
X209275000Y-62550000D02*
X209400000Y-62675000D01*
D39*
X190800000Y-64275000D02*
X190800000Y-64500000D01*
D42*
X202775000Y-62550000D02*
X209275000Y-62550000D01*
D39*
X191300000Y-64300000D02*
X191275000Y-64275000D01*
X190600000Y-63300000D02*
X190800000Y-63500000D01*
X190300000Y-65300000D02*
X190275000Y-65275000D01*
X191275000Y-64275000D02*
X190800000Y-64275000D01*
D42*
X199875000Y-63475000D02*
X201000000Y-64600000D01*
D43*
X209400000Y-63400000D02*
X210475000Y-63400000D01*
D39*
X188340000Y-65285000D02*
X187625000Y-65285000D01*
D42*
X202575000Y-62750000D02*
X202775000Y-62550000D01*
X209400000Y-62675000D02*
X209400000Y-63400000D01*
D43*
X210475000Y-63400000D02*
X211075000Y-62800000D01*
D42*
X191775000Y-64275000D02*
X191775000Y-63575000D01*
D39*
X190800000Y-63500000D02*
X190800000Y-64275000D01*
X204600000Y-64600000D02*
X204550000Y-64572500D01*
X188500000Y-63200000D02*
X188500000Y-65125000D01*
X188500000Y-65125000D02*
X188340000Y-65285000D01*
D42*
X191875000Y-63475000D02*
X199875000Y-63475000D01*
X202575000Y-64600000D02*
X202575000Y-62750000D01*
D43*
X211075000Y-62800000D02*
X212400000Y-62800000D01*
D42*
X191775000Y-63575000D02*
X191875000Y-63475000D01*
%TO.N,Net-(C4-Pad1)*%
D39*
X188310000Y-56025000D02*
X188300000Y-56000000D01*
X188300000Y-56000000D02*
X188300000Y-54400000D01*
X188300000Y-54400000D02*
X188280000Y-54400000D01*
%TO.N,/VBUS*%
X179400000Y-61800000D02*
X179400000Y-65900000D01*
D44*
X184275000Y-61450000D02*
X184325000Y-61500000D01*
D39*
X179600000Y-61600000D02*
X179400000Y-61800000D01*
X184325000Y-61500000D02*
X184375000Y-61450000D01*
X184300000Y-61500000D02*
X184400000Y-61400000D01*
X180320000Y-61465000D02*
X180300000Y-61500000D01*
X180300000Y-61500000D02*
X180200000Y-61600000D01*
X184400000Y-61400000D02*
X184375000Y-61450000D01*
X179800000Y-66300000D02*
X180300000Y-66300000D01*
X180300000Y-66300000D02*
X180320000Y-66265000D01*
X180200000Y-61600000D02*
X179600000Y-61600000D01*
D44*
X180350000Y-61450000D02*
X184275000Y-61450000D01*
D39*
X179400000Y-65900000D02*
X179800000Y-66300000D01*
%TO.N,/B-*%
X213975000Y-64800000D02*
X209400000Y-64800000D01*
X202700000Y-71950000D02*
X203000000Y-72250000D01*
X214175000Y-64600000D02*
X213975000Y-64800000D01*
X214175000Y-61900000D02*
X214175000Y-64600000D01*
D45*
X204600000Y-65500000D02*
X203475000Y-65500000D01*
D39*
X208250000Y-72025000D02*
X208250000Y-70925000D01*
X204550000Y-65522500D02*
X204600000Y-65500000D01*
D45*
X202700000Y-65650000D02*
X202700000Y-67400000D01*
D39*
X207100000Y-70700000D02*
X207125000Y-70700000D01*
X208025000Y-70700000D02*
X207125000Y-70700000D01*
D45*
X202850000Y-65500000D02*
X202700000Y-65650000D01*
D39*
X202700000Y-67400000D02*
X202700000Y-71950000D01*
X213975000Y-61700000D02*
X214175000Y-61900000D01*
X203000000Y-72250000D02*
X208025000Y-72250000D01*
X208250000Y-70925000D02*
X208025000Y-70700000D01*
D45*
X203475000Y-65500000D02*
X202850000Y-65500000D01*
D39*
X209400000Y-64800000D02*
X209450000Y-64850000D01*
X203475000Y-61700000D02*
X213975000Y-61700000D01*
X208025000Y-72250000D02*
X208250000Y-72025000D01*
X203450000Y-61675000D02*
X203475000Y-61700000D01*
%TO.N,/+5V_USB*%
X190300000Y-66300000D02*
X190275000Y-66275000D01*
X198125000Y-72100000D02*
X198600000Y-72100000D01*
D46*
X183600000Y-56850000D02*
X183600000Y-56200000D01*
D43*
X189425000Y-62400000D02*
X189425000Y-63500000D01*
D39*
X189100000Y-66300000D02*
X189125000Y-66275000D01*
D43*
X189125000Y-66275000D02*
X190275000Y-66275000D01*
X189100000Y-63825000D02*
X189100000Y-66300000D01*
D39*
X198000000Y-71975000D02*
X198125000Y-72100000D01*
D46*
X183600000Y-56200000D02*
X181200000Y-56200000D01*
D39*
X197775000Y-69600000D02*
X198000000Y-69825000D01*
D44*
X187150000Y-62125000D02*
X187360000Y-62335000D01*
D39*
X197560000Y-68685000D02*
X197775000Y-68900000D01*
D43*
X191950000Y-69850000D02*
X191950000Y-72875000D01*
X196250000Y-73075000D02*
X196450000Y-72875000D01*
D39*
X181800000Y-54200000D02*
X181750000Y-54200000D01*
X198600000Y-72100000D02*
X198600000Y-72140000D01*
X198600000Y-72100000D02*
X201400000Y-72100000D01*
D43*
X192100000Y-69700000D02*
X191950000Y-69850000D01*
X192150000Y-73075000D02*
X196250000Y-73075000D01*
D39*
X181200000Y-56200000D02*
X181150000Y-56250000D01*
D44*
X187150000Y-58775000D02*
X187150000Y-62125000D01*
D46*
X184400000Y-58600000D02*
X184400000Y-57650000D01*
D39*
X198000000Y-69825000D02*
X198000000Y-71975000D01*
D43*
X189425000Y-63500000D02*
X189100000Y-63825000D01*
D44*
X187360000Y-62335000D02*
X189490000Y-62335000D01*
D46*
X181800000Y-56200000D02*
X181800000Y-54200000D01*
D39*
X197775000Y-68900000D02*
X197775000Y-69600000D01*
X201400000Y-72100000D02*
X201425000Y-72140000D01*
D46*
X184400000Y-57650000D02*
X183600000Y-56850000D01*
D39*
X184375000Y-58550000D02*
X184400000Y-58600000D01*
X196450000Y-71910000D02*
X196440000Y-71900000D01*
X195250000Y-71700000D02*
X195250000Y-68900000D01*
X195250000Y-68900000D02*
X195450000Y-68700000D01*
X190300000Y-66300000D02*
X190300000Y-66800000D01*
X195450000Y-68700000D02*
X196300000Y-68700000D01*
X196440000Y-71900000D02*
X195450000Y-71900000D01*
X190300000Y-66800000D02*
X190275000Y-66775000D01*
D43*
X189490000Y-62335000D02*
X189425000Y-62400000D01*
X191175000Y-69700000D02*
X192100000Y-69700000D01*
X196450000Y-72875000D02*
X196450000Y-71910000D01*
X189100000Y-66300000D02*
X189100000Y-67625000D01*
D39*
X196300000Y-68685000D02*
X197560000Y-68685000D01*
D43*
X192100000Y-69700000D02*
X192275000Y-69525000D01*
X191950000Y-72875000D02*
X192150000Y-73075000D01*
D39*
X183600000Y-56200000D02*
X183600000Y-56250000D01*
D43*
X189100000Y-67625000D02*
X191175000Y-69700000D01*
D44*
X184400000Y-58600000D02*
X186975000Y-58600000D01*
D39*
X195450000Y-71900000D02*
X195250000Y-71700000D01*
D43*
X192275000Y-69525000D02*
X192275000Y-68275000D01*
D44*
X186975000Y-58600000D02*
X187150000Y-58775000D01*
%TO.N,Net-(LED1-A)*%
D39*
X201425000Y-71280000D02*
X201400000Y-71300000D01*
X201400000Y-71300000D02*
X201400000Y-68200000D01*
X201400000Y-68200000D02*
X201375000Y-68210000D01*
%TO.N,Net-(LED2-A)*%
X198600000Y-68300000D02*
X198600000Y-68335000D01*
X198600000Y-71300000D02*
X198600000Y-68300000D01*
%TO.N,/PROG2*%
X193050000Y-70675000D02*
X192775000Y-70400000D01*
X192775000Y-70400000D02*
X192775000Y-68275000D01*
X192800000Y-72150000D02*
X193650000Y-72150000D01*
%TO.N,/THERM*%
X193275000Y-69250000D02*
X193275000Y-68275000D01*
X194525000Y-70500000D02*
X193275000Y-69250000D01*
X194525000Y-71280000D02*
X194525000Y-70500000D01*
%TO.N,/PG#*%
X195500000Y-67800000D02*
X196300000Y-67800000D01*
X194275000Y-67275000D02*
X194975000Y-67275000D01*
X196300000Y-67800000D02*
X196300000Y-67825000D01*
X194975000Y-67275000D02*
X195500000Y-67800000D01*
%TO.N,/STAT2*%
X195400000Y-66775000D02*
X194275000Y-66775000D01*
X197600000Y-66700000D02*
X197700000Y-66700000D01*
X198600000Y-66735000D02*
X198600000Y-66700000D01*
X195525000Y-66900000D02*
X195400000Y-66775000D01*
X198600000Y-66700000D02*
X197800000Y-66700000D01*
%TO.N,/STAT1*%
X196100000Y-66300000D02*
X194300000Y-66300000D01*
X194300000Y-66300000D02*
X194275000Y-66275000D01*
X199525000Y-67575000D02*
X197375000Y-67575000D01*
X200400000Y-66700000D02*
X199525000Y-67575000D01*
X201365000Y-66700000D02*
X200400000Y-66700000D01*
X201375000Y-66710000D02*
X201400000Y-66700000D01*
X197375000Y-67575000D02*
X196100000Y-66300000D01*
X201375000Y-66710000D02*
X201365000Y-66700000D01*
%TO.N,/PROG3*%
X194775000Y-62775000D02*
X194900000Y-62900000D01*
X194775000Y-62775000D02*
X194775000Y-62335000D01*
X194800000Y-62350000D02*
X194775000Y-62335000D01*
%TO.N,/PROG1*%
X192300000Y-62300000D02*
X192275000Y-62335000D01*
X191300000Y-62300000D02*
X192300000Y-62300000D01*
%TO.N,/CE*%
X189575000Y-65575000D02*
X189775000Y-65775000D01*
X190350000Y-62335000D02*
X190400000Y-62300000D01*
X189575000Y-64475000D02*
X189575000Y-65575000D01*
X190150000Y-64300000D02*
X189750000Y-64300000D01*
X190400000Y-62300000D02*
X190400000Y-61500000D01*
X189750000Y-64300000D02*
X189575000Y-64475000D01*
X189775000Y-65775000D02*
X190275000Y-65775000D01*
%TO.N,/3.3V*%
X196145000Y-59675000D02*
X196145000Y-58330000D01*
X196175000Y-58300000D02*
X201350000Y-58300000D01*
X194200000Y-59500000D02*
X194000000Y-59700000D01*
X196145000Y-58330000D02*
X196175000Y-58300000D01*
X201350000Y-58300000D02*
X202575000Y-57075000D01*
X194000000Y-59700000D02*
X193000000Y-59700000D01*
X194200000Y-58850000D02*
X194200000Y-59500000D01*
X202575000Y-57075000D02*
X204670000Y-57075000D01*
%TO.N,/CSI*%
X208375000Y-67575000D02*
X208375000Y-64825000D01*
X206800000Y-64600000D02*
X206850000Y-64572500D01*
X208150000Y-64600000D02*
X206800000Y-64600000D01*
X208375000Y-64825000D02*
X208150000Y-64600000D01*
X203250000Y-69725000D02*
X204400000Y-69725000D01*
X206137500Y-67787500D02*
X208162500Y-67787500D01*
X207125000Y-69750000D02*
X206225000Y-69750000D01*
X208162500Y-67787500D02*
X208375000Y-67575000D01*
X206000000Y-69525000D02*
X206000000Y-67925000D01*
X204400000Y-69725000D02*
X204425000Y-69750000D01*
X206000000Y-67925000D02*
X206137500Y-67787500D01*
X206225000Y-69750000D02*
X206000000Y-69525000D01*
%TO.N,/OD*%
X207775000Y-65675000D02*
X207775000Y-66250000D01*
X207622500Y-65522500D02*
X207775000Y-65675000D01*
X204400000Y-66675000D02*
X204400000Y-68800000D01*
X206850000Y-65522500D02*
X207622500Y-65522500D01*
X207625000Y-66400000D02*
X204675000Y-66400000D01*
X207775000Y-66250000D02*
X207625000Y-66400000D01*
X204675000Y-66400000D02*
X204400000Y-66675000D01*
X204400000Y-68800000D02*
X204425000Y-68800000D01*
%TO.N,/OC*%
X205525000Y-70500000D02*
X205525000Y-67200000D01*
X205802000Y-63748000D02*
X205950000Y-63600000D01*
X205802000Y-65475000D02*
X205802000Y-63748000D01*
X205950000Y-63600000D02*
X206800000Y-63600000D01*
X204425000Y-70700000D02*
X204450000Y-70725000D01*
X205725000Y-67000000D02*
X206200000Y-67000000D01*
X205525000Y-67200000D02*
X205725000Y-67000000D01*
X206800000Y-63600000D02*
X206850000Y-63622500D01*
X204450000Y-70725000D02*
X205300000Y-70725000D01*
X205300000Y-70725000D02*
X205525000Y-70500000D01*
%TD*%
M02*
