%TF.GenerationSoftware,KiCad,Pcbnew,10.0.6*%
%TF.CreationDate,2026-10-01T22:23:03+03:00*%
%TF.ProjectId,Li-Po_Battery_Charger,4c692d50-6f5f-4426-9174-746572795f43,rev?*%
%TF.SameCoordinates,Original*%
%TF.FileFunction,Copper,L1,Top*%
%TF.FilePolarity,Positive*%
%FSLAX46Y46*%
G04 Gerber Fmt 4.6, Leading zero omitted, Abs format (unit mm)*
G04 Created by KiCad (PCBNEW 10.0.6) date 2026-10-01 22:23:03*
%MOMM*%
%LPD*%
G01*
G04 APERTURE LIST*
%TA.AperFunction,ComponentPad*%
%ADD10R,1.400000X1.500000*%
%TD*%
%TA.AperFunction,ComponentPad*%
%ADD11C,1.400000*%
%TD*%
%TA.AperFunction,SMDPad,CuDef*%
%ADD12R,0.540000X0.566000*%
%TD*%
%TA.AperFunction,SMDPad,CuDef*%
%ADD13R,1.072000X0.532000*%
%TD*%
%TA.AperFunction,SMDPad,CuDef*%
%ADD14R,0.566000X0.540000*%
%TD*%
%TA.AperFunction,SMDPad,CuDef*%
%ADD15R,0.900000X0.300000*%
%TD*%
%TA.AperFunction,SMDPad,CuDef*%
%ADD16R,1.300000X0.300000*%
%TD*%
%TA.AperFunction,SMDPad,CuDef*%
%ADD17R,0.600000X0.300000*%
%TD*%
%TA.AperFunction,SMDPad,CuDef*%
%ADD18R,2.700000X2.700000*%
%TD*%
%TA.AperFunction,SMDPad,CuDef*%
%ADD19R,0.280000X0.800000*%
%TD*%
%TA.AperFunction,SMDPad,CuDef*%
%ADD20R,0.800000X0.280000*%
%TD*%
%TA.AperFunction,SMDPad,CuDef*%
%ADD21R,2.000000X1.400000*%
%TD*%
%TA.AperFunction,SMDPad,CuDef*%
%ADD22R,0.800000X0.900000*%
%TD*%
%TA.AperFunction,SMDPad,CuDef*%
%ADD23R,0.864000X0.806000*%
%TD*%
%TA.AperFunction,SMDPad,CuDef*%
%ADD24R,0.500000X0.540000*%
%TD*%
%TA.AperFunction,SMDPad,CuDef*%
%ADD25R,0.900000X0.800000*%
%TD*%
%TA.AperFunction,SMDPad,CuDef*%
%ADD26R,0.400000X0.400000*%
%TD*%
%TA.AperFunction,SMDPad,CuDef*%
%ADD27R,1.100000X0.600000*%
%TD*%
%TA.AperFunction,SMDPad,CuDef*%
%ADD28R,0.800000X0.800000*%
%TD*%
%TA.AperFunction,SMDPad,CuDef*%
%ADD29R,1.150000X0.600000*%
%TD*%
%TA.AperFunction,SMDPad,CuDef*%
%ADD30R,1.150000X0.300000*%
%TD*%
%TA.AperFunction,ComponentPad*%
%ADD31O,1.800000X1.000000*%
%TD*%
%TA.AperFunction,ComponentPad*%
%ADD32O,2.100000X1.000000*%
%TD*%
%TA.AperFunction,ComponentPad*%
%ADD33C,0.650000*%
%TD*%
%TA.AperFunction,SMDPad,CuDef*%
%ADD34R,1.190000X1.728000*%
%TD*%
%TA.AperFunction,ViaPad*%
%ADD35C,0.500000*%
%TD*%
%TA.AperFunction,ViaPad*%
%ADD36C,0.300000*%
%TD*%
%TA.AperFunction,ViaPad*%
%ADD37C,0.280000*%
%TD*%
%TA.AperFunction,Conductor*%
%ADD38C,0.500000*%
%TD*%
%TA.AperFunction,Conductor*%
%ADD39C,0.300000*%
%TD*%
%TA.AperFunction,Conductor*%
%ADD40C,0.400000*%
%TD*%
%TA.AperFunction,Conductor*%
%ADD41C,0.600000*%
%TD*%
%TA.AperFunction,Conductor*%
%ADD42C,0.700000*%
%TD*%
G04 APERTURE END LIST*
D10*
%TO.P,Load,1,1_1*%
%TO.N,GND*%
X150650000Y-90125000D03*
D11*
%TO.P,Load,2,2_2*%
%TO.N,/3.3V*%
X150650000Y-88125000D03*
%TD*%
D12*
%TO.P,R7,1,1_1*%
%TO.N,Net-(LED2-A)*%
X133150000Y-101125000D03*
%TO.P,R7,2,2_2*%
%TO.N,/+5V_USB*%
X133150000Y-101985000D03*
%TD*%
D13*
%TO.P,U3,6,VSS_6*%
%TO.N,/B-*%
X126050000Y-97200000D03*
%TO.P,U3,5,VDD_5*%
%TO.N,Net-(U3-VDD)*%
X126050000Y-98150000D03*
%TO.P,U3,4,NC_4*%
%TO.N,unconnected-(U3-NC-Pad4)*%
X126050000Y-99100000D03*
%TO.P,U3,3,OC_3*%
%TO.N,/OC*%
X123750000Y-99100000D03*
%TO.P,U3,2,CSI_2*%
%TO.N,/CSI*%
X123750000Y-98150000D03*
%TO.P,U3,1,OD_1*%
%TO.N,/OD*%
X123750000Y-97200000D03*
%TD*%
D12*
%TO.P,R9,1,1_1*%
%TO.N,Net-(U3-VDD)*%
X128975000Y-97245000D03*
%TO.P,R9,2,2_2*%
%TO.N,/VBAT*%
X128975000Y-98105000D03*
%TD*%
%TO.P,R11,1,1_1*%
%TO.N,GND*%
X121850000Y-99010000D03*
%TO.P,R11,2,2_2*%
%TO.N,/CSI*%
X121850000Y-98150000D03*
%TD*%
D14*
%TO.P,R10,1,1_1*%
%TO.N,GND*%
X128140000Y-90100000D03*
%TO.P,R10,2,2_2*%
%TO.N,/THERM*%
X129000000Y-90100000D03*
%TD*%
%TO.P,R14,2,2_2*%
%TO.N,/CE*%
X129005000Y-86900000D03*
%TO.P,R14,1,1_1*%
%TO.N,/+5V_USB*%
X128145000Y-86900000D03*
%TD*%
D15*
%TO.P,U1,10,VIN_10*%
%TO.N,/VSYS*%
X144895000Y-93322500D03*
%TO.P,U1,9,L1_9*%
%TO.N,Net-(U1-L1)*%
X144895000Y-93822500D03*
D16*
%TO.P,U1,8,GND_8*%
%TO.N,GND*%
X144705000Y-94322500D03*
D15*
%TO.P,U1,7,L2_7*%
%TO.N,Net-(U1-L2)*%
X144895000Y-94822500D03*
%TO.P,U1,6,VOUT_6*%
%TO.N,/3.3V*%
X144895000Y-95322500D03*
D17*
%TO.P,U1,5,PG_5*%
%TO.N,unconnected-(U1-PG-Pad5)*%
X143245000Y-95322500D03*
%TO.P,U1,4,FB_4*%
%TO.N,Net-(U1-FB)*%
X143245000Y-94822500D03*
%TO.P,U1,3,AGND_3*%
%TO.N,GND*%
X143245000Y-94322500D03*
%TO.P,U1,2,MODE_2*%
X143245000Y-93822500D03*
%TO.P,U1,1,EN_1*%
%TO.N,/VSYS*%
X143245000Y-93322500D03*
%TD*%
D14*
%TO.P,R13,1,1_1*%
%TO.N,/+5V_USB*%
X128115000Y-91750000D03*
%TO.P,R13,2,2_2*%
%TO.N,/PG#*%
X128975000Y-91750000D03*
%TD*%
D18*
%TO.P,U2,21,EP_21*%
%TO.N,GND*%
X133275000Y-89100000D03*
D19*
%TO.P,U2,20,OUT_20*%
%TO.N,/VSYS*%
X132275000Y-87100000D03*
%TO.P,U2,19,IN_19*%
%TO.N,/+5V_USB*%
X132775000Y-87100000D03*
%TO.P,U2,18,IN_18*%
X133275000Y-87100000D03*
%TO.P,U2,17,CE_17*%
%TO.N,/CE*%
X133775000Y-87100000D03*
%TO.P,U2,16,VBAT_SENSE_16*%
%TO.N,/VBAT*%
X134275000Y-87100000D03*
D20*
%TO.P,U2,15,VBAT_15*%
X135275000Y-88100000D03*
%TO.P,U2,14,VBAT_14*%
X135275000Y-88600000D03*
%TO.P,U2,13,PROG1_13*%
%TO.N,/PROG1*%
X135275000Y-89100000D03*
%TO.P,U2,12,PROG3_12*%
%TO.N,/PROG3*%
X135275000Y-89600000D03*
%TO.P,U2,11,VSS_11*%
%TO.N,GND*%
X135275000Y-90100000D03*
D19*
%TO.P,U2,10,VSS_10*%
X134275000Y-91100000D03*
%TO.P,U2,9,TE#_9*%
X133775000Y-91100000D03*
%TO.P,U2,8,STAT1/LBO#_8*%
%TO.N,/STAT1*%
X133275000Y-91100000D03*
%TO.P,U2,7,STAT2_7*%
%TO.N,/STAT2*%
X132775000Y-91100000D03*
%TO.P,U2,6,PG#_6*%
%TO.N,/PG#*%
X132275000Y-91100000D03*
D20*
%TO.P,U2,5,THERM_5*%
%TO.N,/THERM*%
X131275000Y-90100000D03*
%TO.P,U2,4,PROG2_4*%
%TO.N,/PROG2*%
X131275000Y-89600000D03*
%TO.P,U2,3,SEL_3*%
%TO.N,/+5V_USB*%
X131275000Y-89100000D03*
%TO.P,U2,2,VPCC_2*%
X131275000Y-88600000D03*
%TO.P,U2,1,OUT_1*%
%TO.N,/VSYS*%
X131275000Y-88100000D03*
%TD*%
D14*
%TO.P,R2,1,1_1*%
%TO.N,GND*%
X122005000Y-95075000D03*
%TO.P,R2,2,2_2*%
%TO.N,/CC2*%
X121145000Y-95075000D03*
%TD*%
D21*
%TO.P,L1,2,2_2*%
%TO.N,Net-(U1-L1)*%
X144175000Y-88425000D03*
%TO.P,L1,1,1_1*%
%TO.N,Net-(U1-L2)*%
X144175000Y-84625000D03*
%TD*%
D14*
%TO.P,R1,1,1_1*%
%TO.N,GND*%
X122005000Y-92100000D03*
%TO.P,R1,2,2_2*%
%TO.N,/CC1*%
X121145000Y-92100000D03*
%TD*%
D22*
%TO.P,C5,1,1_1*%
%TO.N,Net-(U3-VDD)*%
X129025000Y-95400000D03*
%TO.P,C5,2,2_2*%
%TO.N,/B-*%
X130425000Y-95400000D03*
%TD*%
%TO.P,C4,1,1_1*%
%TO.N,GND*%
X143425000Y-97275000D03*
%TO.P,C4,2,2_2*%
%TO.N,/3.3V*%
X144825000Y-97275000D03*
%TD*%
D23*
%TO.P,R4,1,1_1*%
%TO.N,GND*%
X140900000Y-96325000D03*
%TO.P,R4,2,2_2*%
%TO.N,Net-(U1-FB)*%
X140900000Y-94825000D03*
%TD*%
D22*
%TO.P,C6,2,2_2*%
%TO.N,/+5V_USB*%
X133325000Y-84375000D03*
%TO.P,C6,1,1_1*%
%TO.N,GND*%
X131925000Y-84375000D03*
%TD*%
D23*
%TO.P,R3,1,1_1*%
%TO.N,Net-(U1-FB)*%
X140900000Y-92575000D03*
%TO.P,R3,2,2_2*%
%TO.N,/3.3V*%
X140900000Y-91075000D03*
%TD*%
D22*
%TO.P,C3,1,1_1*%
%TO.N,GND*%
X143225000Y-90975000D03*
%TO.P,C3,2,2_2*%
%TO.N,/VSYS*%
X144625000Y-90975000D03*
%TD*%
D24*
%TO.P,C2,2,2_2*%
%TO.N,/+5V_USB*%
X121975000Y-86000000D03*
%TO.P,C2,1,1_1*%
%TO.N,GND*%
X122815000Y-86000000D03*
%TD*%
D22*
%TO.P,C1,2,2_2*%
%TO.N,/+5V_USB*%
X119525000Y-86000000D03*
%TO.P,C1,1,1_1*%
%TO.N,GND*%
X118125000Y-86000000D03*
%TD*%
D25*
%TO.P,C8,1,1_1*%
%TO.N,GND*%
X137575000Y-85300000D03*
%TO.P,C8,2,2_2*%
%TO.N,/VBAT*%
X137575000Y-86700000D03*
%TD*%
D14*
%TO.P,R12,2,2_2*%
%TO.N,/PROG2*%
X129005000Y-88700000D03*
%TO.P,R12,1,1_1*%
%TO.N,/+5V_USB*%
X128145000Y-88700000D03*
%TD*%
D26*
%TO.P,D1,2,A_2*%
%TO.N,GND*%
X121125000Y-83950000D03*
%TO.P,D1,1,C_1*%
%TO.N,/+5V_USB*%
X120125000Y-83950000D03*
%TD*%
D27*
%TO.P,Q1,1,S1_1*%
%TO.N,/B-*%
X145350000Y-102165000D03*
%TO.P,Q1,2,D1/D2_2*%
%TO.N,unconnected-(Q1-D1{slash}D2-Pad2)*%
X145350000Y-101215000D03*
%TO.P,Q1,3,S2_3*%
%TO.N,GND*%
X145350000Y-100265000D03*
%TO.P,Q1,4,G2_4*%
%TO.N,/OC*%
X142650000Y-100265000D03*
%TO.P,Q1,5,D1/D2_5*%
%TO.N,unconnected-(Q1-D1{slash}D2-Pad5)*%
X142650000Y-101215000D03*
%TO.P,Q1,6,G1_6*%
%TO.N,/OD*%
X142650000Y-102165000D03*
%TD*%
D25*
%TO.P,C7,1,1_1*%
%TO.N,GND*%
X131000000Y-100325000D03*
%TO.P,C7,2,2_2*%
%TO.N,/VSYS*%
X131000000Y-101725000D03*
%TD*%
D28*
%TO.P,LED2,2,A_2*%
%TO.N,Net-(LED2-A)*%
X133150000Y-98150000D03*
%TO.P,LED2,1,K_1*%
%TO.N,/STAT2*%
X133150000Y-96550000D03*
%TD*%
D12*
%TO.P,R6,2,2_2*%
%TO.N,/+5V_USB*%
X135925000Y-101960000D03*
%TO.P,R6,1,1_1*%
%TO.N,Net-(LED1-A)*%
X135925000Y-101100000D03*
%TD*%
D14*
%TO.P,R5,2,2_2*%
%TO.N,GND*%
X138050000Y-89075000D03*
%TO.P,R5,1,1_1*%
%TO.N,/PROG1*%
X137190000Y-89075000D03*
%TD*%
D28*
%TO.P,LED1,1,A_1*%
%TO.N,Net-(LED1-A)*%
X135925000Y-98025000D03*
%TO.P,LED1,2,K_2*%
%TO.N,/STAT1*%
X135925000Y-96525000D03*
%TD*%
D10*
%TO.P,Battery,1,1_1*%
%TO.N,/B-*%
X150675000Y-98225000D03*
D11*
%TO.P,Battery,2,2_2*%
%TO.N,/VBAT*%
X150675000Y-96225000D03*
%TD*%
D29*
%TO.P,USB-C,A1B12,GND_A1B12*%
%TO.N,GND*%
X118800000Y-90150000D03*
%TO.P,USB-C,A4B9,VBUS_A4B9*%
%TO.N,/VBUS*%
X118800000Y-90950000D03*
%TO.P,USB-C,B1A12,GND_B1A12*%
%TO.N,GND*%
X118800000Y-96550000D03*
%TO.P,USB-C,B4A9,VBUS_B4A9*%
%TO.N,/VBUS*%
X118800000Y-95750000D03*
D30*
%TO.P,USB-C,B5,CC2_B5*%
%TO.N,/CC2*%
X118800000Y-95100000D03*
%TO.P,USB-C,A8,SBU1_A8*%
%TO.N,unconnected-(USB-C1-SBU1-PadA8)*%
X118800000Y-94600000D03*
%TO.P,USB-C,B6,DP2_B6*%
%TO.N,unconnected-(USB-C1-DP2-PadB6)*%
X118800000Y-94100000D03*
%TO.P,USB-C,A7,DN1_A7*%
%TO.N,unconnected-(USB-C1-DN1-PadA7)*%
X118800000Y-93600000D03*
%TO.P,USB-C,A6,DP1_A6*%
%TO.N,unconnected-(USB-C1-DP1-PadA6)*%
X118800000Y-93100000D03*
%TO.P,USB-C,B7,DN2_B7*%
%TO.N,unconnected-(USB-C1-DN2-PadB7)*%
X118800000Y-92600000D03*
%TO.P,USB-C,A5,CC1_A5*%
%TO.N,/CC1*%
X118800000Y-92100000D03*
%TO.P,USB-C,B8,SBU2_B8*%
%TO.N,unconnected-(USB-C1-SBU2-PadB8)*%
X118800000Y-91600000D03*
D31*
%TO.P,USB-C,3,SHELL_3*%
%TO.N,GND*%
X114080000Y-89030000D03*
D32*
%TO.P,USB-C,2,SHELL_2*%
X118230000Y-97670000D03*
%TO.P,USB-C,1,SHELL_1*%
X118230000Y-89030000D03*
D31*
%TO.P,USB-C,4,SHELL_4*%
X114080000Y-97670000D03*
D33*
%TO.P,USB-C,*%
%TO.N,*%
X117730000Y-96240000D03*
X117730000Y-90460000D03*
%TD*%
D34*
%TO.P,F1,2,2_2*%
%TO.N,/+5V_USB*%
X124375000Y-89675000D03*
%TO.P,F1,1,1_1*%
%TO.N,/VBUS*%
X121475000Y-89675000D03*
%TD*%
D14*
%TO.P,R8,1,1_1*%
%TO.N,/PROG3*%
X137145000Y-91425000D03*
%TO.P,R8,2,2_2*%
%TO.N,GND*%
X138005000Y-91425000D03*
%TD*%
D35*
%TO.N,GND*%
X134000000Y-89150000D03*
X132650000Y-88350000D03*
X134000000Y-88350000D03*
X133350000Y-89850000D03*
X132625000Y-89850000D03*
X133275000Y-88350000D03*
X134025000Y-89850000D03*
X132600000Y-89150000D03*
D36*
%TO.N,/CC1*%
X118735000Y-92095000D03*
%TO.N,/CC2*%
X118735000Y-95095000D03*
D35*
X121145000Y-95075000D03*
%TO.N,/CC1*%
X121145000Y-92100000D03*
%TO.N,/+5V_USB*%
X133325000Y-84375000D03*
%TO.N,/VBAT*%
X135275000Y-87100000D03*
%TO.N,GND*%
X130975000Y-100350000D03*
D37*
%TO.N,/+5V_USB*%
X131275000Y-88600000D03*
D35*
%TO.N,GND*%
X142925000Y-94075000D03*
X126377354Y-92147646D03*
X137575000Y-85350000D03*
%TO.N,/VSYS*%
X144625000Y-90975000D03*
X132268251Y-86612679D03*
X140475000Y-89650000D03*
X130748000Y-88050000D03*
%TO.N,GND*%
X143175000Y-90950000D03*
%TO.N,/+5V_USB*%
X132875000Y-87250000D03*
%TO.N,/VSYS*%
X126675000Y-87650000D03*
%TO.N,GND*%
X145375000Y-100250000D03*
X133275000Y-89150000D03*
X143375000Y-97250000D03*
%TO.N,/VBAT*%
X137375000Y-86750000D03*
%TO.N,GND*%
X128140000Y-90100000D03*
D36*
X144925000Y-94300000D03*
D35*
%TO.N,/VBAT*%
X131000000Y-98150000D03*
%TO.N,/VSYS*%
X125525000Y-93925000D03*
%TO.N,/+5V_USB*%
X131675000Y-87250000D03*
%TO.N,/VSYS*%
X130000000Y-85375000D03*
X146125000Y-92350000D03*
X142850000Y-93300000D03*
%TO.N,/B-*%
X137775000Y-94000000D03*
X130425000Y-95400000D03*
X131375000Y-94025000D03*
X126050000Y-97200000D03*
%TO.N,Net-(U3-VDD)*%
X126050000Y-98150000D03*
D36*
%TO.N,Net-(U1-FB)*%
X143245000Y-94822500D03*
D35*
X140900000Y-94825000D03*
D37*
%TO.N,/PROG3*%
X135275000Y-89600000D03*
D35*
X135475000Y-90700000D03*
%TO.N,Net-(U3-VDD)*%
X128975000Y-96475000D03*
%TO.N,/3.3V*%
X144775000Y-96225000D03*
%TO.N,GND*%
X121850000Y-99025000D03*
%TD*%
%TO.N,/VSYS*%
D38*
X125525000Y-93925000D02*
X126825000Y-93925000D01*
X127675000Y-101750000D02*
X130975000Y-101750000D01*
X126825000Y-93925000D02*
X127100000Y-94200000D01*
D39*
X130975000Y-101750000D02*
X131000000Y-101725000D01*
D38*
X127100000Y-94200000D02*
X127100000Y-101175000D01*
X127100000Y-101175000D02*
X127675000Y-101750000D01*
%TO.N,/VBAT*%
D39*
X128975000Y-98150000D02*
X128955000Y-98100000D01*
D38*
X131000000Y-98150000D02*
X128975000Y-98150000D01*
%TO.N,/CC2*%
D39*
X121175000Y-95050000D02*
X121145000Y-95075000D01*
X121145000Y-95075000D02*
X121170000Y-95050000D01*
X121170000Y-95050000D02*
X121175000Y-95050000D01*
%TO.N,/STAT2*%
X132775000Y-91100000D02*
X132775000Y-93575000D01*
X132775000Y-93575000D02*
X133175000Y-93975000D01*
%TO.N,GND*%
X121125000Y-84875000D02*
X121125000Y-83950000D01*
%TO.N,/STAT1*%
X135975000Y-96550000D02*
X135925000Y-96525000D01*
X135725000Y-92825000D02*
X135975000Y-93075000D01*
X135975000Y-93075000D02*
X135975000Y-96550000D01*
X133275000Y-91100000D02*
X133275000Y-92600000D01*
X133275000Y-92600000D02*
X133500000Y-92825000D01*
X133500000Y-92825000D02*
X135725000Y-92825000D01*
%TO.N,/STAT2*%
X133175000Y-93975000D02*
X133175000Y-96550000D01*
X133175000Y-96550000D02*
X133150000Y-96550000D01*
%TO.N,/VSYS*%
D40*
X144625000Y-90975000D02*
X145925000Y-90975000D01*
X145925000Y-90975000D02*
X146125000Y-91175000D01*
X146125000Y-91175000D02*
X146125000Y-93075000D01*
X145877500Y-93322500D02*
X144895000Y-93322500D01*
X146125000Y-93075000D02*
X145877500Y-93322500D01*
%TO.N,/+5V_USB*%
D41*
X127350000Y-88700000D02*
X127125000Y-88925000D01*
X128145000Y-88700000D02*
X127350000Y-88700000D01*
X127125000Y-88925000D02*
X127125000Y-89650000D01*
%TO.N,/VSYS*%
D39*
X144625000Y-90975000D02*
X144600000Y-90975000D01*
X144600000Y-90975000D02*
X144575000Y-90950000D01*
%TO.N,/VBAT*%
X137575000Y-86700000D02*
X137575000Y-86750000D01*
X137575000Y-86750000D02*
X137375000Y-86750000D01*
X135275000Y-88150000D02*
X135275000Y-88100000D01*
X135275000Y-88150000D02*
X135275000Y-88600000D01*
%TO.N,/+5V_USB*%
D41*
X133175000Y-101950000D02*
X135975000Y-101950000D01*
D39*
X135975000Y-101950000D02*
X135925000Y-101960000D01*
X119575000Y-85950000D02*
X119525000Y-86000000D01*
D42*
X121975000Y-85950000D02*
X119575000Y-85950000D01*
D39*
X124375000Y-89650000D02*
X124375000Y-89675000D01*
X121975000Y-85950000D02*
X121975000Y-86000000D01*
%TO.N,GND*%
X126377354Y-92147646D02*
X126375000Y-92150000D01*
X126375000Y-92150000D02*
X121975000Y-92150000D01*
%TO.N,/VBUS*%
D42*
X118735000Y-90945000D02*
X120220000Y-90945000D01*
D39*
X120220000Y-90945000D02*
X120225000Y-90950000D01*
%TO.N,/OD*%
X142650000Y-102165000D02*
X142675000Y-102150000D01*
%TO.N,/+5V_USB*%
D42*
X124375000Y-87200000D02*
X122200000Y-87200000D01*
%TO.N,GND*%
D39*
X121975000Y-95050000D02*
X122005000Y-95075000D01*
X121975000Y-92150000D02*
X122005000Y-92100000D01*
%TO.N,/+5V_USB*%
D42*
X121975000Y-86975000D02*
X121975000Y-85950000D01*
%TO.N,GND*%
D39*
X121975000Y-92150000D02*
X121975000Y-95050000D01*
%TO.N,/+5V_USB*%
D42*
X122200000Y-87200000D02*
X121975000Y-86975000D01*
%TO.N,GND*%
D39*
X118175000Y-85950000D02*
X118125000Y-86000000D01*
X118175000Y-89050000D02*
X118175000Y-85950000D01*
X118165000Y-89025000D02*
X118175000Y-89050000D01*
X133775000Y-89650000D02*
X133775000Y-90850000D01*
X133275000Y-89150000D02*
X133775000Y-89650000D01*
X133275000Y-89150000D02*
X133275000Y-89100000D01*
X135275000Y-90150000D02*
X135275000Y-90100000D01*
X135275000Y-90150000D02*
X137075000Y-90150000D01*
X134275000Y-91150000D02*
X134275000Y-91100000D01*
X143175000Y-90950000D02*
X143225000Y-90975000D01*
X137575000Y-85350000D02*
X137575000Y-85300000D01*
X143375000Y-97250000D02*
X143425000Y-97275000D01*
X145375000Y-100250000D02*
X145350000Y-100265000D01*
X130975000Y-100350000D02*
X131000000Y-100325000D01*
%TO.N,/+5V_USB*%
X133175000Y-87250000D02*
X132875000Y-87250000D01*
%TO.N,Net-(LED2-A)*%
X133175000Y-98150000D02*
X133150000Y-98150000D01*
X133150000Y-101125000D02*
X133175000Y-101150000D01*
X133175000Y-101150000D02*
X133175000Y-98150000D01*
%TO.N,Net-(LED1-A)*%
X135925000Y-101100000D02*
X135975000Y-101150000D01*
X135975000Y-98050000D02*
X135925000Y-98025000D01*
X135975000Y-101150000D02*
X135975000Y-98050000D01*
%TO.N,Net-(U1-L2)*%
X144895000Y-94822500D02*
X144875000Y-94850000D01*
%TO.N,/VSYS*%
X131225000Y-88050000D02*
X131275000Y-88100000D01*
X130748000Y-88050000D02*
X131225000Y-88050000D01*
%TO.N,/OC*%
X140675000Y-100250000D02*
X138050000Y-102875000D01*
X142675000Y-100250000D02*
X140675000Y-100250000D01*
X142650000Y-100265000D02*
X142675000Y-100250000D01*
X124050000Y-102875000D02*
X123775000Y-102600000D01*
%TO.N,GND*%
X133775000Y-91100000D02*
X133825000Y-91150000D01*
X133825000Y-91150000D02*
X134275000Y-91150000D01*
%TO.N,/OC*%
X123775000Y-102600000D02*
X123775000Y-99150000D01*
%TO.N,/THERM*%
X131275000Y-90100000D02*
X129000000Y-90100000D01*
%TO.N,/OC*%
X138050000Y-102875000D02*
X124050000Y-102875000D01*
%TO.N,/PROG2*%
X130525000Y-89600000D02*
X129675000Y-88750000D01*
X128975000Y-88750000D02*
X129005000Y-88700000D01*
X131275000Y-89600000D02*
X130525000Y-89600000D01*
X129675000Y-88750000D02*
X128975000Y-88750000D01*
%TO.N,/CE*%
X133775000Y-86100000D02*
X133775000Y-87100000D01*
X129005000Y-86900000D02*
X129800000Y-86900000D01*
X133600000Y-85925000D02*
X133775000Y-86100000D01*
X129800000Y-86900000D02*
X130775000Y-85925000D01*
X130775000Y-85925000D02*
X133600000Y-85925000D01*
%TO.N,/OC*%
X123775000Y-99150000D02*
X123750000Y-99100000D01*
%TO.N,GND*%
X118175000Y-89050000D02*
X118575000Y-89450000D01*
X118575000Y-89450000D02*
X118575000Y-89985000D01*
X118575000Y-89985000D02*
X118735000Y-90145000D01*
X143172500Y-94322500D02*
X143245000Y-94322500D01*
X142925000Y-94075000D02*
X143172500Y-94322500D01*
X121975000Y-95050000D02*
X121980000Y-95050000D01*
X121980000Y-95050000D02*
X122005000Y-95075000D01*
%TO.N,/VSYS*%
X126675000Y-87650000D02*
X126675000Y-85675000D01*
X129975000Y-85400000D02*
X130000000Y-85375000D01*
X126950000Y-85400000D02*
X129975000Y-85400000D01*
X126675000Y-85675000D02*
X126950000Y-85400000D01*
%TO.N,Net-(U1-L1)*%
X144895000Y-93822500D02*
X146827500Y-93822500D01*
X146725000Y-88425000D02*
X144175000Y-88425000D01*
X147075000Y-93575000D02*
X147075000Y-88775000D01*
X147075000Y-88775000D02*
X146725000Y-88425000D01*
X146827500Y-93822500D02*
X147075000Y-93575000D01*
%TO.N,Net-(U1-L2)*%
X144175000Y-84650000D02*
X144175000Y-84625000D01*
%TO.N,/3.3V*%
D38*
X142375000Y-96125000D02*
X144775000Y-96125000D01*
X142175000Y-91225000D02*
X142175000Y-95925000D01*
X142025000Y-91075000D02*
X142175000Y-91225000D01*
X140900000Y-91075000D02*
X142025000Y-91075000D01*
X142175000Y-95925000D02*
X142375000Y-96125000D01*
%TO.N,GND*%
D39*
X143245000Y-94322500D02*
X143245000Y-93822500D01*
%TO.N,/+5V_USB*%
D42*
X124375000Y-89650000D02*
X124375000Y-87200000D01*
%TO.N,GND*%
D39*
X140900000Y-97075000D02*
X140900000Y-96325000D01*
X141075000Y-97250000D02*
X140900000Y-97075000D01*
X143375000Y-97250000D02*
X141075000Y-97250000D01*
%TO.N,/VBUS*%
D42*
X119975000Y-95750000D02*
X118775000Y-95750000D01*
X120225000Y-90950000D02*
X120225000Y-95500000D01*
X120225000Y-95500000D02*
X119975000Y-95750000D01*
D39*
X118775000Y-95750000D02*
X118735000Y-95745000D01*
%TO.N,/PROG1*%
X135275000Y-89100000D02*
X137190000Y-89100000D01*
%TO.N,/B-*%
D38*
X137775000Y-98325000D02*
X138050000Y-98600000D01*
X148375000Y-98600000D02*
X148750000Y-98225000D01*
X137775000Y-94000000D02*
X137775000Y-98325000D01*
X150675000Y-101775000D02*
X150275000Y-102175000D01*
X138050000Y-98600000D02*
X148375000Y-98600000D01*
X150675000Y-98300000D02*
X150675000Y-101775000D01*
X150275000Y-102175000D02*
X145360000Y-102175000D01*
X150600000Y-98225000D02*
X150675000Y-98300000D01*
X148750000Y-98225000D02*
X150600000Y-98225000D01*
%TO.N,/+5V_USB*%
D40*
X131275000Y-88600000D02*
X131275000Y-89100000D01*
%TO.N,Net-(U1-L2)*%
X148075000Y-94375000D02*
X147627500Y-94822500D01*
X147627500Y-94822500D02*
X144895000Y-94822500D01*
X144175000Y-84625000D02*
X147625000Y-84625000D01*
X147625000Y-84625000D02*
X148075000Y-85075000D01*
X148075000Y-85075000D02*
X148075000Y-94375000D01*
%TO.N,/VBAT*%
D39*
X135275000Y-87100000D02*
X135275000Y-87450000D01*
%TO.N,/+5V_USB*%
D42*
X124075000Y-83000000D02*
X120325000Y-83000000D01*
X120125000Y-83200000D02*
X120125000Y-83950000D01*
X124375000Y-83300000D02*
X124075000Y-83000000D01*
X124375000Y-87200000D02*
X124375000Y-83300000D01*
X120325000Y-83000000D02*
X120125000Y-83200000D01*
%TO.N,/VBAT*%
D39*
X135275000Y-88150000D02*
X135275000Y-87100000D01*
X135275000Y-87100000D02*
X134275000Y-87100000D01*
%TO.N,/VSYS*%
X144575000Y-90950000D02*
X144625000Y-90975000D01*
X144575000Y-90950000D02*
X144875000Y-91250000D01*
%TO.N,/PROG3*%
X135475000Y-91300000D02*
X135475000Y-90700000D01*
X135600000Y-91425000D02*
X135475000Y-91300000D01*
X137150000Y-91425000D02*
X135600000Y-91425000D01*
%TO.N,/VBUS*%
X121375000Y-89650000D02*
X121475000Y-89650000D01*
X121475000Y-89650000D02*
X121475000Y-89675000D01*
%TO.N,GND*%
X137975000Y-90150000D02*
X137975000Y-91450000D01*
X137975000Y-91450000D02*
X138005000Y-91425000D01*
X137075000Y-90150000D02*
X137975000Y-90150000D01*
%TO.N,Net-(U1-FB)*%
X140900000Y-94825000D02*
X140875000Y-94850000D01*
X140875000Y-94850000D02*
X140875000Y-92550000D01*
X140875000Y-92550000D02*
X140900000Y-92575000D01*
%TO.N,/PROG3*%
X137175000Y-91450000D02*
X137145000Y-91425000D01*
%TO.N,GND*%
X137975000Y-89175000D02*
X138050000Y-89100000D01*
X137975000Y-90150000D02*
X137975000Y-89175000D01*
X131900000Y-84350000D02*
X131925000Y-84375000D01*
X137575000Y-83300000D02*
X137350000Y-83075000D01*
X132175000Y-83075000D02*
X131900000Y-83350000D01*
X137350000Y-83075000D02*
X132175000Y-83075000D01*
%TO.N,/+5V_USB*%
D41*
X124375000Y-89650000D02*
X127125000Y-89650000D01*
%TO.N,/VBUS*%
D42*
X120400000Y-89675000D02*
X120225000Y-89850000D01*
X121475000Y-89675000D02*
X120400000Y-89675000D01*
X120225000Y-89850000D02*
X120225000Y-90950000D01*
%TO.N,GND*%
D39*
X122815000Y-85040000D02*
X122815000Y-86000000D01*
X118325000Y-84875000D02*
X122650000Y-84875000D01*
X118175000Y-85950000D02*
X118175000Y-85025000D01*
X118175000Y-85025000D02*
X118325000Y-84875000D01*
X122650000Y-84875000D02*
X122815000Y-85040000D01*
%TO.N,/+5V_USB*%
X128145000Y-88700000D02*
X128175000Y-88670000D01*
X128175000Y-86950000D02*
X128145000Y-86900000D01*
D41*
X128175000Y-88670000D02*
X128175000Y-86950000D01*
%TO.N,GND*%
D39*
X134275000Y-90150000D02*
X135275000Y-90150000D01*
X131900000Y-83350000D02*
X131900000Y-84350000D01*
X134275000Y-91150000D02*
X134275000Y-90150000D01*
X137575000Y-85350000D02*
X137575000Y-83300000D01*
%TO.N,/OD*%
X140735000Y-102165000D02*
X142650000Y-102165000D01*
X123750000Y-97200000D02*
X121100000Y-97200000D01*
X120825000Y-103250000D02*
X121075000Y-103500000D01*
X120825000Y-97475000D02*
X120825000Y-103250000D01*
X121100000Y-97200000D02*
X120825000Y-97475000D01*
%TO.N,/3.3V*%
D38*
X144775000Y-95442500D02*
X144775000Y-97250000D01*
%TO.N,/OD*%
D39*
X121075000Y-103500000D02*
X139400000Y-103500000D01*
%TO.N,/3.3V*%
X144775000Y-97250000D02*
X144825000Y-97275000D01*
%TO.N,/OD*%
X139400000Y-103500000D02*
X140735000Y-102165000D01*
%TO.N,/B-*%
X145360000Y-102175000D02*
X145350000Y-102165000D01*
%TO.N,/+5V_USB*%
D41*
X132125000Y-99125000D02*
X132225000Y-99225000D01*
X128275000Y-99125000D02*
X132125000Y-99125000D01*
X132225000Y-99225000D02*
X132225000Y-101850000D01*
X127775000Y-91750000D02*
X127925000Y-91900000D01*
X132325000Y-101950000D02*
X133115000Y-101950000D01*
X127925000Y-91900000D02*
X127925000Y-98775000D01*
X127925000Y-98775000D02*
X128275000Y-99125000D01*
X132225000Y-101850000D02*
X132325000Y-101950000D01*
X128115000Y-91750000D02*
X127775000Y-91750000D01*
%TO.N,GND*%
D39*
X118775000Y-96550000D02*
X118735000Y-96545000D01*
X121575000Y-96550000D02*
X118775000Y-96550000D01*
X122005000Y-95075000D02*
X122005000Y-96120000D01*
X122005000Y-96120000D02*
X121575000Y-96550000D01*
%TO.N,/VSYS*%
X136000000Y-85375000D02*
X130000000Y-85375000D01*
X140475000Y-89650000D02*
X140475000Y-88300000D01*
X136325000Y-85700000D02*
X136000000Y-85375000D01*
X136325000Y-87675000D02*
X136325000Y-85700000D01*
X140175000Y-88000000D02*
X136650000Y-88000000D01*
X136650000Y-88000000D02*
X136325000Y-87675000D01*
X140475000Y-88300000D02*
X140175000Y-88000000D01*
%TO.N,/CSI*%
D40*
X123750000Y-98150000D02*
X121850000Y-98150000D01*
%TO.N,/B-*%
D38*
X131375000Y-95150000D02*
X131375000Y-94025000D01*
X130425000Y-95400000D02*
X131125000Y-95400000D01*
X131125000Y-95400000D02*
X131375000Y-95150000D01*
%TO.N,/+5V_USB*%
D41*
X127125000Y-89650000D02*
X127125000Y-91550000D01*
X130400000Y-87250000D02*
X129950000Y-87700000D01*
X127125000Y-91550000D02*
X127325000Y-91750000D01*
X129950000Y-87700000D02*
X128175000Y-87700000D01*
X127325000Y-91750000D02*
X128115000Y-91750000D01*
%TO.N,/PG#*%
D39*
X132275000Y-91100000D02*
X132275000Y-91525000D01*
%TO.N,/+5V_USB*%
X133115000Y-101950000D02*
X133150000Y-101985000D01*
%TO.N,/PG#*%
X132075000Y-91725000D02*
X129000000Y-91725000D01*
X132275000Y-91525000D02*
X132075000Y-91725000D01*
X129000000Y-91725000D02*
X128975000Y-91750000D01*
%TO.N,Net-(U3-VDD)*%
X128975000Y-97245000D02*
X128975000Y-95350000D01*
%TO.N,/+5V_USB*%
D41*
X131675000Y-87250000D02*
X130400000Y-87250000D01*
%TO.N,/VBAT*%
D38*
X137575000Y-86750000D02*
X139700000Y-86750000D01*
X140025000Y-86425000D02*
X140025000Y-83275000D01*
X148550000Y-83000000D02*
X149000000Y-83450000D01*
X139700000Y-86750000D02*
X140025000Y-86425000D01*
X140300000Y-83000000D02*
X148550000Y-83000000D01*
X140025000Y-83275000D02*
X140300000Y-83000000D01*
X149450000Y-96225000D02*
X150750000Y-96225000D01*
X149000000Y-95775000D02*
X149450000Y-96225000D01*
X149000000Y-83450000D02*
X149000000Y-95775000D01*
%TD*%
%TA.AperFunction,Conductor*%
%TO.N,GND*%
G36*
X123037779Y-97564852D02*
G01*
X123043873Y-97572277D01*
X123069447Y-97610552D01*
X123104925Y-97634258D01*
X123125761Y-97665441D01*
X123118444Y-97702223D01*
X123104925Y-97715742D01*
X123066762Y-97741242D01*
X123039539Y-97749500D01*
X122308819Y-97749500D01*
X122274171Y-97735148D01*
X122268077Y-97727723D01*
X122264552Y-97722447D01*
X122219286Y-97692202D01*
X122198231Y-97678133D01*
X122139748Y-97666500D01*
X121560252Y-97666500D01*
X121517520Y-97675000D01*
X121501769Y-97678133D01*
X121435447Y-97722447D01*
X121410257Y-97760148D01*
X121391133Y-97788769D01*
X121379500Y-97847252D01*
X121379500Y-98452748D01*
X121391133Y-98511231D01*
X121405722Y-98533065D01*
X121435447Y-98577552D01*
X121462012Y-98595301D01*
X121501769Y-98621867D01*
X121560252Y-98633500D01*
X121560255Y-98633500D01*
X122139745Y-98633500D01*
X122139748Y-98633500D01*
X122198231Y-98621867D01*
X122264552Y-98577552D01*
X122268077Y-98572277D01*
X122299259Y-98551442D01*
X122308819Y-98550500D01*
X123039539Y-98550500D01*
X123066762Y-98558758D01*
X123104925Y-98584258D01*
X123125761Y-98615441D01*
X123118444Y-98652223D01*
X123104925Y-98665742D01*
X123069447Y-98689447D01*
X123028655Y-98750498D01*
X123025133Y-98755769D01*
X123013500Y-98814252D01*
X123013500Y-99385748D01*
X123025133Y-99444231D01*
X123042882Y-99470795D01*
X123069447Y-99510552D01*
X123091817Y-99525499D01*
X123135769Y-99554867D01*
X123194252Y-99566500D01*
X123375500Y-99566500D01*
X123410148Y-99580852D01*
X123424500Y-99615500D01*
X123424500Y-102646145D01*
X123442296Y-102712559D01*
X123442296Y-102712560D01*
X123448385Y-102735287D01*
X123448386Y-102735290D01*
X123494530Y-102815212D01*
X123745170Y-103065852D01*
X123759522Y-103100500D01*
X123745170Y-103135148D01*
X123710522Y-103149500D01*
X121240478Y-103149500D01*
X121205830Y-103135148D01*
X121205829Y-103135147D01*
X121189851Y-103119168D01*
X121175500Y-103084521D01*
X121175500Y-97640478D01*
X121189852Y-97605830D01*
X121230830Y-97564852D01*
X121265478Y-97550500D01*
X123003131Y-97550500D01*
X123037779Y-97564852D01*
G37*
%TD.AperFunction*%
%TA.AperFunction,Conductor*%
G36*
X127634148Y-99191962D02*
G01*
X127967686Y-99525500D01*
X128009457Y-99549617D01*
X128081811Y-99591391D01*
X128081813Y-99591391D01*
X128081814Y-99591392D01*
X128171787Y-99615500D01*
X128209104Y-99625499D01*
X128209105Y-99625500D01*
X128209108Y-99625500D01*
X128340893Y-99625500D01*
X131675500Y-99625500D01*
X131710148Y-99639852D01*
X131724500Y-99674500D01*
X131724500Y-101213397D01*
X131710148Y-101248045D01*
X131675500Y-101262397D01*
X131640852Y-101248045D01*
X131634758Y-101240620D01*
X131594552Y-101180447D01*
X131554795Y-101153882D01*
X131528231Y-101136133D01*
X131469748Y-101124500D01*
X130530252Y-101124500D01*
X130471769Y-101136133D01*
X130405447Y-101180447D01*
X130361133Y-101246768D01*
X130361133Y-101246769D01*
X130358489Y-101260060D01*
X130337654Y-101291242D01*
X130310431Y-101299500D01*
X127881900Y-101299500D01*
X127847252Y-101285148D01*
X127564852Y-101002748D01*
X127550500Y-100968100D01*
X127550500Y-99226610D01*
X127564852Y-99191962D01*
X127599500Y-99177610D01*
X127634148Y-99191962D01*
G37*
%TD.AperFunction*%
%TA.AperFunction,Conductor*%
G36*
X156610130Y-81440688D02*
G01*
X156624500Y-81475329D01*
X156624500Y-104573024D01*
X156610148Y-104607672D01*
X156575500Y-104622024D01*
X156575422Y-104622024D01*
X111698434Y-104550373D01*
X111663808Y-104535966D01*
X111649512Y-104501461D01*
X111648296Y-103826613D01*
X111646678Y-102928394D01*
X111972500Y-102928394D01*
X111972500Y-103121605D01*
X112002724Y-103312437D01*
X112002725Y-103312440D01*
X112062430Y-103496195D01*
X112150149Y-103668352D01*
X112150151Y-103668355D01*
X112263714Y-103824662D01*
X112263720Y-103824669D01*
X112400331Y-103961280D01*
X112400335Y-103961283D01*
X112400337Y-103961285D01*
X112494679Y-104029828D01*
X112522234Y-104049848D01*
X112556650Y-104074852D01*
X112728803Y-104162569D01*
X112912560Y-104222275D01*
X113103394Y-104252500D01*
X113103395Y-104252500D01*
X113296605Y-104252500D01*
X113296606Y-104252500D01*
X113487440Y-104222275D01*
X113671197Y-104162569D01*
X113843350Y-104074852D01*
X113999663Y-103961285D01*
X113999666Y-103961281D01*
X113999669Y-103961280D01*
X114136280Y-103824669D01*
X114136286Y-103824662D01*
X114249848Y-103668355D01*
X114249852Y-103668350D01*
X114337569Y-103496197D01*
X114397275Y-103312440D01*
X114427500Y-103121606D01*
X114427500Y-102928394D01*
X114397275Y-102737560D01*
X114337569Y-102553803D01*
X114249852Y-102381650D01*
X114231686Y-102356647D01*
X114200604Y-102313866D01*
X114136285Y-102225337D01*
X114136283Y-102225335D01*
X114136280Y-102225331D01*
X113999669Y-102088720D01*
X113999664Y-102088716D01*
X113965254Y-102063716D01*
X113893952Y-102011912D01*
X113843355Y-101975151D01*
X113843352Y-101975149D01*
X113671195Y-101887430D01*
X113487440Y-101827725D01*
X113487437Y-101827724D01*
X113340842Y-101804506D01*
X113296606Y-101797500D01*
X113103394Y-101797500D01*
X113067482Y-101803187D01*
X112912562Y-101827724D01*
X112912559Y-101827725D01*
X112728804Y-101887430D01*
X112556647Y-101975149D01*
X112556644Y-101975151D01*
X112400335Y-102088716D01*
X112263716Y-102225335D01*
X112150151Y-102381644D01*
X112150149Y-102381647D01*
X112062430Y-102553804D01*
X112002725Y-102737559D01*
X112002724Y-102737562D01*
X111972500Y-102928394D01*
X111646678Y-102928394D01*
X111624087Y-90390813D01*
X117204500Y-90390813D01*
X117204500Y-90529186D01*
X117240311Y-90662834D01*
X117240312Y-90662838D01*
X117309312Y-90782348D01*
X117309495Y-90782665D01*
X117407335Y-90880505D01*
X117451194Y-90905827D01*
X117527161Y-90949687D01*
X117527163Y-90949687D01*
X117527164Y-90949688D01*
X117554957Y-90957135D01*
X117660813Y-90985499D01*
X117660814Y-90985500D01*
X117660817Y-90985500D01*
X117799186Y-90985500D01*
X117799186Y-90985499D01*
X117932836Y-90949688D01*
X117950999Y-90939200D01*
X117988181Y-90934305D01*
X118017935Y-90957135D01*
X118024500Y-90981636D01*
X118024500Y-91269748D01*
X118026108Y-91277830D01*
X118036133Y-91328233D01*
X118037384Y-91331252D01*
X118037384Y-91368748D01*
X118036133Y-91371766D01*
X118032536Y-91389852D01*
X118024500Y-91430252D01*
X118024500Y-91769748D01*
X118028499Y-91789852D01*
X118036133Y-91828233D01*
X118037384Y-91831252D01*
X118037384Y-91868748D01*
X118036133Y-91871766D01*
X118030316Y-91901010D01*
X118024500Y-91930252D01*
X118024500Y-92269748D01*
X118028666Y-92290691D01*
X118036133Y-92328233D01*
X118037384Y-92331252D01*
X118037384Y-92368748D01*
X118036133Y-92371766D01*
X118032557Y-92389748D01*
X118024500Y-92430252D01*
X118024500Y-92769748D01*
X118029430Y-92794531D01*
X118036133Y-92828233D01*
X118037384Y-92831252D01*
X118037384Y-92868748D01*
X118036133Y-92871766D01*
X118030316Y-92901010D01*
X118024500Y-92930252D01*
X118024500Y-93269748D01*
X118032255Y-93308736D01*
X118036133Y-93328233D01*
X118037384Y-93331252D01*
X118037384Y-93368748D01*
X118036133Y-93371766D01*
X118032834Y-93388352D01*
X118024500Y-93430252D01*
X118024500Y-93769748D01*
X118028571Y-93790212D01*
X118036133Y-93828233D01*
X118037384Y-93831252D01*
X118037384Y-93868748D01*
X118036133Y-93871766D01*
X118030316Y-93901010D01*
X118024500Y-93930252D01*
X118024500Y-94269748D01*
X118032255Y-94308736D01*
X118036133Y-94328233D01*
X118037384Y-94331252D01*
X118037384Y-94368748D01*
X118036133Y-94371766D01*
X118033182Y-94386603D01*
X118024500Y-94430252D01*
X118024500Y-94769748D01*
X118030229Y-94798548D01*
X118036133Y-94828233D01*
X118037384Y-94831252D01*
X118037384Y-94868748D01*
X118036133Y-94871766D01*
X118030316Y-94901010D01*
X118024500Y-94930252D01*
X118024500Y-95269748D01*
X118031757Y-95306230D01*
X118036133Y-95328233D01*
X118037384Y-95331252D01*
X118037384Y-95368748D01*
X118036133Y-95371766D01*
X118035977Y-95372552D01*
X118024500Y-95430252D01*
X118024500Y-95430255D01*
X118024500Y-95718363D01*
X118010148Y-95753011D01*
X117975500Y-95767363D01*
X117951001Y-95760799D01*
X117932835Y-95750311D01*
X117799186Y-95714500D01*
X117799183Y-95714500D01*
X117660817Y-95714500D01*
X117660814Y-95714500D01*
X117527165Y-95750311D01*
X117527161Y-95750312D01*
X117407334Y-95819495D01*
X117407334Y-95819496D01*
X117309496Y-95917334D01*
X117309495Y-95917334D01*
X117240312Y-96037161D01*
X117240311Y-96037165D01*
X117204500Y-96170813D01*
X117204500Y-96309186D01*
X117240311Y-96442834D01*
X117240312Y-96442838D01*
X117293125Y-96534311D01*
X117309495Y-96562665D01*
X117407335Y-96660505D01*
X117441881Y-96680450D01*
X117527161Y-96729687D01*
X117527163Y-96729687D01*
X117527164Y-96729688D01*
X117584806Y-96745133D01*
X117660813Y-96765499D01*
X117660814Y-96765500D01*
X117660817Y-96765500D01*
X117799186Y-96765500D01*
X117799186Y-96765499D01*
X117932836Y-96729688D01*
X118052665Y-96660505D01*
X118150505Y-96562665D01*
X118219688Y-96442836D01*
X118255499Y-96309186D01*
X118255500Y-96309186D01*
X118255500Y-96299500D01*
X118269852Y-96264852D01*
X118304500Y-96250500D01*
X118527763Y-96250500D01*
X118552262Y-96257064D01*
X118562515Y-96262984D01*
X118597517Y-96272363D01*
X118702522Y-96300500D01*
X118702525Y-96300500D01*
X120047477Y-96300500D01*
X120133158Y-96277540D01*
X120187485Y-96262984D01*
X120193021Y-96259788D01*
X120197738Y-96257065D01*
X120293782Y-96201614D01*
X120313015Y-96190510D01*
X120665510Y-95838015D01*
X120737984Y-95712485D01*
X120739936Y-95705201D01*
X120748163Y-95674500D01*
X120773862Y-95578588D01*
X120796692Y-95548835D01*
X120830751Y-95543212D01*
X120842252Y-95545500D01*
X120842254Y-95545500D01*
X121447745Y-95545500D01*
X121447748Y-95545500D01*
X121506231Y-95533867D01*
X121572552Y-95489552D01*
X121616867Y-95423231D01*
X121628500Y-95364748D01*
X121628500Y-94785252D01*
X121616867Y-94726769D01*
X121590301Y-94687012D01*
X121572552Y-94660447D01*
X121532795Y-94633882D01*
X121506231Y-94616133D01*
X121447748Y-94604500D01*
X120842252Y-94604500D01*
X120834057Y-94606129D01*
X120797276Y-94598812D01*
X120776441Y-94567629D01*
X120775500Y-94558071D01*
X120775500Y-92616928D01*
X120789852Y-92582280D01*
X120824500Y-92567928D01*
X120834052Y-92568869D01*
X120842252Y-92570500D01*
X120842254Y-92570500D01*
X121447745Y-92570500D01*
X121447748Y-92570500D01*
X121506231Y-92558867D01*
X121572552Y-92514552D01*
X121616867Y-92448231D01*
X121628500Y-92389748D01*
X121628500Y-91810252D01*
X121616867Y-91751769D01*
X121590301Y-91712012D01*
X121572552Y-91685447D01*
X121532795Y-91658882D01*
X121506231Y-91641133D01*
X121447748Y-91629500D01*
X120842252Y-91629500D01*
X120834057Y-91631129D01*
X120797276Y-91623812D01*
X120776441Y-91592629D01*
X120775500Y-91583071D01*
X120775500Y-90782348D01*
X120789852Y-90747700D01*
X120824500Y-90733348D01*
X120834059Y-90734289D01*
X120860252Y-90739500D01*
X120860253Y-90739500D01*
X122089745Y-90739500D01*
X122089748Y-90739500D01*
X122148231Y-90727867D01*
X122214552Y-90683552D01*
X122258867Y-90617231D01*
X122270500Y-90558748D01*
X122270500Y-88791252D01*
X122258867Y-88732769D01*
X122232301Y-88693012D01*
X122214552Y-88666447D01*
X122172342Y-88638244D01*
X122148231Y-88622133D01*
X122089748Y-88610500D01*
X120860252Y-88610500D01*
X120801769Y-88622133D01*
X120735447Y-88666447D01*
X120695142Y-88726769D01*
X120691133Y-88732769D01*
X120679500Y-88791252D01*
X120679500Y-88791255D01*
X120679500Y-89075500D01*
X120665148Y-89110148D01*
X120630500Y-89124500D01*
X120327523Y-89124500D01*
X120251974Y-89144744D01*
X120199267Y-89158867D01*
X120187515Y-89162015D01*
X120187512Y-89162016D01*
X120061991Y-89234485D01*
X120061982Y-89234492D01*
X119784492Y-89511982D01*
X119784487Y-89511988D01*
X119765140Y-89545500D01*
X119742851Y-89584108D01*
X119732218Y-89602525D01*
X119732217Y-89602526D01*
X119712016Y-89637513D01*
X119712015Y-89637516D01*
X119674500Y-89777522D01*
X119674500Y-90345500D01*
X119660148Y-90380148D01*
X119625500Y-90394500D01*
X118662522Y-90394500D01*
X118522516Y-90432015D01*
X118517090Y-90435148D01*
X118503601Y-90442935D01*
X118479103Y-90449500D01*
X118304500Y-90449500D01*
X118269852Y-90435148D01*
X118255500Y-90400500D01*
X118255500Y-90390814D01*
X118255499Y-90390813D01*
X118241753Y-90339511D01*
X118219688Y-90257164D01*
X118219687Y-90257163D01*
X118219687Y-90257161D01*
X118166392Y-90164852D01*
X118150505Y-90137335D01*
X118052665Y-90039495D01*
X117932838Y-89970312D01*
X117932834Y-89970311D01*
X117799186Y-89934500D01*
X117799183Y-89934500D01*
X117660817Y-89934500D01*
X117660814Y-89934500D01*
X117527165Y-89970311D01*
X117527161Y-89970312D01*
X117407334Y-90039495D01*
X117407334Y-90039496D01*
X117309496Y-90137334D01*
X117309495Y-90137334D01*
X117240312Y-90257161D01*
X117240311Y-90257165D01*
X117204500Y-90390813D01*
X111624087Y-90390813D01*
X111615328Y-85530252D01*
X118924500Y-85530252D01*
X118924500Y-86469748D01*
X118936133Y-86528231D01*
X118940755Y-86535148D01*
X118980447Y-86594552D01*
X119003944Y-86610252D01*
X119046769Y-86638867D01*
X119105252Y-86650500D01*
X119105255Y-86650500D01*
X119944745Y-86650500D01*
X119944748Y-86650500D01*
X120003231Y-86638867D01*
X120069552Y-86594552D01*
X120113867Y-86528231D01*
X120113867Y-86528230D01*
X120116548Y-86524218D01*
X120118230Y-86525342D01*
X120139343Y-86504230D01*
X120158094Y-86500500D01*
X121375500Y-86500500D01*
X121410148Y-86514852D01*
X121424500Y-86549500D01*
X121424500Y-87047475D01*
X121428708Y-87063179D01*
X121462015Y-87187484D01*
X121462016Y-87187487D01*
X121534485Y-87313008D01*
X121534488Y-87313012D01*
X121534490Y-87313015D01*
X121861985Y-87640510D01*
X121861988Y-87640511D01*
X121861991Y-87640514D01*
X121964160Y-87699500D01*
X121983212Y-87710500D01*
X121987515Y-87712984D01*
X122022517Y-87722363D01*
X122127522Y-87750500D01*
X122127525Y-87750500D01*
X122127526Y-87750500D01*
X122272474Y-87750500D01*
X123775500Y-87750500D01*
X123810148Y-87764852D01*
X123824500Y-87799500D01*
X123824500Y-88561500D01*
X123810148Y-88596148D01*
X123775500Y-88610500D01*
X123760252Y-88610500D01*
X123701769Y-88622133D01*
X123635447Y-88666447D01*
X123595142Y-88726769D01*
X123591133Y-88732769D01*
X123579500Y-88791252D01*
X123579500Y-90558748D01*
X123591133Y-90617231D01*
X123606807Y-90640688D01*
X123635447Y-90683552D01*
X123662012Y-90701301D01*
X123701769Y-90727867D01*
X123760252Y-90739500D01*
X123760255Y-90739500D01*
X124989745Y-90739500D01*
X124989748Y-90739500D01*
X125048231Y-90727867D01*
X125114552Y-90683552D01*
X125158867Y-90617231D01*
X125170500Y-90558748D01*
X125170500Y-90199500D01*
X125184852Y-90164852D01*
X125219500Y-90150500D01*
X126575500Y-90150500D01*
X126610148Y-90164852D01*
X126624500Y-90199500D01*
X126624500Y-91615895D01*
X126658607Y-91743184D01*
X126658608Y-91743188D01*
X126709450Y-91831247D01*
X126724500Y-91857314D01*
X126924500Y-92057314D01*
X127017686Y-92150500D01*
X127042025Y-92164552D01*
X127131811Y-92216391D01*
X127131813Y-92216391D01*
X127131814Y-92216392D01*
X127162160Y-92224523D01*
X127259104Y-92250499D01*
X127259105Y-92250500D01*
X127259108Y-92250500D01*
X127375500Y-92250500D01*
X127410148Y-92264852D01*
X127424500Y-92299500D01*
X127424500Y-93769100D01*
X127410148Y-93803748D01*
X127375500Y-93818100D01*
X127340852Y-93803748D01*
X127101615Y-93564512D01*
X127101614Y-93564511D01*
X126998890Y-93505202D01*
X126998887Y-93505201D01*
X126964122Y-93495886D01*
X126937517Y-93488757D01*
X126884311Y-93474500D01*
X126884309Y-93474500D01*
X125584309Y-93474500D01*
X125465691Y-93474500D01*
X125465688Y-93474500D01*
X125351115Y-93505200D01*
X125351112Y-93505201D01*
X125248386Y-93564511D01*
X125248386Y-93564512D01*
X125164512Y-93648386D01*
X125164511Y-93648386D01*
X125105201Y-93751112D01*
X125105200Y-93751115D01*
X125074500Y-93865688D01*
X125074500Y-93984311D01*
X125105200Y-94098884D01*
X125105201Y-94098887D01*
X125129337Y-94140691D01*
X125164511Y-94201613D01*
X125248387Y-94285489D01*
X125351114Y-94344799D01*
X125379758Y-94352474D01*
X125465688Y-94375500D01*
X125465691Y-94375500D01*
X125584309Y-94375500D01*
X126600500Y-94375500D01*
X126635148Y-94389852D01*
X126649500Y-94424500D01*
X126649500Y-96684500D01*
X126635148Y-96719148D01*
X126600500Y-96733500D01*
X125494252Y-96733500D01*
X125435769Y-96745133D01*
X125369447Y-96789447D01*
X125329951Y-96848558D01*
X125325133Y-96855769D01*
X125313500Y-96914252D01*
X125313500Y-97485748D01*
X125325133Y-97544231D01*
X125328654Y-97549500D01*
X125369447Y-97610552D01*
X125404925Y-97634258D01*
X125425761Y-97665441D01*
X125418444Y-97702223D01*
X125404925Y-97715742D01*
X125369447Y-97739447D01*
X125326829Y-97803231D01*
X125325133Y-97805769D01*
X125313500Y-97864252D01*
X125313500Y-98435748D01*
X125325133Y-98494231D01*
X125336492Y-98511230D01*
X125369447Y-98560552D01*
X125404925Y-98584258D01*
X125425761Y-98615441D01*
X125418444Y-98652223D01*
X125404925Y-98665742D01*
X125369447Y-98689447D01*
X125328655Y-98750498D01*
X125325133Y-98755769D01*
X125313500Y-98814252D01*
X125313500Y-99385748D01*
X125325133Y-99444231D01*
X125342882Y-99470795D01*
X125369447Y-99510552D01*
X125391817Y-99525499D01*
X125435769Y-99554867D01*
X125494252Y-99566500D01*
X125494255Y-99566500D01*
X126600500Y-99566500D01*
X126635148Y-99580852D01*
X126649500Y-99615500D01*
X126649500Y-101234310D01*
X126656330Y-101259798D01*
X126663122Y-101285148D01*
X126663160Y-101285287D01*
X126663160Y-101285288D01*
X126680200Y-101348886D01*
X126680201Y-101348888D01*
X126711298Y-101402748D01*
X126739511Y-101451614D01*
X127398386Y-102110490D01*
X127501113Y-102169799D01*
X127525326Y-102176286D01*
X127570508Y-102188393D01*
X127615689Y-102200500D01*
X127615691Y-102200500D01*
X130333117Y-102200500D01*
X130367765Y-102214852D01*
X130373859Y-102222277D01*
X130405447Y-102269552D01*
X130432012Y-102287301D01*
X130471769Y-102313867D01*
X130530252Y-102325500D01*
X130530255Y-102325500D01*
X131469745Y-102325500D01*
X131469748Y-102325500D01*
X131528231Y-102313867D01*
X131594552Y-102269552D01*
X131638867Y-102203231D01*
X131650500Y-102144748D01*
X131650500Y-102011912D01*
X131664852Y-101977264D01*
X131699500Y-101962912D01*
X131734148Y-101977264D01*
X131746830Y-101999230D01*
X131758607Y-102043185D01*
X131758608Y-102043188D01*
X131797466Y-102110490D01*
X131824500Y-102157314D01*
X131924500Y-102257314D01*
X132017686Y-102350500D01*
X132077267Y-102384899D01*
X132131814Y-102416392D01*
X132152095Y-102421826D01*
X132175769Y-102428170D01*
X132205522Y-102451000D01*
X132210417Y-102488182D01*
X132187587Y-102517935D01*
X132163087Y-102524500D01*
X124215478Y-102524500D01*
X124180830Y-102510148D01*
X124139852Y-102469170D01*
X124125500Y-102434522D01*
X124125500Y-99615500D01*
X124139852Y-99580852D01*
X124174500Y-99566500D01*
X124305745Y-99566500D01*
X124305748Y-99566500D01*
X124364231Y-99554867D01*
X124430552Y-99510552D01*
X124474867Y-99444231D01*
X124486500Y-99385748D01*
X124486500Y-98814252D01*
X124474867Y-98755769D01*
X124448301Y-98716012D01*
X124430552Y-98689447D01*
X124395074Y-98665742D01*
X124374239Y-98634559D01*
X124381555Y-98597777D01*
X124395074Y-98584258D01*
X124430552Y-98560552D01*
X124436639Y-98551442D01*
X124474867Y-98494231D01*
X124486500Y-98435748D01*
X124486500Y-97864252D01*
X124474867Y-97805769D01*
X124437269Y-97749500D01*
X124430552Y-97739447D01*
X124395074Y-97715742D01*
X124374239Y-97684559D01*
X124381555Y-97647777D01*
X124395074Y-97634258D01*
X124430552Y-97610552D01*
X124434093Y-97605252D01*
X124474867Y-97544231D01*
X124486500Y-97485748D01*
X124486500Y-96914252D01*
X124474867Y-96855769D01*
X124436956Y-96799032D01*
X124430552Y-96789447D01*
X124388878Y-96761602D01*
X124364231Y-96745133D01*
X124305748Y-96733500D01*
X123194252Y-96733500D01*
X123135769Y-96745133D01*
X123069447Y-96789447D01*
X123043873Y-96827723D01*
X123012690Y-96848558D01*
X123003131Y-96849500D01*
X121053855Y-96849500D01*
X121046057Y-96851589D01*
X121030460Y-96855769D01*
X120964712Y-96873385D01*
X120964709Y-96873386D01*
X120884787Y-96919530D01*
X120884787Y-96919531D01*
X120544531Y-97259787D01*
X120544530Y-97259787D01*
X120511463Y-97317062D01*
X120503912Y-97330140D01*
X120498385Y-97339713D01*
X120474500Y-97428853D01*
X120474500Y-103296145D01*
X120492872Y-103364709D01*
X120492872Y-103364710D01*
X120498385Y-103385285D01*
X120498386Y-103385289D01*
X120544530Y-103465212D01*
X120794531Y-103715212D01*
X120859788Y-103780469D01*
X120939712Y-103826614D01*
X120961998Y-103832585D01*
X121028853Y-103850500D01*
X121028856Y-103850500D01*
X139446147Y-103850500D01*
X139446147Y-103850499D01*
X139535288Y-103826614D01*
X139538667Y-103824663D01*
X139615212Y-103780470D01*
X140492288Y-102903394D01*
X153772500Y-102903394D01*
X153772500Y-103096606D01*
X153776460Y-103121606D01*
X153802724Y-103287437D01*
X153802725Y-103287440D01*
X153862430Y-103471195D01*
X153950149Y-103643352D01*
X153950151Y-103643355D01*
X154063716Y-103799664D01*
X154063720Y-103799669D01*
X154200331Y-103936280D01*
X154200335Y-103936283D01*
X154200337Y-103936285D01*
X154356650Y-104049852D01*
X154528803Y-104137569D01*
X154712560Y-104197275D01*
X154903394Y-104227500D01*
X154903395Y-104227500D01*
X155096605Y-104227500D01*
X155096606Y-104227500D01*
X155287440Y-104197275D01*
X155471197Y-104137569D01*
X155643350Y-104049852D01*
X155799663Y-103936285D01*
X155799666Y-103936281D01*
X155799669Y-103936280D01*
X155936280Y-103799669D01*
X155936281Y-103799666D01*
X155936285Y-103799663D01*
X156049852Y-103643350D01*
X156137569Y-103471197D01*
X156197275Y-103287440D01*
X156227500Y-103096606D01*
X156227500Y-102903394D01*
X156201235Y-102737560D01*
X156197275Y-102712559D01*
X156142257Y-102543231D01*
X156137569Y-102528803D01*
X156049852Y-102356650D01*
X156027220Y-102325500D01*
X155977681Y-102257314D01*
X155936285Y-102200337D01*
X155936283Y-102200335D01*
X155936280Y-102200331D01*
X155799669Y-102063720D01*
X155799664Y-102063716D01*
X155783008Y-102051615D01*
X155728362Y-102011912D01*
X155643355Y-101950151D01*
X155643352Y-101950149D01*
X155471195Y-101862430D01*
X155287440Y-101802725D01*
X155287437Y-101802724D01*
X155140842Y-101779506D01*
X155096606Y-101772500D01*
X154903394Y-101772500D01*
X154867482Y-101778187D01*
X154712562Y-101802724D01*
X154712559Y-101802725D01*
X154528804Y-101862430D01*
X154356647Y-101950149D01*
X154356644Y-101950151D01*
X154200335Y-102063716D01*
X154063716Y-102200335D01*
X153950151Y-102356644D01*
X153950149Y-102356647D01*
X153862430Y-102528804D01*
X153802725Y-102712559D01*
X153798765Y-102737560D01*
X153772500Y-102903394D01*
X140492288Y-102903394D01*
X140865830Y-102529852D01*
X140900478Y-102515500D01*
X141866906Y-102515500D01*
X141901554Y-102529852D01*
X141908009Y-102539513D01*
X141908452Y-102539218D01*
X141955447Y-102609552D01*
X141979315Y-102625500D01*
X142021769Y-102653867D01*
X142080252Y-102665500D01*
X142080255Y-102665500D01*
X143219745Y-102665500D01*
X143219748Y-102665500D01*
X143278231Y-102653867D01*
X143344552Y-102609552D01*
X143388867Y-102543231D01*
X143400500Y-102484748D01*
X143400500Y-101845252D01*
X143388867Y-101786769D01*
X143344552Y-101720448D01*
X143344551Y-101720447D01*
X143342397Y-101717223D01*
X143335080Y-101680441D01*
X143342397Y-101662777D01*
X143346089Y-101657252D01*
X143388867Y-101593231D01*
X143400500Y-101534748D01*
X143400500Y-100895252D01*
X143388867Y-100836769D01*
X143344552Y-100770448D01*
X143344551Y-100770447D01*
X143342397Y-100767223D01*
X143335080Y-100730441D01*
X143342397Y-100712777D01*
X143352638Y-100697450D01*
X143388867Y-100643231D01*
X143400500Y-100584748D01*
X143400500Y-99945252D01*
X143388867Y-99886769D01*
X143362301Y-99847012D01*
X143344552Y-99820447D01*
X143304795Y-99793882D01*
X143278231Y-99776133D01*
X143219748Y-99764500D01*
X142080252Y-99764500D01*
X142021769Y-99776133D01*
X141955447Y-99820447D01*
X141926760Y-99863381D01*
X141917176Y-99877723D01*
X141885996Y-99898558D01*
X141876436Y-99899500D01*
X140628854Y-99899500D01*
X140574972Y-99913938D01*
X140548031Y-99921157D01*
X140540450Y-99923188D01*
X140539708Y-99923387D01*
X140459787Y-99969530D01*
X140459787Y-99969531D01*
X137919170Y-102510148D01*
X137884522Y-102524500D01*
X136295934Y-102524500D01*
X136261286Y-102510148D01*
X136246934Y-102475500D01*
X136261286Y-102440852D01*
X136269681Y-102435242D01*
X136269218Y-102434548D01*
X136273230Y-102431867D01*
X136273231Y-102431867D01*
X136339552Y-102387552D01*
X136383867Y-102321231D01*
X136395500Y-102262748D01*
X136395500Y-102235802D01*
X136402065Y-102211302D01*
X136441391Y-102143188D01*
X136441391Y-102143187D01*
X136441392Y-102143186D01*
X136475499Y-102015895D01*
X136475500Y-102015895D01*
X136475500Y-101884105D01*
X136475499Y-101884104D01*
X136441393Y-101756818D01*
X136441392Y-101756814D01*
X136402065Y-101688697D01*
X136395500Y-101664197D01*
X136395500Y-101657255D01*
X136395500Y-101657252D01*
X136383867Y-101598769D01*
X136356105Y-101557221D01*
X136348788Y-101520442D01*
X136356104Y-101502780D01*
X136383867Y-101461231D01*
X136395500Y-101402748D01*
X136395500Y-100797252D01*
X136383867Y-100738769D01*
X136339552Y-100672448D01*
X136336871Y-100668435D01*
X136337806Y-100667809D01*
X136325500Y-100638099D01*
X136325500Y-98669541D01*
X136339852Y-98634893D01*
X136364938Y-98621483D01*
X136403231Y-98613867D01*
X136469552Y-98569552D01*
X136513867Y-98503231D01*
X136525500Y-98444748D01*
X136525500Y-97605252D01*
X136513867Y-97546769D01*
X136487301Y-97507012D01*
X136469552Y-97480447D01*
X136429795Y-97453882D01*
X136403231Y-97436133D01*
X136344748Y-97424500D01*
X135505252Y-97424500D01*
X135446769Y-97436133D01*
X135380447Y-97480447D01*
X135337829Y-97544231D01*
X135336133Y-97546769D01*
X135324500Y-97605252D01*
X135324500Y-98444748D01*
X135336133Y-98503231D01*
X135340983Y-98510489D01*
X135380447Y-98569552D01*
X135402457Y-98584258D01*
X135446769Y-98613867D01*
X135505252Y-98625500D01*
X135575500Y-98625500D01*
X135610148Y-98639852D01*
X135624500Y-98674500D01*
X135624500Y-100578425D01*
X135610148Y-100613073D01*
X135585061Y-100626483D01*
X135576770Y-100628132D01*
X135576768Y-100628133D01*
X135510447Y-100672447D01*
X135466133Y-100738769D01*
X135454500Y-100797252D01*
X135454500Y-100797255D01*
X135454500Y-101400500D01*
X135440148Y-101435148D01*
X135405500Y-101449500D01*
X133669500Y-101449500D01*
X133634852Y-101435148D01*
X133620500Y-101400500D01*
X133620500Y-100822255D01*
X133620500Y-100822252D01*
X133608867Y-100763769D01*
X133574795Y-100712777D01*
X133564554Y-100697450D01*
X133564552Y-100697449D01*
X133564552Y-100697448D01*
X133547275Y-100685903D01*
X133526441Y-100654721D01*
X133525500Y-100645163D01*
X133525500Y-98799268D01*
X133539852Y-98764620D01*
X133567502Y-98751548D01*
X133567387Y-98750969D01*
X133569700Y-98750508D01*
X133569715Y-98750502D01*
X133569735Y-98750500D01*
X133569748Y-98750500D01*
X133628231Y-98738867D01*
X133694552Y-98694552D01*
X133738867Y-98628231D01*
X133750500Y-98569748D01*
X133750500Y-97730252D01*
X133738867Y-97671769D01*
X133704397Y-97620182D01*
X133694552Y-97605447D01*
X133644909Y-97572277D01*
X133628231Y-97561133D01*
X133569748Y-97549500D01*
X132730252Y-97549500D01*
X132671769Y-97561133D01*
X132605447Y-97605447D01*
X132570469Y-97657797D01*
X132561133Y-97671769D01*
X132549500Y-97730252D01*
X132549500Y-98569748D01*
X132561133Y-98628231D01*
X132572427Y-98645133D01*
X132605447Y-98694552D01*
X132632012Y-98712301D01*
X132671769Y-98738867D01*
X132730252Y-98750500D01*
X132775500Y-98750500D01*
X132810148Y-98764852D01*
X132824500Y-98799500D01*
X132824500Y-100611753D01*
X132810148Y-100646401D01*
X132802718Y-100652498D01*
X132801718Y-100653166D01*
X132764935Y-100660478D01*
X132733755Y-100639639D01*
X132725500Y-100612421D01*
X132725500Y-99159106D01*
X132714901Y-99119552D01*
X132710695Y-99103856D01*
X132691392Y-99031814D01*
X132691391Y-99031811D01*
X132635374Y-98934788D01*
X132625503Y-98917691D01*
X132625502Y-98917690D01*
X132625500Y-98917686D01*
X132532314Y-98824500D01*
X132432314Y-98724500D01*
X132318188Y-98658608D01*
X132318184Y-98658607D01*
X132190895Y-98624500D01*
X132190892Y-98624500D01*
X131262010Y-98624500D01*
X131227362Y-98610148D01*
X131213010Y-98575500D01*
X131227362Y-98540852D01*
X131237508Y-98533066D01*
X131276613Y-98510489D01*
X131360489Y-98426613D01*
X131419799Y-98323886D01*
X131435149Y-98266597D01*
X131450500Y-98209311D01*
X131450500Y-98090688D01*
X131419799Y-97976115D01*
X131419798Y-97976112D01*
X131360488Y-97873386D01*
X131276613Y-97789511D01*
X131173887Y-97730201D01*
X131173884Y-97730200D01*
X131059312Y-97699500D01*
X131059309Y-97699500D01*
X129463219Y-97699500D01*
X129428571Y-97685148D01*
X129414219Y-97650500D01*
X129422477Y-97623277D01*
X129424545Y-97620182D01*
X129433867Y-97606231D01*
X129445500Y-97547748D01*
X129445500Y-96942252D01*
X129433867Y-96883769D01*
X129396418Y-96827723D01*
X129389552Y-96817447D01*
X129361269Y-96798549D01*
X129340433Y-96767366D01*
X129346056Y-96733309D01*
X129394799Y-96648886D01*
X129420951Y-96551286D01*
X129425500Y-96534311D01*
X129425500Y-96415688D01*
X129394799Y-96301115D01*
X129394798Y-96301112D01*
X129365577Y-96250500D01*
X129335489Y-96198387D01*
X129335488Y-96198386D01*
X129333883Y-96195606D01*
X129334498Y-96195250D01*
X129325500Y-96168736D01*
X129325500Y-96099500D01*
X129339852Y-96064852D01*
X129374500Y-96050500D01*
X129444745Y-96050500D01*
X129444748Y-96050500D01*
X129503231Y-96038867D01*
X129569552Y-95994552D01*
X129613867Y-95928231D01*
X129625500Y-95869748D01*
X129625500Y-94930252D01*
X129824500Y-94930252D01*
X129824500Y-95869748D01*
X129836133Y-95928231D01*
X129850344Y-95949499D01*
X129880447Y-95994552D01*
X129901722Y-96008767D01*
X129946769Y-96038867D01*
X130005252Y-96050500D01*
X130005255Y-96050500D01*
X130844745Y-96050500D01*
X130844748Y-96050500D01*
X130903231Y-96038867D01*
X130969552Y-95994552D01*
X131013867Y-95928231D01*
X131013868Y-95928228D01*
X131021484Y-95889941D01*
X131042319Y-95858758D01*
X131069542Y-95850500D01*
X131184311Y-95850500D01*
X131244735Y-95834309D01*
X131274729Y-95826272D01*
X131298887Y-95819799D01*
X131401614Y-95760489D01*
X131735489Y-95426614D01*
X131771207Y-95364748D01*
X131794799Y-95323886D01*
X131817986Y-95237352D01*
X131825500Y-95209311D01*
X131825500Y-93965688D01*
X131802474Y-93879758D01*
X131794799Y-93851114D01*
X131735489Y-93748387D01*
X131651613Y-93664511D01*
X131548887Y-93605201D01*
X131548884Y-93605200D01*
X131434312Y-93574500D01*
X131434309Y-93574500D01*
X131315691Y-93574500D01*
X131315688Y-93574500D01*
X131201115Y-93605200D01*
X131201112Y-93605201D01*
X131098386Y-93664511D01*
X131098386Y-93664512D01*
X131014512Y-93748386D01*
X131014511Y-93748386D01*
X130955201Y-93851112D01*
X130955200Y-93851115D01*
X130924500Y-93965688D01*
X130924500Y-94705657D01*
X130910148Y-94740305D01*
X130875500Y-94754657D01*
X130865945Y-94753716D01*
X130844748Y-94749500D01*
X130005252Y-94749500D01*
X129946769Y-94761133D01*
X129880447Y-94805447D01*
X129838152Y-94868748D01*
X129836133Y-94871769D01*
X129824500Y-94930252D01*
X129625500Y-94930252D01*
X129613867Y-94871769D01*
X129584775Y-94828231D01*
X129569552Y-94805447D01*
X129516118Y-94769744D01*
X129503231Y-94761133D01*
X129444748Y-94749500D01*
X128605252Y-94749500D01*
X128546769Y-94761133D01*
X128501723Y-94791232D01*
X128464940Y-94798548D01*
X128433758Y-94777713D01*
X128425500Y-94750490D01*
X128425500Y-92259171D01*
X128439852Y-92224523D01*
X128464940Y-92211112D01*
X128476231Y-92208867D01*
X128517778Y-92181105D01*
X128554558Y-92173788D01*
X128572219Y-92181104D01*
X128613769Y-92208867D01*
X128672252Y-92220500D01*
X128672255Y-92220500D01*
X129277745Y-92220500D01*
X129277748Y-92220500D01*
X129336231Y-92208867D01*
X129402552Y-92164552D01*
X129446867Y-92098231D01*
X129446867Y-92098230D01*
X129447504Y-92097277D01*
X129478687Y-92076442D01*
X129488246Y-92075500D01*
X132121146Y-92075500D01*
X132165716Y-92063557D01*
X132210288Y-92051614D01*
X132290212Y-92005470D01*
X132340852Y-91954830D01*
X132375500Y-91940478D01*
X132410148Y-91954830D01*
X132424500Y-91989478D01*
X132424500Y-93621145D01*
X132429422Y-93639512D01*
X132438797Y-93674500D01*
X132448386Y-93710288D01*
X132448387Y-93710291D01*
X132494530Y-93790212D01*
X132810148Y-94105829D01*
X132824500Y-94140477D01*
X132824500Y-95900500D01*
X132810148Y-95935148D01*
X132775500Y-95949500D01*
X132730252Y-95949500D01*
X132671769Y-95961133D01*
X132605447Y-96005447D01*
X132574600Y-96051614D01*
X132561133Y-96071769D01*
X132549500Y-96130252D01*
X132549500Y-96969748D01*
X132561133Y-97028231D01*
X132578882Y-97054795D01*
X132605447Y-97094552D01*
X132632012Y-97112301D01*
X132671769Y-97138867D01*
X132730252Y-97150500D01*
X132730255Y-97150500D01*
X133569745Y-97150500D01*
X133569748Y-97150500D01*
X133628231Y-97138867D01*
X133694552Y-97094552D01*
X133738867Y-97028231D01*
X133750500Y-96969748D01*
X133750500Y-96130252D01*
X133738867Y-96071769D01*
X133722162Y-96046769D01*
X133694552Y-96005447D01*
X133654795Y-95978882D01*
X133628231Y-95961133D01*
X133599381Y-95955394D01*
X133569744Y-95949499D01*
X133569695Y-95949495D01*
X133569680Y-95949487D01*
X133567387Y-95949031D01*
X133567525Y-95948335D01*
X133536621Y-95931815D01*
X133525500Y-95900731D01*
X133525500Y-93928853D01*
X133504669Y-93851114D01*
X133501614Y-93839712D01*
X133494986Y-93828233D01*
X133473035Y-93790213D01*
X133455469Y-93759788D01*
X133390212Y-93694531D01*
X133268181Y-93572500D01*
X133139852Y-93444170D01*
X133125500Y-93409522D01*
X133125500Y-93064478D01*
X133139852Y-93029830D01*
X133174500Y-93015478D01*
X133209148Y-93029830D01*
X133284788Y-93105470D01*
X133314040Y-93122359D01*
X133364709Y-93151613D01*
X133364711Y-93151613D01*
X133364712Y-93151614D01*
X133386998Y-93157585D01*
X133453853Y-93175500D01*
X133453856Y-93175500D01*
X135559521Y-93175500D01*
X135594168Y-93189851D01*
X135610147Y-93205829D01*
X135624500Y-93240476D01*
X135624500Y-95875500D01*
X135610148Y-95910148D01*
X135575500Y-95924500D01*
X135505252Y-95924500D01*
X135451721Y-95935148D01*
X135446769Y-95936133D01*
X135380447Y-95980447D01*
X135342553Y-96037161D01*
X135336133Y-96046769D01*
X135324500Y-96105252D01*
X135324500Y-96944748D01*
X135336133Y-97003231D01*
X135349351Y-97023013D01*
X135380447Y-97069552D01*
X135407012Y-97087301D01*
X135446769Y-97113867D01*
X135505252Y-97125500D01*
X135505255Y-97125500D01*
X136344745Y-97125500D01*
X136344748Y-97125500D01*
X136403231Y-97113867D01*
X136469552Y-97069552D01*
X136513867Y-97003231D01*
X136525500Y-96944748D01*
X136525500Y-96105252D01*
X136513867Y-96046769D01*
X136472132Y-95984309D01*
X136469552Y-95980447D01*
X136403228Y-95936131D01*
X136364941Y-95928516D01*
X136333758Y-95907681D01*
X136325500Y-95880458D01*
X136325500Y-93940688D01*
X137324500Y-93940688D01*
X137324500Y-98384310D01*
X137348713Y-98474672D01*
X137348713Y-98474673D01*
X137355200Y-98498886D01*
X137355201Y-98498888D01*
X137412296Y-98597777D01*
X137414511Y-98601614D01*
X137773386Y-98960490D01*
X137876113Y-99019799D01*
X137900326Y-99026286D01*
X137945508Y-99038393D01*
X137990689Y-99050500D01*
X137990691Y-99050500D01*
X148434311Y-99050500D01*
X148464430Y-99042428D01*
X148524673Y-99026286D01*
X148548887Y-99019799D01*
X148651614Y-98960489D01*
X148922251Y-98689852D01*
X148956899Y-98675500D01*
X149725500Y-98675500D01*
X149760148Y-98689852D01*
X149774500Y-98724500D01*
X149774500Y-98994748D01*
X149786133Y-99053231D01*
X149803882Y-99079795D01*
X149830447Y-99119552D01*
X149857012Y-99137301D01*
X149896769Y-99163867D01*
X149955252Y-99175500D01*
X150175500Y-99175500D01*
X150210148Y-99189852D01*
X150224500Y-99224500D01*
X150224500Y-101568101D01*
X150210148Y-101602749D01*
X150102749Y-101710148D01*
X150068101Y-101724500D01*
X146092828Y-101724500D01*
X146058180Y-101710148D01*
X146043828Y-101675500D01*
X146052086Y-101648277D01*
X146055354Y-101643385D01*
X146088867Y-101593231D01*
X146100500Y-101534748D01*
X146100500Y-100895252D01*
X146088867Y-100836769D01*
X146062301Y-100797012D01*
X146044552Y-100770447D01*
X145984678Y-100730441D01*
X145978231Y-100726133D01*
X145919748Y-100714500D01*
X144780252Y-100714500D01*
X144721769Y-100726133D01*
X144655447Y-100770447D01*
X144620833Y-100822252D01*
X144611133Y-100836769D01*
X144599500Y-100895252D01*
X144599500Y-101534748D01*
X144611133Y-101593231D01*
X144617493Y-101602749D01*
X144657602Y-101662777D01*
X144664918Y-101699560D01*
X144657602Y-101717223D01*
X144631146Y-101756818D01*
X144611133Y-101786769D01*
X144599500Y-101845252D01*
X144599500Y-102484748D01*
X144611133Y-102543231D01*
X144618198Y-102553804D01*
X144655447Y-102609552D01*
X144679315Y-102625500D01*
X144721769Y-102653867D01*
X144780252Y-102665500D01*
X144780255Y-102665500D01*
X145919745Y-102665500D01*
X145919748Y-102665500D01*
X145978231Y-102653867D01*
X146008326Y-102633757D01*
X146035549Y-102625500D01*
X150334311Y-102625500D01*
X150364430Y-102617428D01*
X150424673Y-102601286D01*
X150448887Y-102594799D01*
X150551614Y-102535489D01*
X151035489Y-102051614D01*
X151085373Y-101965212D01*
X151094799Y-101948886D01*
X151124408Y-101838385D01*
X151125500Y-101834311D01*
X151125500Y-99224500D01*
X151139852Y-99189852D01*
X151174500Y-99175500D01*
X151394745Y-99175500D01*
X151394748Y-99175500D01*
X151453231Y-99163867D01*
X151519552Y-99119552D01*
X151563867Y-99053231D01*
X151575500Y-98994748D01*
X151575500Y-97455252D01*
X151563867Y-97396769D01*
X151525743Y-97339713D01*
X151519552Y-97330447D01*
X151479795Y-97303882D01*
X151453231Y-97286133D01*
X151394748Y-97274500D01*
X149955252Y-97274500D01*
X149896769Y-97286133D01*
X149830447Y-97330447D01*
X149786133Y-97396769D01*
X149774500Y-97455252D01*
X149774500Y-97455255D01*
X149774500Y-97725500D01*
X149760148Y-97760148D01*
X149725500Y-97774500D01*
X148690689Y-97774500D01*
X148637439Y-97788769D01*
X148610389Y-97796017D01*
X148576113Y-97805200D01*
X148576111Y-97805201D01*
X148473385Y-97864511D01*
X148473385Y-97864512D01*
X148202749Y-98135148D01*
X148168101Y-98149500D01*
X138274500Y-98149500D01*
X138239852Y-98135148D01*
X138225500Y-98100500D01*
X138225500Y-93940688D01*
X138198443Y-93839713D01*
X138194799Y-93826114D01*
X138135489Y-93723387D01*
X138051613Y-93639511D01*
X137948887Y-93580201D01*
X137948884Y-93580200D01*
X137834312Y-93549500D01*
X137834309Y-93549500D01*
X137715691Y-93549500D01*
X137715688Y-93549500D01*
X137601115Y-93580200D01*
X137601112Y-93580201D01*
X137498386Y-93639511D01*
X137498386Y-93639512D01*
X137414512Y-93723386D01*
X137414511Y-93723386D01*
X137355201Y-93826112D01*
X137355200Y-93826115D01*
X137324500Y-93940688D01*
X136325500Y-93940688D01*
X136325500Y-93028853D01*
X136304181Y-92949291D01*
X136301614Y-92939712D01*
X136255469Y-92859788D01*
X136190212Y-92794531D01*
X135940212Y-92544530D01*
X135860290Y-92498386D01*
X135860286Y-92498385D01*
X135771147Y-92474500D01*
X135771144Y-92474500D01*
X133674500Y-92474500D01*
X133639852Y-92460148D01*
X133625500Y-92425500D01*
X133625500Y-92152252D01*
X140267500Y-92152252D01*
X140267500Y-92997748D01*
X140279133Y-93056231D01*
X140284644Y-93064478D01*
X140323447Y-93122552D01*
X140331197Y-93127730D01*
X140389769Y-93166867D01*
X140448252Y-93178500D01*
X140475500Y-93178500D01*
X140510148Y-93192852D01*
X140524500Y-93227500D01*
X140524500Y-94172500D01*
X140510148Y-94207148D01*
X140475500Y-94221500D01*
X140448252Y-94221500D01*
X140389769Y-94233133D01*
X140323447Y-94277447D01*
X140279133Y-94343769D01*
X140267500Y-94402252D01*
X140267500Y-95247748D01*
X140279133Y-95306231D01*
X140290929Y-95323884D01*
X140323447Y-95372552D01*
X140350012Y-95390301D01*
X140389769Y-95416867D01*
X140448252Y-95428500D01*
X140448255Y-95428500D01*
X141351745Y-95428500D01*
X141351748Y-95428500D01*
X141410231Y-95416867D01*
X141476552Y-95372552D01*
X141520867Y-95306231D01*
X141532500Y-95247748D01*
X141532500Y-94402252D01*
X141520867Y-94343769D01*
X141481925Y-94285489D01*
X141476552Y-94277447D01*
X141436795Y-94250882D01*
X141410231Y-94233133D01*
X141351748Y-94221500D01*
X141351745Y-94221500D01*
X141274500Y-94221500D01*
X141239852Y-94207148D01*
X141225500Y-94172500D01*
X141225500Y-93227500D01*
X141239852Y-93192852D01*
X141274500Y-93178500D01*
X141351745Y-93178500D01*
X141351748Y-93178500D01*
X141410231Y-93166867D01*
X141476552Y-93122552D01*
X141520867Y-93056231D01*
X141532500Y-92997748D01*
X141532500Y-92152252D01*
X141520867Y-92093769D01*
X141494301Y-92054012D01*
X141476552Y-92027447D01*
X141436795Y-92000882D01*
X141410231Y-91983133D01*
X141351748Y-91971500D01*
X140448252Y-91971500D01*
X140389769Y-91983133D01*
X140323447Y-92027447D01*
X140279133Y-92093769D01*
X140267500Y-92152252D01*
X133625500Y-92152252D01*
X133625500Y-91053854D01*
X133617170Y-91022768D01*
X133615500Y-91010085D01*
X133615500Y-90680255D01*
X133615500Y-90680252D01*
X133607631Y-90640691D01*
X133607630Y-90640688D01*
X135024500Y-90640688D01*
X135024500Y-90759311D01*
X135055200Y-90873884D01*
X135055201Y-90873887D01*
X135068410Y-90896765D01*
X135108460Y-90966133D01*
X135116117Y-90979394D01*
X135115499Y-90979750D01*
X135124500Y-91006263D01*
X135124500Y-91346144D01*
X135138797Y-91399500D01*
X135148386Y-91435288D01*
X135148387Y-91435291D01*
X135176572Y-91484108D01*
X135194530Y-91515212D01*
X135384788Y-91705470D01*
X135400851Y-91714744D01*
X135464709Y-91751613D01*
X135464711Y-91751613D01*
X135464712Y-91751614D01*
X135486998Y-91757585D01*
X135553853Y-91775500D01*
X135553856Y-91775500D01*
X135553857Y-91775500D01*
X135646144Y-91775500D01*
X136648458Y-91775500D01*
X136683106Y-91789852D01*
X136689200Y-91797277D01*
X136717447Y-91839552D01*
X136733084Y-91850000D01*
X136783769Y-91883867D01*
X136842252Y-91895500D01*
X136842255Y-91895500D01*
X137447745Y-91895500D01*
X137447748Y-91895500D01*
X137506231Y-91883867D01*
X137572552Y-91839552D01*
X137616867Y-91773231D01*
X137628500Y-91714748D01*
X137628500Y-91135252D01*
X137616867Y-91076769D01*
X137580784Y-91022768D01*
X137572552Y-91010447D01*
X137521915Y-90976613D01*
X137506231Y-90966133D01*
X137447748Y-90954500D01*
X136842252Y-90954500D01*
X136783769Y-90966133D01*
X136717447Y-91010447D01*
X136689200Y-91052723D01*
X136658017Y-91073559D01*
X136648458Y-91074500D01*
X135874500Y-91074500D01*
X135839852Y-91060148D01*
X135825500Y-91025500D01*
X135825500Y-91006263D01*
X135834500Y-90979750D01*
X135833883Y-90979394D01*
X135835489Y-90976613D01*
X135894799Y-90873886D01*
X135919327Y-90782348D01*
X135925500Y-90759311D01*
X135925500Y-90640688D01*
X135902474Y-90554758D01*
X135894799Y-90526114D01*
X135835489Y-90423387D01*
X135751613Y-90339511D01*
X135745762Y-90336133D01*
X135648887Y-90280201D01*
X135648884Y-90280200D01*
X135534312Y-90249500D01*
X135534309Y-90249500D01*
X135415691Y-90249500D01*
X135415688Y-90249500D01*
X135301115Y-90280200D01*
X135301112Y-90280201D01*
X135198386Y-90339511D01*
X135198386Y-90339512D01*
X135114512Y-90423386D01*
X135114511Y-90423386D01*
X135055201Y-90526112D01*
X135055200Y-90526115D01*
X135024500Y-90640688D01*
X133607630Y-90640688D01*
X133603868Y-90621771D01*
X133600834Y-90617231D01*
X133585158Y-90593769D01*
X133559552Y-90555447D01*
X133508725Y-90521486D01*
X133493231Y-90511133D01*
X133434748Y-90499500D01*
X133115252Y-90499500D01*
X133071389Y-90508224D01*
X133056768Y-90511133D01*
X133052220Y-90514172D01*
X133015437Y-90521486D01*
X132997780Y-90514172D01*
X132993231Y-90511133D01*
X132934748Y-90499500D01*
X132615252Y-90499500D01*
X132571389Y-90508224D01*
X132556768Y-90511133D01*
X132552220Y-90514172D01*
X132515437Y-90521486D01*
X132497780Y-90514172D01*
X132493231Y-90511133D01*
X132434748Y-90499500D01*
X132115252Y-90499500D01*
X132056769Y-90511133D01*
X131990447Y-90555447D01*
X131953898Y-90610148D01*
X131946133Y-90621769D01*
X131934500Y-90680252D01*
X131934500Y-90680255D01*
X131934500Y-91010085D01*
X131932830Y-91022768D01*
X131924500Y-91053854D01*
X131924500Y-91325500D01*
X131910148Y-91360148D01*
X131875500Y-91374500D01*
X129454837Y-91374500D01*
X129420189Y-91360148D01*
X129414095Y-91352723D01*
X129402552Y-91335447D01*
X129362795Y-91308882D01*
X129336231Y-91291133D01*
X129277748Y-91279500D01*
X128672252Y-91279500D01*
X128628389Y-91288224D01*
X128613768Y-91291133D01*
X128572223Y-91318893D01*
X128535440Y-91326209D01*
X128517777Y-91318893D01*
X128476231Y-91291133D01*
X128417748Y-91279500D01*
X128417745Y-91279500D01*
X128299305Y-91279500D01*
X128286623Y-91277830D01*
X128180895Y-91249500D01*
X128180892Y-91249500D01*
X127674500Y-91249500D01*
X127639852Y-91235148D01*
X127625500Y-91200500D01*
X127625500Y-89249500D01*
X127639852Y-89214852D01*
X127674500Y-89200500D01*
X128210895Y-89200500D01*
X128210895Y-89200499D01*
X128268697Y-89185011D01*
X128316623Y-89172170D01*
X128329305Y-89170500D01*
X128447745Y-89170500D01*
X128447748Y-89170500D01*
X128506231Y-89158867D01*
X128547778Y-89131105D01*
X128584558Y-89123788D01*
X128602219Y-89131104D01*
X128643769Y-89158867D01*
X128702252Y-89170500D01*
X128702255Y-89170500D01*
X129307745Y-89170500D01*
X129307748Y-89170500D01*
X129366231Y-89158867D01*
X129432552Y-89114552D01*
X129432551Y-89114552D01*
X129436565Y-89111871D01*
X129437190Y-89112806D01*
X129466901Y-89100500D01*
X129509522Y-89100500D01*
X129544170Y-89114852D01*
X130095170Y-89665852D01*
X130109522Y-89700500D01*
X130095170Y-89735148D01*
X130060522Y-89749500D01*
X129496542Y-89749500D01*
X129461894Y-89735148D01*
X129455800Y-89727723D01*
X129427552Y-89685447D01*
X129387795Y-89658882D01*
X129361231Y-89641133D01*
X129302748Y-89629500D01*
X128697252Y-89629500D01*
X128638769Y-89641133D01*
X128572447Y-89685447D01*
X128544200Y-89727723D01*
X128528133Y-89751769D01*
X128516500Y-89810252D01*
X128516500Y-90389748D01*
X128528133Y-90448231D01*
X128530278Y-90451441D01*
X128572447Y-90514552D01*
X128589748Y-90526112D01*
X128638769Y-90558867D01*
X128697252Y-90570500D01*
X128697255Y-90570500D01*
X129302745Y-90570500D01*
X129302748Y-90570500D01*
X129361231Y-90558867D01*
X129427552Y-90514552D01*
X129455800Y-90472277D01*
X129486983Y-90451441D01*
X129496542Y-90450500D01*
X131321146Y-90450500D01*
X131352232Y-90442170D01*
X131364915Y-90440500D01*
X131694745Y-90440500D01*
X131694748Y-90440500D01*
X131753231Y-90428867D01*
X131819552Y-90384552D01*
X131863867Y-90318231D01*
X131875500Y-90259748D01*
X131875500Y-89940252D01*
X131863867Y-89881769D01*
X131863866Y-89881767D01*
X131863866Y-89881766D01*
X131860831Y-89877225D01*
X131853512Y-89840443D01*
X131860831Y-89822775D01*
X131863866Y-89818233D01*
X131863866Y-89818232D01*
X131863865Y-89818232D01*
X131863867Y-89818231D01*
X131875500Y-89759748D01*
X131875500Y-89440252D01*
X131863867Y-89381769D01*
X131863866Y-89381767D01*
X131863866Y-89381766D01*
X131860831Y-89377225D01*
X131853512Y-89340443D01*
X131860831Y-89322775D01*
X131863866Y-89318233D01*
X131863866Y-89318232D01*
X131863865Y-89318232D01*
X131863867Y-89318231D01*
X131875500Y-89259748D01*
X131875500Y-88940252D01*
X131863867Y-88881769D01*
X131863866Y-88881767D01*
X131863866Y-88881766D01*
X131860831Y-88877225D01*
X131853512Y-88840443D01*
X131860831Y-88822775D01*
X131863866Y-88818233D01*
X131863866Y-88818232D01*
X131863865Y-88818232D01*
X131863867Y-88818231D01*
X131875500Y-88759748D01*
X131875500Y-88440252D01*
X131863867Y-88381769D01*
X131863866Y-88381767D01*
X131863866Y-88381766D01*
X131860831Y-88377225D01*
X131853512Y-88340443D01*
X131860831Y-88322775D01*
X131863866Y-88318233D01*
X131863866Y-88318232D01*
X131863865Y-88318232D01*
X131863867Y-88318231D01*
X131875500Y-88259748D01*
X131875500Y-87940252D01*
X131863867Y-87881769D01*
X131825191Y-87823887D01*
X131819552Y-87815447D01*
X131817577Y-87814128D01*
X131816256Y-87812151D01*
X131816140Y-87812035D01*
X131816163Y-87812011D01*
X131796742Y-87782946D01*
X131804058Y-87746163D01*
X131832116Y-87726056D01*
X131868186Y-87716392D01*
X131965064Y-87660458D01*
X132002246Y-87655564D01*
X132016787Y-87662152D01*
X132041272Y-87678512D01*
X132056769Y-87688867D01*
X132115252Y-87700500D01*
X132115255Y-87700500D01*
X132434745Y-87700500D01*
X132434748Y-87700500D01*
X132493231Y-87688867D01*
X132493232Y-87688866D01*
X132493233Y-87688866D01*
X132497775Y-87685831D01*
X132534557Y-87678512D01*
X132552225Y-87685831D01*
X132556766Y-87688866D01*
X132556768Y-87688866D01*
X132556769Y-87688867D01*
X132615252Y-87700500D01*
X132615255Y-87700500D01*
X132934745Y-87700500D01*
X132934748Y-87700500D01*
X132993231Y-87688867D01*
X132996882Y-87686426D01*
X133011451Y-87679828D01*
X133012727Y-87679487D01*
X133049906Y-87684405D01*
X133052594Y-87686077D01*
X133056769Y-87688867D01*
X133115252Y-87700500D01*
X133115255Y-87700500D01*
X133434745Y-87700500D01*
X133434748Y-87700500D01*
X133493231Y-87688867D01*
X133493232Y-87688866D01*
X133493233Y-87688866D01*
X133497775Y-87685831D01*
X133534557Y-87678512D01*
X133552225Y-87685831D01*
X133556766Y-87688866D01*
X133556768Y-87688866D01*
X133556769Y-87688867D01*
X133615252Y-87700500D01*
X133615255Y-87700500D01*
X133934745Y-87700500D01*
X133934748Y-87700500D01*
X133993231Y-87688867D01*
X133993232Y-87688866D01*
X133993233Y-87688866D01*
X133997775Y-87685831D01*
X134034557Y-87678512D01*
X134052225Y-87685831D01*
X134056766Y-87688866D01*
X134056768Y-87688866D01*
X134056769Y-87688867D01*
X134115252Y-87700500D01*
X134115255Y-87700500D01*
X134434745Y-87700500D01*
X134434748Y-87700500D01*
X134493231Y-87688867D01*
X134559552Y-87644552D01*
X134603867Y-87578231D01*
X134615500Y-87519748D01*
X134615500Y-87499500D01*
X134629852Y-87464852D01*
X134664500Y-87450500D01*
X134875500Y-87450500D01*
X134910148Y-87464852D01*
X134924500Y-87499500D01*
X134924500Y-87710500D01*
X134910148Y-87745148D01*
X134875500Y-87759500D01*
X134855252Y-87759500D01*
X134796769Y-87771133D01*
X134730447Y-87815447D01*
X134699119Y-87862334D01*
X134686133Y-87881769D01*
X134674500Y-87940252D01*
X134674500Y-88259748D01*
X134686133Y-88318231D01*
X134689172Y-88322780D01*
X134696486Y-88359563D01*
X134689172Y-88377220D01*
X134686133Y-88381768D01*
X134686133Y-88381769D01*
X134674500Y-88440252D01*
X134674500Y-88759748D01*
X134686133Y-88818231D01*
X134689172Y-88822780D01*
X134696486Y-88859563D01*
X134689172Y-88877220D01*
X134686133Y-88881768D01*
X134686133Y-88881769D01*
X134674500Y-88940252D01*
X134674500Y-89259748D01*
X134685265Y-89313866D01*
X134686133Y-89318231D01*
X134689172Y-89322780D01*
X134696486Y-89359563D01*
X134689172Y-89377220D01*
X134686133Y-89381768D01*
X134686133Y-89381769D01*
X134674500Y-89440252D01*
X134674500Y-89759748D01*
X134686133Y-89818231D01*
X134700975Y-89840443D01*
X134730447Y-89884552D01*
X134757012Y-89902301D01*
X134796769Y-89928867D01*
X134855252Y-89940500D01*
X134855255Y-89940500D01*
X135694745Y-89940500D01*
X135694748Y-89940500D01*
X135753231Y-89928867D01*
X135819552Y-89884552D01*
X135863867Y-89818231D01*
X135875500Y-89759748D01*
X135875500Y-89499500D01*
X135889852Y-89464852D01*
X135924500Y-89450500D01*
X136710163Y-89450500D01*
X136744811Y-89464852D01*
X136750905Y-89472277D01*
X136762447Y-89489552D01*
X136777336Y-89499500D01*
X136828769Y-89533867D01*
X136887252Y-89545500D01*
X136887255Y-89545500D01*
X137492745Y-89545500D01*
X137492748Y-89545500D01*
X137551231Y-89533867D01*
X137617552Y-89489552D01*
X137661867Y-89423231D01*
X137673500Y-89364748D01*
X137673500Y-88785252D01*
X137661867Y-88726769D01*
X137635301Y-88687012D01*
X137617552Y-88660447D01*
X137560210Y-88622133D01*
X137551231Y-88616133D01*
X137492748Y-88604500D01*
X136887252Y-88604500D01*
X136828769Y-88616133D01*
X136762447Y-88660447D01*
X136717496Y-88727723D01*
X136686313Y-88748558D01*
X136676754Y-88749500D01*
X135924500Y-88749500D01*
X135889852Y-88735148D01*
X135875500Y-88700500D01*
X135875500Y-88440255D01*
X135875500Y-88440252D01*
X135863867Y-88381769D01*
X135863866Y-88381767D01*
X135863866Y-88381766D01*
X135860831Y-88377225D01*
X135853512Y-88340443D01*
X135860831Y-88322775D01*
X135863866Y-88318233D01*
X135863866Y-88318232D01*
X135863865Y-88318232D01*
X135863867Y-88318231D01*
X135875500Y-88259748D01*
X135875500Y-87940252D01*
X135863867Y-87881769D01*
X135825191Y-87823887D01*
X135819552Y-87815447D01*
X135770910Y-87782946D01*
X135753231Y-87771133D01*
X135694748Y-87759500D01*
X135694745Y-87759500D01*
X135674500Y-87759500D01*
X135639852Y-87745148D01*
X135625500Y-87710500D01*
X135625500Y-87406263D01*
X135634500Y-87379750D01*
X135633883Y-87379394D01*
X135635489Y-87376613D01*
X135694799Y-87273886D01*
X135710149Y-87216597D01*
X135725500Y-87159311D01*
X135725500Y-87040688D01*
X135694799Y-86926115D01*
X135694798Y-86926112D01*
X135635488Y-86823386D01*
X135551613Y-86739511D01*
X135448887Y-86680201D01*
X135448884Y-86680200D01*
X135334312Y-86649500D01*
X135334309Y-86649500D01*
X135215691Y-86649500D01*
X135215688Y-86649500D01*
X135101115Y-86680200D01*
X135101112Y-86680201D01*
X135021434Y-86726204D01*
X134998387Y-86739511D01*
X134998386Y-86739511D01*
X134995606Y-86741117D01*
X134995249Y-86740499D01*
X134968737Y-86749500D01*
X134664500Y-86749500D01*
X134629852Y-86735148D01*
X134615500Y-86700500D01*
X134615500Y-86680255D01*
X134615500Y-86680252D01*
X134603867Y-86621769D01*
X134577301Y-86582012D01*
X134559552Y-86555447D01*
X134508725Y-86521486D01*
X134493231Y-86511133D01*
X134434748Y-86499500D01*
X134434745Y-86499500D01*
X134174500Y-86499500D01*
X134139852Y-86485148D01*
X134125500Y-86450500D01*
X134125500Y-86053853D01*
X134101614Y-85964713D01*
X134101613Y-85964710D01*
X134055472Y-85884794D01*
X134055469Y-85884788D01*
X133990212Y-85819531D01*
X133979828Y-85809147D01*
X133965477Y-85774500D01*
X133979829Y-85739852D01*
X134014477Y-85725500D01*
X135834522Y-85725500D01*
X135869170Y-85739852D01*
X135960148Y-85830829D01*
X135974500Y-85865477D01*
X135974500Y-87721147D01*
X135995495Y-87799500D01*
X135998385Y-87810286D01*
X135998386Y-87810290D01*
X136039655Y-87881769D01*
X136044530Y-87890212D01*
X136369531Y-88215212D01*
X136434788Y-88280469D01*
X136514712Y-88326614D01*
X136536998Y-88332585D01*
X136603853Y-88350500D01*
X136603856Y-88350500D01*
X140009522Y-88350500D01*
X140044170Y-88364852D01*
X140110148Y-88430830D01*
X140124500Y-88465478D01*
X140124500Y-89343736D01*
X140115501Y-89370250D01*
X140116117Y-89370606D01*
X140114511Y-89373386D01*
X140114511Y-89373387D01*
X140109673Y-89381767D01*
X140055201Y-89476112D01*
X140055200Y-89476115D01*
X140024500Y-89590688D01*
X140024500Y-89709311D01*
X140055200Y-89823884D01*
X140055201Y-89823887D01*
X140088618Y-89881766D01*
X140114511Y-89926613D01*
X140198387Y-90010489D01*
X140301114Y-90069799D01*
X140329758Y-90077474D01*
X140415688Y-90100500D01*
X140415691Y-90100500D01*
X140534311Y-90100500D01*
X140591597Y-90085149D01*
X140648886Y-90069799D01*
X140751613Y-90010489D01*
X140835489Y-89926613D01*
X140894799Y-89823886D01*
X140914731Y-89749500D01*
X140925500Y-89709311D01*
X140925500Y-89590688D01*
X140894799Y-89476115D01*
X140894798Y-89476112D01*
X140840328Y-89381769D01*
X140835489Y-89373387D01*
X140835488Y-89373386D01*
X140833883Y-89370606D01*
X140834498Y-89370250D01*
X140825500Y-89343736D01*
X140825500Y-88253853D01*
X140801615Y-88164716D01*
X140801614Y-88164712D01*
X140790894Y-88146144D01*
X140755470Y-88084788D01*
X140390212Y-87719530D01*
X140365482Y-87705252D01*
X142974500Y-87705252D01*
X142974500Y-89144748D01*
X142986133Y-89203231D01*
X142993898Y-89214852D01*
X143030447Y-89269552D01*
X143057012Y-89287301D01*
X143096769Y-89313867D01*
X143155252Y-89325500D01*
X143155255Y-89325500D01*
X145194745Y-89325500D01*
X145194748Y-89325500D01*
X145253231Y-89313867D01*
X145319552Y-89269552D01*
X145363867Y-89203231D01*
X145375500Y-89144748D01*
X145375500Y-88824500D01*
X145389852Y-88789852D01*
X145424500Y-88775500D01*
X146559522Y-88775500D01*
X146594170Y-88789852D01*
X146710148Y-88905830D01*
X146724500Y-88940478D01*
X146724500Y-93409522D01*
X146710148Y-93444170D01*
X146696670Y-93457648D01*
X146662022Y-93472000D01*
X146412689Y-93472000D01*
X146378041Y-93457648D01*
X146363689Y-93423000D01*
X146378041Y-93388352D01*
X146445479Y-93320914D01*
X146445480Y-93320913D01*
X146498207Y-93229588D01*
X146525499Y-93127730D01*
X146525500Y-93127730D01*
X146525500Y-92570441D01*
X146532064Y-92545942D01*
X146544799Y-92523886D01*
X146575499Y-92409312D01*
X146575500Y-92409312D01*
X146575500Y-92290688D01*
X146552474Y-92204758D01*
X146544799Y-92176114D01*
X146544798Y-92176113D01*
X146544798Y-92176111D01*
X146532065Y-92154057D01*
X146525500Y-92129557D01*
X146525500Y-91231683D01*
X146525501Y-91231670D01*
X146525501Y-91122271D01*
X146506865Y-91052723D01*
X146498207Y-91020413D01*
X146484195Y-90996144D01*
X146445480Y-90929087D01*
X146370913Y-90854520D01*
X146368123Y-90851730D01*
X146368116Y-90851724D01*
X146170916Y-90654523D01*
X146170915Y-90654522D01*
X146170913Y-90654520D01*
X146170909Y-90654518D01*
X146170907Y-90654516D01*
X146079590Y-90601793D01*
X146079587Y-90601792D01*
X145977730Y-90574500D01*
X145977727Y-90574500D01*
X145274500Y-90574500D01*
X145239852Y-90560148D01*
X145225500Y-90525500D01*
X145225500Y-90505255D01*
X145225500Y-90505252D01*
X145213867Y-90446769D01*
X145182951Y-90400500D01*
X145169552Y-90380447D01*
X145117249Y-90345500D01*
X145103231Y-90336133D01*
X145044748Y-90324500D01*
X144205252Y-90324500D01*
X144146769Y-90336133D01*
X144080447Y-90380447D01*
X144043898Y-90435148D01*
X144036133Y-90446769D01*
X144024500Y-90505252D01*
X144024500Y-91444748D01*
X144036133Y-91503231D01*
X144044139Y-91515212D01*
X144080447Y-91569552D01*
X144100680Y-91583071D01*
X144146769Y-91613867D01*
X144205252Y-91625500D01*
X144205255Y-91625500D01*
X145044745Y-91625500D01*
X145044748Y-91625500D01*
X145103231Y-91613867D01*
X145169552Y-91569552D01*
X145213867Y-91503231D01*
X145225500Y-91444748D01*
X145225500Y-91424500D01*
X145239852Y-91389852D01*
X145274500Y-91375500D01*
X145675500Y-91375500D01*
X145710148Y-91389852D01*
X145724500Y-91424500D01*
X145724500Y-92129557D01*
X145717935Y-92154057D01*
X145705201Y-92176111D01*
X145705200Y-92176115D01*
X145674500Y-92290688D01*
X145674500Y-92409312D01*
X145705199Y-92523882D01*
X145705200Y-92523884D01*
X145705201Y-92523886D01*
X145717935Y-92545942D01*
X145724500Y-92570441D01*
X145724500Y-92873000D01*
X145710148Y-92907648D01*
X145675500Y-92922000D01*
X144842270Y-92922000D01*
X144740417Y-92949291D01*
X144740411Y-92949294D01*
X144712454Y-92965435D01*
X144687954Y-92972000D01*
X144425252Y-92972000D01*
X144366769Y-92983633D01*
X144300447Y-93027947D01*
X144256133Y-93094269D01*
X144244500Y-93152752D01*
X144244500Y-93492248D01*
X144247077Y-93505201D01*
X144256133Y-93550733D01*
X144257384Y-93553752D01*
X144257384Y-93591248D01*
X144256133Y-93594266D01*
X144253958Y-93605201D01*
X144244500Y-93652752D01*
X144244500Y-93992248D01*
X144256133Y-94050731D01*
X144273882Y-94077295D01*
X144300447Y-94117052D01*
X144327012Y-94134801D01*
X144366769Y-94161367D01*
X144425252Y-94173000D01*
X144425255Y-94173000D01*
X146873646Y-94173000D01*
X146918216Y-94161057D01*
X146962788Y-94149114D01*
X146977377Y-94140691D01*
X147042712Y-94102970D01*
X147355470Y-93790212D01*
X147401614Y-93710288D01*
X147411203Y-93674500D01*
X147420578Y-93639512D01*
X147425500Y-93621145D01*
X147425500Y-88728853D01*
X147401614Y-88639713D01*
X147401613Y-88639711D01*
X147400768Y-88638247D01*
X147400766Y-88638244D01*
X147391465Y-88622133D01*
X147355470Y-88559788D01*
X146940212Y-88144530D01*
X146938028Y-88143269D01*
X146860290Y-88098386D01*
X146860286Y-88098385D01*
X146771147Y-88074500D01*
X146771144Y-88074500D01*
X145424500Y-88074500D01*
X145389852Y-88060148D01*
X145375500Y-88025500D01*
X145375500Y-87705255D01*
X145375500Y-87705252D01*
X145363867Y-87646769D01*
X145337301Y-87607012D01*
X145319552Y-87580447D01*
X145275428Y-87550965D01*
X145253231Y-87536133D01*
X145194748Y-87524500D01*
X143155252Y-87524500D01*
X143096769Y-87536133D01*
X143030447Y-87580447D01*
X142988490Y-87643241D01*
X142986133Y-87646769D01*
X142974500Y-87705252D01*
X140365482Y-87705252D01*
X140353711Y-87698456D01*
X140310291Y-87673387D01*
X140310288Y-87673386D01*
X140296901Y-87669799D01*
X140262044Y-87660459D01*
X140221146Y-87649500D01*
X140221144Y-87649500D01*
X136815477Y-87649500D01*
X136780829Y-87635148D01*
X136689852Y-87544170D01*
X136675500Y-87509522D01*
X136675500Y-86280252D01*
X136924500Y-86280252D01*
X136924500Y-87119748D01*
X136936133Y-87178231D01*
X136942318Y-87187487D01*
X136980447Y-87244552D01*
X137002225Y-87259103D01*
X137046769Y-87288867D01*
X137105252Y-87300500D01*
X137105255Y-87300500D01*
X138044745Y-87300500D01*
X138044748Y-87300500D01*
X138103231Y-87288867D01*
X138169552Y-87244552D01*
X138184436Y-87222277D01*
X138215618Y-87201442D01*
X138225178Y-87200500D01*
X139759311Y-87200500D01*
X139789430Y-87192428D01*
X139849673Y-87176286D01*
X139873887Y-87169799D01*
X139976614Y-87110489D01*
X140385489Y-86701614D01*
X140435662Y-86614712D01*
X140444799Y-86598886D01*
X140463731Y-86528231D01*
X140475500Y-86484311D01*
X140475500Y-83499500D01*
X140489852Y-83464852D01*
X140524500Y-83450500D01*
X148343101Y-83450500D01*
X148377749Y-83464852D01*
X148535148Y-83622251D01*
X148549500Y-83656899D01*
X148549500Y-84926251D01*
X148535148Y-84960899D01*
X148500500Y-84975251D01*
X148465852Y-84960899D01*
X148453170Y-84938933D01*
X148450650Y-84929530D01*
X148448207Y-84920412D01*
X148395480Y-84829087D01*
X147870913Y-84304520D01*
X147779589Y-84251793D01*
X147779587Y-84251792D01*
X147677730Y-84224500D01*
X147677727Y-84224500D01*
X145424500Y-84224500D01*
X145389852Y-84210148D01*
X145375500Y-84175500D01*
X145375500Y-83905255D01*
X145375500Y-83905252D01*
X145363867Y-83846769D01*
X145337301Y-83807012D01*
X145319552Y-83780447D01*
X145279795Y-83753882D01*
X145253231Y-83736133D01*
X145194748Y-83724500D01*
X143155252Y-83724500D01*
X143096769Y-83736133D01*
X143030447Y-83780447D01*
X142986133Y-83846769D01*
X142974500Y-83905252D01*
X142974500Y-85344748D01*
X142986133Y-85403231D01*
X143003882Y-85429795D01*
X143030447Y-85469552D01*
X143053244Y-85484784D01*
X143096769Y-85513867D01*
X143155252Y-85525500D01*
X143155255Y-85525500D01*
X145194745Y-85525500D01*
X145194748Y-85525500D01*
X145253231Y-85513867D01*
X145319552Y-85469552D01*
X145363867Y-85403231D01*
X145375500Y-85344748D01*
X145375500Y-85074500D01*
X145389852Y-85039852D01*
X145424500Y-85025500D01*
X147438811Y-85025500D01*
X147473459Y-85039852D01*
X147660148Y-85226541D01*
X147674500Y-85261189D01*
X147674500Y-94188811D01*
X147660148Y-94223459D01*
X147475959Y-94407648D01*
X147441311Y-94422000D01*
X144842270Y-94422000D01*
X144740417Y-94449291D01*
X144740411Y-94449294D01*
X144712454Y-94465435D01*
X144687954Y-94472000D01*
X144425252Y-94472000D01*
X144366769Y-94483633D01*
X144300447Y-94527947D01*
X144256133Y-94594269D01*
X144244500Y-94652752D01*
X144244500Y-94992248D01*
X144252255Y-95031236D01*
X144256133Y-95050733D01*
X144257384Y-95053752D01*
X144257384Y-95091248D01*
X144256133Y-95094266D01*
X144250316Y-95123510D01*
X144244500Y-95152752D01*
X144244500Y-95492248D01*
X144256133Y-95550731D01*
X144274747Y-95578588D01*
X144287903Y-95598277D01*
X144295220Y-95635059D01*
X144274384Y-95666242D01*
X144247161Y-95674500D01*
X143742839Y-95674500D01*
X143708191Y-95660148D01*
X143693839Y-95625500D01*
X143702097Y-95598277D01*
X143733867Y-95550731D01*
X143745500Y-95492248D01*
X143745500Y-95152752D01*
X143733867Y-95094269D01*
X143733865Y-95094266D01*
X143733865Y-95094265D01*
X143732618Y-95091253D01*
X143732616Y-95053750D01*
X143732618Y-95053747D01*
X143733865Y-95050734D01*
X143733865Y-95050733D01*
X143733867Y-95050731D01*
X143745500Y-94992248D01*
X143745500Y-94652752D01*
X143733867Y-94594269D01*
X143707301Y-94554512D01*
X143689552Y-94527947D01*
X143646584Y-94499237D01*
X143623231Y-94483633D01*
X143564748Y-94472000D01*
X142925252Y-94472000D01*
X142866769Y-94483633D01*
X142800447Y-94527947D01*
X142756133Y-94594269D01*
X142744500Y-94652752D01*
X142744500Y-94992248D01*
X142752255Y-95031236D01*
X142756133Y-95050733D01*
X142757384Y-95053752D01*
X142757384Y-95091248D01*
X142756133Y-95094266D01*
X142750316Y-95123510D01*
X142744500Y-95152752D01*
X142744500Y-95492248D01*
X142756133Y-95550731D01*
X142774747Y-95578588D01*
X142787903Y-95598277D01*
X142795220Y-95635059D01*
X142774384Y-95666242D01*
X142747161Y-95674500D01*
X142674500Y-95674500D01*
X142639852Y-95660148D01*
X142625500Y-95625500D01*
X142625500Y-93770095D01*
X142639852Y-93735447D01*
X142674500Y-93721095D01*
X142687182Y-93722765D01*
X142790688Y-93750500D01*
X142790691Y-93750500D01*
X142909311Y-93750500D01*
X142966597Y-93735149D01*
X143023886Y-93719799D01*
X143040360Y-93710288D01*
X143093573Y-93679565D01*
X143118073Y-93673000D01*
X143564745Y-93673000D01*
X143564748Y-93673000D01*
X143623231Y-93661367D01*
X143689552Y-93617052D01*
X143733867Y-93550731D01*
X143745500Y-93492248D01*
X143745500Y-93152752D01*
X143733867Y-93094269D01*
X143690157Y-93028853D01*
X143689552Y-93027947D01*
X143644349Y-92997744D01*
X143623231Y-92983633D01*
X143564748Y-92972000D01*
X143564745Y-92972000D01*
X143179398Y-92972000D01*
X143144750Y-92957648D01*
X143126613Y-92939511D01*
X143023887Y-92880201D01*
X143023884Y-92880200D01*
X142909312Y-92849500D01*
X142909309Y-92849500D01*
X142790691Y-92849500D01*
X142790688Y-92849500D01*
X142687182Y-92877235D01*
X142650000Y-92872340D01*
X142627170Y-92842587D01*
X142625500Y-92829905D01*
X142625500Y-91165688D01*
X142596469Y-91057346D01*
X142596468Y-91057342D01*
X142596468Y-91057343D01*
X142594799Y-91051114D01*
X142594799Y-91051113D01*
X142535489Y-90948386D01*
X142301614Y-90714511D01*
X142294345Y-90710314D01*
X142198890Y-90655202D01*
X142198887Y-90655201D01*
X142173452Y-90648386D01*
X142143737Y-90640424D01*
X142084311Y-90624500D01*
X142084309Y-90624500D01*
X141566337Y-90624500D01*
X141531689Y-90610148D01*
X141521067Y-90594251D01*
X141520867Y-90593769D01*
X141476552Y-90527447D01*
X141436795Y-90500882D01*
X141410231Y-90483133D01*
X141351748Y-90471500D01*
X140448252Y-90471500D01*
X140389769Y-90483133D01*
X140323447Y-90527447D01*
X140294681Y-90570500D01*
X140279133Y-90593769D01*
X140267500Y-90652252D01*
X140267500Y-91497748D01*
X140279133Y-91556231D01*
X140288034Y-91569552D01*
X140323447Y-91622552D01*
X140350012Y-91640301D01*
X140389769Y-91666867D01*
X140448252Y-91678500D01*
X140448255Y-91678500D01*
X141351745Y-91678500D01*
X141351748Y-91678500D01*
X141410231Y-91666867D01*
X141476552Y-91622552D01*
X141520867Y-91556231D01*
X141520867Y-91556229D01*
X141521067Y-91555749D01*
X141521435Y-91555380D01*
X141523548Y-91552219D01*
X141524176Y-91552639D01*
X141547585Y-91529230D01*
X141566337Y-91525500D01*
X141675500Y-91525500D01*
X141710148Y-91539852D01*
X141724500Y-91574500D01*
X141724500Y-95984310D01*
X141732686Y-96014861D01*
X141747935Y-96071769D01*
X141754037Y-96094541D01*
X141755202Y-96098890D01*
X141796728Y-96170813D01*
X141814511Y-96201614D01*
X142098386Y-96485490D01*
X142201113Y-96544799D01*
X142225326Y-96551286D01*
X142270508Y-96563393D01*
X142315689Y-96575500D01*
X142315691Y-96575500D01*
X144275500Y-96575500D01*
X144310148Y-96589852D01*
X144324500Y-96624500D01*
X144324500Y-96624822D01*
X144310148Y-96659470D01*
X144302724Y-96665563D01*
X144280449Y-96680447D01*
X144280445Y-96680450D01*
X144245128Y-96733307D01*
X144236133Y-96746769D01*
X144224500Y-96805252D01*
X144224500Y-97744748D01*
X144236133Y-97803231D01*
X144237829Y-97805769D01*
X144280447Y-97869552D01*
X144286187Y-97873387D01*
X144346769Y-97913867D01*
X144405252Y-97925500D01*
X144405255Y-97925500D01*
X145244745Y-97925500D01*
X145244748Y-97925500D01*
X145303231Y-97913867D01*
X145369552Y-97869552D01*
X145413867Y-97803231D01*
X145425500Y-97744748D01*
X145425500Y-96805252D01*
X145413867Y-96746769D01*
X145372260Y-96684500D01*
X145369552Y-96680447D01*
X145303228Y-96636131D01*
X145264941Y-96628516D01*
X145233758Y-96607681D01*
X145225500Y-96580458D01*
X145225500Y-95722000D01*
X145239852Y-95687352D01*
X145274500Y-95673000D01*
X145364745Y-95673000D01*
X145364748Y-95673000D01*
X145423231Y-95661367D01*
X145489552Y-95617052D01*
X145533867Y-95550731D01*
X145545500Y-95492248D01*
X145545500Y-95272000D01*
X145559852Y-95237352D01*
X145594500Y-95223000D01*
X147680230Y-95223000D01*
X147680230Y-95222999D01*
X147782088Y-95195707D01*
X147873413Y-95142980D01*
X148316878Y-94699512D01*
X148316883Y-94699509D01*
X148320911Y-94695480D01*
X148320913Y-94695480D01*
X148395480Y-94620913D01*
X148448207Y-94529587D01*
X148452947Y-94511897D01*
X148453167Y-94511076D01*
X148475990Y-94481317D01*
X148513171Y-94476414D01*
X148542930Y-94499237D01*
X148549500Y-94523747D01*
X148549500Y-95834310D01*
X148553838Y-95850500D01*
X148571747Y-95917335D01*
X148576784Y-95936133D01*
X148580202Y-95948890D01*
X148614773Y-96008767D01*
X148639511Y-96051614D01*
X149173386Y-96585489D01*
X149276113Y-96644799D01*
X149300326Y-96651286D01*
X149334727Y-96660504D01*
X149390689Y-96675500D01*
X149390691Y-96675500D01*
X149866801Y-96675500D01*
X149901449Y-96689852D01*
X149907543Y-96697277D01*
X149975533Y-96799032D01*
X150100967Y-96924466D01*
X150159640Y-96963670D01*
X150248453Y-97023013D01*
X150412334Y-97090894D01*
X150412340Y-97090895D01*
X150412343Y-97090896D01*
X150586303Y-97125499D01*
X150586309Y-97125500D01*
X150763691Y-97125500D01*
X150937666Y-97090894D01*
X151101547Y-97023013D01*
X151249035Y-96924464D01*
X151374464Y-96799035D01*
X151473013Y-96651547D01*
X151540894Y-96487666D01*
X151575500Y-96313691D01*
X151575500Y-96136309D01*
X151569323Y-96105255D01*
X151540896Y-95962343D01*
X151540893Y-95962332D01*
X151473013Y-95798453D01*
X151390190Y-95674500D01*
X151374466Y-95650967D01*
X151249032Y-95525533D01*
X151161021Y-95466726D01*
X151101547Y-95426987D01*
X151101544Y-95426985D01*
X151101543Y-95426985D01*
X150937667Y-95359106D01*
X150937656Y-95359103D01*
X150763696Y-95324500D01*
X150763691Y-95324500D01*
X150586309Y-95324500D01*
X150586303Y-95324500D01*
X150412343Y-95359103D01*
X150412332Y-95359106D01*
X150248456Y-95426985D01*
X150100967Y-95525533D01*
X149975533Y-95650967D01*
X149907543Y-95752723D01*
X149876360Y-95773558D01*
X149866801Y-95774500D01*
X149656899Y-95774500D01*
X149622251Y-95760148D01*
X149464852Y-95602749D01*
X149450500Y-95568101D01*
X149450500Y-88036303D01*
X149749500Y-88036303D01*
X149749500Y-88213696D01*
X149784103Y-88387656D01*
X149784106Y-88387667D01*
X149840784Y-88524500D01*
X149851987Y-88551547D01*
X149881789Y-88596148D01*
X149950533Y-88699032D01*
X150075967Y-88824466D01*
X150099879Y-88840443D01*
X150223453Y-88923013D01*
X150387334Y-88990894D01*
X150387340Y-88990895D01*
X150387343Y-88990896D01*
X150561303Y-89025499D01*
X150561309Y-89025500D01*
X150738691Y-89025500D01*
X150912666Y-88990894D01*
X151076547Y-88923013D01*
X151224035Y-88824464D01*
X151349464Y-88699035D01*
X151448013Y-88551547D01*
X151515894Y-88387666D01*
X151550500Y-88213691D01*
X151550500Y-88036309D01*
X151528680Y-87926613D01*
X151515896Y-87862343D01*
X151515893Y-87862332D01*
X151499968Y-87823886D01*
X151448013Y-87698453D01*
X151369164Y-87580448D01*
X151349466Y-87550967D01*
X151224032Y-87425533D01*
X151136021Y-87366726D01*
X151076547Y-87326987D01*
X151076544Y-87326985D01*
X151076543Y-87326985D01*
X150912667Y-87259106D01*
X150912656Y-87259103D01*
X150738696Y-87224500D01*
X150738691Y-87224500D01*
X150561309Y-87224500D01*
X150561303Y-87224500D01*
X150387343Y-87259103D01*
X150387332Y-87259106D01*
X150223456Y-87326985D01*
X150075967Y-87425533D01*
X149950533Y-87550967D01*
X149851985Y-87698456D01*
X149784106Y-87862332D01*
X149784103Y-87862343D01*
X149749500Y-88036303D01*
X149450500Y-88036303D01*
X149450500Y-83390688D01*
X149421469Y-83282346D01*
X149421468Y-83282342D01*
X149421468Y-83282343D01*
X149419799Y-83276114D01*
X149419799Y-83276113D01*
X149360489Y-83173386D01*
X149140497Y-82953394D01*
X153772500Y-82953394D01*
X153772500Y-83146605D01*
X153802724Y-83337437D01*
X153802725Y-83337440D01*
X153862430Y-83521195D01*
X153950149Y-83693352D01*
X153950151Y-83693355D01*
X153981231Y-83736133D01*
X154061612Y-83846769D01*
X154063716Y-83849664D01*
X154063720Y-83849669D01*
X154200331Y-83986280D01*
X154200335Y-83986283D01*
X154200337Y-83986285D01*
X154356650Y-84099852D01*
X154528803Y-84187569D01*
X154712560Y-84247275D01*
X154903394Y-84277500D01*
X154903395Y-84277500D01*
X155096605Y-84277500D01*
X155096606Y-84277500D01*
X155287440Y-84247275D01*
X155471197Y-84187569D01*
X155643350Y-84099852D01*
X155799663Y-83986285D01*
X155799666Y-83986281D01*
X155799669Y-83986280D01*
X155936280Y-83849669D01*
X155936281Y-83849666D01*
X155936285Y-83849663D01*
X156049852Y-83693350D01*
X156137569Y-83521197D01*
X156197275Y-83337440D01*
X156227500Y-83146606D01*
X156227500Y-82953394D01*
X156197275Y-82762560D01*
X156137569Y-82578803D01*
X156049852Y-82406650D01*
X155936285Y-82250337D01*
X155936283Y-82250335D01*
X155936280Y-82250331D01*
X155799669Y-82113720D01*
X155799664Y-82113716D01*
X155643355Y-82000151D01*
X155643352Y-82000149D01*
X155471195Y-81912430D01*
X155287440Y-81852725D01*
X155287437Y-81852724D01*
X155140842Y-81829506D01*
X155096606Y-81822500D01*
X154903394Y-81822500D01*
X154867482Y-81828187D01*
X154712562Y-81852724D01*
X154712559Y-81852725D01*
X154528804Y-81912430D01*
X154356647Y-82000149D01*
X154356644Y-82000151D01*
X154200335Y-82113716D01*
X154063716Y-82250335D01*
X153950151Y-82406644D01*
X153950149Y-82406647D01*
X153862430Y-82578804D01*
X153802725Y-82762559D01*
X153802724Y-82762562D01*
X153772500Y-82953394D01*
X149140497Y-82953394D01*
X148826614Y-82639511D01*
X148826612Y-82639510D01*
X148723888Y-82580201D01*
X148723886Y-82580200D01*
X148699673Y-82573713D01*
X148646600Y-82559492D01*
X148609311Y-82549500D01*
X148609309Y-82549500D01*
X140240691Y-82549500D01*
X140240688Y-82549500D01*
X140150326Y-82573713D01*
X140126113Y-82580200D01*
X140126110Y-82580201D01*
X140023385Y-82639510D01*
X139664512Y-82998384D01*
X139664511Y-82998385D01*
X139605201Y-83101111D01*
X139603532Y-83107343D01*
X139603531Y-83107342D01*
X139603531Y-83107346D01*
X139574500Y-83215688D01*
X139574500Y-86218101D01*
X139560148Y-86252749D01*
X139527749Y-86285148D01*
X139493101Y-86299500D01*
X138269542Y-86299500D01*
X138234894Y-86285148D01*
X138221484Y-86260059D01*
X138213868Y-86221771D01*
X138169552Y-86155447D01*
X138129795Y-86128882D01*
X138103231Y-86111133D01*
X138044748Y-86099500D01*
X137105252Y-86099500D01*
X137046769Y-86111133D01*
X136980447Y-86155447D01*
X136938584Y-86218101D01*
X136936133Y-86221769D01*
X136924500Y-86280252D01*
X136675500Y-86280252D01*
X136675500Y-85653853D01*
X136651614Y-85564713D01*
X136651613Y-85564710D01*
X136630379Y-85527933D01*
X136605469Y-85484788D01*
X136540212Y-85419531D01*
X136215212Y-85094530D01*
X136135290Y-85048386D01*
X136135286Y-85048385D01*
X136046147Y-85024500D01*
X136046144Y-85024500D01*
X133924510Y-85024500D01*
X133889862Y-85010148D01*
X133875510Y-84975500D01*
X133883768Y-84948277D01*
X133899655Y-84924500D01*
X133913867Y-84903231D01*
X133925500Y-84844748D01*
X133925500Y-83905252D01*
X133913867Y-83846769D01*
X133887301Y-83807012D01*
X133869552Y-83780447D01*
X133829795Y-83753882D01*
X133803231Y-83736133D01*
X133744748Y-83724500D01*
X132905252Y-83724500D01*
X132846769Y-83736133D01*
X132780447Y-83780447D01*
X132736133Y-83846769D01*
X132724500Y-83905252D01*
X132724500Y-84844748D01*
X132736133Y-84903231D01*
X132747612Y-84920410D01*
X132766232Y-84948277D01*
X132773548Y-84985060D01*
X132752713Y-85016242D01*
X132725490Y-85024500D01*
X130306263Y-85024500D01*
X130279750Y-85015499D01*
X130279394Y-85016117D01*
X130276613Y-85014511D01*
X130209045Y-84975500D01*
X130173887Y-84955201D01*
X130173884Y-84955200D01*
X130059312Y-84924500D01*
X130059309Y-84924500D01*
X129940691Y-84924500D01*
X129940688Y-84924500D01*
X129826115Y-84955200D01*
X129826112Y-84955201D01*
X129723386Y-85014511D01*
X129723386Y-85014512D01*
X129702750Y-85035148D01*
X129668102Y-85049500D01*
X126903853Y-85049500D01*
X126814713Y-85073385D01*
X126814709Y-85073386D01*
X126734787Y-85119530D01*
X126734787Y-85119531D01*
X126394531Y-85459787D01*
X126394530Y-85459787D01*
X126365834Y-85509491D01*
X126348386Y-85539709D01*
X126348385Y-85539713D01*
X126324500Y-85628853D01*
X126324500Y-87343736D01*
X126315501Y-87370250D01*
X126316117Y-87370606D01*
X126314511Y-87373386D01*
X126314511Y-87373387D01*
X126306881Y-87386602D01*
X126255201Y-87476112D01*
X126255200Y-87476115D01*
X126224500Y-87590688D01*
X126224500Y-87709311D01*
X126255200Y-87823884D01*
X126255201Y-87823887D01*
X126314511Y-87926613D01*
X126398387Y-88010489D01*
X126501114Y-88069799D01*
X126529758Y-88077474D01*
X126615688Y-88100500D01*
X126615691Y-88100500D01*
X126734311Y-88100500D01*
X126792950Y-88084787D01*
X126848886Y-88069799D01*
X126951613Y-88010489D01*
X127035489Y-87926613D01*
X127094799Y-87823886D01*
X127122329Y-87721144D01*
X127125500Y-87709311D01*
X127125500Y-87590688D01*
X127094799Y-87476115D01*
X127094798Y-87476112D01*
X127076983Y-87445257D01*
X127035489Y-87373387D01*
X127035488Y-87373386D01*
X127033883Y-87370606D01*
X127034498Y-87370250D01*
X127025500Y-87343736D01*
X127025500Y-85840478D01*
X127039852Y-85805830D01*
X127080830Y-85764852D01*
X127115478Y-85750500D01*
X129736258Y-85750500D01*
X129760756Y-85757064D01*
X129826114Y-85794799D01*
X129854758Y-85802474D01*
X129940688Y-85825500D01*
X129940691Y-85825500D01*
X130059311Y-85825500D01*
X130120335Y-85809148D01*
X130173886Y-85794799D01*
X130276613Y-85735489D01*
X130276613Y-85735488D01*
X130279394Y-85733883D01*
X130279750Y-85734500D01*
X130306263Y-85725500D01*
X130360522Y-85725500D01*
X130395170Y-85739852D01*
X130409522Y-85774500D01*
X130395170Y-85809148D01*
X129669170Y-86535148D01*
X129634522Y-86549500D01*
X129501542Y-86549500D01*
X129466894Y-86535148D01*
X129460800Y-86527723D01*
X129432552Y-86485447D01*
X129380249Y-86450500D01*
X129366231Y-86441133D01*
X129307748Y-86429500D01*
X128702252Y-86429500D01*
X128658389Y-86438224D01*
X128643768Y-86441133D01*
X128602223Y-86468893D01*
X128565440Y-86476209D01*
X128547777Y-86468893D01*
X128506231Y-86441133D01*
X128447748Y-86429500D01*
X127842252Y-86429500D01*
X127783769Y-86441133D01*
X127717447Y-86485447D01*
X127684239Y-86535148D01*
X127673133Y-86551769D01*
X127661500Y-86610252D01*
X127661500Y-86610255D01*
X127661500Y-87189750D01*
X127673558Y-87250366D01*
X127674500Y-87259926D01*
X127674500Y-88150500D01*
X127660148Y-88185148D01*
X127625500Y-88199500D01*
X127284105Y-88199500D01*
X127156815Y-88233607D01*
X127156811Y-88233608D01*
X127042685Y-88299500D01*
X127042685Y-88299501D01*
X126724501Y-88617685D01*
X126724500Y-88617685D01*
X126658608Y-88731811D01*
X126658607Y-88731815D01*
X126624500Y-88859104D01*
X126624500Y-89100500D01*
X126610148Y-89135148D01*
X126575500Y-89149500D01*
X125219500Y-89149500D01*
X125184852Y-89135148D01*
X125170500Y-89100500D01*
X125170500Y-88791255D01*
X125170500Y-88791252D01*
X125158867Y-88732769D01*
X125132301Y-88693012D01*
X125114552Y-88666447D01*
X125072342Y-88638244D01*
X125048231Y-88622133D01*
X124989748Y-88610500D01*
X124989745Y-88610500D01*
X124974500Y-88610500D01*
X124939852Y-88596148D01*
X124925500Y-88561500D01*
X124925500Y-83227522D01*
X124891628Y-83101114D01*
X124887984Y-83087515D01*
X124887983Y-83087514D01*
X124887983Y-83087512D01*
X124854894Y-83030201D01*
X124854893Y-83030200D01*
X124815512Y-82961988D01*
X124815507Y-82961982D01*
X124413017Y-82559492D01*
X124413015Y-82559490D01*
X124413012Y-82559488D01*
X124413008Y-82559485D01*
X124287487Y-82487016D01*
X124287483Y-82487015D01*
X124147478Y-82449500D01*
X124147475Y-82449500D01*
X120252525Y-82449500D01*
X120252522Y-82449500D01*
X120112516Y-82487015D01*
X120112512Y-82487016D01*
X119986991Y-82559485D01*
X119986982Y-82559492D01*
X119684492Y-82861982D01*
X119684487Y-82861988D01*
X119639051Y-82940690D01*
X119639050Y-82940691D01*
X119612016Y-82987513D01*
X119612015Y-82987516D01*
X119574500Y-83127522D01*
X119574500Y-84022477D01*
X119612015Y-84162483D01*
X119612016Y-84162487D01*
X119663578Y-84251793D01*
X119684491Y-84288015D01*
X119786985Y-84390509D01*
X119832930Y-84417035D01*
X119912512Y-84462983D01*
X119912514Y-84462983D01*
X119912515Y-84462984D01*
X119947517Y-84472363D01*
X120052522Y-84500500D01*
X120052525Y-84500500D01*
X120197477Y-84500500D01*
X120267480Y-84481742D01*
X120337485Y-84462984D01*
X120463015Y-84390509D01*
X120565509Y-84288015D01*
X120637984Y-84162485D01*
X120656742Y-84092480D01*
X120675500Y-84022477D01*
X120675500Y-83599500D01*
X120689852Y-83564852D01*
X120724500Y-83550500D01*
X123775500Y-83550500D01*
X123810148Y-83564852D01*
X123824500Y-83599500D01*
X123824500Y-86600500D01*
X123810148Y-86635148D01*
X123775500Y-86649500D01*
X122574500Y-86649500D01*
X122539852Y-86635148D01*
X122525500Y-86600500D01*
X122525500Y-85877522D01*
X122487984Y-85737516D01*
X122487983Y-85737512D01*
X122439682Y-85653853D01*
X122415509Y-85611985D01*
X122313015Y-85509491D01*
X122270239Y-85484794D01*
X122187487Y-85437016D01*
X122187483Y-85437015D01*
X122047478Y-85399500D01*
X122047475Y-85399500D01*
X120075514Y-85399500D01*
X120048292Y-85391242D01*
X120003231Y-85361133D01*
X119944748Y-85349500D01*
X119105252Y-85349500D01*
X119046769Y-85361133D01*
X118980447Y-85405447D01*
X118937614Y-85469552D01*
X118936133Y-85471769D01*
X118924500Y-85530252D01*
X111615328Y-85530252D01*
X111610685Y-82953394D01*
X111997500Y-82953394D01*
X111997500Y-83146605D01*
X112027724Y-83337437D01*
X112027725Y-83337440D01*
X112087430Y-83521195D01*
X112175149Y-83693352D01*
X112175151Y-83693355D01*
X112206231Y-83736133D01*
X112286612Y-83846769D01*
X112288716Y-83849664D01*
X112288720Y-83849669D01*
X112425331Y-83986280D01*
X112425335Y-83986283D01*
X112425337Y-83986285D01*
X112581650Y-84099852D01*
X112753803Y-84187569D01*
X112937560Y-84247275D01*
X113128394Y-84277500D01*
X113128395Y-84277500D01*
X113321605Y-84277500D01*
X113321606Y-84277500D01*
X113512440Y-84247275D01*
X113696197Y-84187569D01*
X113868350Y-84099852D01*
X114024663Y-83986285D01*
X114024666Y-83986281D01*
X114024669Y-83986280D01*
X114161280Y-83849669D01*
X114161281Y-83849666D01*
X114161285Y-83849663D01*
X114274852Y-83693350D01*
X114362569Y-83521197D01*
X114422275Y-83337440D01*
X114452500Y-83146606D01*
X114452500Y-82953394D01*
X114422275Y-82762560D01*
X114362569Y-82578803D01*
X114274852Y-82406650D01*
X114161285Y-82250337D01*
X114161283Y-82250335D01*
X114161280Y-82250331D01*
X114024669Y-82113720D01*
X114024664Y-82113716D01*
X113868355Y-82000151D01*
X113868352Y-82000149D01*
X113696195Y-81912430D01*
X113512440Y-81852725D01*
X113512437Y-81852724D01*
X113365842Y-81829506D01*
X113321606Y-81822500D01*
X113128394Y-81822500D01*
X113092482Y-81828187D01*
X112937562Y-81852724D01*
X112937559Y-81852725D01*
X112753804Y-81912430D01*
X112581647Y-82000149D01*
X112581644Y-82000151D01*
X112425335Y-82113716D01*
X112288716Y-82250335D01*
X112175151Y-82406644D01*
X112175149Y-82406647D01*
X112087430Y-82578804D01*
X112027725Y-82762559D01*
X112027724Y-82762562D01*
X111997500Y-82953394D01*
X111610685Y-82953394D01*
X111608065Y-81499134D01*
X111622354Y-81464461D01*
X111656976Y-81450047D01*
X156575476Y-81426355D01*
X156610130Y-81440688D01*
G37*
%TD.AperFunction*%
%TD*%
M02*
