%TF.GenerationSoftware,KiCad,Pcbnew,10.0.6*%
%TF.CreationDate,2026-10-01T22:24:04+03:00*%
%TF.ProjectId,Li-Po_Battery_Charger,4c692d50-6f5f-4426-9174-746572795f43,rev?*%
%TF.SameCoordinates,Original*%
%TF.FileFunction,Drillmap*%
%TF.FilePolarity,Positive*%
%FSLAX45Y45*%
G04 Gerber Fmt 4.5, Leading zero omitted, Abs format (unit mm)*
G04 Created by KiCad (PCBNEW 10.0.6) date 2026-10-01 22:24:04*
%MOMM*%
%LPD*%
G01*
G04 APERTURE LIST*
%ADD10C,0.050000*%
%ADD11C,0.200000*%
%ADD12C,0.220000*%
G04 APERTURE END LIST*
D10*
X11115000Y-10505000D02*
X11110658Y-8094984D01*
X11110658Y-8094984D02*
X15712500Y-8092557D01*
X15712500Y-8092557D02*
X15712500Y-10512340D01*
X15712500Y-10512340D02*
X11115000Y-10505000D01*
D11*
D12*
X11210000Y-10192500D02*
X11430000Y-10412500D01*
X11430000Y-10192500D02*
X11210000Y-10412500D01*
X11212500Y-8195000D02*
X11432500Y-8415000D01*
X11432500Y-8195000D02*
X11212500Y-8415000D01*
X15390000Y-8195000D02*
X15610000Y-8415000D01*
X15610000Y-8195000D02*
X15390000Y-8415000D01*
X15390000Y-10190000D02*
X15610000Y-10410000D01*
X15610000Y-10190000D02*
X15390000Y-10410000D01*
D11*
X11368934Y-10826324D02*
X11368934Y-10626324D01*
X11368934Y-10626324D02*
X11416553Y-10626324D01*
X11416553Y-10626324D02*
X11445125Y-10635848D01*
X11445125Y-10635848D02*
X11464172Y-10654896D01*
X11464172Y-10654896D02*
X11473696Y-10673943D01*
X11473696Y-10673943D02*
X11483220Y-10712038D01*
X11483220Y-10712038D02*
X11483220Y-10740610D01*
X11483220Y-10740610D02*
X11473696Y-10778705D01*
X11473696Y-10778705D02*
X11464172Y-10797753D01*
X11464172Y-10797753D02*
X11445125Y-10816800D01*
X11445125Y-10816800D02*
X11416553Y-10826324D01*
X11416553Y-10826324D02*
X11368934Y-10826324D01*
X11568934Y-10826324D02*
X11568934Y-10692991D01*
X11568934Y-10731086D02*
X11578458Y-10712038D01*
X11578458Y-10712038D02*
X11587982Y-10702515D01*
X11587982Y-10702515D02*
X11607030Y-10692991D01*
X11607030Y-10692991D02*
X11626077Y-10692991D01*
X11692744Y-10826324D02*
X11692744Y-10692991D01*
X11692744Y-10626324D02*
X11683220Y-10635848D01*
X11683220Y-10635848D02*
X11692744Y-10645372D01*
X11692744Y-10645372D02*
X11702268Y-10635848D01*
X11702268Y-10635848D02*
X11692744Y-10626324D01*
X11692744Y-10626324D02*
X11692744Y-10645372D01*
X11816553Y-10826324D02*
X11797506Y-10816800D01*
X11797506Y-10816800D02*
X11787982Y-10797753D01*
X11787982Y-10797753D02*
X11787982Y-10626324D01*
X11921315Y-10826324D02*
X11902268Y-10816800D01*
X11902268Y-10816800D02*
X11892744Y-10797753D01*
X11892744Y-10797753D02*
X11892744Y-10626324D01*
X12149887Y-10826324D02*
X12149887Y-10626324D01*
X12149887Y-10626324D02*
X12216553Y-10769181D01*
X12216553Y-10769181D02*
X12283220Y-10626324D01*
X12283220Y-10626324D02*
X12283220Y-10826324D01*
X12464172Y-10826324D02*
X12464172Y-10721562D01*
X12464172Y-10721562D02*
X12454649Y-10702515D01*
X12454649Y-10702515D02*
X12435601Y-10692991D01*
X12435601Y-10692991D02*
X12397506Y-10692991D01*
X12397506Y-10692991D02*
X12378458Y-10702515D01*
X12464172Y-10816800D02*
X12445125Y-10826324D01*
X12445125Y-10826324D02*
X12397506Y-10826324D01*
X12397506Y-10826324D02*
X12378458Y-10816800D01*
X12378458Y-10816800D02*
X12368934Y-10797753D01*
X12368934Y-10797753D02*
X12368934Y-10778705D01*
X12368934Y-10778705D02*
X12378458Y-10759657D01*
X12378458Y-10759657D02*
X12397506Y-10750134D01*
X12397506Y-10750134D02*
X12445125Y-10750134D01*
X12445125Y-10750134D02*
X12464172Y-10740610D01*
X12559411Y-10692991D02*
X12559411Y-10892991D01*
X12559411Y-10702515D02*
X12578458Y-10692991D01*
X12578458Y-10692991D02*
X12616553Y-10692991D01*
X12616553Y-10692991D02*
X12635601Y-10702515D01*
X12635601Y-10702515D02*
X12645125Y-10712038D01*
X12645125Y-10712038D02*
X12654649Y-10731086D01*
X12654649Y-10731086D02*
X12654649Y-10788229D01*
X12654649Y-10788229D02*
X12645125Y-10807276D01*
X12645125Y-10807276D02*
X12635601Y-10816800D01*
X12635601Y-10816800D02*
X12616553Y-10826324D01*
X12616553Y-10826324D02*
X12578458Y-10826324D01*
X12578458Y-10826324D02*
X12559411Y-10816800D01*
X12740363Y-10807276D02*
X12749887Y-10816800D01*
X12749887Y-10816800D02*
X12740363Y-10826324D01*
X12740363Y-10826324D02*
X12730839Y-10816800D01*
X12730839Y-10816800D02*
X12740363Y-10807276D01*
X12740363Y-10807276D02*
X12740363Y-10826324D01*
X12740363Y-10702515D02*
X12749887Y-10712038D01*
X12749887Y-10712038D02*
X12740363Y-10721562D01*
X12740363Y-10721562D02*
X12730839Y-10712038D01*
X12730839Y-10712038D02*
X12740363Y-10702515D01*
X12740363Y-10702515D02*
X12740363Y-10721562D01*
X10908158Y-11054840D02*
X11108158Y-11254840D01*
X11108158Y-11054840D02*
X10908158Y-11254840D01*
X11359411Y-11065372D02*
X11368934Y-11055848D01*
X11368934Y-11055848D02*
X11387982Y-11046324D01*
X11387982Y-11046324D02*
X11435601Y-11046324D01*
X11435601Y-11046324D02*
X11454649Y-11055848D01*
X11454649Y-11055848D02*
X11464172Y-11065372D01*
X11464172Y-11065372D02*
X11473696Y-11084419D01*
X11473696Y-11084419D02*
X11473696Y-11103467D01*
X11473696Y-11103467D02*
X11464172Y-11132038D01*
X11464172Y-11132038D02*
X11349887Y-11246324D01*
X11349887Y-11246324D02*
X11473696Y-11246324D01*
X11559411Y-11227276D02*
X11568934Y-11236800D01*
X11568934Y-11236800D02*
X11559411Y-11246324D01*
X11559411Y-11246324D02*
X11549887Y-11236800D01*
X11549887Y-11236800D02*
X11559411Y-11227276D01*
X11559411Y-11227276D02*
X11559411Y-11246324D01*
X11645125Y-11065372D02*
X11654649Y-11055848D01*
X11654649Y-11055848D02*
X11673696Y-11046324D01*
X11673696Y-11046324D02*
X11721315Y-11046324D01*
X11721315Y-11046324D02*
X11740363Y-11055848D01*
X11740363Y-11055848D02*
X11749887Y-11065372D01*
X11749887Y-11065372D02*
X11759411Y-11084419D01*
X11759411Y-11084419D02*
X11759411Y-11103467D01*
X11759411Y-11103467D02*
X11749887Y-11132038D01*
X11749887Y-11132038D02*
X11635601Y-11246324D01*
X11635601Y-11246324D02*
X11759411Y-11246324D01*
X11883220Y-11046324D02*
X11902268Y-11046324D01*
X11902268Y-11046324D02*
X11921315Y-11055848D01*
X11921315Y-11055848D02*
X11930839Y-11065372D01*
X11930839Y-11065372D02*
X11940363Y-11084419D01*
X11940363Y-11084419D02*
X11949887Y-11122515D01*
X11949887Y-11122515D02*
X11949887Y-11170134D01*
X11949887Y-11170134D02*
X11940363Y-11208229D01*
X11940363Y-11208229D02*
X11930839Y-11227276D01*
X11930839Y-11227276D02*
X11921315Y-11236800D01*
X11921315Y-11236800D02*
X11902268Y-11246324D01*
X11902268Y-11246324D02*
X11883220Y-11246324D01*
X11883220Y-11246324D02*
X11864172Y-11236800D01*
X11864172Y-11236800D02*
X11854649Y-11227276D01*
X11854649Y-11227276D02*
X11845125Y-11208229D01*
X11845125Y-11208229D02*
X11835601Y-11170134D01*
X11835601Y-11170134D02*
X11835601Y-11122515D01*
X11835601Y-11122515D02*
X11845125Y-11084419D01*
X11845125Y-11084419D02*
X11854649Y-11065372D01*
X11854649Y-11065372D02*
X11864172Y-11055848D01*
X11864172Y-11055848D02*
X11883220Y-11046324D01*
X12073696Y-11046324D02*
X12092744Y-11046324D01*
X12092744Y-11046324D02*
X12111792Y-11055848D01*
X12111792Y-11055848D02*
X12121315Y-11065372D01*
X12121315Y-11065372D02*
X12130839Y-11084419D01*
X12130839Y-11084419D02*
X12140363Y-11122515D01*
X12140363Y-11122515D02*
X12140363Y-11170134D01*
X12140363Y-11170134D02*
X12130839Y-11208229D01*
X12130839Y-11208229D02*
X12121315Y-11227276D01*
X12121315Y-11227276D02*
X12111792Y-11236800D01*
X12111792Y-11236800D02*
X12092744Y-11246324D01*
X12092744Y-11246324D02*
X12073696Y-11246324D01*
X12073696Y-11246324D02*
X12054649Y-11236800D01*
X12054649Y-11236800D02*
X12045125Y-11227276D01*
X12045125Y-11227276D02*
X12035601Y-11208229D01*
X12035601Y-11208229D02*
X12026077Y-11170134D01*
X12026077Y-11170134D02*
X12026077Y-11122515D01*
X12026077Y-11122515D02*
X12035601Y-11084419D01*
X12035601Y-11084419D02*
X12045125Y-11065372D01*
X12045125Y-11065372D02*
X12054649Y-11055848D01*
X12054649Y-11055848D02*
X12073696Y-11046324D01*
X12226077Y-11246324D02*
X12226077Y-11112991D01*
X12226077Y-11132038D02*
X12235601Y-11122515D01*
X12235601Y-11122515D02*
X12254649Y-11112991D01*
X12254649Y-11112991D02*
X12283220Y-11112991D01*
X12283220Y-11112991D02*
X12302268Y-11122515D01*
X12302268Y-11122515D02*
X12311792Y-11141562D01*
X12311792Y-11141562D02*
X12311792Y-11246324D01*
X12311792Y-11141562D02*
X12321315Y-11122515D01*
X12321315Y-11122515D02*
X12340363Y-11112991D01*
X12340363Y-11112991D02*
X12368934Y-11112991D01*
X12368934Y-11112991D02*
X12387982Y-11122515D01*
X12387982Y-11122515D02*
X12397506Y-11141562D01*
X12397506Y-11141562D02*
X12397506Y-11246324D01*
X12492744Y-11246324D02*
X12492744Y-11112991D01*
X12492744Y-11132038D02*
X12502268Y-11122515D01*
X12502268Y-11122515D02*
X12521315Y-11112991D01*
X12521315Y-11112991D02*
X12549887Y-11112991D01*
X12549887Y-11112991D02*
X12568934Y-11122515D01*
X12568934Y-11122515D02*
X12578458Y-11141562D01*
X12578458Y-11141562D02*
X12578458Y-11246324D01*
X12578458Y-11141562D02*
X12587982Y-11122515D01*
X12587982Y-11122515D02*
X12607030Y-11112991D01*
X12607030Y-11112991D02*
X12635601Y-11112991D01*
X12635601Y-11112991D02*
X12654649Y-11122515D01*
X12654649Y-11122515D02*
X12664173Y-11141562D01*
X12664173Y-11141562D02*
X12664173Y-11246324D01*
X13054649Y-11036800D02*
X12883220Y-11293943D01*
X13311792Y-11046324D02*
X13330839Y-11046324D01*
X13330839Y-11046324D02*
X13349887Y-11055848D01*
X13349887Y-11055848D02*
X13359411Y-11065372D01*
X13359411Y-11065372D02*
X13368935Y-11084419D01*
X13368935Y-11084419D02*
X13378458Y-11122515D01*
X13378458Y-11122515D02*
X13378458Y-11170134D01*
X13378458Y-11170134D02*
X13368935Y-11208229D01*
X13368935Y-11208229D02*
X13359411Y-11227276D01*
X13359411Y-11227276D02*
X13349887Y-11236800D01*
X13349887Y-11236800D02*
X13330839Y-11246324D01*
X13330839Y-11246324D02*
X13311792Y-11246324D01*
X13311792Y-11246324D02*
X13292744Y-11236800D01*
X13292744Y-11236800D02*
X13283220Y-11227276D01*
X13283220Y-11227276D02*
X13273696Y-11208229D01*
X13273696Y-11208229D02*
X13264173Y-11170134D01*
X13264173Y-11170134D02*
X13264173Y-11122515D01*
X13264173Y-11122515D02*
X13273696Y-11084419D01*
X13273696Y-11084419D02*
X13283220Y-11065372D01*
X13283220Y-11065372D02*
X13292744Y-11055848D01*
X13292744Y-11055848D02*
X13311792Y-11046324D01*
X13464173Y-11227276D02*
X13473696Y-11236800D01*
X13473696Y-11236800D02*
X13464173Y-11246324D01*
X13464173Y-11246324D02*
X13454649Y-11236800D01*
X13454649Y-11236800D02*
X13464173Y-11227276D01*
X13464173Y-11227276D02*
X13464173Y-11246324D01*
X13597506Y-11046324D02*
X13616554Y-11046324D01*
X13616554Y-11046324D02*
X13635601Y-11055848D01*
X13635601Y-11055848D02*
X13645125Y-11065372D01*
X13645125Y-11065372D02*
X13654649Y-11084419D01*
X13654649Y-11084419D02*
X13664173Y-11122515D01*
X13664173Y-11122515D02*
X13664173Y-11170134D01*
X13664173Y-11170134D02*
X13654649Y-11208229D01*
X13654649Y-11208229D02*
X13645125Y-11227276D01*
X13645125Y-11227276D02*
X13635601Y-11236800D01*
X13635601Y-11236800D02*
X13616554Y-11246324D01*
X13616554Y-11246324D02*
X13597506Y-11246324D01*
X13597506Y-11246324D02*
X13578458Y-11236800D01*
X13578458Y-11236800D02*
X13568935Y-11227276D01*
X13568935Y-11227276D02*
X13559411Y-11208229D01*
X13559411Y-11208229D02*
X13549887Y-11170134D01*
X13549887Y-11170134D02*
X13549887Y-11122515D01*
X13549887Y-11122515D02*
X13559411Y-11084419D01*
X13559411Y-11084419D02*
X13568935Y-11065372D01*
X13568935Y-11065372D02*
X13578458Y-11055848D01*
X13578458Y-11055848D02*
X13597506Y-11046324D01*
X13778458Y-11132038D02*
X13759411Y-11122515D01*
X13759411Y-11122515D02*
X13749887Y-11112991D01*
X13749887Y-11112991D02*
X13740363Y-11093943D01*
X13740363Y-11093943D02*
X13740363Y-11084419D01*
X13740363Y-11084419D02*
X13749887Y-11065372D01*
X13749887Y-11065372D02*
X13759411Y-11055848D01*
X13759411Y-11055848D02*
X13778458Y-11046324D01*
X13778458Y-11046324D02*
X13816554Y-11046324D01*
X13816554Y-11046324D02*
X13835601Y-11055848D01*
X13835601Y-11055848D02*
X13845125Y-11065372D01*
X13845125Y-11065372D02*
X13854649Y-11084419D01*
X13854649Y-11084419D02*
X13854649Y-11093943D01*
X13854649Y-11093943D02*
X13845125Y-11112991D01*
X13845125Y-11112991D02*
X13835601Y-11122515D01*
X13835601Y-11122515D02*
X13816554Y-11132038D01*
X13816554Y-11132038D02*
X13778458Y-11132038D01*
X13778458Y-11132038D02*
X13759411Y-11141562D01*
X13759411Y-11141562D02*
X13749887Y-11151086D01*
X13749887Y-11151086D02*
X13740363Y-11170134D01*
X13740363Y-11170134D02*
X13740363Y-11208229D01*
X13740363Y-11208229D02*
X13749887Y-11227276D01*
X13749887Y-11227276D02*
X13759411Y-11236800D01*
X13759411Y-11236800D02*
X13778458Y-11246324D01*
X13778458Y-11246324D02*
X13816554Y-11246324D01*
X13816554Y-11246324D02*
X13835601Y-11236800D01*
X13835601Y-11236800D02*
X13845125Y-11227276D01*
X13845125Y-11227276D02*
X13854649Y-11208229D01*
X13854649Y-11208229D02*
X13854649Y-11170134D01*
X13854649Y-11170134D02*
X13845125Y-11151086D01*
X13845125Y-11151086D02*
X13835601Y-11141562D01*
X13835601Y-11141562D02*
X13816554Y-11132038D01*
X14026077Y-11046324D02*
X13987982Y-11046324D01*
X13987982Y-11046324D02*
X13968935Y-11055848D01*
X13968935Y-11055848D02*
X13959411Y-11065372D01*
X13959411Y-11065372D02*
X13940363Y-11093943D01*
X13940363Y-11093943D02*
X13930839Y-11132038D01*
X13930839Y-11132038D02*
X13930839Y-11208229D01*
X13930839Y-11208229D02*
X13940363Y-11227276D01*
X13940363Y-11227276D02*
X13949887Y-11236800D01*
X13949887Y-11236800D02*
X13968935Y-11246324D01*
X13968935Y-11246324D02*
X14007030Y-11246324D01*
X14007030Y-11246324D02*
X14026077Y-11236800D01*
X14026077Y-11236800D02*
X14035601Y-11227276D01*
X14035601Y-11227276D02*
X14045125Y-11208229D01*
X14045125Y-11208229D02*
X14045125Y-11160610D01*
X14045125Y-11160610D02*
X14035601Y-11141562D01*
X14035601Y-11141562D02*
X14026077Y-11132038D01*
X14026077Y-11132038D02*
X14007030Y-11122515D01*
X14007030Y-11122515D02*
X13968935Y-11122515D01*
X13968935Y-11122515D02*
X13949887Y-11132038D01*
X13949887Y-11132038D02*
X13940363Y-11141562D01*
X13940363Y-11141562D02*
X13930839Y-11160610D01*
X14216554Y-11046324D02*
X14178458Y-11046324D01*
X14178458Y-11046324D02*
X14159411Y-11055848D01*
X14159411Y-11055848D02*
X14149887Y-11065372D01*
X14149887Y-11065372D02*
X14130839Y-11093943D01*
X14130839Y-11093943D02*
X14121316Y-11132038D01*
X14121316Y-11132038D02*
X14121316Y-11208229D01*
X14121316Y-11208229D02*
X14130839Y-11227276D01*
X14130839Y-11227276D02*
X14140363Y-11236800D01*
X14140363Y-11236800D02*
X14159411Y-11246324D01*
X14159411Y-11246324D02*
X14197506Y-11246324D01*
X14197506Y-11246324D02*
X14216554Y-11236800D01*
X14216554Y-11236800D02*
X14226077Y-11227276D01*
X14226077Y-11227276D02*
X14235601Y-11208229D01*
X14235601Y-11208229D02*
X14235601Y-11160610D01*
X14235601Y-11160610D02*
X14226077Y-11141562D01*
X14226077Y-11141562D02*
X14216554Y-11132038D01*
X14216554Y-11132038D02*
X14197506Y-11122515D01*
X14197506Y-11122515D02*
X14159411Y-11122515D01*
X14159411Y-11122515D02*
X14140363Y-11132038D01*
X14140363Y-11132038D02*
X14130839Y-11141562D01*
X14130839Y-11141562D02*
X14121316Y-11160610D01*
X14311792Y-11046324D02*
X14311792Y-11084419D01*
X14387982Y-11046324D02*
X14387982Y-11084419D01*
X14683220Y-11322514D02*
X14673697Y-11312991D01*
X14673697Y-11312991D02*
X14654649Y-11284419D01*
X14654649Y-11284419D02*
X14645125Y-11265372D01*
X14645125Y-11265372D02*
X14635601Y-11236800D01*
X14635601Y-11236800D02*
X14626078Y-11189181D01*
X14626078Y-11189181D02*
X14626078Y-11151086D01*
X14626078Y-11151086D02*
X14635601Y-11103467D01*
X14635601Y-11103467D02*
X14645125Y-11074896D01*
X14645125Y-11074896D02*
X14654649Y-11055848D01*
X14654649Y-11055848D02*
X14673697Y-11027276D01*
X14673697Y-11027276D02*
X14683220Y-11017753D01*
X14845125Y-11112991D02*
X14845125Y-11246324D01*
X14797506Y-11036800D02*
X14749887Y-11179657D01*
X14749887Y-11179657D02*
X14873697Y-11179657D01*
X15102268Y-11246324D02*
X15102268Y-11046324D01*
X15187982Y-11246324D02*
X15187982Y-11141562D01*
X15187982Y-11141562D02*
X15178459Y-11122515D01*
X15178459Y-11122515D02*
X15159411Y-11112991D01*
X15159411Y-11112991D02*
X15130839Y-11112991D01*
X15130839Y-11112991D02*
X15111792Y-11122515D01*
X15111792Y-11122515D02*
X15102268Y-11132038D01*
X15311792Y-11246324D02*
X15292744Y-11236800D01*
X15292744Y-11236800D02*
X15283220Y-11227276D01*
X15283220Y-11227276D02*
X15273697Y-11208229D01*
X15273697Y-11208229D02*
X15273697Y-11151086D01*
X15273697Y-11151086D02*
X15283220Y-11132038D01*
X15283220Y-11132038D02*
X15292744Y-11122515D01*
X15292744Y-11122515D02*
X15311792Y-11112991D01*
X15311792Y-11112991D02*
X15340363Y-11112991D01*
X15340363Y-11112991D02*
X15359411Y-11122515D01*
X15359411Y-11122515D02*
X15368935Y-11132038D01*
X15368935Y-11132038D02*
X15378459Y-11151086D01*
X15378459Y-11151086D02*
X15378459Y-11208229D01*
X15378459Y-11208229D02*
X15368935Y-11227276D01*
X15368935Y-11227276D02*
X15359411Y-11236800D01*
X15359411Y-11236800D02*
X15340363Y-11246324D01*
X15340363Y-11246324D02*
X15311792Y-11246324D01*
X15492744Y-11246324D02*
X15473697Y-11236800D01*
X15473697Y-11236800D02*
X15464173Y-11217753D01*
X15464173Y-11217753D02*
X15464173Y-11046324D01*
X15645125Y-11236800D02*
X15626078Y-11246324D01*
X15626078Y-11246324D02*
X15587982Y-11246324D01*
X15587982Y-11246324D02*
X15568935Y-11236800D01*
X15568935Y-11236800D02*
X15559411Y-11217753D01*
X15559411Y-11217753D02*
X15559411Y-11141562D01*
X15559411Y-11141562D02*
X15568935Y-11122515D01*
X15568935Y-11122515D02*
X15587982Y-11112991D01*
X15587982Y-11112991D02*
X15626078Y-11112991D01*
X15626078Y-11112991D02*
X15645125Y-11122515D01*
X15645125Y-11122515D02*
X15654649Y-11141562D01*
X15654649Y-11141562D02*
X15654649Y-11160610D01*
X15654649Y-11160610D02*
X15559411Y-11179657D01*
X15730840Y-11236800D02*
X15749887Y-11246324D01*
X15749887Y-11246324D02*
X15787982Y-11246324D01*
X15787982Y-11246324D02*
X15807030Y-11236800D01*
X15807030Y-11236800D02*
X15816554Y-11217753D01*
X15816554Y-11217753D02*
X15816554Y-11208229D01*
X15816554Y-11208229D02*
X15807030Y-11189181D01*
X15807030Y-11189181D02*
X15787982Y-11179657D01*
X15787982Y-11179657D02*
X15759411Y-11179657D01*
X15759411Y-11179657D02*
X15740363Y-11170134D01*
X15740363Y-11170134D02*
X15730840Y-11151086D01*
X15730840Y-11151086D02*
X15730840Y-11141562D01*
X15730840Y-11141562D02*
X15740363Y-11122515D01*
X15740363Y-11122515D02*
X15759411Y-11112991D01*
X15759411Y-11112991D02*
X15787982Y-11112991D01*
X15787982Y-11112991D02*
X15807030Y-11122515D01*
X15883221Y-11322514D02*
X15892744Y-11312991D01*
X15892744Y-11312991D02*
X15911792Y-11284419D01*
X15911792Y-11284419D02*
X15921316Y-11265372D01*
X15921316Y-11265372D02*
X15930840Y-11236800D01*
X15930840Y-11236800D02*
X15940363Y-11189181D01*
X15940363Y-11189181D02*
X15940363Y-11151086D01*
X15940363Y-11151086D02*
X15930840Y-11103467D01*
X15930840Y-11103467D02*
X15921316Y-11074896D01*
X15921316Y-11074896D02*
X15911792Y-11055848D01*
X15911792Y-11055848D02*
X15892744Y-11027276D01*
X15892744Y-11027276D02*
X15883221Y-11017753D01*
X16245125Y-11322514D02*
X16235601Y-11312991D01*
X16235601Y-11312991D02*
X16216554Y-11284419D01*
X16216554Y-11284419D02*
X16207030Y-11265372D01*
X16207030Y-11265372D02*
X16197506Y-11236800D01*
X16197506Y-11236800D02*
X16187982Y-11189181D01*
X16187982Y-11189181D02*
X16187982Y-11151086D01*
X16187982Y-11151086D02*
X16197506Y-11103467D01*
X16197506Y-11103467D02*
X16207030Y-11074896D01*
X16207030Y-11074896D02*
X16216554Y-11055848D01*
X16216554Y-11055848D02*
X16235601Y-11027276D01*
X16235601Y-11027276D02*
X16245125Y-11017753D01*
X16321316Y-11112991D02*
X16321316Y-11246324D01*
X16321316Y-11132038D02*
X16330840Y-11122515D01*
X16330840Y-11122515D02*
X16349887Y-11112991D01*
X16349887Y-11112991D02*
X16378459Y-11112991D01*
X16378459Y-11112991D02*
X16397506Y-11122515D01*
X16397506Y-11122515D02*
X16407030Y-11141562D01*
X16407030Y-11141562D02*
X16407030Y-11246324D01*
X16530840Y-11246324D02*
X16511792Y-11236800D01*
X16511792Y-11236800D02*
X16502268Y-11227276D01*
X16502268Y-11227276D02*
X16492744Y-11208229D01*
X16492744Y-11208229D02*
X16492744Y-11151086D01*
X16492744Y-11151086D02*
X16502268Y-11132038D01*
X16502268Y-11132038D02*
X16511792Y-11122515D01*
X16511792Y-11122515D02*
X16530840Y-11112991D01*
X16530840Y-11112991D02*
X16559411Y-11112991D01*
X16559411Y-11112991D02*
X16578459Y-11122515D01*
X16578459Y-11122515D02*
X16587982Y-11132038D01*
X16587982Y-11132038D02*
X16597506Y-11151086D01*
X16597506Y-11151086D02*
X16597506Y-11208229D01*
X16597506Y-11208229D02*
X16587982Y-11227276D01*
X16587982Y-11227276D02*
X16578459Y-11236800D01*
X16578459Y-11236800D02*
X16559411Y-11246324D01*
X16559411Y-11246324D02*
X16530840Y-11246324D01*
X16654649Y-11112991D02*
X16730840Y-11112991D01*
X16683221Y-11046324D02*
X16683221Y-11217753D01*
X16683221Y-11217753D02*
X16692744Y-11236800D01*
X16692744Y-11236800D02*
X16711792Y-11246324D01*
X16711792Y-11246324D02*
X16730840Y-11246324D01*
X16949887Y-11112991D02*
X16949887Y-11312991D01*
X16949887Y-11122515D02*
X16968935Y-11112991D01*
X16968935Y-11112991D02*
X17007030Y-11112991D01*
X17007030Y-11112991D02*
X17026078Y-11122515D01*
X17026078Y-11122515D02*
X17035602Y-11132038D01*
X17035602Y-11132038D02*
X17045125Y-11151086D01*
X17045125Y-11151086D02*
X17045125Y-11208229D01*
X17045125Y-11208229D02*
X17035602Y-11227276D01*
X17035602Y-11227276D02*
X17026078Y-11236800D01*
X17026078Y-11236800D02*
X17007030Y-11246324D01*
X17007030Y-11246324D02*
X16968935Y-11246324D01*
X16968935Y-11246324D02*
X16949887Y-11236800D01*
X17159411Y-11246324D02*
X17140364Y-11236800D01*
X17140364Y-11236800D02*
X17130840Y-11217753D01*
X17130840Y-11217753D02*
X17130840Y-11046324D01*
X17321316Y-11246324D02*
X17321316Y-11141562D01*
X17321316Y-11141562D02*
X17311792Y-11122515D01*
X17311792Y-11122515D02*
X17292745Y-11112991D01*
X17292745Y-11112991D02*
X17254649Y-11112991D01*
X17254649Y-11112991D02*
X17235602Y-11122515D01*
X17321316Y-11236800D02*
X17302268Y-11246324D01*
X17302268Y-11246324D02*
X17254649Y-11246324D01*
X17254649Y-11246324D02*
X17235602Y-11236800D01*
X17235602Y-11236800D02*
X17226078Y-11217753D01*
X17226078Y-11217753D02*
X17226078Y-11198705D01*
X17226078Y-11198705D02*
X17235602Y-11179657D01*
X17235602Y-11179657D02*
X17254649Y-11170134D01*
X17254649Y-11170134D02*
X17302268Y-11170134D01*
X17302268Y-11170134D02*
X17321316Y-11160610D01*
X17387983Y-11112991D02*
X17464173Y-11112991D01*
X17416554Y-11046324D02*
X17416554Y-11217753D01*
X17416554Y-11217753D02*
X17426078Y-11236800D01*
X17426078Y-11236800D02*
X17445125Y-11246324D01*
X17445125Y-11246324D02*
X17464173Y-11246324D01*
X17607030Y-11236800D02*
X17587983Y-11246324D01*
X17587983Y-11246324D02*
X17549887Y-11246324D01*
X17549887Y-11246324D02*
X17530840Y-11236800D01*
X17530840Y-11236800D02*
X17521316Y-11217753D01*
X17521316Y-11217753D02*
X17521316Y-11141562D01*
X17521316Y-11141562D02*
X17530840Y-11122515D01*
X17530840Y-11122515D02*
X17549887Y-11112991D01*
X17549887Y-11112991D02*
X17587983Y-11112991D01*
X17587983Y-11112991D02*
X17607030Y-11122515D01*
X17607030Y-11122515D02*
X17616554Y-11141562D01*
X17616554Y-11141562D02*
X17616554Y-11160610D01*
X17616554Y-11160610D02*
X17521316Y-11179657D01*
X17787983Y-11246324D02*
X17787983Y-11046324D01*
X17787983Y-11236800D02*
X17768935Y-11246324D01*
X17768935Y-11246324D02*
X17730840Y-11246324D01*
X17730840Y-11246324D02*
X17711792Y-11236800D01*
X17711792Y-11236800D02*
X17702268Y-11227276D01*
X17702268Y-11227276D02*
X17692745Y-11208229D01*
X17692745Y-11208229D02*
X17692745Y-11151086D01*
X17692745Y-11151086D02*
X17702268Y-11132038D01*
X17702268Y-11132038D02*
X17711792Y-11122515D01*
X17711792Y-11122515D02*
X17730840Y-11112991D01*
X17730840Y-11112991D02*
X17768935Y-11112991D01*
X17768935Y-11112991D02*
X17787983Y-11122515D01*
X17864173Y-11322514D02*
X17873697Y-11312991D01*
X17873697Y-11312991D02*
X17892745Y-11284419D01*
X17892745Y-11284419D02*
X17902268Y-11265372D01*
X17902268Y-11265372D02*
X17911792Y-11236800D01*
X17911792Y-11236800D02*
X17921316Y-11189181D01*
X17921316Y-11189181D02*
X17921316Y-11151086D01*
X17921316Y-11151086D02*
X17911792Y-11103467D01*
X17911792Y-11103467D02*
X17902268Y-11074896D01*
X17902268Y-11074896D02*
X17892745Y-11055848D01*
X17892745Y-11055848D02*
X17873697Y-11027276D01*
X17873697Y-11027276D02*
X17864173Y-11017753D01*
M02*
