%TF.GenerationSoftware,KiCad,Pcbnew,10.0.6*%
%TF.CreationDate,2026-09-28T21:23:33+03:00*%
%TF.ProjectId,Li-Po_Battery_Charger,4c692d50-6f5f-4426-9174-746572795f43,rev?*%
%TF.SameCoordinates,Original*%
%TF.FileFunction,Plated,1,2,PTH,Mixed*%
%TF.FilePolarity,Positive*%
%FSLAX46Y46*%
G04 Gerber Fmt 4.6, Leading zero omitted, Abs format (unit mm)*
G04 Created by KiCad (PCBNEW 10.0.6) date 2026-09-28 21:23:33*
%MOMM*%
%LPD*%
G01*
G04 APERTURE LIST*
%TA.AperFunction,ViaDrill*%
%ADD10C,0.150000*%
%TD*%
%TA.AperFunction,ViaDrill*%
%ADD11C,0.180000*%
%TD*%
%TA.AperFunction,ViaDrill*%
%ADD12C,0.200000*%
%TD*%
%TA.AperFunction,ViaDrill*%
%ADD13C,0.300000*%
%TD*%
%TA.AperFunction,ComponentDrill*%
%ADD14C,0.300000*%
%TD*%
%TA.AperFunction,ComponentDrill*%
%ADD15C,0.500000*%
%TD*%
G04 aperture for slot hole*
%TA.AperFunction,ComponentDrill*%
%ADD16C,0.599998*%
%TD*%
%TA.AperFunction,ComponentDrill*%
%ADD17C,0.849986*%
%TD*%
G04 APERTURE END LIST*
D10*
X193050000Y-70670000D03*
X193650000Y-72150000D03*
D11*
X190500000Y-67900000D03*
X192275000Y-64275000D03*
X192800000Y-64400000D03*
D12*
X191723000Y-69000000D03*
D13*
X179775000Y-55150000D03*
X186073000Y-67300000D03*
X186125000Y-56200000D03*
X186375000Y-63875000D03*
X187625000Y-69900000D03*
X188500000Y-63125000D03*
X189125000Y-55250000D03*
X190000000Y-69600000D03*
X190123000Y-63300000D03*
X190150000Y-64300000D03*
X190400000Y-61400000D03*
X191300000Y-62300000D03*
X193700000Y-71425000D03*
X193975000Y-61025000D03*
X194039854Y-64314854D03*
X194200000Y-58850000D03*
X194775000Y-62775000D03*
X195525000Y-66900000D03*
X196237500Y-58237500D03*
X197485714Y-73700000D03*
X197500000Y-66700000D03*
X203250000Y-69725000D03*
X203450000Y-61675000D03*
X203475000Y-65500000D03*
X205802000Y-65475000D03*
X206200000Y-67000000D03*
X206712500Y-67787500D03*
D14*
%TO.C,U2*%
X194400000Y-55075000D03*
X194400000Y-56075000D03*
X195400000Y-55075000D03*
X195400000Y-56075000D03*
D15*
%TO.C,USBC*%
X179250000Y-60975000D03*
X179250000Y-66755000D03*
D16*
X175200001Y-59545000D02*
X175999999Y-59545000D01*
X175200013Y-68185000D02*
X175999987Y-68185000D01*
X179199988Y-59545000D02*
X180300012Y-59545000D01*
X179199988Y-68185000D02*
X180300012Y-68185000D01*
D17*
%TO.C,BAT*%
X212425000Y-62775000D03*
X212425000Y-64775000D03*
M02*
