%TF.GenerationSoftware,KiCad,Pcbnew,10.0.6*%
%TF.CreationDate,2026-10-01T22:24:04+03:00*%
%TF.ProjectId,Li-Po_Battery_Charger,4c692d50-6f5f-4426-9174-746572795f43,rev?*%
%TF.SameCoordinates,Original*%
%TF.FileFunction,Plated,1,2,PTH,Mixed*%
%TF.FilePolarity,Positive*%
%FSLAX46Y46*%
G04 Gerber Fmt 4.6, Leading zero omitted, Abs format (unit mm)*
G04 Created by KiCad (PCBNEW 10.0.6) date 2026-10-01 22:24:04*
%MOMM*%
%LPD*%
G01*
G04 APERTURE LIST*
%TA.AperFunction,ViaDrill*%
%ADD10C,0.180000*%
%TD*%
%TA.AperFunction,ViaDrill*%
%ADD11C,0.200000*%
%TD*%
%TA.AperFunction,ViaDrill*%
%ADD12C,0.300000*%
%TD*%
%TA.AperFunction,ComponentDrill*%
%ADD13C,0.500000*%
%TD*%
G04 aperture for slot hole*
%TA.AperFunction,ComponentDrill*%
%ADD14C,0.599998*%
%TD*%
%TA.AperFunction,ComponentDrill*%
%ADD15C,0.849986*%
%TD*%
G04 APERTURE END LIST*
D10*
X131275000Y-88600000D03*
X135275000Y-89600000D03*
D11*
X118735000Y-92095000D03*
X118735000Y-95095000D03*
X143245000Y-94822500D03*
X144925000Y-94300000D03*
D12*
X121145000Y-92100000D03*
X121145000Y-95075000D03*
X121850000Y-99025000D03*
X125525000Y-93925000D03*
X126050000Y-97200000D03*
X126050000Y-98150000D03*
X126377354Y-92147646D03*
X126675000Y-87650000D03*
X128140000Y-90100000D03*
X128975000Y-96475000D03*
X130000000Y-85375000D03*
X130425000Y-95400000D03*
X130748000Y-88050000D03*
X130975000Y-100350000D03*
X131000000Y-98150000D03*
X131375000Y-94025000D03*
X131675000Y-87250000D03*
X132268251Y-86612679D03*
X132600000Y-89150000D03*
X132625000Y-89850000D03*
X132650000Y-88350000D03*
X132875000Y-87250000D03*
X133275000Y-88350000D03*
X133275000Y-89150000D03*
X133325000Y-84375000D03*
X133350000Y-89850000D03*
X134000000Y-88350000D03*
X134000000Y-89150000D03*
X134025000Y-89850000D03*
X135275000Y-87100000D03*
X135475000Y-90700000D03*
X137375000Y-86750000D03*
X137575000Y-85350000D03*
X137775000Y-94000000D03*
X140475000Y-89650000D03*
X140900000Y-94825000D03*
X142850000Y-93300000D03*
X142925000Y-94075000D03*
X143175000Y-90950000D03*
X143375000Y-97250000D03*
X144625000Y-90975000D03*
X144775000Y-96225000D03*
X145375000Y-100250000D03*
X146125000Y-92350000D03*
D13*
%TO.C,USB-C*%
X117730000Y-90460000D03*
X117730000Y-96240000D03*
D14*
X113680001Y-89030000D02*
X114479999Y-89030000D01*
X113680013Y-97670000D02*
X114479987Y-97670000D01*
X117679988Y-89030000D02*
X118780012Y-89030000D01*
X117679988Y-97670000D02*
X118780012Y-97670000D01*
D15*
%TO.C,Load*%
X150650000Y-88125000D03*
X150650000Y-90125000D03*
%TO.C,Battery*%
X150675000Y-96225000D03*
X150675000Y-98225000D03*
M02*
