%TF.GenerationSoftware,KiCad,Pcbnew,10.0.6*%
%TF.CreationDate,2026-09-28T21:23:33+03:00*%
%TF.ProjectId,Li-Po_Battery_Charger,4c692d50-6f5f-4426-9174-746572795f43,rev?*%
%TF.SameCoordinates,Original*%
%TF.FileFunction,Drillmap*%
%TF.FilePolarity,Positive*%
%FSLAX45Y45*%
G04 Gerber Fmt 4.5, Leading zero omitted, Abs format (unit mm)*
G04 Created by KiCad (PCBNEW 10.0.6) date 2026-09-28 21:23:33*
%MOMM*%
%LPD*%
G01*
G04 APERTURE LIST*
%ADD10C,0.050000*%
%ADD11C,0.200000*%
%ADD12C,0.220000*%
G04 APERTURE END LIST*
D10*
X17273158Y-5119984D02*
X21875000Y-5117557D01*
X17277500Y-7530000D02*
X17273158Y-5119984D01*
X21875000Y-5117557D02*
X21875000Y-7537340D01*
X21875000Y-7537340D02*
X17277500Y-7530000D01*
D11*
D12*
X17432500Y-5277500D02*
X17652500Y-5497500D01*
X17652500Y-5277500D02*
X17432500Y-5497500D01*
X17432500Y-7162500D02*
X17652500Y-7382500D01*
X17652500Y-7162500D02*
X17432500Y-7382500D01*
X21497500Y-5272500D02*
X21717500Y-5492500D01*
X21717500Y-5272500D02*
X21497500Y-5492500D01*
X21497500Y-7160000D02*
X21717500Y-7380000D01*
X21717500Y-7160000D02*
X21497500Y-7380000D01*
D11*
X17531434Y-7851324D02*
X17531434Y-7651324D01*
X17531434Y-7651324D02*
X17579053Y-7651324D01*
X17579053Y-7651324D02*
X17607625Y-7660848D01*
X17607625Y-7660848D02*
X17626673Y-7679895D01*
X17626673Y-7679895D02*
X17636196Y-7698943D01*
X17636196Y-7698943D02*
X17645720Y-7737038D01*
X17645720Y-7737038D02*
X17645720Y-7765610D01*
X17645720Y-7765610D02*
X17636196Y-7803705D01*
X17636196Y-7803705D02*
X17626673Y-7822753D01*
X17626673Y-7822753D02*
X17607625Y-7841800D01*
X17607625Y-7841800D02*
X17579053Y-7851324D01*
X17579053Y-7851324D02*
X17531434Y-7851324D01*
X17731434Y-7851324D02*
X17731434Y-7717991D01*
X17731434Y-7756086D02*
X17740958Y-7737038D01*
X17740958Y-7737038D02*
X17750482Y-7727514D01*
X17750482Y-7727514D02*
X17769530Y-7717991D01*
X17769530Y-7717991D02*
X17788577Y-7717991D01*
X17855244Y-7851324D02*
X17855244Y-7717991D01*
X17855244Y-7651324D02*
X17845720Y-7660848D01*
X17845720Y-7660848D02*
X17855244Y-7670372D01*
X17855244Y-7670372D02*
X17864768Y-7660848D01*
X17864768Y-7660848D02*
X17855244Y-7651324D01*
X17855244Y-7651324D02*
X17855244Y-7670372D01*
X17979053Y-7851324D02*
X17960006Y-7841800D01*
X17960006Y-7841800D02*
X17950482Y-7822753D01*
X17950482Y-7822753D02*
X17950482Y-7651324D01*
X18083815Y-7851324D02*
X18064768Y-7841800D01*
X18064768Y-7841800D02*
X18055244Y-7822753D01*
X18055244Y-7822753D02*
X18055244Y-7651324D01*
X18312387Y-7851324D02*
X18312387Y-7651324D01*
X18312387Y-7651324D02*
X18379054Y-7794181D01*
X18379054Y-7794181D02*
X18445720Y-7651324D01*
X18445720Y-7651324D02*
X18445720Y-7851324D01*
X18626673Y-7851324D02*
X18626673Y-7746562D01*
X18626673Y-7746562D02*
X18617149Y-7727514D01*
X18617149Y-7727514D02*
X18598101Y-7717991D01*
X18598101Y-7717991D02*
X18560006Y-7717991D01*
X18560006Y-7717991D02*
X18540958Y-7727514D01*
X18626673Y-7841800D02*
X18607625Y-7851324D01*
X18607625Y-7851324D02*
X18560006Y-7851324D01*
X18560006Y-7851324D02*
X18540958Y-7841800D01*
X18540958Y-7841800D02*
X18531434Y-7822753D01*
X18531434Y-7822753D02*
X18531434Y-7803705D01*
X18531434Y-7803705D02*
X18540958Y-7784657D01*
X18540958Y-7784657D02*
X18560006Y-7775134D01*
X18560006Y-7775134D02*
X18607625Y-7775134D01*
X18607625Y-7775134D02*
X18626673Y-7765610D01*
X18721911Y-7717991D02*
X18721911Y-7917991D01*
X18721911Y-7727514D02*
X18740958Y-7717991D01*
X18740958Y-7717991D02*
X18779054Y-7717991D01*
X18779054Y-7717991D02*
X18798101Y-7727514D01*
X18798101Y-7727514D02*
X18807625Y-7737038D01*
X18807625Y-7737038D02*
X18817149Y-7756086D01*
X18817149Y-7756086D02*
X18817149Y-7813229D01*
X18817149Y-7813229D02*
X18807625Y-7832276D01*
X18807625Y-7832276D02*
X18798101Y-7841800D01*
X18798101Y-7841800D02*
X18779054Y-7851324D01*
X18779054Y-7851324D02*
X18740958Y-7851324D01*
X18740958Y-7851324D02*
X18721911Y-7841800D01*
X18902863Y-7832276D02*
X18912387Y-7841800D01*
X18912387Y-7841800D02*
X18902863Y-7851324D01*
X18902863Y-7851324D02*
X18893339Y-7841800D01*
X18893339Y-7841800D02*
X18902863Y-7832276D01*
X18902863Y-7832276D02*
X18902863Y-7851324D01*
X18902863Y-7727514D02*
X18912387Y-7737038D01*
X18912387Y-7737038D02*
X18902863Y-7746562D01*
X18902863Y-7746562D02*
X18893339Y-7737038D01*
X18893339Y-7737038D02*
X18902863Y-7727514D01*
X18902863Y-7727514D02*
X18902863Y-7746562D01*
X17070658Y-8079840D02*
X17270658Y-8279840D01*
X17270658Y-8079840D02*
X17070658Y-8279840D01*
X17521911Y-8090372D02*
X17531434Y-8080848D01*
X17531434Y-8080848D02*
X17550482Y-8071324D01*
X17550482Y-8071324D02*
X17598101Y-8071324D01*
X17598101Y-8071324D02*
X17617149Y-8080848D01*
X17617149Y-8080848D02*
X17626673Y-8090372D01*
X17626673Y-8090372D02*
X17636196Y-8109419D01*
X17636196Y-8109419D02*
X17636196Y-8128467D01*
X17636196Y-8128467D02*
X17626673Y-8157038D01*
X17626673Y-8157038D02*
X17512387Y-8271324D01*
X17512387Y-8271324D02*
X17636196Y-8271324D01*
X17721911Y-8252276D02*
X17731434Y-8261800D01*
X17731434Y-8261800D02*
X17721911Y-8271324D01*
X17721911Y-8271324D02*
X17712387Y-8261800D01*
X17712387Y-8261800D02*
X17721911Y-8252276D01*
X17721911Y-8252276D02*
X17721911Y-8271324D01*
X17807625Y-8090372D02*
X17817149Y-8080848D01*
X17817149Y-8080848D02*
X17836196Y-8071324D01*
X17836196Y-8071324D02*
X17883815Y-8071324D01*
X17883815Y-8071324D02*
X17902863Y-8080848D01*
X17902863Y-8080848D02*
X17912387Y-8090372D01*
X17912387Y-8090372D02*
X17921911Y-8109419D01*
X17921911Y-8109419D02*
X17921911Y-8128467D01*
X17921911Y-8128467D02*
X17912387Y-8157038D01*
X17912387Y-8157038D02*
X17798101Y-8271324D01*
X17798101Y-8271324D02*
X17921911Y-8271324D01*
X18045720Y-8071324D02*
X18064768Y-8071324D01*
X18064768Y-8071324D02*
X18083815Y-8080848D01*
X18083815Y-8080848D02*
X18093339Y-8090372D01*
X18093339Y-8090372D02*
X18102863Y-8109419D01*
X18102863Y-8109419D02*
X18112387Y-8147514D01*
X18112387Y-8147514D02*
X18112387Y-8195134D01*
X18112387Y-8195134D02*
X18102863Y-8233229D01*
X18102863Y-8233229D02*
X18093339Y-8252276D01*
X18093339Y-8252276D02*
X18083815Y-8261800D01*
X18083815Y-8261800D02*
X18064768Y-8271324D01*
X18064768Y-8271324D02*
X18045720Y-8271324D01*
X18045720Y-8271324D02*
X18026673Y-8261800D01*
X18026673Y-8261800D02*
X18017149Y-8252276D01*
X18017149Y-8252276D02*
X18007625Y-8233229D01*
X18007625Y-8233229D02*
X17998101Y-8195134D01*
X17998101Y-8195134D02*
X17998101Y-8147514D01*
X17998101Y-8147514D02*
X18007625Y-8109419D01*
X18007625Y-8109419D02*
X18017149Y-8090372D01*
X18017149Y-8090372D02*
X18026673Y-8080848D01*
X18026673Y-8080848D02*
X18045720Y-8071324D01*
X18236196Y-8071324D02*
X18255244Y-8071324D01*
X18255244Y-8071324D02*
X18274292Y-8080848D01*
X18274292Y-8080848D02*
X18283815Y-8090372D01*
X18283815Y-8090372D02*
X18293339Y-8109419D01*
X18293339Y-8109419D02*
X18302863Y-8147514D01*
X18302863Y-8147514D02*
X18302863Y-8195134D01*
X18302863Y-8195134D02*
X18293339Y-8233229D01*
X18293339Y-8233229D02*
X18283815Y-8252276D01*
X18283815Y-8252276D02*
X18274292Y-8261800D01*
X18274292Y-8261800D02*
X18255244Y-8271324D01*
X18255244Y-8271324D02*
X18236196Y-8271324D01*
X18236196Y-8271324D02*
X18217149Y-8261800D01*
X18217149Y-8261800D02*
X18207625Y-8252276D01*
X18207625Y-8252276D02*
X18198101Y-8233229D01*
X18198101Y-8233229D02*
X18188577Y-8195134D01*
X18188577Y-8195134D02*
X18188577Y-8147514D01*
X18188577Y-8147514D02*
X18198101Y-8109419D01*
X18198101Y-8109419D02*
X18207625Y-8090372D01*
X18207625Y-8090372D02*
X18217149Y-8080848D01*
X18217149Y-8080848D02*
X18236196Y-8071324D01*
X18388577Y-8271324D02*
X18388577Y-8137991D01*
X18388577Y-8157038D02*
X18398101Y-8147514D01*
X18398101Y-8147514D02*
X18417149Y-8137991D01*
X18417149Y-8137991D02*
X18445720Y-8137991D01*
X18445720Y-8137991D02*
X18464768Y-8147514D01*
X18464768Y-8147514D02*
X18474292Y-8166562D01*
X18474292Y-8166562D02*
X18474292Y-8271324D01*
X18474292Y-8166562D02*
X18483815Y-8147514D01*
X18483815Y-8147514D02*
X18502863Y-8137991D01*
X18502863Y-8137991D02*
X18531434Y-8137991D01*
X18531434Y-8137991D02*
X18550482Y-8147514D01*
X18550482Y-8147514D02*
X18560006Y-8166562D01*
X18560006Y-8166562D02*
X18560006Y-8271324D01*
X18655244Y-8271324D02*
X18655244Y-8137991D01*
X18655244Y-8157038D02*
X18664768Y-8147514D01*
X18664768Y-8147514D02*
X18683815Y-8137991D01*
X18683815Y-8137991D02*
X18712387Y-8137991D01*
X18712387Y-8137991D02*
X18731435Y-8147514D01*
X18731435Y-8147514D02*
X18740958Y-8166562D01*
X18740958Y-8166562D02*
X18740958Y-8271324D01*
X18740958Y-8166562D02*
X18750482Y-8147514D01*
X18750482Y-8147514D02*
X18769530Y-8137991D01*
X18769530Y-8137991D02*
X18798101Y-8137991D01*
X18798101Y-8137991D02*
X18817149Y-8147514D01*
X18817149Y-8147514D02*
X18826673Y-8166562D01*
X18826673Y-8166562D02*
X18826673Y-8271324D01*
X19217149Y-8061800D02*
X19045720Y-8318943D01*
X19474292Y-8071324D02*
X19493339Y-8071324D01*
X19493339Y-8071324D02*
X19512387Y-8080848D01*
X19512387Y-8080848D02*
X19521911Y-8090372D01*
X19521911Y-8090372D02*
X19531435Y-8109419D01*
X19531435Y-8109419D02*
X19540958Y-8147514D01*
X19540958Y-8147514D02*
X19540958Y-8195134D01*
X19540958Y-8195134D02*
X19531435Y-8233229D01*
X19531435Y-8233229D02*
X19521911Y-8252276D01*
X19521911Y-8252276D02*
X19512387Y-8261800D01*
X19512387Y-8261800D02*
X19493339Y-8271324D01*
X19493339Y-8271324D02*
X19474292Y-8271324D01*
X19474292Y-8271324D02*
X19455244Y-8261800D01*
X19455244Y-8261800D02*
X19445720Y-8252276D01*
X19445720Y-8252276D02*
X19436197Y-8233229D01*
X19436197Y-8233229D02*
X19426673Y-8195134D01*
X19426673Y-8195134D02*
X19426673Y-8147514D01*
X19426673Y-8147514D02*
X19436197Y-8109419D01*
X19436197Y-8109419D02*
X19445720Y-8090372D01*
X19445720Y-8090372D02*
X19455244Y-8080848D01*
X19455244Y-8080848D02*
X19474292Y-8071324D01*
X19626673Y-8252276D02*
X19636197Y-8261800D01*
X19636197Y-8261800D02*
X19626673Y-8271324D01*
X19626673Y-8271324D02*
X19617149Y-8261800D01*
X19617149Y-8261800D02*
X19626673Y-8252276D01*
X19626673Y-8252276D02*
X19626673Y-8271324D01*
X19760006Y-8071324D02*
X19779054Y-8071324D01*
X19779054Y-8071324D02*
X19798101Y-8080848D01*
X19798101Y-8080848D02*
X19807625Y-8090372D01*
X19807625Y-8090372D02*
X19817149Y-8109419D01*
X19817149Y-8109419D02*
X19826673Y-8147514D01*
X19826673Y-8147514D02*
X19826673Y-8195134D01*
X19826673Y-8195134D02*
X19817149Y-8233229D01*
X19817149Y-8233229D02*
X19807625Y-8252276D01*
X19807625Y-8252276D02*
X19798101Y-8261800D01*
X19798101Y-8261800D02*
X19779054Y-8271324D01*
X19779054Y-8271324D02*
X19760006Y-8271324D01*
X19760006Y-8271324D02*
X19740958Y-8261800D01*
X19740958Y-8261800D02*
X19731435Y-8252276D01*
X19731435Y-8252276D02*
X19721911Y-8233229D01*
X19721911Y-8233229D02*
X19712387Y-8195134D01*
X19712387Y-8195134D02*
X19712387Y-8147514D01*
X19712387Y-8147514D02*
X19721911Y-8109419D01*
X19721911Y-8109419D02*
X19731435Y-8090372D01*
X19731435Y-8090372D02*
X19740958Y-8080848D01*
X19740958Y-8080848D02*
X19760006Y-8071324D01*
X19940958Y-8157038D02*
X19921911Y-8147514D01*
X19921911Y-8147514D02*
X19912387Y-8137991D01*
X19912387Y-8137991D02*
X19902863Y-8118943D01*
X19902863Y-8118943D02*
X19902863Y-8109419D01*
X19902863Y-8109419D02*
X19912387Y-8090372D01*
X19912387Y-8090372D02*
X19921911Y-8080848D01*
X19921911Y-8080848D02*
X19940958Y-8071324D01*
X19940958Y-8071324D02*
X19979054Y-8071324D01*
X19979054Y-8071324D02*
X19998101Y-8080848D01*
X19998101Y-8080848D02*
X20007625Y-8090372D01*
X20007625Y-8090372D02*
X20017149Y-8109419D01*
X20017149Y-8109419D02*
X20017149Y-8118943D01*
X20017149Y-8118943D02*
X20007625Y-8137991D01*
X20007625Y-8137991D02*
X19998101Y-8147514D01*
X19998101Y-8147514D02*
X19979054Y-8157038D01*
X19979054Y-8157038D02*
X19940958Y-8157038D01*
X19940958Y-8157038D02*
X19921911Y-8166562D01*
X19921911Y-8166562D02*
X19912387Y-8176086D01*
X19912387Y-8176086D02*
X19902863Y-8195134D01*
X19902863Y-8195134D02*
X19902863Y-8233229D01*
X19902863Y-8233229D02*
X19912387Y-8252276D01*
X19912387Y-8252276D02*
X19921911Y-8261800D01*
X19921911Y-8261800D02*
X19940958Y-8271324D01*
X19940958Y-8271324D02*
X19979054Y-8271324D01*
X19979054Y-8271324D02*
X19998101Y-8261800D01*
X19998101Y-8261800D02*
X20007625Y-8252276D01*
X20007625Y-8252276D02*
X20017149Y-8233229D01*
X20017149Y-8233229D02*
X20017149Y-8195134D01*
X20017149Y-8195134D02*
X20007625Y-8176086D01*
X20007625Y-8176086D02*
X19998101Y-8166562D01*
X19998101Y-8166562D02*
X19979054Y-8157038D01*
X20188578Y-8071324D02*
X20150482Y-8071324D01*
X20150482Y-8071324D02*
X20131435Y-8080848D01*
X20131435Y-8080848D02*
X20121911Y-8090372D01*
X20121911Y-8090372D02*
X20102863Y-8118943D01*
X20102863Y-8118943D02*
X20093339Y-8157038D01*
X20093339Y-8157038D02*
X20093339Y-8233229D01*
X20093339Y-8233229D02*
X20102863Y-8252276D01*
X20102863Y-8252276D02*
X20112387Y-8261800D01*
X20112387Y-8261800D02*
X20131435Y-8271324D01*
X20131435Y-8271324D02*
X20169530Y-8271324D01*
X20169530Y-8271324D02*
X20188578Y-8261800D01*
X20188578Y-8261800D02*
X20198101Y-8252276D01*
X20198101Y-8252276D02*
X20207625Y-8233229D01*
X20207625Y-8233229D02*
X20207625Y-8185610D01*
X20207625Y-8185610D02*
X20198101Y-8166562D01*
X20198101Y-8166562D02*
X20188578Y-8157038D01*
X20188578Y-8157038D02*
X20169530Y-8147514D01*
X20169530Y-8147514D02*
X20131435Y-8147514D01*
X20131435Y-8147514D02*
X20112387Y-8157038D01*
X20112387Y-8157038D02*
X20102863Y-8166562D01*
X20102863Y-8166562D02*
X20093339Y-8185610D01*
X20379054Y-8071324D02*
X20340958Y-8071324D01*
X20340958Y-8071324D02*
X20321911Y-8080848D01*
X20321911Y-8080848D02*
X20312387Y-8090372D01*
X20312387Y-8090372D02*
X20293339Y-8118943D01*
X20293339Y-8118943D02*
X20283816Y-8157038D01*
X20283816Y-8157038D02*
X20283816Y-8233229D01*
X20283816Y-8233229D02*
X20293339Y-8252276D01*
X20293339Y-8252276D02*
X20302863Y-8261800D01*
X20302863Y-8261800D02*
X20321911Y-8271324D01*
X20321911Y-8271324D02*
X20360006Y-8271324D01*
X20360006Y-8271324D02*
X20379054Y-8261800D01*
X20379054Y-8261800D02*
X20388578Y-8252276D01*
X20388578Y-8252276D02*
X20398101Y-8233229D01*
X20398101Y-8233229D02*
X20398101Y-8185610D01*
X20398101Y-8185610D02*
X20388578Y-8166562D01*
X20388578Y-8166562D02*
X20379054Y-8157038D01*
X20379054Y-8157038D02*
X20360006Y-8147514D01*
X20360006Y-8147514D02*
X20321911Y-8147514D01*
X20321911Y-8147514D02*
X20302863Y-8157038D01*
X20302863Y-8157038D02*
X20293339Y-8166562D01*
X20293339Y-8166562D02*
X20283816Y-8185610D01*
X20474292Y-8071324D02*
X20474292Y-8109419D01*
X20550482Y-8071324D02*
X20550482Y-8109419D01*
X20845721Y-8347514D02*
X20836197Y-8337991D01*
X20836197Y-8337991D02*
X20817149Y-8309419D01*
X20817149Y-8309419D02*
X20807625Y-8290372D01*
X20807625Y-8290372D02*
X20798101Y-8261800D01*
X20798101Y-8261800D02*
X20788578Y-8214181D01*
X20788578Y-8214181D02*
X20788578Y-8176086D01*
X20788578Y-8176086D02*
X20798101Y-8128467D01*
X20798101Y-8128467D02*
X20807625Y-8099895D01*
X20807625Y-8099895D02*
X20817149Y-8080848D01*
X20817149Y-8080848D02*
X20836197Y-8052276D01*
X20836197Y-8052276D02*
X20845721Y-8042753D01*
X21007625Y-8137991D02*
X21007625Y-8271324D01*
X20960006Y-8061800D02*
X20912387Y-8204657D01*
X20912387Y-8204657D02*
X21036197Y-8204657D01*
X21264768Y-8271324D02*
X21264768Y-8071324D01*
X21350482Y-8271324D02*
X21350482Y-8166562D01*
X21350482Y-8166562D02*
X21340959Y-8147514D01*
X21340959Y-8147514D02*
X21321911Y-8137991D01*
X21321911Y-8137991D02*
X21293340Y-8137991D01*
X21293340Y-8137991D02*
X21274292Y-8147514D01*
X21274292Y-8147514D02*
X21264768Y-8157038D01*
X21474292Y-8271324D02*
X21455244Y-8261800D01*
X21455244Y-8261800D02*
X21445721Y-8252276D01*
X21445721Y-8252276D02*
X21436197Y-8233229D01*
X21436197Y-8233229D02*
X21436197Y-8176086D01*
X21436197Y-8176086D02*
X21445721Y-8157038D01*
X21445721Y-8157038D02*
X21455244Y-8147514D01*
X21455244Y-8147514D02*
X21474292Y-8137991D01*
X21474292Y-8137991D02*
X21502863Y-8137991D01*
X21502863Y-8137991D02*
X21521911Y-8147514D01*
X21521911Y-8147514D02*
X21531435Y-8157038D01*
X21531435Y-8157038D02*
X21540959Y-8176086D01*
X21540959Y-8176086D02*
X21540959Y-8233229D01*
X21540959Y-8233229D02*
X21531435Y-8252276D01*
X21531435Y-8252276D02*
X21521911Y-8261800D01*
X21521911Y-8261800D02*
X21502863Y-8271324D01*
X21502863Y-8271324D02*
X21474292Y-8271324D01*
X21655244Y-8271324D02*
X21636197Y-8261800D01*
X21636197Y-8261800D02*
X21626673Y-8242753D01*
X21626673Y-8242753D02*
X21626673Y-8071324D01*
X21807625Y-8261800D02*
X21788578Y-8271324D01*
X21788578Y-8271324D02*
X21750482Y-8271324D01*
X21750482Y-8271324D02*
X21731435Y-8261800D01*
X21731435Y-8261800D02*
X21721911Y-8242753D01*
X21721911Y-8242753D02*
X21721911Y-8166562D01*
X21721911Y-8166562D02*
X21731435Y-8147514D01*
X21731435Y-8147514D02*
X21750482Y-8137991D01*
X21750482Y-8137991D02*
X21788578Y-8137991D01*
X21788578Y-8137991D02*
X21807625Y-8147514D01*
X21807625Y-8147514D02*
X21817149Y-8166562D01*
X21817149Y-8166562D02*
X21817149Y-8185610D01*
X21817149Y-8185610D02*
X21721911Y-8204657D01*
X21893340Y-8261800D02*
X21912387Y-8271324D01*
X21912387Y-8271324D02*
X21950482Y-8271324D01*
X21950482Y-8271324D02*
X21969530Y-8261800D01*
X21969530Y-8261800D02*
X21979054Y-8242753D01*
X21979054Y-8242753D02*
X21979054Y-8233229D01*
X21979054Y-8233229D02*
X21969530Y-8214181D01*
X21969530Y-8214181D02*
X21950482Y-8204657D01*
X21950482Y-8204657D02*
X21921911Y-8204657D01*
X21921911Y-8204657D02*
X21902863Y-8195134D01*
X21902863Y-8195134D02*
X21893340Y-8176086D01*
X21893340Y-8176086D02*
X21893340Y-8166562D01*
X21893340Y-8166562D02*
X21902863Y-8147514D01*
X21902863Y-8147514D02*
X21921911Y-8137991D01*
X21921911Y-8137991D02*
X21950482Y-8137991D01*
X21950482Y-8137991D02*
X21969530Y-8147514D01*
X22045721Y-8347514D02*
X22055244Y-8337991D01*
X22055244Y-8337991D02*
X22074292Y-8309419D01*
X22074292Y-8309419D02*
X22083816Y-8290372D01*
X22083816Y-8290372D02*
X22093340Y-8261800D01*
X22093340Y-8261800D02*
X22102863Y-8214181D01*
X22102863Y-8214181D02*
X22102863Y-8176086D01*
X22102863Y-8176086D02*
X22093340Y-8128467D01*
X22093340Y-8128467D02*
X22083816Y-8099895D01*
X22083816Y-8099895D02*
X22074292Y-8080848D01*
X22074292Y-8080848D02*
X22055244Y-8052276D01*
X22055244Y-8052276D02*
X22045721Y-8042753D01*
X22407625Y-8347514D02*
X22398101Y-8337991D01*
X22398101Y-8337991D02*
X22379054Y-8309419D01*
X22379054Y-8309419D02*
X22369530Y-8290372D01*
X22369530Y-8290372D02*
X22360006Y-8261800D01*
X22360006Y-8261800D02*
X22350483Y-8214181D01*
X22350483Y-8214181D02*
X22350483Y-8176086D01*
X22350483Y-8176086D02*
X22360006Y-8128467D01*
X22360006Y-8128467D02*
X22369530Y-8099895D01*
X22369530Y-8099895D02*
X22379054Y-8080848D01*
X22379054Y-8080848D02*
X22398101Y-8052276D01*
X22398101Y-8052276D02*
X22407625Y-8042753D01*
X22483816Y-8137991D02*
X22483816Y-8271324D01*
X22483816Y-8157038D02*
X22493340Y-8147514D01*
X22493340Y-8147514D02*
X22512387Y-8137991D01*
X22512387Y-8137991D02*
X22540959Y-8137991D01*
X22540959Y-8137991D02*
X22560006Y-8147514D01*
X22560006Y-8147514D02*
X22569530Y-8166562D01*
X22569530Y-8166562D02*
X22569530Y-8271324D01*
X22693340Y-8271324D02*
X22674292Y-8261800D01*
X22674292Y-8261800D02*
X22664768Y-8252276D01*
X22664768Y-8252276D02*
X22655244Y-8233229D01*
X22655244Y-8233229D02*
X22655244Y-8176086D01*
X22655244Y-8176086D02*
X22664768Y-8157038D01*
X22664768Y-8157038D02*
X22674292Y-8147514D01*
X22674292Y-8147514D02*
X22693340Y-8137991D01*
X22693340Y-8137991D02*
X22721911Y-8137991D01*
X22721911Y-8137991D02*
X22740959Y-8147514D01*
X22740959Y-8147514D02*
X22750482Y-8157038D01*
X22750482Y-8157038D02*
X22760006Y-8176086D01*
X22760006Y-8176086D02*
X22760006Y-8233229D01*
X22760006Y-8233229D02*
X22750482Y-8252276D01*
X22750482Y-8252276D02*
X22740959Y-8261800D01*
X22740959Y-8261800D02*
X22721911Y-8271324D01*
X22721911Y-8271324D02*
X22693340Y-8271324D01*
X22817149Y-8137991D02*
X22893340Y-8137991D01*
X22845721Y-8071324D02*
X22845721Y-8242753D01*
X22845721Y-8242753D02*
X22855244Y-8261800D01*
X22855244Y-8261800D02*
X22874292Y-8271324D01*
X22874292Y-8271324D02*
X22893340Y-8271324D01*
X23112387Y-8137991D02*
X23112387Y-8337991D01*
X23112387Y-8147514D02*
X23131435Y-8137991D01*
X23131435Y-8137991D02*
X23169530Y-8137991D01*
X23169530Y-8137991D02*
X23188578Y-8147514D01*
X23188578Y-8147514D02*
X23198102Y-8157038D01*
X23198102Y-8157038D02*
X23207625Y-8176086D01*
X23207625Y-8176086D02*
X23207625Y-8233229D01*
X23207625Y-8233229D02*
X23198102Y-8252276D01*
X23198102Y-8252276D02*
X23188578Y-8261800D01*
X23188578Y-8261800D02*
X23169530Y-8271324D01*
X23169530Y-8271324D02*
X23131435Y-8271324D01*
X23131435Y-8271324D02*
X23112387Y-8261800D01*
X23321911Y-8271324D02*
X23302863Y-8261800D01*
X23302863Y-8261800D02*
X23293340Y-8242753D01*
X23293340Y-8242753D02*
X23293340Y-8071324D01*
X23483816Y-8271324D02*
X23483816Y-8166562D01*
X23483816Y-8166562D02*
X23474292Y-8147514D01*
X23474292Y-8147514D02*
X23455244Y-8137991D01*
X23455244Y-8137991D02*
X23417149Y-8137991D01*
X23417149Y-8137991D02*
X23398102Y-8147514D01*
X23483816Y-8261800D02*
X23464768Y-8271324D01*
X23464768Y-8271324D02*
X23417149Y-8271324D01*
X23417149Y-8271324D02*
X23398102Y-8261800D01*
X23398102Y-8261800D02*
X23388578Y-8242753D01*
X23388578Y-8242753D02*
X23388578Y-8223705D01*
X23388578Y-8223705D02*
X23398102Y-8204657D01*
X23398102Y-8204657D02*
X23417149Y-8195134D01*
X23417149Y-8195134D02*
X23464768Y-8195134D01*
X23464768Y-8195134D02*
X23483816Y-8185610D01*
X23550483Y-8137991D02*
X23626673Y-8137991D01*
X23579054Y-8071324D02*
X23579054Y-8242753D01*
X23579054Y-8242753D02*
X23588578Y-8261800D01*
X23588578Y-8261800D02*
X23607625Y-8271324D01*
X23607625Y-8271324D02*
X23626673Y-8271324D01*
X23769530Y-8261800D02*
X23750483Y-8271324D01*
X23750483Y-8271324D02*
X23712387Y-8271324D01*
X23712387Y-8271324D02*
X23693340Y-8261800D01*
X23693340Y-8261800D02*
X23683816Y-8242753D01*
X23683816Y-8242753D02*
X23683816Y-8166562D01*
X23683816Y-8166562D02*
X23693340Y-8147514D01*
X23693340Y-8147514D02*
X23712387Y-8137991D01*
X23712387Y-8137991D02*
X23750483Y-8137991D01*
X23750483Y-8137991D02*
X23769530Y-8147514D01*
X23769530Y-8147514D02*
X23779054Y-8166562D01*
X23779054Y-8166562D02*
X23779054Y-8185610D01*
X23779054Y-8185610D02*
X23683816Y-8204657D01*
X23950483Y-8271324D02*
X23950483Y-8071324D01*
X23950483Y-8261800D02*
X23931435Y-8271324D01*
X23931435Y-8271324D02*
X23893340Y-8271324D01*
X23893340Y-8271324D02*
X23874292Y-8261800D01*
X23874292Y-8261800D02*
X23864768Y-8252276D01*
X23864768Y-8252276D02*
X23855244Y-8233229D01*
X23855244Y-8233229D02*
X23855244Y-8176086D01*
X23855244Y-8176086D02*
X23864768Y-8157038D01*
X23864768Y-8157038D02*
X23874292Y-8147514D01*
X23874292Y-8147514D02*
X23893340Y-8137991D01*
X23893340Y-8137991D02*
X23931435Y-8137991D01*
X23931435Y-8137991D02*
X23950483Y-8147514D01*
X24026673Y-8347514D02*
X24036197Y-8337991D01*
X24036197Y-8337991D02*
X24055244Y-8309419D01*
X24055244Y-8309419D02*
X24064768Y-8290372D01*
X24064768Y-8290372D02*
X24074292Y-8261800D01*
X24074292Y-8261800D02*
X24083816Y-8214181D01*
X24083816Y-8214181D02*
X24083816Y-8176086D01*
X24083816Y-8176086D02*
X24074292Y-8128467D01*
X24074292Y-8128467D02*
X24064768Y-8099895D01*
X24064768Y-8099895D02*
X24055244Y-8080848D01*
X24055244Y-8080848D02*
X24036197Y-8052276D01*
X24036197Y-8052276D02*
X24026673Y-8042753D01*
M02*
